<?xml version="1.0" encoding="UTF-8"?>
<svg xmlns="http://www.w3.org/2000/svg" width="820" height="400" viewBox="0 0 820 400" font-family="Helvetica, Arial, sans-serif">
  <title>kshana verification status by oracle kind</title>
  <desc>Generated from src/verification.rs via web/data/verification-matrix.json by tools/gen_validation_figures.py. Do not edit by hand.</desc>
  <rect x="0" y="0" width="820" height="400" fill="#ffffff"/>
  <text x="40" y="50" font-size="24" font-weight="700" fill="#212121">Validated means external oracle &#8212; by construction</text>
  <text x="40" y="78" font-size="15" fill="#555555">Status &#215; oracle kind from verification-matrix.json (n=89). Validated = 39/39 ExternalDataset &#8212; CI-enforced.</text>
  <text x="40" y="146" font-size="17" font-weight="700" fill="#212121">Validated</text>
  <rect x="168" y="120" width="493.43" height="42" fill="#1b7837"/>
  <text x="414.72" y="147" font-size="18" font-weight="700" fill="#ffffff" text-anchor="middle">39</text>
  <text x="673.43" y="147" font-size="18" font-weight="700" fill="#212121">39</text>
  <text x="40" y="208" font-size="17" font-weight="700" fill="#212121">Modelled</text>
  <rect x="168" y="182" width="101.22" height="42" fill="#1b7837"/>
  <text x="218.61" y="209" font-size="18" font-weight="700" fill="#ffffff" text-anchor="middle">8</text>
  <rect x="269.22" y="182" width="88.57" height="42" fill="#b8860b"/>
  <text x="313.5" y="209" font-size="18" font-weight="700" fill="#ffffff" text-anchor="middle">7</text>
  <rect x="357.78" y="182" width="392.22" height="42" fill="#cd853f"/>
  <text x="553.89" y="209" font-size="18" font-weight="700" fill="#ffffff" text-anchor="middle">31</text>
  <text x="762" y="209" font-size="18" font-weight="700" fill="#212121">46</text>
  <text x="40" y="270" font-size="17" font-weight="700" fill="#212121">Partner</text>
  <rect x="168" y="244" width="50.61" height="42" fill="#4a4a8a"/>
  <text x="193.3" y="271" font-size="18" font-weight="700" fill="#ffffff" text-anchor="middle">4</text>
  <text x="230.61" y="271" font-size="18" font-weight="700" fill="#212121">4</text>
  <text x="40" y="316" font-size="14" fill="#555555">Modelled oracle kinds: 8 ExternalDataset, 7 ReferenceImpl, 31 InternalConsistency (total 46 Modelled).</text>
  <rect x="40" y="339" width="16" height="16" fill="#1b7837"/>
  <text x="62" y="352" font-size="13" fill="#212121">ExternalDataset</text>
  <rect x="225" y="339" width="16" height="16" fill="#b8860b"/>
  <text x="247" y="352" font-size="13" fill="#212121">ReferenceImpl</text>
  <rect x="410" y="339" width="16" height="16" fill="#cd853f"/>
  <text x="432" y="352" font-size="13" fill="#212121">InternalConsistency</text>
  <rect x="595" y="339" width="16" height="16" fill="#4a4a8a"/>
  <text x="617" y="352" font-size="13" fill="#212121">NoneKind</text>
  <text x="40" y="386" font-size="15" fill="#212121"><tspan font-weight="700">39</tspan> Validated &#183; <tspan font-weight="700">46</tspan> Modelled &#183; <tspan font-weight="700">4</tspan> Partner &#183; <tspan font-weight="700">89</tspan> total</text>
</svg>
