<?xml version="1.0" encoding="UTF-8"?>
<svg xmlns="http://www.w3.org/2000/svg" width="820" height="400" viewBox="0 0 820 400" font-family="Helvetica, Arial, sans-serif">
  <title>kshana verification status by oracle kind</title>
  <desc>Generated from src/verification.rs via web/data/verification-matrix.json by tools/gen_validation_figures.py. Do not edit by hand.</desc>
  <rect x="0" y="0" width="820" height="400" fill="#ffffff"/>
  <text x="40" y="50" font-size="24" font-weight="700" fill="#212121">Validated means external oracle &#8212; by construction</text>
  <text x="40" y="78" font-size="15" fill="#555555">Status &#215; oracle kind from verification-matrix.json (n=91). Validated = 40/40 ExternalDataset &#8212; CI-enforced.</text>
  <text x="40" y="146" font-size="17" font-weight="700" fill="#212121">Validated</text>
  <rect x="168" y="120" width="495.32" height="42" fill="#1b7837"/>
  <text x="415.66" y="147" font-size="18" font-weight="700" fill="#ffffff" text-anchor="middle">40</text>
  <text x="675.32" y="147" font-size="18" font-weight="700" fill="#212121">40</text>
  <text x="40" y="208" font-size="17" font-weight="700" fill="#212121">Modelled</text>
  <rect x="168" y="182" width="99.06" height="42" fill="#1b7837"/>
  <text x="217.53" y="209" font-size="18" font-weight="700" fill="#ffffff" text-anchor="middle">8</text>
  <rect x="267.06" y="182" width="86.68" height="42" fill="#b8860b"/>
  <text x="310.4" y="209" font-size="18" font-weight="700" fill="#ffffff" text-anchor="middle">7</text>
  <rect x="353.74" y="182" width="396.26" height="42" fill="#cd853f"/>
  <text x="551.87" y="209" font-size="18" font-weight="700" fill="#ffffff" text-anchor="middle">32</text>
  <text x="762" y="209" font-size="18" font-weight="700" fill="#212121">47</text>
  <text x="40" y="270" font-size="17" font-weight="700" fill="#212121">Partner</text>
  <rect x="168" y="244" width="49.53" height="42" fill="#4a4a8a"/>
  <text x="192.77" y="271" font-size="18" font-weight="700" fill="#ffffff" text-anchor="middle">4</text>
  <text x="229.53" y="271" font-size="18" font-weight="700" fill="#212121">4</text>
  <text x="40" y="316" font-size="14" fill="#555555">Modelled oracle kinds: 8 ExternalDataset, 7 ReferenceImpl, 32 InternalConsistency (total 47 Modelled).</text>
  <rect x="40" y="339" width="16" height="16" fill="#1b7837"/>
  <text x="62" y="352" font-size="13" fill="#212121">ExternalDataset</text>
  <rect x="225" y="339" width="16" height="16" fill="#b8860b"/>
  <text x="247" y="352" font-size="13" fill="#212121">ReferenceImpl</text>
  <rect x="410" y="339" width="16" height="16" fill="#cd853f"/>
  <text x="432" y="352" font-size="13" fill="#212121">InternalConsistency</text>
  <rect x="595" y="339" width="16" height="16" fill="#4a4a8a"/>
  <text x="617" y="352" font-size="13" fill="#212121">NoneKind</text>
  <text x="40" y="386" font-size="15" fill="#212121"><tspan font-weight="700">40</tspan> Validated &#183; <tspan font-weight="700">47</tspan> Modelled &#183; <tspan font-weight="700">4</tspan> Partner &#183; <tspan font-weight="700">91</tspan> total</text>
</svg>
