<?xml version="1.0" encoding="UTF-8"?>
<svg xmlns="http://www.w3.org/2000/svg" width="820" height="400" viewBox="0 0 820 400" font-family="Helvetica, Arial, sans-serif">
  <title>kshana verification status by oracle kind</title>
  <desc>Generated from src/verification.rs via web/data/verification-matrix.json by tools/gen_validation_figures.py. Do not edit by hand.</desc>
  <rect x="0" y="0" width="820" height="400" fill="#0c0b08"/>
  <text x="40" y="50" font-size="24" font-weight="700" fill="#e0bd84">Validated means external oracle &#8212; by construction</text>
  <text x="40" y="78" font-size="15" fill="#8c8273">Status &#215; oracle kind from verification-matrix.json (n=110). Validated = 52/52 ExternalDataset &#8212; CI-enforced.</text>
  <text x="40" y="146" font-size="17" font-weight="700" fill="#f1ece2">Validated</text>
  <rect x="168" y="120" width="560.44" height="42" fill="#46b67e"/>
  <text x="448.22" y="147" font-size="18" font-weight="700" fill="#0c0b08" text-anchor="middle">52</text>
  <text x="740.44" y="147" font-size="18" font-weight="700" fill="#e0bd84">52</text>
  <text x="40" y="208" font-size="17" font-weight="700" fill="#f1ece2">Modelled</text>
  <rect x="168" y="182" width="86.22" height="42" fill="#46b67e"/>
  <text x="211.11" y="209" font-size="18" font-weight="700" fill="#0c0b08" text-anchor="middle">8</text>
  <rect x="254.22" y="182" width="75.44" height="42" fill="#c99a3c"/>
  <text x="291.94" y="209" font-size="18" font-weight="700" fill="#0c0b08" text-anchor="middle">7</text>
  <rect x="329.67" y="182" width="420.33" height="42" fill="#d2925e"/>
  <text x="539.83" y="209" font-size="18" font-weight="700" fill="#0c0b08" text-anchor="middle">39</text>
  <text x="762" y="209" font-size="18" font-weight="700" fill="#e0bd84">54</text>
  <text x="40" y="270" font-size="17" font-weight="700" fill="#f1ece2">Partner</text>
  <rect x="168" y="244" width="43.11" height="42" fill="#7c81b8"/>
  <text x="189.56" y="271" font-size="18" font-weight="700" fill="#0c0b08" text-anchor="middle">4</text>
  <text x="223.11" y="271" font-size="18" font-weight="700" fill="#e0bd84">4</text>
  <text x="40" y="316" font-size="14" fill="#8c8273">Modelled oracle kinds: 8 ExternalDataset, 7 ReferenceImpl, 39 InternalConsistency (total 54 Modelled).</text>
  <rect x="40" y="339" width="16" height="16" fill="#46b67e"/>
  <text x="62" y="352" font-size="13" fill="#f1ece2">ExternalDataset</text>
  <rect x="225" y="339" width="16" height="16" fill="#c99a3c"/>
  <text x="247" y="352" font-size="13" fill="#f1ece2">ReferenceImpl</text>
  <rect x="410" y="339" width="16" height="16" fill="#d2925e"/>
  <text x="432" y="352" font-size="13" fill="#f1ece2">InternalConsistency</text>
  <rect x="595" y="339" width="16" height="16" fill="#7c81b8"/>
  <text x="617" y="352" font-size="13" fill="#f1ece2">NoneKind</text>
  <text x="40" y="386" font-size="15" fill="#f1ece2"><tspan font-weight="700">52</tspan> Validated &#183; <tspan font-weight="700">54</tspan> Modelled &#183; <tspan font-weight="700">4</tspan> Partner &#183; <tspan font-weight="700">110</tspan> total</text>
</svg>
