<?xml version="1.0" encoding="UTF-8"?>
<svg xmlns="http://www.w3.org/2000/svg" width="820" height="400" viewBox="0 0 820 400" font-family="Helvetica, Arial, sans-serif">
  <title>kshana verification status by oracle kind</title>
  <desc>Generated from src/verification.rs via web/data/verification-matrix.json by tools/gen_validation_figures.py. Do not edit by hand.</desc>
  <rect x="0" y="0" width="820" height="400" fill="#0c0b08"/>
  <text x="40" y="50" font-size="24" font-weight="700" fill="#e0bd84">Validated means external oracle &#8212; by construction</text>
  <text x="40" y="78" font-size="15" fill="#8c8273">Status &#215; oracle kind from verification-matrix.json (n=198). Validated = 74/74 ExternalDataset &#8212; CI-enforced.</text>
  <text x="40" y="146" font-size="17" font-weight="700" fill="#f1ece2">Validated</text>
  <rect x="168" y="120" width="358.9" height="42" fill="#46b67e"/>
  <text x="347.45" y="147" font-size="18" font-weight="700" fill="#0c0b08" text-anchor="middle">74</text>
  <text x="538.9" y="147" font-size="18" font-weight="700" fill="#e0bd84">74</text>
  <text x="40" y="208" font-size="17" font-weight="700" fill="#f1ece2">Modelled</text>
  <rect x="168" y="182" width="58.2" height="42" fill="#46b67e"/>
  <text x="197.1" y="209" font-size="18" font-weight="700" fill="#0c0b08" text-anchor="middle">12</text>
  <rect x="226.2" y="182" width="87.3" height="42" fill="#c99a3c"/>
  <text x="269.85" y="209" font-size="18" font-weight="700" fill="#0c0b08" text-anchor="middle">18</text>
  <rect x="313.5" y="182" width="436.5" height="42" fill="#d2925e"/>
  <text x="531.75" y="209" font-size="18" font-weight="700" fill="#0c0b08" text-anchor="middle">90</text>
  <text x="762" y="209" font-size="18" font-weight="700" fill="#e0bd84">120</text>
  <text x="40" y="270" font-size="17" font-weight="700" fill="#f1ece2">Partner</text>
  <rect x="168" y="244" width="19.4" height="42" fill="#7c81b8"/>
  <text x="199.4" y="271" font-size="18" font-weight="700" fill="#e0bd84">4</text>
  <text x="40" y="316" font-size="14" fill="#8c8273">Modelled oracle kinds: 12 ExternalDataset, 18 ReferenceImpl, 90 InternalConsistency (total 120 Modelled).</text>
  <rect x="40" y="339" width="16" height="16" fill="#46b67e"/>
  <text x="62" y="352" font-size="13" fill="#f1ece2">ExternalDataset</text>
  <rect x="225" y="339" width="16" height="16" fill="#c99a3c"/>
  <text x="247" y="352" font-size="13" fill="#f1ece2">ReferenceImpl</text>
  <rect x="410" y="339" width="16" height="16" fill="#d2925e"/>
  <text x="432" y="352" font-size="13" fill="#f1ece2">InternalConsistency</text>
  <rect x="595" y="339" width="16" height="16" fill="#7c81b8"/>
  <text x="617" y="352" font-size="13" fill="#f1ece2">NoneKind</text>
  <text x="40" y="386" font-size="15" fill="#f1ece2"><tspan font-weight="700">74</tspan> Validated &#183; <tspan font-weight="700">120</tspan> Modelled &#183; <tspan font-weight="700">4</tspan> Partner &#183; <tspan font-weight="700">198</tspan> total</text>
</svg>
