<svg xmlns="http://www.w3.org/2000/svg" width="1280" height="820" viewBox="0 0 1280 820" role="img" aria-labelledby="t d"><title id="t">Training NMEA: true track against reported track</title><desc id="d">Training stream from the scenario coastal-drag-off (engine v0.35.0, seed 22, 25 minutes at one fix per 10 s of the instructor log). A map shows the vessel's true track and the track the receiver reports: they agree until a scripted position drag-off begins at 421 s, the reported track then walks away from the true one while the receiver keeps a valid fix, and it steps back when the event ends at 1140 s. Beside it, the distance between the two tracks over time, and the mean carrier-to-noise density the receiver reports, which rises to one raised level while the event lasts. Synthetic training data generated by Kshana. For training and testing only: never feed this stream to a vessel's live navigation systems. Advisory software, not type-approved navigation equipment (IEC 61108, IEC 61162): the operator remains responsible for the navigation of the vessel. Positions, dates and tracks are invented.</desc><defs><pattern id="dots1" width="22" height="22" patternUnits="userSpaceOnUse"><circle cx="11" cy="11" r="1.1" fill="#D1D6E1"/></pattern><path id="m50" d="M68 0V710H196L447 107L429 103V710H532V0H404L153 603L171 608V0Z"/><path id="m51" d="M260 86 138 594 149 595V0H48V710H188L320 171H280L412 710H552V0H451V595L462 594L340 86Z"/><path id="m52" d="M88 0V710H524V611H193V404H512V308H193V99H532V0Z"/><path id="m53" d="M24 0 232 710H368L576 0H467L300 601L133 0ZM140 185 172 282H428L460 185Z"/><path id="m54" d="M248 0V611H40V710H560V611H352V0Z"/><path id="m55" d="M67 0V710H288Q401 710 466 653Q530 596 530 498Q530 447 508 408Q485 369 448 347Q412 325 371 322L367 334Q441 331 478 301Q514 270 520 202L538 0H433L417 182Q414 217 402 238Q390 259 365 268Q340 277 296 277H172V0ZM172 375H286Q352 375 387 406Q422 437 422 493Q422 550 387 581Q352 611 286 611H172Z"/><path id="m56" d="M78 0V99H248V611H78V710H522V611H352V99H522V0Z"/><path id="m57" d="M299 -16Q222 -16 163 26Q104 68 70 151Q36 233 36 354Q36 469 68 552Q100 635 159 681Q219 726 302 726Q369 726 420 697Q471 668 506 615Q540 562 555 491L446 484Q431 549 395 588Q360 627 303 627Q253 627 217 596Q182 564 163 503Q145 442 145 354Q145 267 164 207Q183 146 220 114Q256 83 308 83Q354 83 387 106Q420 130 438 172Q457 215 459 271H303V362H556V0H471L466 163L493 164Q482 113 458 72Q433 31 394 8Q355 -16 299 -16Z"/><path id="m58" d="M232 238V369H368V238Z"/><path id="m59" d="M303 -16Q217 -16 158 29Q98 74 67 157Q36 240 36 354Q36 469 67 552Q98 635 158 681Q217 726 303 726Q400 726 466 662Q533 598 554 483L444 477Q429 551 391 590Q354 628 303 628Q251 628 216 596Q181 564 163 503Q145 442 145 354Q145 267 163 207Q181 146 216 114Q251 82 303 82Q358 82 397 124Q436 166 449 247L558 242Q540 120 473 52Q406 -16 303 -16Z"/><path id="m5a" d="M300 -16Q215 -16 156 27Q98 70 67 153Q36 236 36 354Q36 474 67 557Q98 640 156 683Q215 726 300 726Q385 726 444 683Q503 640 533 557Q564 474 564 354Q564 236 533 153Q503 70 444 27Q385 -16 300 -16ZM300 82Q350 82 385 112Q419 142 437 203Q455 264 455 354Q455 444 437 505Q419 567 385 597Q350 628 300 628Q250 628 215 597Q181 567 163 505Q145 444 145 354Q145 264 163 203Q181 142 215 112Q250 82 300 82Z"/><path id="m5b" d="M309 -16Q232 -16 175 15Q117 46 83 101Q49 157 43 231L151 238Q158 187 179 152Q200 117 234 100Q268 82 313 82Q357 82 387 93Q417 105 433 127Q449 149 449 181Q449 213 434 236Q419 259 380 278Q341 298 266 319Q193 339 147 365Q101 390 80 427Q59 465 59 520Q59 581 88 628Q116 674 170 700Q223 726 298 726Q372 726 425 697Q477 668 508 616Q538 565 545 496L437 490Q432 531 414 562Q397 593 367 611Q337 628 295 628Q236 628 202 600Q167 572 167 525Q167 495 181 474Q195 454 230 438Q265 423 328 405Q413 382 463 352Q513 321 535 280Q557 239 557 181Q557 123 526 78Q495 33 440 9Q384 -16 309 -16Z"/><path id="m5c" d="M98 0V710H203V40L139 99H542V0Z"/><path id="m5d" d="M118 245V338H482V245Z"/><path id="m5e" d="M83 0V710H256Q350 710 420 669Q489 627 526 548Q564 468 564 354Q564 240 526 161Q489 82 420 41Q350 0 256 0ZM188 99H253Q350 99 402 163Q455 226 455 354Q455 482 402 547Q350 611 253 611H188Z"/><path id="m5f" d="M98 0V710H542V613H157L203 659V395H524V299H203V0Z"/><path id="s610" d="M227 0V597H11V710H572V597H357V0Z"/><path id="s611" d="M70 0V710H198V412L182 412Q190 458 214 488Q238 517 273 532Q308 546 350 546Q409 546 450 520Q490 495 510 449Q531 403 531 343V0H403V312Q403 377 381 410Q359 442 312 442Q260 442 229 408Q198 374 198 309V0Z"/><path id="s612" d="M301 -12Q221 -12 162 22Q103 57 71 120Q39 183 39 267Q39 351 71 414Q103 476 162 511Q220 546 298 546Q374 546 432 512Q489 478 520 414Q551 350 551 260V231H172Q176 161 210 126Q245 90 302 90Q345 90 373 110Q402 129 413 164L544 156Q522 78 458 33Q393 -12 301 -12ZM172 317H419Q415 382 382 414Q349 445 298 445Q247 445 213 412Q180 379 172 317Z"/><path id="s613" d="M284 0Q204 0 166 37Q129 74 129 153V659H257V165Q257 128 273 113Q289 99 323 99H398V0ZM45 435V534H398V435Z"/><path id="s614" d="M70 0V534H190L195 386L184 388Q196 465 230 500Q263 534 321 534H370V424H320Q279 424 252 412Q225 400 212 375Q198 349 198 308V0Z"/><path id="s615" d="M246 -12Q165 -12 117 42Q70 95 70 190V534H198V222Q198 155 221 123Q243 92 289 92Q341 92 369 127Q398 161 398 227V534H526V0H409L406 147L422 142Q410 66 365 27Q320 -12 246 -12Z"/><path id="s616" d="M225 -12Q141 -12 90 26Q39 65 39 134Q39 203 82 242Q125 281 213 298L390 333Q390 390 364 418Q338 447 287 447Q241 447 214 425Q188 404 178 364L48 370Q64 455 126 500Q188 546 287 546Q401 546 460 489Q518 431 518 324V130Q518 109 526 101Q533 93 548 93H565V0Q559 -2 545 -3Q532 -4 518 -4Q485 -4 459 6Q433 17 419 43Q405 70 405 116L416 108Q408 73 381 45Q355 18 315 3Q275 -12 225 -12ZM251 81Q294 81 325 98Q356 115 373 145Q390 175 390 216V246L252 218Q209 209 191 191Q172 174 172 146Q172 115 192 98Q213 81 251 81Z"/><path id="s617" d="M302 -12Q222 -12 163 22Q104 57 72 120Q39 183 39 267Q39 351 72 414Q104 476 163 511Q222 546 302 546Q370 546 423 522Q476 498 510 453Q543 409 551 345L419 338Q411 389 380 415Q348 442 302 442Q240 442 206 396Q172 349 172 267Q172 184 206 138Q240 92 302 92Q349 92 380 119Q412 146 419 203L551 197Q543 133 510 86Q477 39 424 14Q371 -12 302 -12Z"/><path id="s618" d="M70 0V710H198V293L417 534H575L366 312L582 0H438L282 236L198 147V0Z"/><path id="s619" d="M48 -158 100 0H39V140H185V16L119 -158Z"/><path id="s61a" d="M70 0V534H186L191 384L176 390Q184 446 209 480Q234 514 270 530Q306 546 349 546Q408 546 449 520Q489 494 510 449Q531 403 531 343V0H403V302Q403 347 394 378Q385 409 365 426Q344 442 310 442Q259 442 229 406Q198 370 198 302V0Z"/><path id="s61b" d="M260 -12Q192 -12 142 22Q93 56 66 119Q39 182 39 267Q39 352 66 415Q93 478 143 512Q193 546 260 546Q316 546 359 523Q401 500 423 458V710H551V0H429L426 79Q404 36 360 12Q316 -12 260 -12ZM299 92Q339 92 366 112Q394 132 408 172Q423 211 423 267Q423 324 408 363Q394 402 366 422Q339 442 299 442Q241 442 206 395Q172 349 172 267Q172 187 206 139Q241 92 299 92Z"/><path id="s61c" d="M302 -12Q223 -12 164 22Q104 57 72 120Q39 183 39 267Q39 352 72 414Q104 477 164 511Q223 546 302 546Q381 546 440 511Q499 477 531 414Q564 352 564 267Q564 183 531 120Q499 57 440 22Q381 -12 302 -12ZM302 92Q364 92 397 138Q431 184 431 267Q431 349 397 396Q364 442 302 442Q240 442 206 396Q172 349 172 267Q172 184 206 138Q240 92 302 92Z"/><path id="s61d" d="M70 0V534H198V0ZM68 605V719H201V605Z"/><path id="s61e" d="M216 0 21 534H156L292 129L428 534H563L368 0Z"/><path id="s61f" d="M70 -150V534H193L196 420L183 426Q203 485 249 515Q294 546 355 546Q431 546 481 508Q532 470 557 407Q582 344 582 267Q582 190 557 127Q531 64 481 26Q430 -12 354 -12Q314 -12 280 2Q245 16 221 42Q196 68 186 103L198 113V-150ZM324 92Q382 92 416 138Q449 185 449 267Q449 349 416 396Q382 442 324 442Q285 442 257 423Q229 403 214 364Q198 325 198 267Q198 209 213 170Q228 131 257 111Q285 92 324 92Z"/><path id="s620" d="M287 -12Q206 -12 152 11Q99 34 71 75Q43 116 39 168L170 174Q177 132 204 109Q231 86 288 86Q333 86 356 100Q380 115 380 146Q380 164 372 176Q363 188 339 197Q314 206 267 215Q186 229 140 250Q94 270 76 301Q57 332 57 378Q57 453 114 499Q172 546 283 546Q360 546 410 522Q459 497 484 457Q510 416 514 366L384 360Q383 385 372 405Q361 425 339 437Q317 448 281 448Q236 448 213 430Q189 412 189 382Q189 361 199 347Q208 333 231 324Q254 316 294 309Q376 297 424 276Q472 255 493 224Q513 192 513 148Q513 71 452 30Q390 -12 287 -12Z"/><path id="s621" d="M39 0V140H185V0Z"/><path id="m422" d="M310 -12Q241 -12 191 12Q141 36 112 76Q84 117 80 167L168 173Q176 124 212 96Q247 68 310 68Q369 68 402 85Q434 102 434 138Q434 161 423 176Q412 191 382 202Q352 212 294 222Q217 236 174 256Q130 277 112 308Q94 339 94 382Q94 428 117 464Q140 500 185 521Q230 542 295 542Q361 542 406 518Q450 495 476 456Q502 418 510 372L422 366Q416 394 400 416Q383 437 356 450Q330 462 294 462Q236 462 208 439Q180 416 180 382Q180 355 193 339Q206 323 235 314Q264 304 312 296Q394 283 439 262Q484 242 502 212Q520 182 520 138Q520 91 492 58Q465 24 418 6Q370 -12 310 -12Z"/><path id="m423" d="M306 -12Q231 -12 176 22Q122 56 92 118Q63 181 63 265Q63 349 92 411Q122 473 176 508Q229 542 302 542Q371 542 424 510Q477 477 507 415Q537 353 537 264V239H151Q156 154 196 111Q237 68 306 68Q358 68 392 92Q425 117 438 157L528 150Q507 79 448 34Q390 -12 306 -12ZM151 313H445Q439 390 400 426Q361 462 302 462Q241 462 202 424Q162 387 151 313Z"/><path id="m424" d="M267 -12Q197 -12 146 22Q95 56 68 118Q40 180 40 265Q40 350 68 412Q95 474 146 508Q197 542 267 542Q310 542 344 526Q379 510 402 486Q426 462 435 437L426 416V710H510V0H434L429 120L442 105Q430 69 404 42Q379 16 344 2Q309 -12 267 -12ZM272 68Q320 68 354 92Q389 116 408 160Q426 205 426 265Q426 327 408 371Q389 415 354 438Q319 462 270 462Q205 462 166 410Q128 357 128 265Q128 174 166 121Q205 68 272 68Z"/><path id="m425" d="M50 0Q50 75 74 136Q97 196 156 251Q216 306 322 362Q371 388 401 410Q431 432 445 457Q459 482 459 518Q459 555 443 582Q427 610 396 626Q364 642 317 642Q242 642 198 603Q155 564 144 492L54 498Q66 602 134 664Q202 726 317 726Q390 726 442 700Q494 674 522 628Q549 581 549 520Q549 466 531 426Q513 387 470 353Q428 319 354 280Q290 246 246 211Q203 176 180 144Q158 111 156 84H550V0Z"/><path id="m426" d="M238 243V365H362V243Z"/><path id="m427" d="M298 -16Q229 -16 178 9Q126 34 96 79Q65 124 60 183L150 189Q158 129 198 98Q237 68 298 68Q367 68 408 110Q450 153 450 228Q450 278 432 314Q414 351 380 370Q347 390 300 390Q258 390 220 370Q181 349 164 311H72L119 710H497V626H198L166 364L150 380Q166 411 192 431Q218 451 250 462Q281 472 312 472Q380 472 432 440Q483 409 512 354Q540 299 540 228Q540 157 509 102Q478 46 424 15Q369 -16 298 -16Z"/><path id="m428" d="M40 0V530H117L120 412L110 414Q119 473 148 508Q178 542 224 542Q271 542 296 508Q322 474 328 408H318Q327 470 358 506Q390 542 438 542Q502 542 531 498Q560 454 560 352V0H476V340Q476 411 461 440Q446 468 414 468Q393 468 377 454Q361 441 352 412Q342 383 342 338V0H258V340Q258 408 244 438Q229 468 196 468Q175 468 159 454Q143 441 134 412Q124 383 124 338V0Z"/><path id="m429" d="M80 0V74H293V497L334 456H90V530H377V74H560V0H377H293ZM285 613V711H373V613Z"/><path id="m42a" d="M84 0V530H161L164 395L154 404Q164 451 190 482Q217 512 254 527Q291 542 332 542Q393 542 434 515Q474 488 495 442Q516 397 516 341V0H432V317Q432 391 403 430Q374 468 314 468Q273 468 240 450Q207 433 188 400Q168 366 168 317V0Z"/><path id="m42b" d="M247 0 50 530H142L300 86L458 530H550L353 0Z"/><path id="m42c" d="M378 0Q301 0 263 36Q225 72 225 146V654H309V146Q309 109 326 92Q343 74 378 74H520V0ZM50 456V530H520V456Z"/><path id="m42d" d="M80 -150V530H158L160 410L148 416Q168 478 214 510Q261 542 322 542Q401 542 452 503Q502 464 526 401Q550 338 550 265Q550 192 526 129Q502 66 452 27Q401 -12 322 -12Q281 -12 246 2Q210 16 186 41Q161 66 152 100L164 114V-150ZM314 68Q383 68 422 120Q462 172 462 265Q462 358 422 410Q383 462 314 462Q268 462 234 440Q201 418 182 374Q164 330 164 265Q164 200 182 156Q200 112 234 90Q268 68 314 68Z"/><path id="m42e" d="M300 -12Q227 -12 172 22Q118 56 88 118Q58 181 58 265Q58 350 88 412Q118 474 172 508Q227 542 300 542Q373 542 428 508Q482 474 512 412Q542 350 542 265Q542 181 512 118Q482 56 428 22Q373 -12 300 -12ZM300 68Q373 68 414 120Q454 173 454 265Q454 357 414 410Q373 462 300 462Q227 462 186 410Q146 357 146 265Q146 173 186 120Q227 68 300 68Z"/><path id="m52f" d="M248 0V292L37 710H153L300 400L447 710H563L353 292V0Z"/><path id="s530" d="M86 0V710H223L551 131V710H659V0H517L194 566V0Z"/><path id="s531" d="M294 -12Q216 -12 160 22Q103 56 72 119Q42 182 42 266Q42 350 72 412Q103 475 159 509Q215 544 291 544Q363 544 418 511Q473 477 504 414Q534 351 534 262V235H152Q156 157 194 118Q231 79 295 79Q342 79 373 101Q404 123 416 160L526 153Q505 79 444 33Q382 -12 294 -12ZM152 315H422Q417 386 381 420Q346 454 291 454Q234 454 198 418Q161 383 152 315Z"/><path id="s532" d="M216 0 22 532H135L280 108L425 532H539L344 0Z"/><path id="s533" d="M75 0V532H172L176 391L167 394Q178 466 212 499Q245 532 302 532H353V437H302Q262 437 235 424Q208 411 195 384Q181 357 181 314V0Z"/><path id="s534" d="M129 0V566Q129 632 166 671Q203 710 281 710H376V623H296Q265 623 250 607Q235 590 235 560V0ZM55 445V532H368V445Z"/><path id="s535" d="M264 -12Q196 -12 145 22Q95 56 68 119Q42 181 42 266Q42 351 69 414Q96 476 146 510Q196 544 264 544Q319 544 362 521Q405 498 427 457V710H533V0H434L431 80Q409 37 365 12Q320 -12 264 -12ZM292 80Q335 80 365 102Q395 124 411 166Q427 208 427 266Q427 326 411 367Q395 409 365 430Q335 452 292 452Q228 452 190 402Q152 353 152 266Q152 180 190 130Q228 80 292 80Z"/><path id="s536" d="M279 0Q203 0 167 35Q131 70 131 144V657H237V152Q237 115 253 101Q269 87 302 87H378V0ZM50 445V532H378V445Z"/><path id="s537" d="M75 0V710H181V412L168 414Q177 459 201 487Q225 516 260 530Q295 544 337 544Q395 544 435 518Q475 493 495 447Q516 401 516 342V0H410V314Q410 386 385 420Q361 455 309 455Q251 455 216 419Q181 382 181 312V0Z"/><path id="s538" d="M75 0V532H181V0ZM73 609V715H183V609Z"/><path id="s539" d="M280 -12Q203 -12 151 11Q100 34 73 75Q46 115 42 168L151 173Q159 129 188 103Q217 77 280 77Q330 77 356 93Q383 109 383 144Q383 164 374 177Q365 190 339 199Q313 209 262 218Q184 233 140 253Q97 274 79 305Q61 335 61 379Q61 452 116 498Q171 544 275 544Q348 544 395 520Q442 495 466 455Q490 415 495 369L386 363Q385 388 372 409Q360 430 336 443Q312 455 273 455Q221 455 196 435Q171 415 171 383Q171 359 181 344Q191 329 216 319Q241 310 283 303Q364 290 410 270Q456 249 475 219Q493 188 493 145Q493 70 435 29Q376 -12 280 -12Z"/><path id="s53a" d="M224 -12Q141 -12 91 26Q42 64 42 133Q42 202 83 241Q125 279 212 296L395 331Q395 393 366 424Q337 454 280 454Q229 454 200 431Q171 409 160 365L51 372Q66 452 126 498Q185 544 280 544Q388 544 444 487Q501 429 501 325V118Q501 99 508 91Q514 84 529 84H548V0Q543 -1 532 -2Q521 -3 509 -3Q475 -3 450 8Q426 19 414 44Q402 70 402 113L413 108Q405 73 378 46Q352 19 312 3Q271 -12 224 -12ZM241 72Q289 72 323 90Q357 109 376 142Q395 175 395 217V251L239 221Q191 212 172 192Q152 173 152 143Q152 109 175 90Q199 72 241 72Z"/><path id="s53b" d="M75 0V532H172L175 400L163 404Q172 448 195 479Q217 510 250 527Q283 544 322 544Q390 544 433 506Q476 467 487 400L470 400Q479 447 501 479Q522 510 556 527Q590 544 633 544Q689 544 729 521Q768 497 789 452Q809 407 809 342V0H703V316Q703 385 678 420Q653 455 602 455Q569 455 544 438Q519 421 506 389Q492 357 492 312V0H391V312Q391 380 369 417Q346 455 292 455Q258 455 234 438Q209 421 195 389Q181 356 181 312V0Z"/><path id="s53c" d="M294 -12Q218 -12 161 22Q104 56 73 119Q42 182 42 266Q42 351 73 413Q104 475 161 510Q218 544 294 544Q370 544 427 510Q484 475 515 413Q546 351 546 266Q546 182 515 119Q484 56 427 22Q370 -12 294 -12ZM294 80Q362 80 399 129Q436 179 436 266Q436 353 399 403Q362 452 294 452Q227 452 189 403Q152 353 152 266Q152 179 189 129Q227 80 294 80Z"/><path id="s53d" d="M191 0Q139 0 107 27Q75 54 75 113V710H181V123Q181 105 191 96Q200 87 218 87H260V0Z"/><path id="s53e" d="M60 440 44 629V710H142V629L127 440Z"/><path id="s53f" d="M75 0V532H172L176 390L163 397Q172 449 197 481Q222 513 258 529Q294 544 336 544Q396 544 436 518Q475 491 496 446Q516 400 516 342V0H410V310Q410 357 400 389Q390 421 367 438Q344 455 307 455Q251 455 216 418Q181 381 181 310V0Z"/><path id="s540" d="M289 -162Q226 -162 178 -143Q130 -124 99 -89Q68 -55 57 -9L167 -2Q178 -35 206 -54Q233 -74 289 -74Q355 -74 390 -46Q426 -18 426 39V116Q407 75 365 51Q323 27 271 27Q204 27 152 60Q100 93 71 151Q42 209 42 285Q42 362 70 420Q99 478 150 511Q202 544 267 544Q324 544 368 518Q411 492 430 448V532H532V42Q532 -24 502 -69Q473 -115 418 -138Q364 -162 289 -162ZM288 117Q350 117 388 162Q425 207 426 286Q427 338 410 376Q393 413 362 434Q330 454 288 454Q223 454 187 409Q152 363 152 286Q152 208 188 163Q225 117 288 117Z"/><path id="s541" d="M105 -150V-63H170Q197 -63 210 -55Q223 -47 230 -28L247 16H214L22 532H134L280 114L419 532H532L320 -62Q304 -108 272 -129Q241 -150 185 -150Z"/><path id="s542" d="M42 0V126H171V0Z"/><path id="m543" d="M80 0V532H173L176 393L165 401Q175 450 200 482Q226 513 263 529Q300 544 342 544Q402 544 441 517Q480 491 500 445Q520 400 520 343V0H419V317Q419 386 393 421Q366 456 313 456Q276 456 246 440Q217 424 199 392Q181 361 181 315V0Z"/><path id="m544" d="M36 0V532H124L128 412L117 415Q127 476 157 510Q186 544 231 544Q279 544 303 510Q328 476 334 409H323Q332 473 364 509Q396 544 444 544Q507 544 535 501Q564 457 564 359V0H466V342Q466 406 452 431Q439 456 411 456Q393 456 379 444Q364 432 356 406Q348 381 348 340V0H252V342Q252 404 240 430Q227 456 198 456Q179 456 165 444Q151 432 143 406Q134 381 134 340V0Z"/><path id="m545" d="M305 -12Q230 -12 174 22Q119 56 88 119Q58 182 58 266Q58 350 88 412Q119 474 173 509Q228 544 302 544Q372 544 426 511Q481 477 511 415Q542 352 542 264V236H163Q168 160 206 121Q243 81 306 81Q353 81 384 104Q415 126 427 162L532 155Q509 79 450 34Q391 -12 305 -12ZM164 317H432Q427 385 391 418Q355 451 301 451Q245 451 210 417Q174 383 164 317Z"/><path id="m546" d="M228 -12Q178 -12 138 6Q98 24 74 57Q51 90 51 134Q51 202 93 240Q134 278 218 294L390 330Q390 392 363 423Q336 454 282 454Q232 454 204 431Q176 408 166 367L60 374Q75 450 133 497Q191 544 282 544Q384 544 438 486Q491 428 491 326V116Q491 98 499 90Q507 83 522 83H552V0Q546 -1 533 -2Q519 -3 506 -3Q470 -3 445 9Q420 21 407 47Q395 72 393 111H409Q403 76 378 48Q353 20 314 4Q275 -12 228 -12ZM243 71Q291 71 324 88Q357 105 373 136Q390 167 390 209V250L242 220Q194 211 175 192Q156 173 156 142Q156 109 179 90Q202 71 243 71Z"/><path id="m547" d="M308 -12Q237 -12 186 12Q135 36 107 77Q79 117 75 167L178 173Q186 130 218 104Q250 79 309 79Q364 79 393 94Q422 109 422 141Q422 161 412 174Q402 188 374 197Q347 207 294 217Q215 232 170 253Q126 273 107 305Q88 336 88 381Q88 427 111 464Q135 501 181 522Q227 544 295 544Q366 544 412 520Q458 495 484 456Q510 417 517 371L414 365Q408 391 393 410Q378 430 353 441Q328 453 295 453Q242 453 217 432Q192 411 192 381Q192 357 204 342Q216 328 244 318Q272 309 320 300Q401 287 445 266Q489 246 507 216Q525 186 525 142Q525 94 498 59Q470 25 422 7Q373 -12 308 -12Z"/><path id="m548" d="M312 -12Q238 -12 181 22Q125 57 94 120Q64 182 64 266Q64 350 94 412Q125 474 181 509Q238 544 312 544Q373 544 421 521Q469 499 500 456Q531 413 541 353L438 346Q426 397 393 424Q360 451 313 451Q246 451 207 401Q169 352 169 266Q169 180 207 131Q246 81 313 81Q361 81 395 110Q430 138 441 194L544 188Q534 127 502 82Q470 38 422 13Q373 -12 312 -12Z"/><path id="m549" d="M84 0V85H265L219 39V493L265 447H84V532H299L308 384L299 391Q306 462 340 497Q373 532 433 532H546V444H437Q399 444 373 430Q347 415 333 387Q320 358 320 316V39L274 85H486V0Z"/><path id="m54a" d="M76 0V85H284V493L331 447H86V532H386V85H564V0H386H284ZM278 609V714H382V609Z"/><path id="m54b" d="M300 -12Q226 -12 171 22Q115 56 85 119Q54 182 54 266Q54 351 85 414Q115 476 171 510Q226 544 300 544Q374 544 429 510Q485 476 515 414Q546 351 546 266Q546 182 515 119Q485 56 429 22Q374 -12 300 -12ZM300 81Q367 81 404 130Q440 179 440 266Q440 353 404 402Q367 451 300 451Q233 451 196 402Q160 353 160 266Q160 179 196 130Q233 81 300 81Z"/><path id="m44c" d="M314 -12Q240 -12 185 22Q130 56 100 118Q70 181 70 265Q70 349 100 411Q130 473 185 508Q240 542 314 542Q373 542 419 520Q465 499 495 458Q525 417 536 358L448 352Q436 405 400 434Q365 462 314 462Q241 462 200 410Q158 357 158 265Q158 173 200 120Q241 68 314 68Q365 68 402 98Q440 128 452 188L540 182Q529 123 498 80Q467 36 420 12Q373 -12 314 -12Z"/><path id="m44d" d="M230 -12Q180 -12 140 6Q100 24 77 56Q54 89 54 132Q54 200 94 238Q135 275 222 292L400 328Q400 396 370 429Q339 462 282 462Q227 462 196 438Q165 413 153 367L64 374Q79 449 136 496Q192 542 282 542Q378 542 431 484Q484 427 484 326V106Q484 88 492 81Q500 74 516 74H550V0Q544 -1 531 -2Q518 -2 506 -2Q472 -2 448 9Q425 20 413 44Q401 69 400 108H416Q409 74 382 46Q356 19 316 4Q276 -12 230 -12ZM238 62Q292 62 328 80Q364 99 382 132Q400 166 400 210V256L238 224Q184 214 163 194Q142 173 142 140Q142 103 168 82Q193 62 238 62Z"/><path id="m44e" d="M273 30V568Q273 600 255 618Q237 636 205 636H80V710H209Q282 710 320 672Q357 635 357 562V30ZM60 0V74H540V0Z"/><path id="m44f" d="M120 252V331H480V252Z"/><path id="m450" d="M90 0V74H269L228 34V497L269 456H90V530H298L306 388L298 394Q306 463 340 496Q374 530 431 530H540V454H432Q393 454 366 438Q340 423 326 394Q312 364 312 320V34L272 74H480V0Z"/><path id="m451" d="M297 -162Q240 -162 194 -143Q148 -124 117 -89Q86 -54 75 -8L163 -2Q175 -39 206 -60Q236 -82 297 -82Q369 -82 408 -53Q446 -24 446 34V120Q427 78 385 53Q343 28 291 28Q224 28 172 61Q119 94 90 152Q60 210 60 285Q60 361 89 418Q118 476 170 509Q221 542 287 542Q343 542 388 516Q432 490 450 446V530H530V36Q530 -26 502 -70Q474 -115 422 -138Q370 -162 297 -162ZM295 108Q363 108 404 156Q445 203 446 285Q447 340 428 380Q410 419 376 440Q341 462 295 462Q225 462 186 414Q148 367 148 285Q148 203 188 156Q227 108 295 108Z"/><path id="m452" d="M212 0V564Q212 635 248 672Q285 710 360 710H530V636H360Q329 636 312 616Q296 597 296 564V0ZM70 456V530H520V456Z"/><path id="m553" d="M56 0V710H161V368L114 406H486L439 368V710H544V0H439V346L486 308H114L161 346V0Z"/><path id="m554" d="M376 0Q295 0 255 38Q216 75 216 153V657H317V158Q317 121 335 103Q352 85 387 85H524V0ZM48 447V532H524V447Z"/><path id="m555" d="M258 -12Q190 -12 140 22Q90 55 63 118Q36 180 36 266Q36 352 63 414Q90 477 140 510Q190 544 258 544Q302 544 337 528Q372 512 395 487Q418 462 427 433L417 412V710H518V0H424L419 127L432 110Q421 74 396 46Q372 18 337 3Q302 -12 258 -12ZM275 81Q319 81 350 104Q382 126 400 167Q417 209 417 266Q417 325 400 366Q382 407 350 429Q318 451 273 451Q212 451 177 402Q142 353 142 266Q142 180 177 130Q212 81 275 81Z"/><path id="m556" d="M297 -162Q237 -162 190 -143Q143 -124 112 -89Q82 -54 70 -8L176 -1Q187 -34 215 -53Q243 -72 297 -72Q364 -72 399 -44Q435 -16 435 39V117Q416 76 376 52Q335 28 282 28Q216 28 164 61Q112 94 83 151Q54 209 54 284Q54 362 83 420Q111 478 162 511Q213 544 278 544Q334 544 376 519Q419 493 438 449L439 532H536V46Q536 -21 507 -67Q478 -114 425 -138Q371 -162 297 -162ZM296 118Q358 118 396 162Q434 206 435 285Q436 339 418 376Q401 414 370 434Q338 454 296 454Q231 454 195 409Q160 365 160 285Q160 206 196 162Q233 118 296 118Z"/><path id="m557" d="M208 0V560Q208 634 245 672Q282 710 360 710H532V625H370Q340 625 324 607Q309 590 309 559V0ZM68 447V532H524V447Z"/><path id="m558" d="M342 -12Q298 -12 263 3Q228 18 204 46Q180 74 168 110L181 127L176 0H82V710H183V412L173 433Q182 462 205 487Q228 512 264 528Q299 544 342 544Q410 544 460 510Q510 477 537 414Q564 352 564 266Q564 180 537 118Q510 55 460 22Q410 -12 342 -12ZM325 81Q388 81 423 130Q458 180 458 266Q458 353 423 402Q388 451 327 451Q282 451 250 429Q218 407 200 366Q183 325 183 266Q183 209 201 167Q218 126 250 104Q281 81 325 81Z"/><path id="m559" d="M237 0 45 532H154L300 107L446 532H555L363 0Z"/><path id="m45a" d="M257 0V626H40V710H560V626H343V0Z"/><path id="m45b" d="M263 -12Q184 -12 137 42Q90 95 90 189V530H174V212Q174 135 202 98Q229 62 286 62Q348 62 384 102Q420 143 420 214V530H504V0H424V131L437 124Q421 59 376 24Q331 -12 263 -12Z"/><path id="m45c" d="M90 0V710H174V245L432 530H544L335 305L554 0H452L278 248L174 138V0Z"/><path id="m45d" d="M70 0V710H286Q398 710 463 654Q528 597 528 498Q528 448 505 410Q482 371 446 349Q410 327 372 324L368 336Q439 332 474 302Q510 272 516 204L534 0H448L431 193Q428 226 416 246Q403 267 376 276Q350 286 304 286H156V0ZM156 370H286Q360 370 399 404Q438 437 438 498Q438 560 399 593Q360 626 286 626H156Z"/><path id="m45e" d="M333 -12Q291 -12 256 2Q221 16 196 42Q171 69 158 105L171 120L166 0H90V710H174V416L165 437Q174 462 198 486Q221 510 256 526Q291 542 333 542Q403 542 454 508Q505 474 532 412Q560 350 560 265Q560 180 532 118Q505 56 454 22Q403 -12 333 -12ZM328 68Q395 68 434 121Q472 174 472 265Q472 357 434 410Q395 462 330 462Q281 462 246 438Q211 415 192 371Q174 327 174 265Q174 205 192 160Q211 116 246 92Q280 68 328 68Z"/><path id="m45f" d="M136 -150V-76H197Q225 -76 238 -68Q252 -59 259 -40L278 10H249L52 530H144L305 88L456 530H548L333 -67Q318 -110 288 -130Q258 -150 205 -150Z"/><path id="m460" d="M100 0V710H184V413L174 415Q184 459 208 487Q232 515 267 528Q302 542 343 542Q400 542 440 516Q479 491 500 446Q520 400 520 341V0H436V317Q436 394 408 431Q381 468 325 468Q261 468 222 429Q184 390 184 316V0Z"/><path id="m461" d="M100 0V710H540V628H146L186 669V388H522V306H186V0Z"/><path id="m462" d="M54 0 249 272 64 530H162L301 330L437 530H537L353 270L546 0H448L301 214L154 0Z"/><path id="m463" d="M238 0V122H362V0ZM238 386V508H362V386Z"/><path id="m464" d="M238 0V122H362V0Z"/><path id="m565" d="M254 -12Q177 -12 131 40Q85 93 85 188V532H186V214Q186 142 211 109Q236 76 287 76Q342 76 376 113Q409 150 409 218V532H510V0H415L414 139L428 133Q414 64 369 26Q324 -12 254 -12Z"/><path id="m566" d="M264 32V559Q264 590 247 607Q229 625 198 625H76V710H209Q286 710 326 670Q365 631 365 554V32ZM56 0V85H544V0Z"/><path id="m467" d="M125 0 20 530H112L181 88L259 456H341L419 88L488 530H580L476 0H370L300 334L230 0Z"/><path id="s568" d="M86 0V710H369Q445 710 500 684Q555 658 585 610Q615 562 615 496Q615 448 594 410Q572 372 537 350Q501 327 461 324L456 333Q523 333 560 302Q597 272 603 207L622 0H513L496 193Q493 236 467 257Q441 277 382 277H194V0ZM194 376H371Q432 376 468 406Q503 437 503 493Q503 550 467 581Q431 611 362 611H194Z"/><path id="s569" d="M75 -150V532H175L178 418L166 424Q186 483 232 513Q278 544 338 544Q416 544 466 506Q517 467 542 404Q566 341 566 266Q566 191 542 128Q517 65 466 26Q416 -12 338 -12Q298 -12 263 2Q228 16 203 42Q179 67 169 102L181 114V-150ZM319 80Q383 80 419 129Q456 178 456 266Q456 354 419 403Q383 452 319 452Q277 452 246 431Q215 411 198 369Q181 327 181 266Q181 205 198 163Q214 121 245 101Q277 80 319 80Z"/><path id="s56a" d="M250 -12Q170 -12 122 42Q75 95 75 190V532H181V217Q181 145 206 111Q231 77 282 77Q340 77 372 115Q405 152 405 220V532H511V0H412L410 139L425 133Q411 63 366 25Q321 -12 250 -12Z"/><path id="m46b" d="M240 -162 294 0H240V122H360V10L300 -162Z"/><path id="m46c" d="M120 102 400 612 480 608 200 98ZM300 -16Q223 -16 166 29Q110 74 80 157Q50 240 50 354Q50 469 80 552Q110 635 166 680Q223 726 300 726Q378 726 434 680Q490 635 520 552Q550 469 550 354Q550 240 520 157Q490 74 434 29Q378 -16 300 -16ZM300 68Q350 68 386 103Q421 138 440 202Q460 267 460 354Q460 443 440 508Q421 572 386 607Q350 642 300 642Q251 642 215 607Q179 572 160 508Q140 443 140 354Q140 267 160 202Q179 138 215 103Q251 68 300 68Z"/><path id="m46d" d="M284 0V526H98V600H194Q232 600 256 611Q279 622 290 646Q300 670 300 710H370V0ZM60 0V84H540V0Z"/><path id="s56e" d="M86 0V710H234L445 127L656 710H804V0H696V520L505 1H385L194 520V0Z"/><path id="s56f" d="M368 -16Q272 -16 199 28Q126 73 85 156Q44 239 44 354Q44 468 84 552Q125 635 198 681Q271 726 369 726Q501 726 574 660Q647 594 669 477L556 471Q542 544 496 585Q450 627 369 627Q304 627 257 594Q209 561 183 500Q156 439 156 354Q156 269 183 208Q209 147 257 115Q305 83 368 83Q454 83 501 129Q549 174 561 254L674 248Q661 167 622 108Q583 49 519 17Q455 -16 368 -16Z"/><path id="s570" d="M37 -110 333 750H435L140 -110Z"/><path id="s571" d="M336 -16Q248 -16 183 29Q118 74 83 157Q48 240 48 354Q48 468 83 552Q119 635 183 681Q248 726 336 726Q425 726 490 681Q554 635 590 552Q625 469 625 354Q625 240 590 157Q555 74 490 29Q425 -16 336 -16ZM336 83Q421 83 467 153Q513 223 513 354Q513 442 492 503Q472 564 432 596Q393 627 336 627Q280 627 241 596Q201 564 181 503Q160 442 160 354Q160 223 206 153Q252 83 336 83Z"/><path id="m472" d="M90 0V710H290Q407 710 466 658Q526 606 526 516Q526 472 505 437Q484 402 446 382Q408 362 358 362V368Q420 368 464 347Q509 326 532 288Q556 250 556 198Q556 106 492 53Q428 0 315 0ZM176 84H316Q393 84 430 114Q466 144 466 198Q466 255 428 287Q390 319 316 319H176ZM176 403H294Q368 403 402 432Q436 461 436 514Q436 568 402 597Q368 626 294 626H176Z"/><path id="m473" d="M60 0V710H146V365L102 399H498L454 365V710H540V0H454V349L498 315H102L146 349V0Z"/><path id="m474" d="M82 0V84L418 456H92V530H510V446L174 74H518V0Z"/><path id="m475" d="M388 0V154H40V232L382 710H474V238H560V154H474V0ZM128 238H388V590Z"/><path id="m476" d="M300 -16Q230 -16 173 8Q116 32 83 79Q50 126 50 195Q50 272 96 322Q142 373 218 391L220 371Q159 388 122 426Q84 465 84 531Q84 587 112 631Q140 675 188 700Q237 726 300 726Q363 726 412 700Q461 675 488 631Q516 587 516 531Q516 465 479 426Q442 388 380 371L382 391Q459 373 504 322Q550 272 550 195Q550 126 517 79Q484 32 428 8Q371 -16 300 -16ZM300 68Q370 68 415 100Q460 133 460 200Q460 262 420 300Q380 337 300 337Q221 337 180 300Q140 262 140 200Q140 133 185 100Q230 68 300 68ZM300 417Q357 417 392 446Q426 474 426 531Q426 582 392 612Q359 642 300 642Q242 642 208 612Q174 582 174 531Q174 474 208 446Q243 417 300 417Z"/><path id="m477" d="M302 -16Q217 -16 158 29Q99 74 68 157Q38 240 38 354Q38 469 68 552Q99 635 158 680Q217 726 302 726Q396 726 462 664Q528 603 550 493L458 487Q441 564 400 603Q358 642 302 642Q245 642 206 608Q168 575 148 510Q128 446 128 354Q128 263 148 199Q168 135 206 102Q245 68 302 68Q364 68 407 111Q450 154 465 239L556 234Q537 117 470 50Q403 -16 302 -16Z"/><path id="m478" d="M108 -110 412 750H492L188 -110Z"/><path id="m479" d="M70 0V710H192L459 61L444 58V710H530V0H408L141 649L156 653V0Z"/><path id="m47a" d="M238 386V508H362V386ZM240 -162 294 0H240V122H360V10L300 -162Z"/><path id="s57b" d="M342 -16Q257 -16 194 15Q132 46 96 101Q60 156 54 229L165 236Q172 186 194 152Q216 117 254 100Q291 82 344 82Q390 82 422 94Q455 105 472 128Q489 151 489 184Q489 214 474 237Q460 261 420 280Q379 300 301 319Q216 340 165 365Q114 390 91 427Q69 465 69 520Q69 581 98 628Q128 674 183 700Q238 726 315 726Q396 726 454 696Q511 666 545 614Q578 562 586 495L475 489Q470 530 450 561Q430 593 396 610Q362 628 313 628Q251 628 216 599Q180 571 180 524Q180 494 195 473Q209 453 247 438Q284 423 353 406Q445 385 499 354Q554 324 577 283Q600 242 600 190Q600 127 567 81Q535 34 477 9Q419 -16 342 -16Z"/><path id="s57c" d="M294 -12Q218 -12 161 22Q104 56 73 119Q42 182 42 266Q42 350 73 412Q104 475 161 509Q218 544 294 544Q359 544 409 521Q460 499 491 456Q523 413 532 351L421 345Q413 397 379 424Q345 452 294 452Q227 452 189 403Q152 353 152 266Q152 179 189 129Q227 80 294 80Q345 80 379 109Q413 137 421 195L532 189Q523 128 492 83Q460 38 410 13Q359 -12 294 -12Z"/><path id="s57d" d="M340 -12Q285 -12 242 12Q200 37 177 80L174 0H75V710H181V457Q202 492 243 518Q285 544 340 544Q409 544 460 510Q511 476 539 413Q566 351 566 266Q566 181 539 119Q511 56 460 22Q409 -12 340 -12ZM323 80Q384 80 420 130Q456 179 456 266Q456 353 420 403Q384 452 324 452Q279 452 247 430Q215 408 198 366Q181 325 181 266Q181 209 198 167Q215 125 247 102Q279 80 323 80Z"/><path id="s57e" d="M86 0V710H194V371L493 710H624L352 400L642 0H515L280 324L194 228V0Z"/><path id="s57f" d="M86 0V710H547V611H137L194 670V344L137 395H529V299H137L194 350V0Z"/><path id="s580" d="M86 0V126H216V0ZM86 381V507H216V381Z"/><path id="s581" d="M20 0 276 710H413L669 0H554L489 185H199L135 0ZM233 283H456L344 607Z"/><path id="s582" d="M184 0 22 532H133L247 116L364 532H464L581 116L696 532H807L645 0H526L414 380L302 0Z"/><path id="s583" d="M47 -157 97 0H42V126H171V15L108 -157Z"/><path id="s584" d="M42 245V338H377V245Z"/><path id="s585" d="M533 -150H427V114L439 102Q429 67 405 42Q380 16 345 2Q310 -12 270 -12Q192 -12 142 26Q91 65 66 128Q42 191 42 266Q42 341 66 404Q91 467 142 506Q192 544 270 544Q331 544 377 513Q423 483 442 424L430 418L433 532H533ZM289 80Q332 80 363 101Q394 121 410 163Q427 205 427 266Q427 327 410 369Q393 411 362 431Q331 452 289 452Q225 452 189 403Q152 354 152 266Q152 178 189 129Q225 80 289 80Z"/><path id="s586" d="M182 -110Q44 100 44 320Q44 541 182 750H276Q151 534 151 320Q151 213 183 106Q214 -2 276 -110Z"/><path id="s587" d="M86 0V710H194V0Z"/><path id="s588" d="M86 0V710H548V611H194V404H536V308H194V99H556V0Z"/><path id="s589" d="M308 -16Q224 -16 166 21Q108 59 78 131Q48 202 48 304Q48 393 64 469Q79 546 113 603Q147 661 202 693Q256 726 335 726Q433 726 488 678Q542 631 563 552L456 543Q444 582 417 605Q389 628 335 628Q253 628 206 558Q159 488 155 344L136 348Q147 382 173 410Q200 439 239 456Q279 474 329 474Q400 474 454 444Q507 415 537 361Q566 307 566 235Q566 157 533 100Q501 44 443 14Q385 -16 308 -16ZM309 80Q374 80 415 122Q456 163 456 235Q456 280 438 313Q421 347 389 365Q358 383 316 383Q272 383 237 365Q202 347 182 313Q162 280 162 235Q162 190 180 155Q198 120 231 100Q264 80 309 80Z"/><path id="s58a" d="M189 0V506H39V593H100Q140 593 165 603Q190 614 201 640Q212 665 212 710H297V0Z"/><path id="s58b" d="M312 -16Q231 -16 169 8Q107 32 73 79Q38 126 38 194Q38 272 85 323Q133 374 211 391L213 371Q149 386 111 426Q72 466 72 531Q72 588 101 632Q131 676 184 701Q238 726 312 726Q386 726 440 701Q494 676 523 632Q552 588 552 531Q552 466 514 426Q475 387 411 371L413 391Q492 374 539 323Q586 272 586 194Q586 126 552 79Q517 32 455 8Q394 -16 312 -16ZM312 83Q386 83 430 114Q474 144 474 205Q474 263 434 298Q394 333 312 333Q231 333 191 298Q150 263 150 205Q150 144 194 114Q238 83 312 83ZM312 422Q373 422 407 448Q440 473 440 526Q440 572 408 600Q375 628 312 628Q250 628 217 600Q184 572 184 526Q184 473 217 448Q251 422 312 422Z"/><path id="s58c" d="M59 0Q59 80 83 143Q107 206 165 260Q223 314 325 368Q374 393 403 415Q433 436 446 459Q459 482 459 515Q459 549 445 573Q430 598 402 613Q374 627 331 627Q263 627 224 591Q184 554 174 486L62 493Q74 600 143 663Q213 726 331 726Q407 726 461 700Q514 673 543 626Q571 579 571 517Q571 463 553 424Q535 385 493 351Q451 318 379 280Q287 231 240 183Q193 136 190 99H571V0Z"/><path id="s58d" d="M108 -110H14Q76 -2 108 106Q139 213 139 320Q139 534 14 750H108Q246 541 246 320Q246 100 108 -110Z"/><path id="s48e" d="M92 0V710H347Q466 710 532 653Q598 596 598 495Q598 427 568 378Q538 328 482 302Q426 276 347 276H178V0ZM178 360H347Q427 360 468 394Q508 428 508 495Q508 560 468 593Q427 626 347 626H178Z"/><path id="s48f" d="M287 -12Q214 -12 159 22Q104 56 74 118Q44 181 44 265Q44 350 74 412Q104 474 159 508Q214 542 287 542Q360 542 414 508Q469 474 499 412Q529 350 529 265Q529 181 499 118Q469 56 414 22Q360 -12 287 -12ZM287 68Q360 68 400 120Q441 173 441 265Q441 357 400 410Q360 462 287 462Q214 462 173 410Q132 357 132 265Q132 173 173 120Q214 68 287 68Z"/><path id="s490" d="M273 -12Q200 -12 150 11Q101 34 74 74Q48 115 44 167L132 173Q140 125 172 96Q203 68 273 68Q327 68 356 86Q386 103 386 142Q386 163 376 177Q367 191 339 202Q311 212 257 222Q183 236 141 257Q99 278 82 308Q65 338 65 380Q65 451 118 496Q170 542 266 542Q336 542 380 518Q425 493 448 454Q471 415 476 372L388 366Q386 391 373 413Q360 435 334 448Q308 462 264 462Q207 462 180 440Q153 418 153 384Q153 358 164 342Q174 325 200 314Q227 304 273 296Q351 283 395 263Q439 243 456 214Q474 184 474 142Q474 69 418 28Q361 -12 273 -12Z"/><path id="s491" d="M80 0V530H164V0ZM78 613V711H166V613Z"/><path id="s492" d="M274 0Q202 0 168 33Q133 66 133 136V654H217V138Q217 102 233 88Q249 74 282 74H358V0ZM55 456V530H358V456Z"/><path id="s493" d="M80 0V530H157L160 395L150 404Q160 451 185 482Q210 512 246 527Q281 542 322 542Q383 542 422 515Q462 488 482 442Q501 397 501 341V0H417V317Q417 366 406 400Q394 433 369 450Q344 468 304 468Q243 468 204 430Q164 391 164 317V0Z"/><path id="s494" d="M47 -156 95 0H44V113H157V14L97 -156Z"/><path id="s495" d="M268 -12Q199 -12 148 22Q98 56 71 118Q44 180 44 265Q44 350 71 412Q98 474 148 508Q199 542 268 542Q321 542 365 520Q409 497 431 456V710H515V0H439L436 80Q414 37 369 12Q324 -12 268 -12ZM285 68Q332 68 364 92Q397 116 414 160Q431 205 431 265Q431 327 414 371Q397 415 364 438Q332 462 285 462Q215 462 174 410Q132 357 132 265Q132 174 174 121Q215 68 285 68Z"/><path id="s496" d="M223 -12Q141 -12 92 26Q44 64 44 132Q44 200 84 239Q124 278 211 294L399 329Q399 396 368 429Q336 462 273 462Q218 462 186 438Q154 413 142 367L53 374Q68 449 126 496Q183 542 273 542Q375 542 429 484Q483 427 483 326V107Q483 89 490 82Q496 74 511 74H532V0Q528 -1 519 -2Q510 -2 500 -2Q464 -2 442 10Q419 21 409 46Q399 70 399 110L409 108Q402 74 375 46Q348 19 308 4Q268 -12 223 -12ZM231 62Q284 62 322 82Q359 103 379 138Q399 174 399 218V256L227 224Q173 214 152 194Q132 173 132 140Q132 103 158 82Q185 62 231 62Z"/><path id="s497" d="M287 -12Q212 -12 158 22Q103 56 74 118Q44 181 44 265Q44 349 74 411Q103 473 156 508Q210 542 283 542Q352 542 405 510Q458 477 488 415Q517 353 517 264V239H132Q137 154 178 111Q218 68 287 68Q339 68 372 92Q406 117 419 157L509 150Q488 79 430 34Q371 -12 287 -12ZM132 313H425Q419 390 380 426Q342 462 283 462Q222 462 182 424Q143 387 132 313Z"/><path id="s498" d="M80 0V530H154L158 396L150 399Q160 467 194 498Q227 530 283 530H335V450H284Q244 450 218 436Q191 421 178 392Q164 364 164 320V0Z"/><path id="s499" d="M287 -12Q213 -12 158 22Q104 56 74 118Q44 181 44 265Q44 349 74 411Q104 473 158 508Q213 542 287 542Q348 542 396 520Q443 499 473 458Q503 417 512 358L424 352Q415 405 378 434Q341 462 287 462Q214 462 173 410Q132 357 132 265Q132 173 173 120Q214 68 287 68Q341 68 378 98Q415 128 424 188L512 182Q503 123 473 80Q443 36 396 12Q348 -12 287 -12Z"/><path id="s49a" d="M80 0V710H164V245L422 530H534L325 305L543 0H441L268 248L164 138V0Z"/><path id="s49b" d="M215 0 22 530H114L268 86L422 530H514L321 0Z"/><path id="s49c" d="M92 0V113H205V0ZM92 393V506H205V393Z"/><path id="s49d" d="M80 0V710H164V413L154 415Q164 459 188 487Q212 515 247 528Q282 542 324 542Q381 542 420 516Q460 491 480 446Q501 400 501 341V0H417V317Q417 394 390 431Q362 468 306 468Q242 468 203 429Q164 390 164 316V0Z"/><path id="s49e" d="M184 0Q138 0 109 24Q80 48 80 100V710H164V107Q164 91 172 82Q181 74 197 74H243V0Z"/><path id="s49f" d="M323 -12Q268 -12 225 12Q182 37 159 80L156 0H80V710H164V456Q184 489 226 516Q268 542 323 542Q393 542 444 508Q495 474 523 412Q551 350 551 265Q551 180 523 118Q495 56 444 22Q393 -12 323 -12ZM318 68Q385 68 424 121Q463 174 463 265Q463 357 424 410Q385 462 320 462Q271 462 236 438Q201 415 182 371Q164 327 164 265Q164 205 182 160Q201 116 236 92Q270 68 318 68Z"/><path id="s4a0" d="M103 -150V-76H164Q192 -76 206 -68Q219 -59 226 -40L245 10H216L22 530H114L272 88L423 530H515L300 -67Q285 -110 255 -130Q225 -150 172 -150Z"/><path id="s4a1" d="M80 -150V530H158L160 416L148 422Q168 481 214 512Q261 542 322 542Q401 542 452 503Q502 464 526 401Q551 338 551 265Q551 192 526 129Q502 66 452 27Q401 -12 322 -12Q281 -12 246 2Q210 16 186 41Q161 66 152 100L164 114V-150ZM314 68Q383 68 423 120Q463 172 463 265Q463 358 423 410Q383 462 314 462Q268 462 234 440Q201 418 182 374Q164 330 164 265Q164 200 182 156Q200 112 234 90Q268 68 314 68Z"/><path id="s4a2" d="M281 -162Q224 -162 178 -143Q132 -124 101 -89Q70 -54 59 -8L147 -2Q159 -39 190 -60Q220 -82 281 -82Q353 -82 392 -53Q430 -24 430 34V120Q411 78 369 53Q327 28 275 28Q208 28 156 61Q103 94 74 152Q44 210 44 285Q44 361 73 418Q102 476 154 509Q205 542 271 542Q327 542 372 516Q416 490 434 446V530H514V36Q514 -26 486 -70Q458 -115 406 -138Q354 -162 281 -162ZM279 108Q347 108 388 156Q429 203 430 285Q431 340 412 380Q394 419 360 440Q325 462 279 462Q209 462 170 414Q132 367 132 285Q132 203 172 156Q211 108 279 108Z"/><path id="s4a3" d="M80 0V530H157L160 396L148 400Q157 444 180 476Q202 507 235 524Q268 542 308 542Q377 542 420 504Q464 466 475 398L459 399Q467 445 488 476Q510 508 544 525Q578 542 622 542Q679 542 718 518Q757 495 777 450Q797 405 797 341V0H713V323Q713 395 685 432Q657 468 602 468Q565 468 538 450Q510 432 495 398Q480 365 480 317V0H396V317Q396 388 371 428Q346 468 287 468Q250 468 222 450Q195 432 180 398Q164 364 164 317V0Z"/><path id="s4a4" d="M254 -12Q175 -12 128 42Q80 95 80 189V530H164V212Q164 135 192 98Q219 62 276 62Q339 62 375 102Q411 143 411 214V530H495V0H415V131L428 124Q412 59 367 24Q322 -12 254 -12Z"/><path id="s4a5" d="M186 0 22 530H114L238 88L364 530H454L580 88L705 530H797L633 0H527L409 403L291 0Z"/><path id="s4a6" d="M132 0V578Q132 637 166 674Q200 710 272 710H356V636H278Q247 636 232 619Q216 602 216 572V0ZM60 456V530H349V456Z"/><path id="s4a7" d="M44 0V113H157V0Z"/><path id="m4a8" d="M90 0V710H522V626H176V397H510V315H176V84H530V0Z"/><path id="m4a9" d="M294 -16Q179 -16 117 40Q55 95 50 183L139 189Q145 124 188 96Q230 68 294 68Q337 68 375 80Q413 93 436 122Q460 150 460 198Q460 245 439 276Q418 306 382 320Q345 335 299 335H243V419H299Q336 419 367 430Q398 441 416 466Q435 490 435 530Q435 585 400 614Q365 642 299 642Q232 642 198 615Q163 588 156 541L66 547Q76 627 136 676Q196 726 299 726Q368 726 419 702Q470 679 498 636Q525 593 525 534Q525 468 484 428Q442 387 361 372V390Q448 380 499 328Q550 276 550 198Q550 130 517 82Q484 34 426 9Q368 -16 294 -16Z"/></defs><rect x="0" y="0" width="1280" height="820" rx="22" fill="#E8ECF3"/><rect x="0" y="0" width="1280" height="820" rx="22" fill="url(#dots1)"/><rect x="0.5" y="0.5" width="1279" height="819" rx="22" fill="none" stroke="#D0D5E0" stroke-width="1"/><rect x="40" y="41.94" width="8" height="8" rx="2" fill="#B42D1B"/><g fill="#4E5971" transform="translate(58 50) scale(0.01300 -0.01300)"><use href="#m50" x="0"/><use href="#m51" x="740"/><use href="#m52" x="1480"/><use href="#m53" x="2220"/><use href="#m54" x="3700"/><use href="#m55" x="4440"/><use href="#m53" x="5180"/><use href="#m56" x="5920"/><use href="#m50" x="6660"/><use href="#m56" x="7400"/><use href="#m50" x="8140"/><use href="#m57" x="8880"/><use href="#m58" x="10360"/><use href="#m59" x="11840"/><use href="#m5a" x="12580"/><use href="#m53" x="13320"/><use href="#m5b" x="14060"/><use href="#m54" x="14800"/><use href="#m53" x="15540"/><use href="#m5c" x="16280"/><use href="#m5d" x="17020"/><use href="#m5e" x="17760"/><use href="#m55" x="18500"/><use href="#m53" x="19240"/><use href="#m57" x="19980"/><use href="#m5d" x="20720"/><use href="#m5a" x="21460"/><use href="#m5f" x="22200"/><use href="#m5f" x="22940"/></g><g fill="#182033" transform="translate(40 92) scale(0.03200 -0.03200)"><use href="#s610" x="0"/><use href="#s611" x="532"/><use href="#s612" x="1090"/><use href="#s613" x="1857"/><use href="#s614" x="2259"/><use href="#s615" x="2622"/><use href="#s612" x="3179"/><use href="#s613" x="3946"/><use href="#s614" x="4348"/><use href="#s616" x="4691"/><use href="#s617" x="5233"/><use href="#s618" x="5773"/><use href="#s619" x="6351"/><use href="#s616" x="6752"/><use href="#s61a" x="7300"/><use href="#s61b" x="7858"/><use href="#s613" x="8655"/><use href="#s611" x="9039"/><use href="#s612" x="9597"/><use href="#s61c" x="10364"/><use href="#s61a" x="10927"/><use href="#s612" x="11485"/><use href="#s613" x="12252"/><use href="#s611" x="12636"/><use href="#s612" x="13194"/><use href="#s614" x="13961"/><use href="#s612" x="14300"/><use href="#s617" x="14851"/><use href="#s612" x="15391"/><use href="#s61d" x="15942"/><use href="#s61e" x="16171"/><use href="#s612" x="16697"/><use href="#s614" x="17248"/><use href="#s614" x="17833"/><use href="#s612" x="18172"/><use href="#s61f" x="18723"/><use href="#s61c" x="19304"/><use href="#s614" x="19867"/><use href="#s613" x="20208"/><use href="#s620" x="20591"/><use href="#s621" x="21114"/></g><g fill="#4E5971" transform="translate(962.5 50) scale(0.01250 -0.01250)"><use href="#m422" x="0"/><use href="#m423" x="600"/><use href="#m423" x="1200"/><use href="#m424" x="1800"/><use href="#m425" x="3000"/><use href="#m425" x="3600"/><use href="#m426" x="4800"/><use href="#m425" x="6000"/><use href="#m427" x="6600"/><use href="#m428" x="7800"/><use href="#m429" x="8400"/><use href="#m42a" x="9000"/><use href="#m426" x="10200"/><use href="#m429" x="11400"/><use href="#m42a" x="12000"/><use href="#m42b" x="12600"/><use href="#m423" x="13200"/><use href="#m42a" x="13800"/><use href="#m42c" x="14400"/><use href="#m423" x="15000"/><use href="#m424" x="15600"/><use href="#m42d" x="16800"/><use href="#m42e" x="17400"/><use href="#m422" x="18000"/><use href="#m429" x="18600"/><use href="#m42c" x="19200"/><use href="#m429" x="19800"/><use href="#m42e" x="20400"/><use href="#m42a" x="21000"/><use href="#m422" x="21600"/></g><rect x="40" y="114" width="1200" height="36" rx="10" fill="#E0CDD0" stroke="#B42D1B" stroke-width="1"/><g fill="#B42D1B" transform="translate(58 137) scale(0.01250 -0.01250)"><use href="#m54" x="0"/><use href="#m55" x="700"/><use href="#m53" x="1400"/><use href="#m56" x="2100"/><use href="#m50" x="2800"/><use href="#m56" x="3500"/><use href="#m50" x="4200"/><use href="#m57" x="4900"/><use href="#m5a" x="6300"/><use href="#m50" x="7000"/><use href="#m5c" x="7700"/><use href="#m52f" x="8400"/></g><g fill="#182033" transform="translate(190 137) scale(0.01400 -0.01400)"><use href="#s530" x="0"/><use href="#s531" x="735"/><use href="#s532" x="1285"/><use href="#s531" x="1818"/><use href="#s533" x="2384"/><use href="#s534" x="3021"/><use href="#s531" x="3391"/><use href="#s531" x="3957"/><use href="#s535" x="4523"/><use href="#s536" x="5374"/><use href="#s537" x="5770"/><use href="#s538" x="6355"/><use href="#s539" x="6601"/><use href="#s539" x="7381"/><use href="#s536" x="7889"/><use href="#s533" x="8304"/><use href="#s531" x="8658"/><use href="#s53a" x="9235"/><use href="#s53b" x="9797"/><use href="#s536" x="10925"/><use href="#s53c" x="11320"/><use href="#s53a" x="12151"/><use href="#s532" x="12959"/><use href="#s531" x="13492"/><use href="#s539" x="14058"/><use href="#s539" x="14585"/><use href="#s531" x="15112"/><use href="#s53d" x="15683"/><use href="#s53e" x="15965"/><use href="#s539" x="16141"/><use href="#s53d" x="16921"/><use href="#s538" x="17195"/><use href="#s532" x="17441"/><use href="#s531" x="17974"/><use href="#s53f" x="18793"/><use href="#s53a" x="19373"/><use href="#s532" x="19911"/><use href="#s538" x="20461"/><use href="#s540" x="20707"/><use href="#s53a" x="21314"/><use href="#s536" x="21831"/><use href="#s538" x="22227"/><use href="#s53c" x="22473"/><use href="#s53f" x="23051"/><use href="#s539" x="23885"/><use href="#s541" x="24396"/><use href="#s539" x="24922"/><use href="#s536" x="25430"/><use href="#s531" x="25825"/><use href="#s53b" x="26391"/><use href="#s539" x="27264"/><use href="#s542" x="27801"/></g><rect x="40" y="168" width="560" height="530" rx="16" fill="#F5F7FB" stroke="#CACEDA" stroke-width="1"/><path d="M40 212L600 212" stroke="#DBDFE7" stroke-width="1" fill="none"/><circle cx="62" cy="190" r="5.5" fill="#FF5F57"/><circle cx="80" cy="190" r="5.5" fill="#FEBC2E"/><circle cx="98" cy="190" r="5.5" fill="#28C840"/><g fill="#182033" transform="translate(201.9 194.5) scale(0.01300 -0.01300)"><use href="#m543" x="0"/><use href="#m544" x="600"/><use href="#m545" x="1200"/><use href="#m546" x="1800"/><use href="#m5d" x="2400"/><use href="#m547" x="3000"/><use href="#m548" x="3600"/><use href="#m545" x="4200"/><use href="#m543" x="4800"/><use href="#m546" x="5400"/><use href="#m549" x="6000"/><use href="#m54a" x="6600"/><use href="#m54b" x="7200"/></g><g fill="#4E5971" transform="translate(313.3 194.5) scale(0.01300 -0.01300)"><use href="#m44c" x="0"/><use href="#m42e" x="600"/><use href="#m44d" x="1200"/><use href="#m422" x="1800"/><use href="#m42c" x="2400"/><use href="#m44d" x="3000"/><use href="#m44e" x="3600"/><use href="#m44f" x="4200"/><use href="#m424" x="4800"/><use href="#m450" x="5400"/><use href="#m44d" x="6000"/><use href="#m451" x="6600"/><use href="#m44f" x="7200"/><use href="#m42e" x="7800"/><use href="#m452" x="8400"/><use href="#m452" x="9000"/></g><rect x="485.56" y="178" width="100.44" height="24" rx="12" fill="#F5F7FB" stroke="#CACEDA" stroke-width="1"/><circle cx="498.56" cy="190" r="3" fill="#2F6E0A"/><g fill="#3A455E" transform="translate(507.56 194) scale(0.01100 -0.01100)"><use href="#m5b" x="0"/><use href="#m52f" x="680"/><use href="#m50" x="1360"/><use href="#m54" x="2040"/><use href="#m553" x="2720"/><use href="#m52" x="3400"/><use href="#m54" x="4080"/><use href="#m56" x="4760"/><use href="#m59" x="5440"/></g><rect x="64" y="234" width="512" height="376" rx="6" fill="#DEE4EE"/><path d="M236.81 472.25L233.92 467.33" stroke="#C77F7A" stroke-width="1" fill="none"/><path d="M255.23 461.02L245.57 444.17" stroke="#C77F7A" stroke-width="1" fill="none"/><path d="M273.64 449.8L255.05 417.49" stroke="#C77F7A" stroke-width="1" fill="none"/><path d="M292.07 438.57L264.59 390.61" stroke="#C77F7A" stroke-width="1" fill="none"/><path d="M310.49 427.36L276.23 367.62" stroke="#C77F7A" stroke-width="1" fill="none"/><path d="M328.92 416.15L291.88 351.71" stroke="#C77F7A" stroke-width="1" fill="none"/><path d="M347.35 404.93L310.1 340.24" stroke="#C77F7A" stroke-width="1" fill="none"/><path d="M365.79 393.73L328.76 328.94" stroke="#C77F7A" stroke-width="1" fill="none"/><path d="M384.22 382.53L347 317.82" stroke="#C77F7A" stroke-width="1" fill="none"/><path d="M402.66 371.34L365.54 306.7" stroke="#C77F7A" stroke-width="1" fill="none"/><path d="M421.11 360.15L383.97 295.29" stroke="#C77F7A" stroke-width="1" fill="none"/><path d="M89.6 562.2l3.1-1.8l3-1.9l6.2-3.8l3-1.9l3.1-1.8l3.1-1.9l3-1.9l3.1-1.9l3.1-1.8l3-1.9l6.2-3.8l3-1.8l3.1-1.9l3-1.9l3.1-1.9l3.1-1.8l3-1.9l6.2-3.8l3-1.8l6.2-3.8l3-1.9l3.1-1.8l3.1-1.9l3-1.9l3.1-1.9l3.1-1.8l3.1-1.9l3-1.9l3.1-1.9l3.1-1.8l3-1.9l3.1-1.9l3.1-1.8l3-1.9l6.2-3.8l3-1.8l6.2-3.8l3-1.9l3.1-1.8l3.1-1.9l3-1.9l3.1-1.8l3.1-1.9l3-1.9l3.1-1.9l3.1-1.8l3.1-1.9l3-1.9l3.1-1.9l3.1-1.8l3-1.9l3.1-1.9l3.1-1.8l3-1.9l3.1-1.9l3.1-1.8l3.1-1.9l3-1.9l3.1-1.9l3.1-1.8l3-1.9l3.1-1.9l3.1-1.8l3-1.9l3.1-1.9l3.1-1.8l3.1-1.9l3-1.9l3.1-1.9l3.1-1.8l3-1.9l3.1-1.9l3.1-1.8l3.1-1.9l3-1.9l3.1-1.8l6.2-3.8l3-1.8l6.2-3.8l3-1.8l6.2-3.8l3.1-1.8l3-1.9l3.1-1.9l3.1-1.8l3-1.9l3.1-1.9l3.1-1.8l3.1-1.9l3-1.9l3.1-1.8l6.2-3.8l3-1.8l6.2-3.8l3.1-1.8l3-1.9l3.1-1.9l3.1-1.8l3.1-1.9l3-1.8l6.2-3.8l3.1-1.8l3-1.9l3.1-1.9l3.1-1.8l3.1-1.9l3-1.9l3.1-1.8l3.1-1.9l3.1-1.8l3-1.9l3.1-1.9l3.1-1.8l3.1-1.9l3-1.9l3.1-1.8l3.1-1.9l3.1-1.8l3-1.9l3.1-1.9l3.1-1.8l3.1-1.9l3-1.8l6.2-3.8l3.1-1.8l3.1-1.9l3-1.8l6.2-3.8l3.1-1.8l3-1.9l3.1-1.9l3.1-1.8l3.1-1.9l3.1-1.8l3-1.9l3.1-1.8" fill="none" stroke="#182033" stroke-width="2.2" stroke-linejoin="round" stroke-linecap="round"/><path d="M89.6 562.2l3.1-1.9l3-1.9l3.2-1.9l2.9-1.8l3-1.9l3.2-1.8l3-2l3.1-1.8l3-2l3.3-1.7l3.1-1.9l6.2-3.6l3-2l2.9-1.9l3.1-2l3-1.8l3.2-1.9l3.1-1.8l3-1.9l3.1-1.8l6.2-3.8l3-1.8l6-3.8l6-4l3.1-1.7l3-1.8l3.4-1.9l3-1.8l3.1-1.9l3-1.9l3.1-1.9l6-3.6l3.1-2l3-1.8l3.1-1.8l3.2-2l3-1.9l3-2.1l2.8-2.3l2.7-2.6l2.5-2.8l2.3-3.2l2.2-3.2l2.2-3.4l2-3.6l1.9-3.9l2-4l1.7-4l1.9-4.2l1.7-4.4l1.4-4.2l1.6-4.4l1.7-4.6l1.5-4.7l1.5-4.4l1.6-4.7l1.6-4.5l1.5-4.4l1.5-4.5l1.8-4.5l1.6-4.3l1.8-4.1l1.6-4.1l1.8-4l2-3.6l2.2-3.9l2.2-3.3l2.1-3.3l2.4-3.1l2.7-2.8l2.7-2.5l2.7-2.4l3.1-1.8l3.2-1.9l2.9-2l3.1-1.8l3.2-1.8l2.8-2l3-2l3.2-1.8l3.2-1.7l3.1-1.9l2.9-2l3.1-2.1l3.2-1.8l3.1-1.8l3-1.7l2.8-1.9l3.1-2l3.1-1.7l3.1-2l3-1.9l3.3-1.9l3.1-1.7l3-1.9l3.1-1.8l3-1.9l2.9-1.8l3.3-1.9l3-1.9l3-2l3.1-1.8l6.4-4l2.8-1.9l2.8-1.8l3.2-1.8l3-1.8l40.4 63.2l3.2-1.8l3.1-2.1l3-1.9l2.9-1.8l3.3-1.6l3-2l3.2-1.9l3.2-2.1l2.9-1.8l3-2l3.3-1.8l3-1.8l3.1-1.9l3.1-1.8l2.9-2l3-2l3.2-1.8l6.2-3.6l3-1.7l6.2-3.8l3.1-1.8l3.1-1.9l3-1.8l2.9-1.9l3-2l3.2-1.9l3.2-1.7l3.1-1.8l3.1-1.9l3.1-2l3.1-1.9l3.1-2l3.2-1.7l3-1.9" fill="none" stroke="#B42D1B" stroke-width="2" stroke-linejoin="round" stroke-linecap="round" stroke-dasharray="6 4"/><circle cx="89.6" cy="562.23" r="5" fill="#182033" stroke="#DEE4EE" stroke-width="2"/><g fill="#182033" transform="translate(98.6 578.23) scale(0.01050 -0.01050)"><use href="#m547" x="0"/><use href="#m554" x="600"/><use href="#m546" x="1200"/><use href="#m549" x="1800"/><use href="#m554" x="2400"/></g><circle cx="550.31" cy="281.95" r="5" fill="#DEE4EE" stroke="#182033" stroke-width="2.4"/><circle cx="218.4" cy="483.48" r="4" fill="#B42D1B" stroke="#DEE4EE" stroke-width="2"/><g fill="#B42D1B" transform="translate(113.9 488.48) scale(0.01050 -0.01050)"><use href="#m555" x="0"/><use href="#m549" x="600"/><use href="#m546" x="1200"/><use href="#m556" x="1800"/><use href="#m5d" x="2400"/><use href="#m54b" x="3000"/><use href="#m557" x="3600"/><use href="#m557" x="4200"/><use href="#m558" x="5400"/><use href="#m545" x="6000"/><use href="#m556" x="6600"/><use href="#m54a" x="7200"/><use href="#m543" x="7800"/><use href="#m547" x="8400"/></g><circle cx="439.56" cy="348.97" r="4" fill="#B42D1B" stroke="#DEE4EE" stroke-width="2"/><g fill="#B42D1B" transform="translate(366.56 353.97) scale(0.01050 -0.01050)"><use href="#m545" x="0"/><use href="#m559" x="600"/><use href="#m545" x="1200"/><use href="#m543" x="1800"/><use href="#m554" x="2400"/><use href="#m545" x="3600"/><use href="#m543" x="4200"/><use href="#m555" x="4800"/><use href="#m547" x="5400"/></g><path d="M64 631L82 631" stroke="#182033" stroke-width="2.2" fill="none"/><g fill="#3A455E" transform="translate(86 636) scale(0.01200 -0.01200)"><use href="#m45a" x="0"/><use href="#m450" x="600"/><use href="#m45b" x="1200"/><use href="#m423" x="1800"/><use href="#m42c" x="3000"/><use href="#m450" x="3600"/><use href="#m44d" x="4200"/><use href="#m44c" x="4800"/><use href="#m45c" x="5400"/></g><path d="M182 631L200 631" stroke="#B42D1B" stroke-width="2" fill="none" stroke-dasharray="6 4"/><g fill="#3A455E" transform="translate(204 636) scale(0.01200 -0.01200)"><use href="#m45d" x="0"/><use href="#m423" x="600"/><use href="#m42d" x="1200"/><use href="#m42e" x="1800"/><use href="#m450" x="2400"/><use href="#m42c" x="3000"/><use href="#m423" x="3600"/><use href="#m424" x="4200"/><use href="#m45e" x="5400"/><use href="#m45f" x="6000"/><use href="#m42c" x="7200"/><use href="#m460" x="7800"/><use href="#m423" x="8400"/><use href="#m450" x="9600"/><use href="#m423" x="10200"/><use href="#m44c" x="10800"/><use href="#m423" x="11400"/><use href="#m429" x="12000"/><use href="#m42b" x="12600"/><use href="#m423" x="13200"/><use href="#m450" x="13800"/></g><g fill="#4E5971" transform="translate(64 662) scale(0.01150 -0.01150)"><use href="#m461" x="0"/><use href="#m429" x="600"/><use href="#m462" x="1200"/><use href="#m42b" x="2400"/><use href="#m44d" x="3000"/><use href="#m44e" x="3600"/><use href="#m429" x="4200"/><use href="#m424" x="4800"/><use href="#m42c" x="6000"/><use href="#m460" x="6600"/><use href="#m450" x="7200"/><use href="#m42e" x="7800"/><use href="#m45b" x="8400"/><use href="#m451" x="9000"/><use href="#m460" x="9600"/><use href="#m42e" x="10200"/><use href="#m45b" x="10800"/><use href="#m42c" x="11400"/><use href="#m463" x="12000"/><use href="#m42c" x="13200"/><use href="#m460" x="13800"/><use href="#m423" x="14400"/><use href="#m450" x="15600"/><use href="#m423" x="16200"/><use href="#m44c" x="16800"/><use href="#m423" x="17400"/><use href="#m429" x="18000"/><use href="#m42b" x="18600"/><use href="#m423" x="19200"/><use href="#m450" x="19800"/><use href="#m424" x="21000"/><use href="#m42e" x="21600"/><use href="#m423" x="22200"/><use href="#m422" x="22800"/><use href="#m42a" x="24000"/><use href="#m42e" x="24600"/><use href="#m42c" x="25200"/><use href="#m452" x="26400"/><use href="#m44e" x="27000"/><use href="#m44d" x="27600"/><use href="#m451" x="28200"/><use href="#m42c" x="29400"/><use href="#m460" x="30000"/><use href="#m423" x="30600"/><use href="#m423" x="31800"/><use href="#m42b" x="32400"/><use href="#m423" x="33000"/><use href="#m42a" x="33600"/><use href="#m42c" x="34200"/><use href="#m464" x="34800"/></g><rect x="624" y="168" width="616" height="530" rx="16" fill="#F5F7FB" stroke="#CACEDA" stroke-width="1"/><path d="M624 212L1240 212" stroke="#DBDFE7" stroke-width="1" fill="none"/><circle cx="646" cy="190" r="5.5" fill="#FF5F57"/><circle cx="664" cy="190" r="5.5" fill="#FEBC2E"/><circle cx="682" cy="190" r="5.5" fill="#28C840"/><g fill="#182033" transform="translate(816.7 194.5) scale(0.01300 -0.01300)"><use href="#m54a" x="0"/><use href="#m543" x="600"/><use href="#m547" x="1200"/><use href="#m554" x="1800"/><use href="#m549" x="2400"/><use href="#m565" x="3000"/><use href="#m548" x="3600"/><use href="#m554" x="4200"/><use href="#m54b" x="4800"/><use href="#m549" x="5400"/><use href="#m566" x="6600"/><use href="#m54b" x="7200"/><use href="#m556" x="7800"/></g><g fill="#4E5971" transform="translate(935.9 194.5) scale(0.01300 -0.01300)"><use href="#m426" x="0"/></g><g fill="#4E5971" transform="translate(953.7 194.5) scale(0.01300 -0.01300)"><use href="#m424" x="0"/><use href="#m423" x="600"/><use href="#m45e" x="1200"/><use href="#m450" x="1800"/><use href="#m429" x="2400"/><use href="#m423" x="3000"/><use href="#m452" x="3600"/><use href="#m42b" x="4800"/><use href="#m429" x="5400"/><use href="#m423" x="6000"/><use href="#m467" x="6600"/></g><rect x="1125.56" y="178" width="100.44" height="24" rx="12" fill="#F5F7FB" stroke="#CACEDA" stroke-width="1"/><circle cx="1138.56" cy="190" r="3" fill="#2F6E0A"/><g fill="#3A455E" transform="translate(1147.56 194) scale(0.01100 -0.01100)"><use href="#m5b" x="0"/><use href="#m52f" x="680"/><use href="#m50" x="1360"/><use href="#m54" x="2040"/><use href="#m553" x="2720"/><use href="#m52" x="3400"/><use href="#m54" x="4080"/><use href="#m56" x="4760"/><use href="#m59" x="5440"/></g><g fill="#182033" transform="translate(644 252) scale(0.01400 -0.01400)"><use href="#s568" x="0"/><use href="#s531" x="666"/><use href="#s569" x="1232"/><use href="#s53c" x="1830"/><use href="#s533" x="2408"/><use href="#s536" x="2758"/><use href="#s531" x="3153"/><use href="#s535" x="3719"/><use href="#s53b" x="4570"/><use href="#s538" x="5449"/><use href="#s53f" x="5711"/><use href="#s56a" x="6288"/><use href="#s539" x="6864"/><use href="#s536" x="7644"/><use href="#s533" x="8059"/><use href="#s56a" x="8435"/><use href="#s531" x="9011"/></g><g fill="#4E5971" transform="translate(644 270) scale(0.01100 -0.01100)"><use href="#m42d" x="0"/><use href="#m42e" x="600"/><use href="#m422" x="1200"/><use href="#m429" x="1800"/><use href="#m42c" x="2400"/><use href="#m429" x="3000"/><use href="#m42e" x="3600"/><use href="#m42a" x="4200"/><use href="#m46b" x="4800"/><use href="#m428" x="6000"/></g><rect x="952.23" y="232" width="167.77" height="170" fill="#EEE3E5"/><path d="M854 402L1204 402" stroke="#DBDFE7" stroke-width="1" fill="none"/><g fill="#4E5971" transform="translate(837.7 406) scale(0.01050 -0.01050)"><use href="#m46c" x="0"/></g><path d="M854 346.08L1204 346.08" stroke="#DBDFE7" stroke-width="1" fill="none"/><g fill="#4E5971" transform="translate(825.1 350.08) scale(0.01050 -0.01050)"><use href="#m427" x="0"/><use href="#m46c" x="600"/><use href="#m46c" x="1200"/></g><path d="M854 290.17L1204 290.17" stroke="#DBDFE7" stroke-width="1" fill="none"/><g fill="#4E5971" transform="translate(812.5 294.17) scale(0.01050 -0.01050)"><use href="#m46d" x="0"/><use href="#m46b" x="600"/><use href="#m46c" x="1200"/><use href="#m46c" x="1800"/><use href="#m46c" x="2400"/></g><path d="M854 401.9l2.3.1l2.4-.1l2.3-.2l2.3.1l2.4-.1l2.3.2l2.3-.2l2.4.2l2.3-.2h2.3l2.4-.1l4.6-.2l2.4.3l2.3.1h2.3l2.4.1l2.3-.1h2.3l2.4.1l4.6-.2l2.4-.1l4.6.2l2.4.1l2.3-.1l2.3-.3l2.4.1l2.3.1h7l2.3.2h4.7l2.3-.2l2.4.1h2.3l2.3-.1l2.4.1l2.3.2l2.3-.4l2.4-1.1l2.3-1.6l2.3-2.4l2.4-3.1l2.3-3.4l2.3-3.7l2.4-4.2l2.3-4.9l2.3-5.1l2.4-5.2l2.3-5.7l2.3-5.9l2.4-5.9l2.3-6.1l2.3-6.6l2.4-6.6l2.3-6.3l2.3-6.7l2.4-6.4l4.6-12.6l2.4-6.2l2.3-5.9l2.3-5.5l2.4-5.5l2.3-5.2l2.3-4.3l2.4-4.5l2.3-3.5l2.3-3.7l2.4-3l2.3-2l2.3-1.7l2.4-1.2l4.6.2l2.4-.3h2.3l2.3.2l2.4-.4l2.3-.3l2.3.3l2.4.3h2.3l2.3-.3l2.4-.4l4.6.4h2.4l2.3-.2l2.3-.3l2.4.4l2.3-.1l2.3-.3l2.4.3l2.3.3l2.3-.1l2.4.1l4.6-.2l2.4.2l2.3-.2l2.3-.3l2.4.1l2.3-.1h2.3l2.4-.4l2.3-.2l2.3.2l2.4.1l2.3 156.5h2.3l2.4.5l2.3-.2l2.3-.3l2.4-.1l4.6.4l2.4-.1l2.3.3l2.3-.2l2.4-.1l2.3.3h2.3l2.4-.1l4.6-.4l2.4.2l4.6.2h4.7l2.3.1l2.4-.1h4.6l2.4-.2l2.3-.3l2.3.3l2.4.2h2.3l2.3.1l2.4-.1l2.3-.1l2.3-.2l2.4.1h2.3" fill="none" stroke="#B42D1B" stroke-width="1.9" stroke-linejoin="round" stroke-linecap="round"/><g fill="#182033" transform="translate(644 458) scale(0.01400 -0.01400)"><use href="#s56e" x="0"/><use href="#s531" x="880"/><use href="#s53a" x="1457"/><use href="#s53f" x="2019"/><use href="#s56f" x="2853"/><use href="#s570" x="3540"/><use href="#s530" x="4010"/><use href="#s571" x="4755"/><use href="#s533" x="5671"/><use href="#s531" x="6025"/><use href="#s569" x="6591"/><use href="#s53c" x="7189"/><use href="#s533" x="7767"/><use href="#s536" x="8117"/><use href="#s531" x="8512"/><use href="#s535" x="9078"/></g><g fill="#4E5971" transform="translate(644 476) scale(0.01100 -0.01100)"><use href="#m424" x="0"/><use href="#m472" x="600"/><use href="#m44f" x="1200"/><use href="#m473" x="1800"/><use href="#m474" x="2400"/></g><rect x="952.23" y="438" width="167.77" height="170" fill="#EEE3E5"/><path d="M854 581.71L1204 581.71" stroke="#DBDFE7" stroke-width="1" fill="none"/><g fill="#4E5971" transform="translate(831.4 585.71) scale(0.01050 -0.01050)"><use href="#m475" x="0"/><use href="#m46c" x="600"/></g><path d="M854 537.9L1204 537.9" stroke="#DBDFE7" stroke-width="1" fill="none"/><g fill="#4E5971" transform="translate(831.4 541.9) scale(0.01050 -0.01050)"><use href="#m475" x="0"/><use href="#m425" x="600"/></g><path d="M854 494.08L1204 494.08" stroke="#DBDFE7" stroke-width="1" fill="none"/><g fill="#4E5971" transform="translate(831.4 498.08) scale(0.01050 -0.01050)"><use href="#m475" x="0"/><use href="#m427" x="600"/></g><path d="M854 450.27L1204 450.27" stroke="#DBDFE7" stroke-width="1" fill="none"/><g fill="#4E5971" transform="translate(831.4 454.27) scale(0.01050 -0.01050)"><use href="#m475" x="0"/><use href="#m476" x="600"/></g><path d="M854 572.9h7l2.3-3.5l2.4 1.8h2.3l2.3-3.5l2.4 1.7l2.3 1.8l2.3-1.8l2.4 1.8l2.3 1.7h7l2.3-3.5l2.4 1.8l2.3-3.5h2.3l2.4 5.2h4.6l2.4-3.5h2.3l2.3-1.7h2.4l2.3-1.8l2.3-1.7h2.4l2.3 5.2l2.3-1.7l2.4-1.8l2.3 5.3l2.3-7l2.4-1.8l2.3 3.5l2.3 1.8l2.4-5.3l2.3 1.8l2.3 3.5l2.4-1.8h2.3l2.3-89.3h2.4l2.3-1.8l2.3 1.8h2.4l2.3 1.7l2.3-1.7h9.4l2.3 1.7l2.3-1.7h2.4l2.3-1.8h2.3l2.4 1.8h7l2.3-1.8l2.3 1.8l2.4-1.8l2.3 3.5h2.3l2.4-1.7h9.3l2.3 1.7l2.4-3.5h2.3l2.3 3.5l2.4-1.7h9.3l2.3-1.8h4.7l2.3 1.8h2.4l2.3-1.8l2.3 1.8h2.4l2.3 1.7h2.3l2.4-1.7h11.6l2.4 1.7l2.3-1.7l2.3 1.7l2.4-1.7h4.6l2.4 1.7l2.3-1.7h2.3l2.4-1.8l2.3 1.8l2.3-1.8h2.4l2.3 3.5l2.3-5.2l2.4 3.5l2.3 92.8l2.3-5.2h2.4l2.3 3.5l2.3 1.7h4.7l2.3-5.2h2.4l2.3 3.5l2.3-1.8l2.4-3.5l2.3 7l2.3-3.5h2.4l2.3 7l2.3-5.2l2.4-1.8l2.3 3.5l2.3-3.5l2.4-3.5l2.3 1.8l2.3 5.2l2.4-5.2l2.3 7l2.3-3.5h4.7l2.3-3.5l2.4-1.8l2.3 1.8l2.3 1.7h2.4l2.3 1.8l2.3 3.5l2.4-3.5l2.3-1.8" fill="none" stroke="#066A86" stroke-width="1.9" stroke-linejoin="round" stroke-linecap="round"/><g fill="#B42D1B" transform="translate(998.32 392) scale(0.01050 -0.01050)"><use href="#m545" x="0"/><use href="#m559" x="600"/><use href="#m545" x="1200"/><use href="#m543" x="1800"/><use href="#m554" x="2400"/><use href="#m546" x="3600"/><use href="#m548" x="4200"/><use href="#m554" x="4800"/><use href="#m54a" x="5400"/><use href="#m559" x="6000"/><use href="#m545" x="6600"/></g><g fill="#4E5971" transform="translate(850.85 630) scale(0.01050 -0.01050)"><use href="#m46c" x="0"/></g><g fill="#4E5971" transform="translate(920.85 630) scale(0.01050 -0.01050)"><use href="#m427" x="0"/></g><g fill="#4E5971" transform="translate(987.7 630) scale(0.01050 -0.01050)"><use href="#m46d" x="0"/><use href="#m46c" x="600"/></g><g fill="#4E5971" transform="translate(1057.7 630) scale(0.01050 -0.01050)"><use href="#m46d" x="0"/><use href="#m427" x="600"/></g><g fill="#4E5971" transform="translate(1127.7 630) scale(0.01050 -0.01050)"><use href="#m425" x="0"/><use href="#m46c" x="600"/></g><g fill="#4E5971" transform="translate(1197.7 630) scale(0.01050 -0.01050)"><use href="#m425" x="0"/><use href="#m427" x="600"/></g><g fill="#4E5971" transform="translate(773.3 630) scale(0.01050 -0.01050)"><use href="#m42c" x="0"/><use href="#m429" x="600"/><use href="#m428" x="1200"/><use href="#m423" x="1800"/><use href="#m46b" x="2400"/><use href="#m428" x="3600"/><use href="#m429" x="4200"/><use href="#m42a" x="4800"/></g><g fill="#4E5971" transform="translate(644 678) scale(0.01050 -0.01050)"><use href="#m45a" x="0"/><use href="#m460" x="600"/><use href="#m423" x="1200"/><use href="#m450" x="2400"/><use href="#m44d" x="3000"/><use href="#m429" x="3600"/><use href="#m422" x="4200"/><use href="#m423" x="4800"/><use href="#m424" x="5400"/><use href="#m46b" x="6000"/><use href="#m45b" x="7200"/><use href="#m42a" x="7800"/><use href="#m429" x="8400"/><use href="#m452" x="9000"/><use href="#m42e" x="9600"/><use href="#m450" x="10200"/><use href="#m428" x="10800"/><use href="#m477" x="12000"/><use href="#m478" x="12600"/><use href="#m479" x="13200"/><use href="#m46c" x="13800"/><use href="#m429" x="15000"/><use href="#m422" x="15600"/><use href="#m42e" x="16800"/><use href="#m42a" x="17400"/><use href="#m423" x="18000"/><use href="#m44c" x="19200"/><use href="#m44e" x="19800"/><use href="#m45b" x="20400"/><use href="#m423" x="21000"/><use href="#m42c" x="22200"/><use href="#m460" x="22800"/><use href="#m423" x="23400"/><use href="#m42c" x="24600"/><use href="#m450" x="25200"/><use href="#m44d" x="25800"/><use href="#m429" x="26400"/><use href="#m42a" x="27000"/><use href="#m423" x="27600"/><use href="#m450" x="28200"/><use href="#m42a" x="29400"/><use href="#m42e" x="30000"/><use href="#m42c" x="30600"/><use href="#m423" x="31200"/><use href="#m42a" x="32400"/><use href="#m44d" x="33000"/><use href="#m428" x="33600"/><use href="#m423" x="34200"/><use href="#m422" x="34800"/><use href="#m47a" x="35400"/><use href="#m42c" x="36600"/><use href="#m460" x="37200"/><use href="#m423" x="37800"/><use href="#m450" x="39000"/><use href="#m423" x="39600"/><use href="#m422" x="40200"/><use href="#m42c" x="40800"/><use href="#m44d" x="42000"/><use href="#m450" x="42600"/><use href="#m423" x="43200"/><use href="#m429" x="44400"/><use href="#m42a" x="45000"/><use href="#m42c" x="46200"/><use href="#m460" x="46800"/><use href="#m423" x="47400"/><use href="#m44e" x="48600"/><use href="#m42e" x="49200"/><use href="#m451" x="49800"/><use href="#m464" x="50400"/></g><g fill="#B42D1B" transform="translate(40 726) scale(0.01250 -0.01250)"><use href="#s57b" x="0"/><use href="#s541" x="637"/><use href="#s53f" x="1167"/><use href="#s536" x="1720"/><use href="#s537" x="2116"/><use href="#s531" x="2695"/><use href="#s536" x="3242"/><use href="#s538" x="3638"/><use href="#s57c" x="3884"/><use href="#s536" x="4690"/><use href="#s533" x="5105"/><use href="#s53a" x="5461"/><use href="#s538" x="6018"/><use href="#s53f" x="6280"/><use href="#s538" x="6865"/><use href="#s53f" x="7127"/><use href="#s540" x="7706"/><use href="#s535" x="8556"/><use href="#s53a" x="9154"/><use href="#s536" x="9671"/><use href="#s53a" x="10072"/><use href="#s540" x="10880"/><use href="#s531" x="11477"/><use href="#s53f" x="12043"/><use href="#s531" x="12622"/><use href="#s533" x="13188"/><use href="#s53a" x="13544"/><use href="#s536" x="14061"/><use href="#s531" x="14456"/><use href="#s535" x="15022"/><use href="#s57d" x="15873"/><use href="#s541" x="16455"/><use href="#s57e" x="17251"/><use href="#s539" x="17858"/><use href="#s537" x="18385"/><use href="#s53a" x="18965"/><use href="#s53f" x="19527"/><use href="#s53a" x="20107"/><use href="#s542" x="20692"/><use href="#s57f" x="21148"/><use href="#s53c" x="21715"/><use href="#s533" x="22293"/><use href="#s536" x="22930"/><use href="#s533" x="23345"/><use href="#s53a" x="23701"/><use href="#s538" x="24258"/><use href="#s53f" x="24520"/><use href="#s538" x="25105"/><use href="#s53f" x="25367"/><use href="#s540" x="25946"/><use href="#s53a" x="26796"/><use href="#s53f" x="27358"/><use href="#s535" x="27937"/><use href="#s536" x="28788"/><use href="#s531" x="29183"/><use href="#s539" x="29749"/><use href="#s536" x="30257"/><use href="#s538" x="30653"/><use href="#s53f" x="30915"/><use href="#s540" x="31494"/><use href="#s53c" x="32344"/><use href="#s53f" x="32922"/><use href="#s53d" x="33500"/><use href="#s541" x="33755"/><use href="#s580" x="34288"/><use href="#s53f" x="34833"/><use href="#s531" x="35412"/><use href="#s532" x="35962"/><use href="#s531" x="36495"/><use href="#s533" x="37061"/><use href="#s534" x="37698"/><use href="#s531" x="38068"/><use href="#s531" x="38634"/><use href="#s535" x="39200"/><use href="#s536" x="40051"/><use href="#s537" x="40447"/><use href="#s538" x="41032"/><use href="#s539" x="41278"/><use href="#s539" x="42058"/><use href="#s536" x="42566"/><use href="#s533" x="42981"/><use href="#s531" x="43335"/><use href="#s53a" x="43912"/><use href="#s53b" x="44474"/><use href="#s536" x="45602"/><use href="#s53c" x="45997"/><use href="#s53a" x="46828"/><use href="#s532" x="47636"/><use href="#s531" x="48169"/><use href="#s539" x="48735"/><use href="#s539" x="49262"/><use href="#s531" x="49789"/><use href="#s53d" x="50360"/><use href="#s53e" x="50642"/><use href="#s539" x="50818"/><use href="#s53d" x="51598"/><use href="#s538" x="51872"/><use href="#s532" x="52118"/><use href="#s531" x="52651"/><use href="#s53f" x="53470"/><use href="#s53a" x="54050"/><use href="#s532" x="54588"/><use href="#s538" x="55138"/><use href="#s540" x="55384"/><use href="#s53a" x="55991"/><use href="#s536" x="56508"/><use href="#s538" x="56904"/><use href="#s53c" x="57150"/><use href="#s53f" x="57728"/><use href="#s539" x="58562"/><use href="#s541" x="59073"/><use href="#s539" x="59599"/><use href="#s536" x="60107"/><use href="#s531" x="60502"/><use href="#s53b" x="61068"/><use href="#s539" x="61941"/><use href="#s542" x="62478"/></g><g fill="#182033" transform="translate(40 748.75) scale(0.01250 -0.01250)"><use href="#s581" x="0"/><use href="#s535" x="669"/><use href="#s532" x="1267"/><use href="#s538" x="1817"/><use href="#s539" x="2063"/><use href="#s53c" x="2590"/><use href="#s533" x="3168"/><use href="#s541" x="3538"/><use href="#s539" x="4334"/><use href="#s53c" x="4861"/><use href="#s534" x="5419"/><use href="#s536" x="5795"/><use href="#s582" x="6194"/><use href="#s53a" x="6999"/><use href="#s533" x="7561"/><use href="#s531" x="7915"/><use href="#s583" x="8491"/><use href="#s53f" x="8947"/><use href="#s53c" x="9526"/><use href="#s536" x="10085"/><use href="#s536" x="10738"/><use href="#s541" x="11137"/><use href="#s569" x="11667"/><use href="#s531" x="12265"/><use href="#s584" x="12841"/><use href="#s53a" x="13259"/><use href="#s569" x="13821"/><use href="#s569" x="14419"/><use href="#s533" x="15017"/><use href="#s53c" x="15371"/><use href="#s532" x="15933"/><use href="#s531" x="16466"/><use href="#s535" x="17032"/><use href="#s53f" x="17883"/><use href="#s53a" x="18463"/><use href="#s532" x="19001"/><use href="#s538" x="19551"/><use href="#s540" x="19797"/><use href="#s53a" x="20404"/><use href="#s536" x="20921"/><use href="#s538" x="21317"/><use href="#s53c" x="21563"/><use href="#s53f" x="22141"/><use href="#s531" x="22975"/><use href="#s585" x="23541"/><use href="#s56a" x="24149"/><use href="#s538" x="24722"/><use href="#s569" x="24984"/><use href="#s53b" x="25582"/><use href="#s531" x="26455"/><use href="#s53f" x="27021"/><use href="#s536" x="27574"/><use href="#s586" x="28227"/><use href="#s587" x="28517"/><use href="#s588" x="28779"/><use href="#s56f" x="29388"/><use href="#s589" x="30344"/><use href="#s58a" x="30928"/><use href="#s58a" x="31294"/><use href="#s571" x="31688"/><use href="#s58b" x="32361"/><use href="#s583" x="32985"/><use href="#s587" x="33441"/><use href="#s588" x="33703"/><use href="#s56f" x="34312"/><use href="#s589" x="35268"/><use href="#s58a" x="35852"/><use href="#s58a" x="36218"/><use href="#s589" x="36612"/><use href="#s58c" x="37205"/><use href="#s58d" x="37835"/><use href="#s580" x="38125"/><use href="#s536" x="38670"/><use href="#s537" x="39066"/><use href="#s531" x="39645"/><use href="#s53c" x="40464"/><use href="#s569" x="41042"/><use href="#s531" x="41640"/><use href="#s533" x="42206"/><use href="#s53a" x="42562"/><use href="#s536" x="43079"/><use href="#s53c" x="43474"/><use href="#s533" x="44052"/><use href="#s533" x="44689"/><use href="#s531" x="45043"/><use href="#s53b" x="45609"/><use href="#s53a" x="46483"/><use href="#s538" x="47040"/><use href="#s53f" x="47302"/><use href="#s539" x="47881"/><use href="#s533" x="48661"/><use href="#s531" x="49015"/><use href="#s539" x="49581"/><use href="#s569" x="50108"/><use href="#s53c" x="50706"/><use href="#s53f" x="51284"/><use href="#s539" x="51863"/><use href="#s538" x="52390"/><use href="#s57d" x="52628"/><use href="#s53d" x="53231"/><use href="#s531" x="53506"/><use href="#s534" x="54325"/><use href="#s53c" x="54695"/><use href="#s533" x="55273"/><use href="#s536" x="55910"/><use href="#s537" x="56306"/><use href="#s531" x="56885"/><use href="#s53f" x="57704"/><use href="#s53a" x="58284"/><use href="#s532" x="58822"/><use href="#s538" x="59372"/><use href="#s540" x="59618"/><use href="#s53a" x="60225"/><use href="#s536" x="60742"/><use href="#s538" x="61138"/><use href="#s53c" x="61384"/><use href="#s53f" x="61962"/><use href="#s53c" x="62796"/><use href="#s534" x="63354"/><use href="#s536" x="64009"/><use href="#s537" x="64405"/><use href="#s531" x="64984"/><use href="#s532" x="65803"/><use href="#s531" x="66336"/><use href="#s539" x="66902"/><use href="#s539" x="67429"/><use href="#s531" x="67956"/><use href="#s53d" x="68527"/><use href="#s542" x="68829"/></g><g fill="#3A455E" transform="translate(40 771.5) scale(0.01250 -0.01250)"><use href="#s48e" x="0"/><use href="#s48f" x="622"/><use href="#s490" x="1185"/><use href="#s491" x="1695"/><use href="#s492" x="1899"/><use href="#s491" x="2275"/><use href="#s48f" x="2509"/><use href="#s493" x="3072"/><use href="#s490" x="3641"/><use href="#s494" x="4161"/><use href="#s495" x="4612"/><use href="#s496" x="5197"/><use href="#s492" x="5698"/><use href="#s497" x="6074"/><use href="#s490" x="6625"/><use href="#s496" x="7395"/><use href="#s493" x="7942"/><use href="#s495" x="8511"/><use href="#s492" x="9356"/><use href="#s498" x="9753"/><use href="#s496" x="10092"/><use href="#s499" x="10637"/><use href="#s49a" x="11173"/><use href="#s490" x="11713"/><use href="#s496" x="12483"/><use href="#s498" x="13030"/><use href="#s497" x="13369"/><use href="#s491" x="14180"/><use href="#s493" x="14430"/><use href="#s49b" x="14977"/><use href="#s497" x="15487"/><use href="#s493" x="16038"/><use href="#s492" x="16579"/><use href="#s497" x="16955"/><use href="#s495" x="17506"/><use href="#s49c" x="18101"/><use href="#s492" x="18648"/><use href="#s49d" x="19024"/><use href="#s497" x="19593"/><use href="#s49e" x="20404"/><use href="#s491" x="20663"/><use href="#s49f" x="20887"/><use href="#s498" x="21472"/><use href="#s496" x="21811"/><use href="#s498" x="22358"/><use href="#s4a0" x="22712"/><use href="#s499" x="23499"/><use href="#s496" x="24049"/><use href="#s498" x="24596"/><use href="#s498" x="24935"/><use href="#s491" x="25284"/><use href="#s497" x="25518"/><use href="#s490" x="26069"/><use href="#s493" x="26839"/><use href="#s48f" x="27408"/><use href="#s498" x="28231"/><use href="#s497" x="28570"/><use href="#s496" x="29135"/><use href="#s49e" x="29676"/><use href="#s49b" x="30193"/><use href="#s497" x="30703"/><use href="#s490" x="31254"/><use href="#s490" x="31764"/><use href="#s497" x="32274"/><use href="#s49e" x="32830"/><use href="#s494" x="33117"/><use href="#s48f" x="33568"/><use href="#s4a1" x="34131"/><use href="#s497" x="34716"/><use href="#s498" x="35267"/><use href="#s496" x="35606"/><use href="#s492" x="36107"/><use href="#s48f" x="36483"/><use href="#s498" x="37046"/><use href="#s48f" x="37675"/><use href="#s498" x="38238"/><use href="#s498" x="38867"/><use href="#s497" x="39206"/><use href="#s499" x="39757"/><use href="#s48f" x="40293"/><use href="#s498" x="40856"/><use href="#s495" x="41195"/><use href="#s491" x="41770"/><use href="#s493" x="42020"/><use href="#s4a2" x="42589"/><use href="#s494" x="43183"/><use href="#s496" x="43634"/><use href="#s493" x="44181"/><use href="#s495" x="44750"/><use href="#s4a3" x="45595"/><use href="#s496" x="46462"/><use href="#s49a" x="47005"/><use href="#s497" x="47545"/><use href="#s490" x="48096"/><use href="#s493" x="48866"/><use href="#s48f" x="49435"/><use href="#s490" x="50258"/><use href="#s492" x="50748"/><use href="#s496" x="51130"/><use href="#s492" x="51631"/><use href="#s497" x="52007"/><use href="#s4a3" x="52558"/><use href="#s497" x="53423"/><use href="#s493" x="53974"/><use href="#s492" x="54515"/><use href="#s496" x="55157"/><use href="#s49f" x="55700"/><use href="#s48f" x="56285"/><use href="#s4a4" x="56848"/><use href="#s492" x="57395"/><use href="#s49d" x="58037"/><use href="#s48f" x="58606"/><use href="#s4a5" x="59154"/><use href="#s496" x="60223"/><use href="#s493" x="60770"/><use href="#s4a0" x="61317"/><use href="#s498" x="62104"/><use href="#s497" x="62443"/><use href="#s499" x="62994"/><use href="#s497" x="63530"/><use href="#s491" x="64081"/><use href="#s49b" x="64315"/><use href="#s497" x="64825"/><use href="#s498" x="65376"/><use href="#s48f" x="66005"/><use href="#s498" x="66568"/><use href="#s490" x="67197"/><use href="#s4a0" x="67692"/><use href="#s490" x="68203"/><use href="#s492" x="68693"/><use href="#s497" x="69069"/><use href="#s4a3" x="69620"/><use href="#s4a5" x="70747"/><use href="#s48f" x="71540"/><use href="#s4a4" x="72103"/><use href="#s49e" x="72678"/><use href="#s495" x="72939"/><use href="#s4a1" x="73784"/><use href="#s497" x="74369"/><use href="#s498" x="74920"/><use href="#s4a6" x="75239"/><use href="#s48f" x="75590"/><use href="#s498" x="76153"/><use href="#s4a3" x="76492"/><use href="#s496" x="77619"/><use href="#s4a2" x="78164"/><use href="#s496" x="78758"/><use href="#s491" x="79301"/><use href="#s493" x="79551"/><use href="#s490" x="80120"/><use href="#s492" x="80610"/><use href="#s491" x="81252"/><use href="#s493" x="81502"/><use href="#s492" x="82043"/><use href="#s497" x="82419"/><use href="#s498" x="82970"/><use href="#s4a6" x="83289"/><use href="#s497" x="83640"/><use href="#s498" x="84191"/><use href="#s497" x="84530"/><use href="#s493" x="85081"/><use href="#s499" x="85650"/><use href="#s497" x="86186"/><use href="#s4a7" x="86747"/></g><g fill="#4E5971" transform="translate(40 804) scale(0.01200 -0.01200)"><use href="#m4a8" x="0"/><use href="#m42a" x="600"/><use href="#m451" x="1200"/><use href="#m429" x="1800"/><use href="#m42a" x="2400"/><use href="#m423" x="3000"/><use href="#m42b" x="4200"/><use href="#m46c" x="4800"/><use href="#m464" x="5400"/><use href="#m4a9" x="6000"/><use href="#m427" x="6600"/><use href="#m464" x="7200"/><use href="#m46c" x="7800"/><use href="#m426" x="9000"/><use href="#m422" x="10200"/><use href="#m44c" x="10800"/><use href="#m423" x="11400"/><use href="#m42a" x="12000"/><use href="#m44d" x="12600"/><use href="#m450" x="13200"/><use href="#m429" x="13800"/><use href="#m42e" x="14400"/><use href="#m422" x="15000"/><use href="#m478" x="15600"/><use href="#m42c" x="16200"/><use href="#m450" x="16800"/><use href="#m44d" x="17400"/><use href="#m429" x="18000"/><use href="#m42a" x="18600"/><use href="#m429" x="19200"/><use href="#m42a" x="19800"/><use href="#m451" x="20400"/><use href="#m478" x="21000"/><use href="#m44c" x="21600"/><use href="#m42e" x="22200"/><use href="#m44d" x="22800"/><use href="#m422" x="23400"/><use href="#m42c" x="24000"/><use href="#m44d" x="24600"/><use href="#m44e" x="25200"/><use href="#m44f" x="25800"/><use href="#m424" x="26400"/><use href="#m450" x="27000"/><use href="#m44d" x="27600"/><use href="#m451" x="28200"/><use href="#m44f" x="28800"/><use href="#m42e" x="29400"/><use href="#m452" x="30000"/><use href="#m452" x="30600"/><use href="#m464" x="31200"/><use href="#m42c" x="31800"/><use href="#m42e" x="32400"/><use href="#m428" x="33000"/><use href="#m44e" x="33600"/><use href="#m426" x="34800"/><use href="#m422" x="36000"/><use href="#m423" x="36600"/><use href="#m423" x="37200"/><use href="#m424" x="37800"/><use href="#m425" x="39000"/><use href="#m425" x="39600"/><use href="#m426" x="40800"/><use href="#m422" x="42000"/><use href="#m44c" x="42600"/><use href="#m460" x="43200"/><use href="#m423" x="43800"/><use href="#m428" x="44400"/><use href="#m44d" x="45000"/><use href="#m45c" x="46200"/><use href="#m422" x="46800"/><use href="#m460" x="47400"/><use href="#m44d" x="48000"/><use href="#m42a" x="48600"/><use href="#m44d" x="49200"/><use href="#m44f" x="49800"/><use href="#m42a" x="50400"/><use href="#m428" x="51000"/><use href="#m423" x="51600"/><use href="#m44d" x="52200"/><use href="#m44f" x="52800"/><use href="#m42c" x="53400"/><use href="#m450" x="54000"/><use href="#m44d" x="54600"/><use href="#m429" x="55200"/><use href="#m42a" x="55800"/><use href="#m429" x="56400"/><use href="#m42a" x="57000"/><use href="#m451" x="57600"/><use href="#m478" x="58200"/><use href="#m46d" x="58800"/></g></svg>
