<svg xmlns="http://www.w3.org/2000/svg" width="820" height="420" font-family="sans-serif" font-size="12"><rect width="820" height="420" fill="white"/><text x="70" y="18" font-size="15" font-weight="bold">Clock holdover: timing-error confidence band (200 runs)</text><line x1="70" y1="370.0" x2="800" y2="370.0" stroke="#eee"/><text x="64" y="374.0" text-anchor="end" fill="#666" font-size="11">0</text><line x1="70" y1="285.0" x2="800" y2="285.0" stroke="#eee"/><text x="64" y="289.0" text-anchor="end" fill="#666" font-size="11">12</text><line x1="70" y1="200.0" x2="800" y2="200.0" stroke="#eee"/><text x="64" y="204.0" text-anchor="end" fill="#666" font-size="11">23</text><line x1="70" y1="115.0" x2="800" y2="115.0" stroke="#eee"/><text x="64" y="119.0" text-anchor="end" fill="#666" font-size="11">35</text><line x1="70" y1="30.0" x2="800" y2="30.0" stroke="#eee"/><text x="64" y="34.0" text-anchor="end" fill="#666" font-size="11">47</text><text x="16" y="200.0" text-anchor="middle" fill="#444" font-size="12" transform="rotate(-90 16 200.0)">timing error (ns)</text><polygon fill="#c0392b" fill-opacity="0.18" stroke="none" points="70.0,370.0 71.0,370.0 72.0,370.0 73.0,370.0 74.1,370.0 75.1,370.0 76.1,370.0 77.1,370.0 78.1,370.0 79.1,370.0 80.1,370.0 81.2,370.0 82.2,370.0 83.2,370.0 84.2,370.0 85.2,370.0 86.2,370.0 87.2,370.0 88.2,370.0 89.3,370.0 90.3,370.0 91.3,370.0 92.3,370.0 93.3,370.0 94.3,370.0 95.3,370.0 96.4,370.0 97.4,370.0 98.4,370.0 99.4,370.0 100.4,370.0 101.4,370.0 102.4,370.0 103.5,370.0 104.5,370.0 105.5,370.0 106.5,370.0 107.5,370.0 108.5,370.0 109.5,370.0 110.6,370.0 111.6,370.0 112.6,370.0 113.6,370.0 114.6,370.0 115.6,370.0 116.6,370.0 117.7,370.0 118.7,370.0 119.7,370.0 120.7,370.0 121.7,370.0 122.7,370.0 123.7,370.0 124.8,370.0 125.8,370.0 126.8,370.0 127.8,370.0 128.8,370.0 129.8,370.0 130.8,369.5 131.8,369.5 132.9,369.6 133.9,368.9 134.9,368.8 135.9,368.7 136.9,369.0 137.9,368.3 138.9,369.0 140.0,368.6 141.0,368.3 142.0,367.8 143.0,368.9 144.0,368.6 145.0,368.2 146.0,368.8 147.1,367.9 148.1,368.6 149.1,367.4 150.1,368.5 151.1,368.2 152.1,367.1 153.1,367.4 154.2,367.4 155.2,366.4 156.2,367.1 157.2,367.7 158.2,367.5 159.2,368.4 160.2,366.8 161.2,366.6 162.3,367.0 163.3,365.8 164.3,368.3 165.3,367.8 166.3,367.0 167.3,367.8 168.3,367.1 169.4,367.5 170.4,368.2 171.4,368.0 172.4,367.6 173.4,367.6 174.4,367.8 175.4,367.0 176.5,366.1 177.5,367.0 178.5,367.9 179.5,367.1 180.5,366.1 181.5,365.4 182.5,368.3 183.6,367.5 184.6,366.3 185.6,367.0 186.6,367.0 187.6,366.6 188.6,365.3 189.6,367.1 190.7,366.3 191.7,366.1 192.7,366.9 193.7,367.9 194.7,365.7 195.7,366.0 196.7,365.3 197.8,363.8 198.8,365.8 199.8,364.9 200.8,366.9 201.8,365.5 202.8,362.4 203.8,363.9 204.8,364.6 205.9,366.7 206.9,365.2 207.9,365.4 208.9,366.7 209.9,366.2 210.9,366.7 211.9,366.4 213.0,365.5 214.0,367.3 215.0,366.0 216.0,366.0 217.0,366.4 218.0,365.6 219.0,365.7 220.1,365.0 221.1,366.1 222.1,366.5 223.1,366.7 224.1,364.6 225.1,364.3 226.1,365.8 227.2,362.5 228.2,365.5 229.2,365.1 230.2,364.7 231.2,366.4 232.2,364.3 233.2,363.1 234.2,364.9 235.3,365.4 236.3,364.5 237.3,365.0 238.3,366.5 239.3,364.9 240.3,366.0 241.3,365.6 242.4,367.5 243.4,364.9 244.4,366.3 245.4,366.7 246.4,367.5 247.4,366.3 248.4,367.5 249.5,366.6 250.5,365.8 251.5,364.4 252.5,366.4 253.5,365.4 254.5,364.6 255.5,365.7 256.6,366.3 257.6,365.3 258.6,363.3 259.6,364.8 260.6,363.2 261.6,363.1 262.6,364.9 263.7,364.9 264.7,364.9 265.7,367.2 266.7,365.5 267.7,366.4 268.7,366.4 269.7,365.6 270.8,366.2 271.8,362.6 272.8,363.2 273.8,364.2 274.8,365.2 275.8,364.3 276.8,366.2 277.8,365.9 278.9,365.8 279.9,365.4 280.9,366.4 281.9,366.3 282.9,367.3 283.9,366.7 284.9,364.8 286.0,367.4 287.0,366.8 288.0,363.5 289.0,364.0 290.0,365.9 291.0,365.0 292.0,365.3 293.1,364.2 294.1,365.2 295.1,366.5 296.1,366.6 297.1,365.7 298.1,365.6 299.1,365.8 300.2,366.8 301.2,366.9 302.2,365.7 303.2,365.4 304.2,366.9 305.2,366.2 306.2,364.3 307.2,363.3 308.3,367.6 309.3,365.3 310.3,363.9 311.3,363.9 312.3,365.5 313.3,366.1 314.3,367.1 315.4,366.8 316.4,366.4 317.4,365.4 318.4,366.0 319.4,365.7 320.4,364.9 321.4,366.0 322.5,364.2 323.5,363.6 324.5,363.7 325.5,363.4 326.5,362.9 327.5,362.3 328.5,362.2 329.6,362.4 330.6,362.0 331.6,362.9 332.6,362.0 333.6,362.7 334.6,363.4 335.6,363.5 336.7,364.1 337.7,364.1 338.7,361.6 339.7,361.7 340.7,362.8 341.7,364.6 342.7,361.5 343.8,362.4 344.8,363.9 345.8,362.5 346.8,362.2 347.8,360.4 348.8,363.4 349.8,362.8 350.8,361.4 351.9,358.6 352.9,358.1 353.9,360.0 354.9,359.8 355.9,362.7 356.9,363.8 357.9,363.4 359.0,365.0 360.0,363.0 361.0,362.7 362.0,362.4 363.0,362.8 364.0,361.9 365.0,360.9 366.1,364.1 367.1,362.7 368.1,363.1 369.1,365.9 370.1,363.5 371.1,364.9 372.1,363.6 373.2,363.6 374.2,365.2 375.2,364.6 376.2,363.9 377.2,363.7 378.2,362.9 379.2,362.7 380.2,366.7 381.3,364.7 382.3,364.8 383.3,364.6 384.3,363.9 385.3,364.4 386.3,364.6 387.3,363.4 388.4,364.0 389.4,363.4 390.4,363.7 391.4,363.2 392.4,363.9 393.4,363.8 394.4,365.1 395.5,364.3 396.5,364.3 397.5,364.1 398.5,363.7 399.5,363.4 400.5,366.3 401.5,362.9 402.6,363.7 403.6,364.4 404.6,365.0 405.6,365.0 406.6,366.2 407.6,364.4 408.6,361.9 409.7,362.6 410.7,362.5 411.7,362.1 412.7,365.4 413.7,365.2 414.7,362.5 415.7,362.7 416.8,364.6 417.8,362.7 418.8,363.1 419.8,364.5 420.8,364.5 421.8,357.8 422.8,360.0 423.8,361.0 424.9,364.9 425.9,363.5 426.9,361.9 427.9,362.9 428.9,365.4 429.9,362.3 430.9,360.9 432.0,364.1 433.0,361.9 434.0,362.7 435.0,361.4 436.0,361.0 437.0,362.9 438.0,361.9 439.1,358.6 440.1,364.1 441.1,360.4 442.1,364.0 443.1,361.8 444.1,363.3 445.1,362.6 446.2,361.4 447.2,361.3 448.2,358.9 449.2,359.8 450.2,361.7 451.2,361.0 452.2,361.0 453.2,358.3 454.3,358.6 455.3,356.0 456.3,362.3 457.3,360.8 458.3,357.2 459.3,358.2 460.3,358.3 461.4,363.4 462.4,365.0 463.4,363.2 464.4,357.9 465.4,359.7 466.4,364.8 467.4,363.0 468.5,360.6 469.5,358.9 470.5,359.8 471.5,359.0 472.5,359.1 473.5,360.7 474.5,363.7 475.6,361.5 476.6,363.2 477.6,364.3 478.6,363.2 479.6,363.8 480.6,362.2 481.6,361.3 482.7,362.8 483.7,365.8 484.7,365.2 485.7,364.8 486.7,365.2 487.7,363.6 488.7,364.4 489.7,363.0 490.8,364.6 491.8,365.2 492.8,365.1 493.8,364.2 494.8,363.9 495.8,364.6 496.8,365.6 497.9,363.5 498.9,364.2 499.9,366.0 500.9,365.2 501.9,364.4 502.9,362.0 503.9,360.8 505.0,361.6 506.0,362.6 507.0,364.9 508.0,364.2 509.0,363.9 510.0,359.3 511.0,361.8 512.1,363.3 513.1,362.6 514.1,361.8 515.1,362.2 516.1,364.1 517.1,364.1 518.1,366.1 519.2,364.3 520.2,362.5 521.2,363.7 522.2,361.7 523.2,361.5 524.2,359.5 525.2,360.6 526.2,357.4 527.3,361.6 528.3,359.9 529.3,361.6 530.3,358.9 531.3,358.4 532.3,359.6 533.3,359.2 534.4,356.3 535.4,359.0 536.4,361.3 537.4,358.5 538.4,358.2 539.4,357.2 540.4,358.9 541.5,355.8 542.5,358.9 543.5,356.5 544.5,356.9 545.5,358.0 546.5,357.9 547.5,361.1 548.6,360.0 549.6,359.5 550.6,362.1 551.6,360.8 552.6,358.4 553.6,356.3 554.6,356.7 555.7,357.4 556.7,357.5 557.7,358.2 558.7,360.7 559.7,362.5 560.7,362.0 561.7,360.6 562.8,363.7 563.8,362.5 564.8,360.4 565.8,358.3 566.8,360.0 567.8,358.6 568.8,357.9 569.8,359.0 570.9,359.4 571.9,358.8 572.9,361.5 573.9,362.4 574.9,360.7 575.9,362.0 576.9,360.0 578.0,359.1 579.0,360.8 580.0,360.1 581.0,362.3 582.0,363.9 583.0,363.2 584.0,361.7 585.1,361.5 586.1,365.1 587.1,362.8 588.1,359.5 589.1,362.0 590.1,363.0 591.1,363.3 592.2,362.7 593.2,360.8 594.2,357.6 595.2,356.3 596.2,357.3 597.2,360.0 598.2,361.2 599.2,361.2 600.3,359.8 601.3,360.8 602.3,361.7 603.3,360.6 604.3,363.0 605.3,362.1 606.3,361.8 607.4,359.5 608.4,359.7 609.4,358.1 610.4,362.0 611.4,360.2 612.4,359.4 613.4,357.3 614.5,361.2 615.5,360.9 616.5,360.6 617.5,361.8 618.5,360.4 619.5,362.5 620.5,359.7 621.6,359.4 622.6,359.9 623.6,358.8 624.6,358.5 625.6,358.5 626.6,361.9 627.6,360.5 628.7,360.8 629.7,357.2 630.7,355.6 631.7,357.8 632.7,353.0 633.7,354.8 634.7,351.6 635.8,356.5 636.8,358.8 637.8,361.2 638.8,361.6 639.8,362.9 640.8,362.0 641.8,362.3 642.8,360.8 643.9,359.2 644.9,361.6 645.9,364.5 646.9,359.7 647.9,361.4 648.9,364.0 649.9,362.1 651.0,359.6 652.0,360.3 653.0,362.4 654.0,363.6 655.0,359.1 656.0,362.4 657.0,358.2 658.1,359.7 659.1,361.0 660.1,362.8 661.1,362.9 662.1,358.9 663.1,362.7 664.1,362.1 665.2,360.6 666.2,365.5 667.2,362.8 668.2,363.2 669.2,362.9 670.2,361.4 671.2,360.2 672.2,362.6 673.3,360.1 674.3,362.7 675.3,361.4 676.3,359.8 677.3,357.6 678.3,360.7 679.3,358.6 680.4,358.6 681.4,354.6 682.4,358.5 683.4,358.0 684.4,355.1 685.4,356.5 686.4,356.9 687.5,355.8 688.5,356.3 689.5,359.9 690.5,358.9 691.5,357.6 692.5,359.1 693.5,357.8 694.6,357.9 695.6,359.7 696.6,360.3 697.6,362.0 698.6,362.1 699.6,357.4 700.6,363.0 701.7,358.0 702.7,356.4 703.7,354.8 704.7,354.7 705.7,354.8 706.7,353.9 707.7,359.6 708.8,358.5 709.8,358.4 710.8,355.2 711.8,357.3 712.8,362.2 713.8,361.4 714.8,363.6 715.8,361.9 716.9,360.1 717.9,358.6 718.9,359.8 719.9,358.5 720.9,358.5 721.9,360.0 722.9,361.8 724.0,363.3 725.0,365.1 726.0,361.4 727.0,362.1 728.0,360.8 729.0,363.4 730.0,357.1 731.1,358.3 732.1,355.8 733.1,357.3 734.1,359.0 735.1,359.9 736.1,356.9 737.1,358.8 738.2,357.8 739.2,356.8 740.2,358.0 741.2,354.8 742.2,357.7 743.2,358.6 744.2,361.2 745.2,354.9 746.3,356.2 747.3,359.0 748.3,358.4 749.3,355.9 750.3,359.4 751.3,356.7 752.3,360.1 753.4,357.3 754.4,361.8 755.4,362.8 756.4,362.2 757.4,363.9 758.4,362.0 759.4,360.6 760.5,357.4 761.5,356.6 762.5,358.0 763.5,359.6 764.5,358.6 765.5,360.5 766.5,359.8 767.6,360.1 768.6,357.8 769.6,359.9 770.6,360.0 771.6,362.3 772.6,361.4 773.6,361.3 774.7,362.8 775.7,360.9 776.7,362.5 777.7,359.7 778.7,360.4 779.7,363.5 780.7,364.2 781.8,363.5 782.8,360.7 783.8,361.7 784.8,360.1 785.8,360.4 786.8,360.0 787.8,361.5 788.8,363.7 789.9,361.8 790.9,359.1 791.9,360.5 792.9,358.2 793.9,354.3 794.9,355.8 795.9,356.7 797.0,359.1 798.0,357.7 799.0,354.7 800.0,356.3 800.0,34.2 799.0,32.6 798.0,30.0 797.0,39.3 795.9,41.0 794.9,38.4 793.9,40.0 792.9,44.3 791.9,40.0 790.9,38.6 789.9,41.9 788.8,46.2 787.8,53.2 786.8,52.8 785.8,59.3 784.8,57.4 783.8,51.2 782.8,52.0 781.8,51.4 780.7,49.8 779.7,47.2 778.7,41.1 777.7,36.9 776.7,38.3 775.7,47.5 774.7,50.3 773.6,41.9 772.6,42.7 771.6,45.1 770.6,54.9 769.6,53.1 768.6,49.0 767.6,44.7 766.5,38.6 765.5,41.2 764.5,32.4 763.5,33.6 762.5,38.0 761.5,33.7 760.5,40.3 759.4,32.1 758.4,36.1 757.4,35.8 756.4,37.9 755.4,42.9 754.4,42.7 753.4,39.6 752.3,44.0 751.3,39.4 750.3,42.2 749.3,46.5 748.3,42.0 747.3,42.1 746.3,44.1 745.2,44.2 744.2,46.8 743.2,37.8 742.2,33.0 741.2,35.7 740.2,47.0 739.2,52.1 738.2,47.3 737.1,54.1 736.1,55.8 735.1,61.0 734.1,54.2 733.1,59.6 732.1,52.6 731.1,49.8 730.0,51.1 729.0,47.5 728.0,53.7 727.0,53.5 726.0,47.2 725.0,46.4 724.0,49.7 722.9,38.1 721.9,36.3 720.9,35.7 719.9,38.8 718.9,36.3 717.9,36.4 716.9,38.6 715.8,48.2 714.8,47.7 713.8,34.8 712.8,40.6 711.8,37.3 710.8,40.2 709.8,39.5 708.8,36.0 707.7,42.3 706.7,48.4 705.7,50.0 704.7,45.6 703.7,47.3 702.7,51.8 701.7,49.3 700.6,51.3 699.6,52.4 698.6,47.2 697.6,53.9 696.6,48.3 695.6,54.4 694.6,51.4 693.5,47.7 692.5,53.0 691.5,60.6 690.5,56.6 689.5,62.7 688.5,55.6 687.5,63.0 686.4,66.7 685.4,60.8 684.4,57.4 683.4,57.4 682.4,52.3 681.4,57.6 680.4,54.4 679.3,60.6 678.3,50.1 677.3,52.2 676.3,47.9 675.3,49.6 674.3,50.0 673.3,52.5 672.2,48.1 671.2,50.4 670.2,52.8 669.2,42.6 668.2,41.9 667.2,51.5 666.2,48.1 665.2,50.1 664.1,54.4 663.1,54.9 662.1,59.5 661.1,61.2 660.1,65.1 659.1,58.5 658.1,52.4 657.0,62.0 656.0,63.8 655.0,59.1 654.0,59.6 653.0,58.4 652.0,58.1 651.0,60.6 649.9,60.1 648.9,59.9 647.9,53.4 646.9,48.6 645.9,57.4 644.9,58.4 643.9,53.0 642.8,56.7 641.8,63.5 640.8,59.0 639.8,66.0 638.8,68.6 637.8,66.8 636.8,62.7 635.8,68.8 634.7,65.7 633.7,76.1 632.7,79.6 631.7,77.9 630.7,73.5 629.7,78.0 628.7,74.0 627.6,75.3 626.6,76.9 625.6,71.3 624.6,64.6 623.6,69.1 622.6,63.3 621.6,62.3 620.5,59.3 619.5,60.6 618.5,67.4 617.5,69.3 616.5,74.8 615.5,69.5 614.5,79.6 613.4,75.0 612.4,76.4 611.4,77.3 610.4,85.4 609.4,90.3 608.4,86.8 607.4,81.7 606.3,78.4 605.3,79.6 604.3,78.1 603.3,80.0 602.3,81.7 601.3,84.2 600.3,91.9 599.2,96.4 598.2,92.2 597.2,95.6 596.2,101.4 595.2,102.2 594.2,97.4 593.2,103.5 592.2,105.0 591.1,99.3 590.1,103.7 589.1,106.9 588.1,109.3 587.1,104.3 586.1,101.5 585.1,103.9 584.0,98.6 583.0,94.3 582.0,98.1 581.0,91.0 580.0,97.6 579.0,93.7 578.0,95.8 576.9,103.2 575.9,101.9 574.9,98.7 573.9,97.5 572.9,98.6 571.9,107.3 570.9,113.9 569.8,101.6 568.8,100.9 567.8,106.1 566.8,108.5 565.8,104.5 564.8,101.5 563.8,102.7 562.8,99.5 561.7,103.4 560.7,102.3 559.7,101.2 558.7,96.5 557.7,102.1 556.7,94.1 555.7,90.7 554.6,99.7 553.6,100.8 552.6,96.2 551.6,97.9 550.6,96.5 549.6,97.0 548.6,97.8 547.5,101.7 546.5,105.0 545.5,104.3 544.5,99.3 543.5,91.3 542.5,95.1 541.5,90.7 540.4,100.4 539.4,99.0 538.4,93.9 537.4,89.4 536.4,84.0 535.4,91.0 534.4,91.0 533.3,98.9 532.3,93.4 531.3,97.3 530.3,94.5 529.3,100.0 528.3,97.3 527.3,92.1 526.2,98.0 525.2,99.9 524.2,105.7 523.2,106.9 522.2,108.6 521.2,108.6 520.2,107.1 519.2,103.8 518.1,102.1 517.1,103.3 516.1,101.7 515.1,101.5 514.1,99.5 513.1,103.4 512.1,103.1 511.0,97.4 510.0,97.5 509.0,103.6 508.0,103.7 507.0,100.6 506.0,102.5 505.0,106.9 503.9,106.2 502.9,102.2 501.9,99.0 500.9,101.1 499.9,105.2 498.9,96.1 497.9,104.5 496.8,105.9 495.8,103.1 494.8,104.5 493.8,97.4 492.8,104.8 491.8,100.8 490.8,102.3 489.7,104.7 488.7,104.0 487.7,106.7 486.7,106.8 485.7,110.2 484.7,109.7 483.7,115.9 482.7,116.5 481.6,115.0 480.6,115.8 479.6,106.9 478.6,115.5 477.6,117.6 476.6,115.2 475.6,122.6 474.5,129.1 473.5,126.2 472.5,124.3 471.5,127.4 470.5,128.7 469.5,128.8 468.5,130.3 467.4,132.0 466.4,136.1 465.4,137.3 464.4,134.8 463.4,124.9 462.4,139.4 461.4,140.8 460.3,130.8 459.3,131.5 458.3,127.1 457.3,125.1 456.3,131.7 455.3,133.9 454.3,132.5 453.2,133.1 452.2,130.7 451.2,131.8 450.2,133.8 449.2,133.4 448.2,136.3 447.2,139.2 446.2,143.0 445.1,144.6 444.1,140.9 443.1,137.5 442.1,138.4 441.1,135.1 440.1,134.3 439.1,135.6 438.0,139.8 437.0,147.1 436.0,146.3 435.0,145.6 434.0,151.3 433.0,151.4 432.0,153.0 430.9,154.1 429.9,151.0 428.9,148.5 427.9,150.0 426.9,150.6 425.9,159.0 424.9,154.0 423.8,158.0 422.8,149.5 421.8,151.3 420.8,157.0 419.8,150.0 418.8,152.8 417.8,143.6 416.8,144.8 415.7,146.1 414.7,148.3 413.7,154.3 412.7,152.9 411.7,149.9 410.7,150.0 409.7,147.5 408.6,150.5 407.6,148.4 406.6,157.5 405.6,148.0 404.6,145.9 403.6,152.0 402.6,159.0 401.5,157.9 400.5,158.8 399.5,159.6 398.5,158.6 397.5,165.2 396.5,175.3 395.5,171.3 394.4,167.6 393.4,166.5 392.4,165.4 391.4,166.5 390.4,166.4 389.4,166.7 388.4,167.3 387.3,166.4 386.3,162.3 385.3,165.2 384.3,167.9 383.3,168.5 382.3,171.6 381.3,169.6 380.2,178.7 379.2,173.6 378.2,176.0 377.2,177.9 376.2,171.5 375.2,170.8 374.2,170.5 373.2,179.0 372.1,181.6 371.1,181.0 370.1,180.9 369.1,180.5 368.1,178.4 367.1,180.8 366.1,183.6 365.0,188.1 364.0,192.3 363.0,193.6 362.0,193.4 361.0,187.9 360.0,187.3 359.0,189.1 357.9,188.2 356.9,189.8 355.9,194.5 354.9,194.6 353.9,196.3 352.9,195.4 351.9,194.3 350.8,190.8 349.8,184.2 348.8,185.8 347.8,183.2 346.8,194.6 345.8,201.7 344.8,195.8 343.8,196.1 342.7,204.3 341.7,204.7 340.7,201.6 339.7,210.2 338.7,207.3 337.7,209.8 336.7,209.8 335.6,213.6 334.6,211.9 333.6,207.6 332.6,213.8 331.6,210.0 330.6,215.2 329.6,218.7 328.5,220.3 327.5,208.7 326.5,212.2 325.5,216.6 324.5,216.5 323.5,214.8 322.5,212.0 321.4,203.4 320.4,201.6 319.4,201.0 318.4,208.2 317.4,206.0 316.4,206.0 315.4,204.6 314.3,202.8 313.3,205.6 312.3,217.6 311.3,213.9 310.3,210.8 309.3,215.6 308.3,220.2 307.2,214.3 306.2,214.2 305.2,216.6 304.2,219.8 303.2,219.1 302.2,220.3 301.2,218.0 300.2,212.4 299.1,216.9 298.1,215.3 297.1,215.2 296.1,213.0 295.1,215.7 294.1,217.0 293.1,218.6 292.0,217.0 291.0,218.1 290.0,214.5 289.0,216.8 288.0,216.5 287.0,213.1 286.0,218.7 284.9,219.3 283.9,217.9 282.9,209.9 281.9,210.6 280.9,209.4 279.9,208.0 278.9,214.2 277.8,211.8 276.8,214.5 275.8,212.6 274.8,215.9 273.8,216.1 272.8,211.5 271.8,210.9 270.8,217.5 269.7,224.6 268.7,227.1 267.7,219.9 266.7,227.5 265.7,217.5 264.7,222.4 263.7,226.7 262.6,228.8 261.6,225.9 260.6,221.7 259.6,226.1 258.6,225.4 257.6,230.4 256.6,224.7 255.5,233.6 254.5,233.7 253.5,232.7 252.5,236.2 251.5,234.1 250.5,234.1 249.5,237.1 248.4,237.8 247.4,236.7 246.4,240.8 245.4,238.7 244.4,241.6 243.4,240.4 242.4,240.0 241.3,235.1 240.3,238.8 239.3,236.9 238.3,244.2 237.3,243.2 236.3,247.2 235.3,242.1 234.2,241.8 233.2,240.0 232.2,238.4 231.2,242.2 230.2,241.3 229.2,243.1 228.2,241.0 227.2,246.3 226.1,243.1 225.1,244.4 224.1,251.0 223.1,249.0 222.1,248.7 221.1,246.5 220.1,248.0 219.0,247.8 218.0,249.3 217.0,245.2 216.0,245.0 215.0,248.0 214.0,253.2 213.0,249.6 211.9,251.7 210.9,253.7 209.9,258.0 208.9,254.4 207.9,258.5 206.9,258.6 205.9,259.8 204.8,263.6 203.8,264.1 202.8,269.1 201.8,268.5 200.8,268.9 199.8,265.9 198.8,272.2 197.8,271.6 196.7,268.5 195.7,266.9 194.7,263.5 193.7,264.0 192.7,268.3 191.7,267.3 190.7,263.2 189.6,264.0 188.6,268.4 187.6,265.7 186.6,264.4 185.6,269.8 184.6,275.8 183.6,275.1 182.5,278.2 181.5,276.5 180.5,281.4 179.5,279.4 178.5,281.6 177.5,282.3 176.5,285.0 175.4,289.0 174.4,288.0 173.4,288.7 172.4,288.8 171.4,287.5 170.4,291.6 169.4,293.4 168.3,296.2 167.3,295.1 166.3,297.3 165.3,296.8 164.3,302.2 163.3,296.3 162.3,298.5 161.2,298.6 160.2,297.4 159.2,295.7 158.2,295.3 157.2,293.5 156.2,296.2 155.2,298.1 154.2,303.2 153.1,304.8 152.1,305.0 151.1,309.4 150.1,312.8 149.1,312.5 148.1,314.7 147.1,313.2 146.0,316.3 145.0,319.4 144.0,318.8 143.0,320.7 142.0,325.7 141.0,329.9 140.0,330.3 138.9,330.9 137.9,335.7 136.9,340.3 135.9,340.6 134.9,341.3 133.9,346.7 132.9,349.5 131.8,353.1 130.8,355.1 129.8,370.0 128.8,370.0 127.8,370.0 126.8,370.0 125.8,370.0 124.8,370.0 123.7,370.0 122.7,370.0 121.7,370.0 120.7,370.0 119.7,370.0 118.7,370.0 117.7,370.0 116.6,370.0 115.6,370.0 114.6,370.0 113.6,370.0 112.6,370.0 111.6,370.0 110.6,370.0 109.5,370.0 108.5,370.0 107.5,370.0 106.5,370.0 105.5,370.0 104.5,370.0 103.5,370.0 102.4,370.0 101.4,370.0 100.4,370.0 99.4,370.0 98.4,370.0 97.4,370.0 96.4,370.0 95.3,370.0 94.3,370.0 93.3,370.0 92.3,370.0 91.3,370.0 90.3,370.0 89.3,370.0 88.2,370.0 87.2,370.0 86.2,370.0 85.2,370.0 84.2,370.0 83.2,370.0 82.2,370.0 81.2,370.0 80.1,370.0 79.1,370.0 78.1,370.0 77.1,370.0 76.1,370.0 75.1,370.0 74.1,370.0 73.0,370.0 72.0,370.0 71.0,370.0 70.0,370.0"/><polygon fill="#2471a3" fill-opacity="0.18" stroke="none" points="70.0,370.0 71.0,370.0 72.0,370.0 73.0,370.0 74.1,370.0 75.1,370.0 76.1,370.0 77.1,370.0 78.1,370.0 79.1,370.0 80.1,370.0 81.2,370.0 82.2,370.0 83.2,370.0 84.2,370.0 85.2,370.0 86.2,370.0 87.2,370.0 88.2,370.0 89.3,370.0 90.3,370.0 91.3,370.0 92.3,370.0 93.3,370.0 94.3,370.0 95.3,370.0 96.4,370.0 97.4,370.0 98.4,370.0 99.4,370.0 100.4,370.0 101.4,370.0 102.4,370.0 103.5,370.0 104.5,370.0 105.5,370.0 106.5,370.0 107.5,370.0 108.5,370.0 109.5,370.0 110.6,370.0 111.6,370.0 112.6,370.0 113.6,370.0 114.6,370.0 115.6,370.0 116.6,370.0 117.7,370.0 118.7,370.0 119.7,370.0 120.7,370.0 121.7,370.0 122.7,370.0 123.7,370.0 124.8,370.0 125.8,370.0 126.8,370.0 127.8,370.0 128.8,370.0 129.8,370.0 130.8,370.0 131.8,370.0 132.9,370.0 133.9,370.0 134.9,370.0 135.9,370.0 136.9,370.0 137.9,370.0 138.9,370.0 140.0,370.0 141.0,370.0 142.0,370.0 143.0,370.0 144.0,370.0 145.0,370.0 146.0,370.0 147.1,370.0 148.1,370.0 149.1,370.0 150.1,370.0 151.1,370.0 152.1,370.0 153.1,370.0 154.2,370.0 155.2,370.0 156.2,370.0 157.2,370.0 158.2,370.0 159.2,370.0 160.2,370.0 161.2,370.0 162.3,370.0 163.3,370.0 164.3,370.0 165.3,370.0 166.3,370.0 167.3,370.0 168.3,370.0 169.4,370.0 170.4,370.0 171.4,370.0 172.4,370.0 173.4,370.0 174.4,370.0 175.4,370.0 176.5,370.0 177.5,370.0 178.5,370.0 179.5,370.0 180.5,370.0 181.5,370.0 182.5,370.0 183.6,370.0 184.6,370.0 185.6,370.0 186.6,370.0 187.6,370.0 188.6,370.0 189.6,370.0 190.7,370.0 191.7,370.0 192.7,370.0 193.7,370.0 194.7,370.0 195.7,370.0 196.7,370.0 197.8,370.0 198.8,370.0 199.8,370.0 200.8,370.0 201.8,370.0 202.8,370.0 203.8,370.0 204.8,370.0 205.9,370.0 206.9,370.0 207.9,370.0 208.9,370.0 209.9,370.0 210.9,370.0 211.9,370.0 213.0,370.0 214.0,370.0 215.0,370.0 216.0,370.0 217.0,370.0 218.0,370.0 219.0,370.0 220.1,370.0 221.1,370.0 222.1,370.0 223.1,370.0 224.1,370.0 225.1,370.0 226.1,370.0 227.2,370.0 228.2,370.0 229.2,370.0 230.2,370.0 231.2,370.0 232.2,370.0 233.2,370.0 234.2,370.0 235.3,370.0 236.3,370.0 237.3,370.0 238.3,370.0 239.3,370.0 240.3,370.0 241.3,370.0 242.4,370.0 243.4,370.0 244.4,370.0 245.4,370.0 246.4,370.0 247.4,370.0 248.4,370.0 249.5,370.0 250.5,370.0 251.5,370.0 252.5,370.0 253.5,370.0 254.5,370.0 255.5,370.0 256.6,370.0 257.6,370.0 258.6,370.0 259.6,370.0 260.6,370.0 261.6,370.0 262.6,370.0 263.7,370.0 264.7,370.0 265.7,370.0 266.7,370.0 267.7,370.0 268.7,370.0 269.7,370.0 270.8,370.0 271.8,370.0 272.8,370.0 273.8,370.0 274.8,370.0 275.8,370.0 276.8,370.0 277.8,370.0 278.9,370.0 279.9,370.0 280.9,370.0 281.9,370.0 282.9,370.0 283.9,370.0 284.9,370.0 286.0,370.0 287.0,370.0 288.0,370.0 289.0,370.0 290.0,370.0 291.0,370.0 292.0,370.0 293.1,370.0 294.1,370.0 295.1,370.0 296.1,370.0 297.1,370.0 298.1,370.0 299.1,370.0 300.2,370.0 301.2,370.0 302.2,370.0 303.2,370.0 304.2,370.0 305.2,370.0 306.2,370.0 307.2,370.0 308.3,370.0 309.3,370.0 310.3,370.0 311.3,370.0 312.3,370.0 313.3,370.0 314.3,370.0 315.4,370.0 316.4,370.0 317.4,370.0 318.4,370.0 319.4,370.0 320.4,370.0 321.4,370.0 322.5,370.0 323.5,370.0 324.5,370.0 325.5,370.0 326.5,370.0 327.5,370.0 328.5,370.0 329.6,370.0 330.6,370.0 331.6,370.0 332.6,370.0 333.6,370.0 334.6,370.0 335.6,370.0 336.7,370.0 337.7,370.0 338.7,370.0 339.7,370.0 340.7,370.0 341.7,370.0 342.7,370.0 343.8,370.0 344.8,370.0 345.8,370.0 346.8,370.0 347.8,370.0 348.8,370.0 349.8,370.0 350.8,370.0 351.9,370.0 352.9,370.0 353.9,370.0 354.9,370.0 355.9,370.0 356.9,370.0 357.9,370.0 359.0,370.0 360.0,370.0 361.0,370.0 362.0,370.0 363.0,370.0 364.0,370.0 365.0,370.0 366.1,370.0 367.1,370.0 368.1,370.0 369.1,370.0 370.1,370.0 371.1,370.0 372.1,370.0 373.2,370.0 374.2,370.0 375.2,370.0 376.2,370.0 377.2,370.0 378.2,370.0 379.2,370.0 380.2,370.0 381.3,370.0 382.3,370.0 383.3,370.0 384.3,370.0 385.3,370.0 386.3,370.0 387.3,370.0 388.4,370.0 389.4,370.0 390.4,370.0 391.4,370.0 392.4,370.0 393.4,370.0 394.4,370.0 395.5,370.0 396.5,370.0 397.5,370.0 398.5,370.0 399.5,370.0 400.5,370.0 401.5,370.0 402.6,370.0 403.6,370.0 404.6,370.0 405.6,370.0 406.6,370.0 407.6,370.0 408.6,370.0 409.7,370.0 410.7,370.0 411.7,370.0 412.7,370.0 413.7,370.0 414.7,370.0 415.7,370.0 416.8,370.0 417.8,370.0 418.8,370.0 419.8,370.0 420.8,370.0 421.8,370.0 422.8,370.0 423.8,370.0 424.9,370.0 425.9,370.0 426.9,370.0 427.9,370.0 428.9,370.0 429.9,370.0 430.9,370.0 432.0,370.0 433.0,370.0 434.0,370.0 435.0,370.0 436.0,370.0 437.0,370.0 438.0,370.0 439.1,370.0 440.1,370.0 441.1,370.0 442.1,370.0 443.1,370.0 444.1,370.0 445.1,370.0 446.2,370.0 447.2,370.0 448.2,370.0 449.2,370.0 450.2,370.0 451.2,370.0 452.2,370.0 453.2,370.0 454.3,370.0 455.3,370.0 456.3,370.0 457.3,370.0 458.3,370.0 459.3,370.0 460.3,370.0 461.4,370.0 462.4,370.0 463.4,370.0 464.4,370.0 465.4,370.0 466.4,370.0 467.4,370.0 468.5,370.0 469.5,370.0 470.5,370.0 471.5,370.0 472.5,370.0 473.5,370.0 474.5,370.0 475.6,370.0 476.6,370.0 477.6,370.0 478.6,370.0 479.6,370.0 480.6,370.0 481.6,370.0 482.7,370.0 483.7,370.0 484.7,370.0 485.7,370.0 486.7,370.0 487.7,370.0 488.7,370.0 489.7,370.0 490.8,370.0 491.8,370.0 492.8,370.0 493.8,370.0 494.8,370.0 495.8,370.0 496.8,370.0 497.9,370.0 498.9,370.0 499.9,370.0 500.9,370.0 501.9,370.0 502.9,370.0 503.9,370.0 505.0,370.0 506.0,370.0 507.0,370.0 508.0,370.0 509.0,370.0 510.0,370.0 511.0,370.0 512.1,370.0 513.1,370.0 514.1,370.0 515.1,370.0 516.1,370.0 517.1,370.0 518.1,370.0 519.2,370.0 520.2,370.0 521.2,370.0 522.2,370.0 523.2,370.0 524.2,370.0 525.2,370.0 526.2,370.0 527.3,370.0 528.3,370.0 529.3,370.0 530.3,370.0 531.3,370.0 532.3,370.0 533.3,370.0 534.4,370.0 535.4,370.0 536.4,370.0 537.4,370.0 538.4,370.0 539.4,370.0 540.4,370.0 541.5,370.0 542.5,370.0 543.5,370.0 544.5,370.0 545.5,370.0 546.5,370.0 547.5,370.0 548.6,370.0 549.6,370.0 550.6,370.0 551.6,370.0 552.6,370.0 553.6,370.0 554.6,370.0 555.7,370.0 556.7,370.0 557.7,370.0 558.7,370.0 559.7,370.0 560.7,370.0 561.7,370.0 562.8,370.0 563.8,370.0 564.8,370.0 565.8,370.0 566.8,370.0 567.8,370.0 568.8,370.0 569.8,370.0 570.9,370.0 571.9,370.0 572.9,370.0 573.9,370.0 574.9,370.0 575.9,370.0 576.9,370.0 578.0,370.0 579.0,370.0 580.0,370.0 581.0,370.0 582.0,370.0 583.0,370.0 584.0,370.0 585.1,370.0 586.1,370.0 587.1,370.0 588.1,370.0 589.1,370.0 590.1,370.0 591.1,370.0 592.2,370.0 593.2,370.0 594.2,370.0 595.2,370.0 596.2,370.0 597.2,370.0 598.2,370.0 599.2,370.0 600.3,370.0 601.3,370.0 602.3,370.0 603.3,370.0 604.3,370.0 605.3,370.0 606.3,370.0 607.4,370.0 608.4,370.0 609.4,370.0 610.4,370.0 611.4,370.0 612.4,370.0 613.4,370.0 614.5,370.0 615.5,370.0 616.5,370.0 617.5,370.0 618.5,370.0 619.5,370.0 620.5,370.0 621.6,370.0 622.6,370.0 623.6,370.0 624.6,370.0 625.6,370.0 626.6,370.0 627.6,370.0 628.7,370.0 629.7,370.0 630.7,370.0 631.7,370.0 632.7,370.0 633.7,370.0 634.7,370.0 635.8,370.0 636.8,370.0 637.8,370.0 638.8,370.0 639.8,370.0 640.8,370.0 641.8,370.0 642.8,370.0 643.9,370.0 644.9,370.0 645.9,370.0 646.9,370.0 647.9,370.0 648.9,370.0 649.9,370.0 651.0,370.0 652.0,370.0 653.0,370.0 654.0,370.0 655.0,370.0 656.0,370.0 657.0,370.0 658.1,370.0 659.1,370.0 660.1,370.0 661.1,370.0 662.1,370.0 663.1,370.0 664.1,370.0 665.2,370.0 666.2,370.0 667.2,370.0 668.2,370.0 669.2,370.0 670.2,370.0 671.2,370.0 672.2,370.0 673.3,370.0 674.3,370.0 675.3,370.0 676.3,370.0 677.3,370.0 678.3,370.0 679.3,370.0 680.4,370.0 681.4,370.0 682.4,370.0 683.4,370.0 684.4,370.0 685.4,370.0 686.4,370.0 687.5,370.0 688.5,370.0 689.5,370.0 690.5,370.0 691.5,370.0 692.5,370.0 693.5,370.0 694.6,370.0 695.6,370.0 696.6,370.0 697.6,370.0 698.6,370.0 699.6,370.0 700.6,370.0 701.7,370.0 702.7,370.0 703.7,370.0 704.7,370.0 705.7,370.0 706.7,370.0 707.7,370.0 708.8,370.0 709.8,370.0 710.8,370.0 711.8,370.0 712.8,370.0 713.8,370.0 714.8,370.0 715.8,370.0 716.9,370.0 717.9,370.0 718.9,370.0 719.9,370.0 720.9,370.0 721.9,370.0 722.9,370.0 724.0,370.0 725.0,370.0 726.0,370.0 727.0,370.0 728.0,370.0 729.0,370.0 730.0,370.0 731.1,370.0 732.1,370.0 733.1,370.0 734.1,370.0 735.1,370.0 736.1,370.0 737.1,370.0 738.2,370.0 739.2,370.0 740.2,370.0 741.2,370.0 742.2,370.0 743.2,370.0 744.2,370.0 745.2,370.0 746.3,370.0 747.3,370.0 748.3,370.0 749.3,370.0 750.3,370.0 751.3,370.0 752.3,370.0 753.4,370.0 754.4,370.0 755.4,370.0 756.4,370.0 757.4,370.0 758.4,370.0 759.4,370.0 760.5,370.0 761.5,370.0 762.5,370.0 763.5,370.0 764.5,370.0 765.5,370.0 766.5,370.0 767.6,370.0 768.6,370.0 769.6,370.0 770.6,370.0 771.6,370.0 772.6,370.0 773.6,370.0 774.7,370.0 775.7,370.0 776.7,370.0 777.7,370.0 778.7,370.0 779.7,370.0 780.7,370.0 781.8,370.0 782.8,370.0 783.8,370.0 784.8,370.0 785.8,370.0 786.8,370.0 787.8,370.0 788.8,370.0 789.9,370.0 790.9,370.0 791.9,370.0 792.9,370.0 793.9,370.0 794.9,370.0 795.9,370.0 797.0,370.0 798.0,370.0 799.0,370.0 800.0,370.0 800.0,370.0 799.0,370.0 798.0,370.0 797.0,370.0 795.9,370.0 794.9,370.0 793.9,370.0 792.9,370.0 791.9,370.0 790.9,370.0 789.9,370.0 788.8,370.0 787.8,370.0 786.8,370.0 785.8,370.0 784.8,370.0 783.8,370.0 782.8,370.0 781.8,370.0 780.7,370.0 779.7,370.0 778.7,370.0 777.7,370.0 776.7,370.0 775.7,370.0 774.7,370.0 773.6,370.0 772.6,370.0 771.6,370.0 770.6,370.0 769.6,370.0 768.6,370.0 767.6,370.0 766.5,370.0 765.5,370.0 764.5,370.0 763.5,370.0 762.5,370.0 761.5,370.0 760.5,370.0 759.4,370.0 758.4,370.0 757.4,370.0 756.4,370.0 755.4,370.0 754.4,370.0 753.4,370.0 752.3,370.0 751.3,370.0 750.3,370.0 749.3,370.0 748.3,370.0 747.3,370.0 746.3,370.0 745.2,370.0 744.2,370.0 743.2,370.0 742.2,370.0 741.2,370.0 740.2,370.0 739.2,370.0 738.2,370.0 737.1,370.0 736.1,370.0 735.1,370.0 734.1,370.0 733.1,370.0 732.1,370.0 731.1,370.0 730.0,370.0 729.0,370.0 728.0,370.0 727.0,370.0 726.0,370.0 725.0,370.0 724.0,370.0 722.9,370.0 721.9,370.0 720.9,370.0 719.9,370.0 718.9,370.0 717.9,370.0 716.9,370.0 715.8,370.0 714.8,370.0 713.8,370.0 712.8,370.0 711.8,370.0 710.8,370.0 709.8,370.0 708.8,370.0 707.7,370.0 706.7,370.0 705.7,370.0 704.7,370.0 703.7,370.0 702.7,370.0 701.7,370.0 700.6,370.0 699.6,370.0 698.6,370.0 697.6,370.0 696.6,370.0 695.6,370.0 694.6,370.0 693.5,370.0 692.5,370.0 691.5,370.0 690.5,370.0 689.5,370.0 688.5,370.0 687.5,370.0 686.4,370.0 685.4,370.0 684.4,370.0 683.4,370.0 682.4,370.0 681.4,370.0 680.4,370.0 679.3,370.0 678.3,370.0 677.3,370.0 676.3,370.0 675.3,370.0 674.3,370.0 673.3,370.0 672.2,370.0 671.2,370.0 670.2,370.0 669.2,370.0 668.2,370.0 667.2,370.0 666.2,370.0 665.2,370.0 664.1,370.0 663.1,370.0 662.1,370.0 661.1,370.0 660.1,370.0 659.1,370.0 658.1,370.0 657.0,370.0 656.0,370.0 655.0,370.0 654.0,370.0 653.0,370.0 652.0,370.0 651.0,370.0 649.9,370.0 648.9,370.0 647.9,370.0 646.9,370.0 645.9,370.0 644.9,370.0 643.9,370.0 642.8,370.0 641.8,370.0 640.8,370.0 639.8,370.0 638.8,370.0 637.8,370.0 636.8,370.0 635.8,370.0 634.7,370.0 633.7,370.0 632.7,370.0 631.7,370.0 630.7,370.0 629.7,370.0 628.7,370.0 627.6,370.0 626.6,370.0 625.6,370.0 624.6,370.0 623.6,370.0 622.6,370.0 621.6,370.0 620.5,370.0 619.5,370.0 618.5,370.0 617.5,370.0 616.5,370.0 615.5,370.0 614.5,370.0 613.4,370.0 612.4,370.0 611.4,370.0 610.4,370.0 609.4,370.0 608.4,370.0 607.4,370.0 606.3,370.0 605.3,370.0 604.3,370.0 603.3,370.0 602.3,370.0 601.3,370.0 600.3,370.0 599.2,370.0 598.2,370.0 597.2,370.0 596.2,370.0 595.2,370.0 594.2,370.0 593.2,370.0 592.2,370.0 591.1,370.0 590.1,370.0 589.1,370.0 588.1,370.0 587.1,370.0 586.1,370.0 585.1,370.0 584.0,370.0 583.0,370.0 582.0,370.0 581.0,370.0 580.0,370.0 579.0,370.0 578.0,370.0 576.9,370.0 575.9,370.0 574.9,370.0 573.9,370.0 572.9,370.0 571.9,370.0 570.9,370.0 569.8,370.0 568.8,370.0 567.8,370.0 566.8,370.0 565.8,370.0 564.8,370.0 563.8,370.0 562.8,370.0 561.7,370.0 560.7,370.0 559.7,370.0 558.7,370.0 557.7,370.0 556.7,370.0 555.7,370.0 554.6,370.0 553.6,370.0 552.6,370.0 551.6,370.0 550.6,370.0 549.6,370.0 548.6,370.0 547.5,370.0 546.5,370.0 545.5,370.0 544.5,370.0 543.5,370.0 542.5,370.0 541.5,370.0 540.4,370.0 539.4,370.0 538.4,370.0 537.4,370.0 536.4,370.0 535.4,370.0 534.4,370.0 533.3,370.0 532.3,370.0 531.3,370.0 530.3,370.0 529.3,370.0 528.3,370.0 527.3,370.0 526.2,370.0 525.2,370.0 524.2,370.0 523.2,370.0 522.2,370.0 521.2,370.0 520.2,370.0 519.2,370.0 518.1,370.0 517.1,370.0 516.1,370.0 515.1,370.0 514.1,370.0 513.1,370.0 512.1,370.0 511.0,370.0 510.0,370.0 509.0,370.0 508.0,370.0 507.0,370.0 506.0,370.0 505.0,370.0 503.9,370.0 502.9,370.0 501.9,370.0 500.9,370.0 499.9,370.0 498.9,370.0 497.9,370.0 496.8,370.0 495.8,370.0 494.8,370.0 493.8,370.0 492.8,370.0 491.8,370.0 490.8,370.0 489.7,370.0 488.7,370.0 487.7,370.0 486.7,370.0 485.7,370.0 484.7,370.0 483.7,370.0 482.7,370.0 481.6,370.0 480.6,370.0 479.6,370.0 478.6,370.0 477.6,370.0 476.6,370.0 475.6,370.0 474.5,370.0 473.5,370.0 472.5,370.0 471.5,370.0 470.5,370.0 469.5,370.0 468.5,370.0 467.4,370.0 466.4,370.0 465.4,370.0 464.4,370.0 463.4,370.0 462.4,370.0 461.4,370.0 460.3,370.0 459.3,370.0 458.3,370.0 457.3,370.0 456.3,370.0 455.3,370.0 454.3,370.0 453.2,370.0 452.2,370.0 451.2,370.0 450.2,370.0 449.2,370.0 448.2,370.0 447.2,370.0 446.2,370.0 445.1,370.0 444.1,370.0 443.1,370.0 442.1,370.0 441.1,370.0 440.1,370.0 439.1,370.0 438.0,370.0 437.0,370.0 436.0,370.0 435.0,370.0 434.0,370.0 433.0,370.0 432.0,370.0 430.9,370.0 429.9,370.0 428.9,370.0 427.9,370.0 426.9,370.0 425.9,370.0 424.9,370.0 423.8,370.0 422.8,370.0 421.8,370.0 420.8,370.0 419.8,370.0 418.8,370.0 417.8,370.0 416.8,370.0 415.7,370.0 414.7,370.0 413.7,370.0 412.7,370.0 411.7,370.0 410.7,370.0 409.7,370.0 408.6,370.0 407.6,370.0 406.6,370.0 405.6,370.0 404.6,370.0 403.6,370.0 402.6,370.0 401.5,370.0 400.5,370.0 399.5,370.0 398.5,370.0 397.5,370.0 396.5,370.0 395.5,370.0 394.4,370.0 393.4,370.0 392.4,370.0 391.4,370.0 390.4,370.0 389.4,370.0 388.4,370.0 387.3,370.0 386.3,370.0 385.3,370.0 384.3,370.0 383.3,370.0 382.3,370.0 381.3,370.0 380.2,370.0 379.2,370.0 378.2,370.0 377.2,370.0 376.2,370.0 375.2,370.0 374.2,370.0 373.2,370.0 372.1,370.0 371.1,370.0 370.1,370.0 369.1,370.0 368.1,370.0 367.1,370.0 366.1,370.0 365.0,370.0 364.0,370.0 363.0,370.0 362.0,370.0 361.0,370.0 360.0,370.0 359.0,370.0 357.9,370.0 356.9,370.0 355.9,370.0 354.9,370.0 353.9,370.0 352.9,370.0 351.9,370.0 350.8,370.0 349.8,370.0 348.8,370.0 347.8,370.0 346.8,370.0 345.8,370.0 344.8,370.0 343.8,370.0 342.7,370.0 341.7,370.0 340.7,370.0 339.7,370.0 338.7,370.0 337.7,370.0 336.7,370.0 335.6,370.0 334.6,370.0 333.6,370.0 332.6,370.0 331.6,370.0 330.6,370.0 329.6,370.0 328.5,370.0 327.5,370.0 326.5,370.0 325.5,370.0 324.5,370.0 323.5,370.0 322.5,370.0 321.4,370.0 320.4,370.0 319.4,370.0 318.4,370.0 317.4,370.0 316.4,370.0 315.4,370.0 314.3,370.0 313.3,370.0 312.3,370.0 311.3,370.0 310.3,370.0 309.3,370.0 308.3,370.0 307.2,370.0 306.2,370.0 305.2,370.0 304.2,370.0 303.2,370.0 302.2,370.0 301.2,370.0 300.2,370.0 299.1,370.0 298.1,370.0 297.1,370.0 296.1,370.0 295.1,370.0 294.1,370.0 293.1,370.0 292.0,370.0 291.0,370.0 290.0,370.0 289.0,370.0 288.0,370.0 287.0,370.0 286.0,370.0 284.9,370.0 283.9,370.0 282.9,370.0 281.9,370.0 280.9,370.0 279.9,370.0 278.9,370.0 277.8,370.0 276.8,370.0 275.8,370.0 274.8,370.0 273.8,370.0 272.8,370.0 271.8,370.0 270.8,370.0 269.7,370.0 268.7,370.0 267.7,370.0 266.7,370.0 265.7,370.0 264.7,370.0 263.7,370.0 262.6,370.0 261.6,370.0 260.6,370.0 259.6,370.0 258.6,370.0 257.6,370.0 256.6,370.0 255.5,370.0 254.5,370.0 253.5,370.0 252.5,370.0 251.5,370.0 250.5,370.0 249.5,370.0 248.4,370.0 247.4,370.0 246.4,370.0 245.4,370.0 244.4,370.0 243.4,370.0 242.4,370.0 241.3,370.0 240.3,370.0 239.3,370.0 238.3,370.0 237.3,370.0 236.3,370.0 235.3,370.0 234.2,370.0 233.2,370.0 232.2,370.0 231.2,370.0 230.2,370.0 229.2,370.0 228.2,370.0 227.2,370.0 226.1,370.0 225.1,370.0 224.1,370.0 223.1,370.0 222.1,370.0 221.1,370.0 220.1,370.0 219.0,370.0 218.0,370.0 217.0,370.0 216.0,370.0 215.0,370.0 214.0,370.0 213.0,370.0 211.9,370.0 210.9,370.0 209.9,370.0 208.9,370.0 207.9,370.0 206.9,370.0 205.9,370.0 204.8,370.0 203.8,370.0 202.8,370.0 201.8,370.0 200.8,370.0 199.8,370.0 198.8,370.0 197.8,370.0 196.7,370.0 195.7,370.0 194.7,370.0 193.7,370.0 192.7,370.0 191.7,370.0 190.7,370.0 189.6,370.0 188.6,370.0 187.6,370.0 186.6,370.0 185.6,370.0 184.6,370.0 183.6,370.0 182.5,370.0 181.5,370.0 180.5,370.0 179.5,370.0 178.5,370.0 177.5,370.0 176.5,370.0 175.4,370.0 174.4,370.0 173.4,370.0 172.4,370.0 171.4,370.0 170.4,370.0 169.4,370.0 168.3,370.0 167.3,370.0 166.3,370.0 165.3,370.0 164.3,370.0 163.3,370.0 162.3,370.0 161.2,370.0 160.2,370.0 159.2,370.0 158.2,370.0 157.2,370.0 156.2,370.0 155.2,370.0 154.2,370.0 153.1,370.0 152.1,370.0 151.1,370.0 150.1,370.0 149.1,370.0 148.1,370.0 147.1,370.0 146.0,370.0 145.0,370.0 144.0,370.0 143.0,370.0 142.0,370.0 141.0,370.0 140.0,370.0 138.9,370.0 137.9,370.0 136.9,370.0 135.9,370.0 134.9,370.0 133.9,370.0 132.9,370.0 131.8,370.0 130.8,370.0 129.8,370.0 128.8,370.0 127.8,370.0 126.8,370.0 125.8,370.0 124.8,370.0 123.7,370.0 122.7,370.0 121.7,370.0 120.7,370.0 119.7,370.0 118.7,370.0 117.7,370.0 116.6,370.0 115.6,370.0 114.6,370.0 113.6,370.0 112.6,370.0 111.6,370.0 110.6,370.0 109.5,370.0 108.5,370.0 107.5,370.0 106.5,370.0 105.5,370.0 104.5,370.0 103.5,370.0 102.4,370.0 101.4,370.0 100.4,370.0 99.4,370.0 98.4,370.0 97.4,370.0 96.4,370.0 95.3,370.0 94.3,370.0 93.3,370.0 92.3,370.0 91.3,370.0 90.3,370.0 89.3,370.0 88.2,370.0 87.2,370.0 86.2,370.0 85.2,370.0 84.2,370.0 83.2,370.0 82.2,370.0 81.2,370.0 80.1,370.0 79.1,370.0 78.1,370.0 77.1,370.0 76.1,370.0 75.1,370.0 74.1,370.0 73.0,370.0 72.0,370.0 71.0,370.0 70.0,370.0"/><line x1="70" y1="30" x2="70" y2="370" stroke="#888"/><line x1="70" y1="370" x2="800" y2="370" stroke="#888"/><line x1="70" y1="224.2" x2="800" y2="224.2" stroke="#d33" stroke-dasharray="6 4"/><text x="74" y="220.2" fill="#d33">spec 20 ns</text><polyline fill="none" stroke="#c0392b" stroke-width="2" points="70.0,370.0 71.0,370.0 72.0,370.0 73.0,370.0 74.1,370.0 75.1,370.0 76.1,370.0 77.1,370.0 78.1,370.0 79.1,370.0 80.1,370.0 81.2,370.0 82.2,370.0 83.2,370.0 84.2,370.0 85.2,370.0 86.2,370.0 87.2,370.0 88.2,370.0 89.3,370.0 90.3,370.0 91.3,370.0 92.3,370.0 93.3,370.0 94.3,370.0 95.3,370.0 96.4,370.0 97.4,370.0 98.4,370.0 99.4,370.0 100.4,370.0 101.4,370.0 102.4,370.0 103.5,370.0 104.5,370.0 105.5,370.0 106.5,370.0 107.5,370.0 108.5,370.0 109.5,370.0 110.6,370.0 111.6,370.0 112.6,370.0 113.6,370.0 114.6,370.0 115.6,370.0 116.6,370.0 117.7,370.0 118.7,370.0 119.7,370.0 120.7,370.0 121.7,370.0 122.7,370.0 123.7,370.0 124.8,370.0 125.8,370.0 126.8,370.0 127.8,370.0 128.8,370.0 129.8,370.0 130.8,366.4 131.8,363.1 132.9,362.1 133.9,360.4 134.9,360.5 135.9,358.6 136.9,359.0 137.9,358.0 138.9,355.0 140.0,353.9 141.0,353.1 142.0,353.3 143.0,353.7 144.0,352.0 145.0,352.2 146.0,352.3 147.1,350.8 148.1,350.1 149.1,349.3 150.1,348.6 151.1,346.9 152.1,348.1 153.1,347.2 154.2,346.8 155.2,345.9 156.2,347.5 157.2,346.1 158.2,346.9 159.2,344.1 160.2,342.4 161.2,342.9 162.3,343.4 163.3,343.1 164.3,344.9 165.3,345.3 166.3,340.6 167.3,343.4 168.3,344.4 169.4,342.8 170.4,340.8 171.4,341.1 172.4,338.7 173.4,339.9 174.4,340.1 175.4,338.4 176.5,340.0 177.5,339.7 178.5,339.1 179.5,337.6 180.5,336.3 181.5,335.2 182.5,333.9 183.6,336.4 184.6,334.4 185.6,333.9 186.6,333.3 187.6,332.6 188.6,332.7 189.6,331.9 190.7,333.6 191.7,332.2 192.7,331.9 193.7,327.6 194.7,329.5 195.7,331.2 196.7,332.5 197.8,332.5 198.8,331.0 199.8,331.4 200.8,331.3 201.8,331.3 202.8,332.8 203.8,332.3 204.8,329.1 205.9,332.4 206.9,330.3 207.9,330.8 208.9,330.9 209.9,331.0 210.9,330.6 211.9,328.5 213.0,327.7 214.0,329.1 215.0,329.9 216.0,328.5 217.0,328.4 218.0,330.1 219.0,331.4 220.1,329.9 221.1,330.3 222.1,331.2 223.1,327.9 224.1,330.1 225.1,329.5 226.1,329.1 227.2,328.2 228.2,326.8 229.2,325.2 230.2,326.2 231.2,325.7 232.2,328.0 233.2,326.6 234.2,326.5 235.3,328.3 236.3,325.8 237.3,324.7 238.3,325.3 239.3,324.9 240.3,324.0 241.3,322.9 242.4,322.8 243.4,322.2 244.4,321.6 245.4,322.9 246.4,322.8 247.4,323.0 248.4,324.8 249.5,322.0 250.5,320.7 251.5,320.7 252.5,321.2 253.5,319.1 254.5,317.7 255.5,320.0 256.6,317.8 257.6,320.6 258.6,317.1 259.6,317.7 260.6,318.5 261.6,321.7 262.6,320.5 263.7,320.2 264.7,316.8 265.7,317.9 266.7,318.3 267.7,317.2 268.7,314.5 269.7,316.3 270.8,315.5 271.8,315.8 272.8,314.4 273.8,314.4 274.8,316.3 275.8,317.4 276.8,318.6 277.8,318.5 278.9,319.8 279.9,320.9 280.9,323.0 281.9,319.0 282.9,318.9 283.9,317.2 284.9,316.9 286.0,316.3 287.0,317.9 288.0,317.3 289.0,318.5 290.0,315.5 291.0,312.3 292.0,314.0 293.1,313.1 294.1,310.7 295.1,310.4 296.1,309.1 297.1,310.8 298.1,312.1 299.1,311.5 300.2,309.6 301.2,308.1 302.2,308.7 303.2,311.0 304.2,309.4 305.2,310.2 306.2,310.4 307.2,307.2 308.3,309.2 309.3,309.0 310.3,306.2 311.3,304.2 312.3,304.0 313.3,300.2 314.3,305.7 315.4,305.5 316.4,306.6 317.4,306.2 318.4,311.2 319.4,310.0 320.4,310.0 321.4,308.8 322.5,310.8 323.5,307.7 324.5,313.2 325.5,308.7 326.5,309.5 327.5,308.6 328.5,307.0 329.6,307.9 330.6,305.3 331.6,305.6 332.6,304.6 333.6,304.1 334.6,302.4 335.6,300.9 336.7,300.6 337.7,300.2 338.7,300.1 339.7,297.1 340.7,300.4 341.7,298.8 342.7,302.1 343.8,304.4 344.8,303.4 345.8,303.6 346.8,303.4 347.8,303.3 348.8,302.0 349.8,303.1 350.8,300.0 351.9,301.4 352.9,301.0 353.9,299.5 354.9,298.2 355.9,298.9 356.9,301.5 357.9,300.2 359.0,299.9 360.0,303.9 361.0,304.9 362.0,306.1 363.0,303.3 364.0,301.7 365.0,299.6 366.1,298.8 367.1,296.9 368.1,296.5 369.1,299.4 370.1,299.5 371.1,299.0 372.1,297.8 373.2,300.7 374.2,301.5 375.2,296.5 376.2,298.6 377.2,295.9 378.2,297.8 379.2,296.1 380.2,294.5 381.3,295.7 382.3,294.2 383.3,294.1 384.3,291.8 385.3,293.6 386.3,292.3 387.3,296.8 388.4,293.0 389.4,296.9 390.4,296.1 391.4,296.7 392.4,299.0 393.4,298.2 394.4,299.9 395.5,298.0 396.5,300.0 397.5,299.2 398.5,296.9 399.5,297.8 400.5,295.0 401.5,296.6 402.6,297.5 403.6,296.4 404.6,295.7 405.6,299.4 406.6,298.1 407.6,296.1 408.6,298.4 409.7,298.0 410.7,298.0 411.7,298.2 412.7,300.6 413.7,300.1 414.7,301.5 415.7,300.8 416.8,300.8 417.8,301.3 418.8,302.0 419.8,300.7 420.8,297.8 421.8,300.2 422.8,300.1 423.8,300.2 424.9,298.3 425.9,298.9 426.9,299.0 427.9,298.7 428.9,298.3 429.9,298.4 430.9,296.9 432.0,299.4 433.0,300.1 434.0,301.4 435.0,302.0 436.0,298.0 437.0,299.9 438.0,299.7 439.1,299.1 440.1,295.7 441.1,295.4 442.1,292.2 443.1,295.4 444.1,294.3 445.1,295.4 446.2,296.5 447.2,292.0 448.2,294.3 449.2,296.4 450.2,295.1 451.2,293.3 452.2,294.7 453.2,295.6 454.3,292.2 455.3,291.1 456.3,295.6 457.3,293.3 458.3,293.2 459.3,293.4 460.3,295.6 461.4,295.2 462.4,297.2 463.4,297.4 464.4,295.2 465.4,294.3 466.4,293.3 467.4,291.4 468.5,293.6 469.5,291.9 470.5,293.5 471.5,293.1 472.5,292.4 473.5,294.2 474.5,292.5 475.6,293.2 476.6,293.2 477.6,296.8 478.6,297.3 479.6,297.8 480.6,295.2 481.6,295.7 482.7,299.0 483.7,294.5 484.7,296.3 485.7,295.1 486.7,295.5 487.7,295.5 488.7,294.3 489.7,292.5 490.8,286.3 491.8,286.6 492.8,287.8 493.8,284.9 494.8,287.8 495.8,288.1 496.8,287.2 497.9,288.2 498.9,285.3 499.9,288.2 500.9,286.7 501.9,284.4 502.9,287.0 503.9,286.7 505.0,286.6 506.0,287.9 507.0,285.8 508.0,285.8 509.0,286.7 510.0,287.1 511.0,292.6 512.1,288.5 513.1,288.0 514.1,286.2 515.1,285.2 516.1,282.9 517.1,281.4 518.1,285.5 519.2,285.7 520.2,281.2 521.2,281.2 522.2,283.9 523.2,288.1 524.2,288.8 525.2,285.8 526.2,288.4 527.3,290.1 528.3,286.8 529.3,286.9 530.3,285.1 531.3,282.8 532.3,283.6 533.3,286.2 534.4,285.5 535.4,285.9 536.4,283.8 537.4,282.4 538.4,281.5 539.4,278.0 540.4,280.7 541.5,282.3 542.5,281.1 543.5,282.4 544.5,281.1 545.5,281.0 546.5,281.0 547.5,282.6 548.6,280.0 549.6,284.2 550.6,284.6 551.6,285.0 552.6,286.0 553.6,286.7 554.6,283.3 555.7,285.0 556.7,284.7 557.7,285.3 558.7,283.2 559.7,283.5 560.7,284.7 561.7,280.1 562.8,281.3 563.8,281.4 564.8,281.0 565.8,278.8 566.8,275.8 567.8,276.9 568.8,278.0 569.8,276.7 570.9,280.9 571.9,280.3 572.9,279.9 573.9,279.7 574.9,281.1 575.9,279.7 576.9,277.7 578.0,277.3 579.0,277.7 580.0,275.0 581.0,277.6 582.0,278.2 583.0,276.6 584.0,275.4 585.1,276.8 586.1,277.1 587.1,276.4 588.1,276.7 589.1,274.6 590.1,276.2 591.1,272.9 592.2,272.5 593.2,275.8 594.2,271.6 595.2,274.0 596.2,271.1 597.2,271.6 598.2,269.3 599.2,268.0 600.3,266.9 601.3,266.9 602.3,265.2 603.3,264.0 604.3,268.2 605.3,264.7 606.3,266.4 607.4,262.6 608.4,259.0 609.4,260.9 610.4,267.3 611.4,267.4 612.4,264.3 613.4,264.6 614.5,268.0 615.5,264.5 616.5,267.4 617.5,268.7 618.5,267.7 619.5,268.3 620.5,269.9 621.6,263.2 622.6,261.4 623.6,260.1 624.6,262.7 625.6,260.5 626.6,259.4 627.6,259.6 628.7,262.0 629.7,260.8 630.7,257.6 631.7,260.0 632.7,258.9 633.7,255.3 634.7,254.3 635.8,257.4 636.8,257.2 637.8,257.2 638.8,259.9 639.8,254.0 640.8,255.1 641.8,249.4 642.8,252.0 643.9,253.8 644.9,254.7 645.9,255.4 646.9,258.2 647.9,259.2 648.9,258.9 649.9,262.2 651.0,261.3 652.0,257.2 653.0,254.8 654.0,259.8 655.0,258.2 656.0,255.5 657.0,259.3 658.1,257.3 659.1,257.2 660.1,256.4 661.1,258.9 662.1,257.9 663.1,254.4 664.1,254.9 665.2,253.0 666.2,253.3 667.2,254.9 668.2,256.6 669.2,256.7 670.2,256.3 671.2,260.3 672.2,262.4 673.3,257.6 674.3,258.5 675.3,259.4 676.3,258.0 677.3,257.3 678.3,258.2 679.3,254.3 680.4,253.5 681.4,256.9 682.4,257.2 683.4,257.0 684.4,257.5 685.4,253.3 686.4,249.7 687.5,252.5 688.5,253.3 689.5,254.9 690.5,258.8 691.5,258.6 692.5,257.5 693.5,257.0 694.6,259.6 695.6,259.2 696.6,258.1 697.6,258.3 698.6,261.4 699.6,257.9 700.6,255.9 701.7,259.9 702.7,257.9 703.7,256.3 704.7,257.3 705.7,259.9 706.7,260.8 707.7,259.4 708.8,258.9 709.8,260.6 710.8,263.7 711.8,265.4 712.8,260.0 713.8,254.9 714.8,257.8 715.8,258.2 716.9,258.1 717.9,256.7 718.9,257.6 719.9,257.9 720.9,256.4 721.9,257.0 722.9,255.8 724.0,252.4 725.0,253.6 726.0,255.2 727.0,256.2 728.0,253.2 729.0,256.6 730.0,255.0 731.1,254.1 732.1,252.7 733.1,252.0 734.1,255.3 735.1,252.2 736.1,254.7 737.1,259.1 738.2,251.9 739.2,258.8 740.2,258.9 741.2,258.6 742.2,254.2 743.2,254.0 744.2,252.5 745.2,255.7 746.3,255.6 747.3,256.2 748.3,260.2 749.3,256.1 750.3,252.9 751.3,259.9 752.3,256.8 753.4,254.4 754.4,253.8 755.4,257.6 756.4,255.6 757.4,256.4 758.4,257.3 759.4,256.9 760.5,256.3 761.5,252.9 762.5,250.9 763.5,251.3 764.5,256.3 765.5,250.3 766.5,251.4 767.6,249.9 768.6,253.1 769.6,253.7 770.6,250.0 771.6,248.6 772.6,251.7 773.6,255.5 774.7,255.2 775.7,253.4 776.7,254.6 777.7,254.8 778.7,253.3 779.7,255.5 780.7,254.8 781.8,251.5 782.8,256.9 783.8,250.2 784.8,249.2 785.8,247.0 786.8,250.0 787.8,249.4 788.8,252.8 789.9,254.4 790.9,250.7 791.9,253.3 792.9,252.5 793.9,249.8 794.9,251.8 795.9,249.9 797.0,250.6 798.0,252.3 799.0,254.1 800.0,250.5"/><polyline fill="none" stroke="#2471a3" stroke-width="2" points="70.0,370.0 71.0,370.0 72.0,370.0 73.0,370.0 74.1,370.0 75.1,370.0 76.1,370.0 77.1,370.0 78.1,370.0 79.1,370.0 80.1,370.0 81.2,370.0 82.2,370.0 83.2,370.0 84.2,370.0 85.2,370.0 86.2,370.0 87.2,370.0 88.2,370.0 89.3,370.0 90.3,370.0 91.3,370.0 92.3,370.0 93.3,370.0 94.3,370.0 95.3,370.0 96.4,370.0 97.4,370.0 98.4,370.0 99.4,370.0 100.4,370.0 101.4,370.0 102.4,370.0 103.5,370.0 104.5,370.0 105.5,370.0 106.5,370.0 107.5,370.0 108.5,370.0 109.5,370.0 110.6,370.0 111.6,370.0 112.6,370.0 113.6,370.0 114.6,370.0 115.6,370.0 116.6,370.0 117.7,370.0 118.7,370.0 119.7,370.0 120.7,370.0 121.7,370.0 122.7,370.0 123.7,370.0 124.8,370.0 125.8,370.0 126.8,370.0 127.8,370.0 128.8,370.0 129.8,370.0 130.8,370.0 131.8,370.0 132.9,370.0 133.9,370.0 134.9,370.0 135.9,370.0 136.9,370.0 137.9,370.0 138.9,370.0 140.0,370.0 141.0,370.0 142.0,370.0 143.0,370.0 144.0,370.0 145.0,370.0 146.0,370.0 147.1,370.0 148.1,370.0 149.1,370.0 150.1,370.0 151.1,370.0 152.1,370.0 153.1,370.0 154.2,370.0 155.2,370.0 156.2,370.0 157.2,370.0 158.2,370.0 159.2,370.0 160.2,370.0 161.2,370.0 162.3,370.0 163.3,370.0 164.3,370.0 165.3,370.0 166.3,370.0 167.3,370.0 168.3,370.0 169.4,370.0 170.4,370.0 171.4,370.0 172.4,370.0 173.4,370.0 174.4,370.0 175.4,370.0 176.5,370.0 177.5,370.0 178.5,370.0 179.5,370.0 180.5,370.0 181.5,370.0 182.5,370.0 183.6,370.0 184.6,370.0 185.6,370.0 186.6,370.0 187.6,370.0 188.6,370.0 189.6,370.0 190.7,370.0 191.7,370.0 192.7,370.0 193.7,370.0 194.7,370.0 195.7,370.0 196.7,370.0 197.8,370.0 198.8,370.0 199.8,370.0 200.8,370.0 201.8,370.0 202.8,370.0 203.8,370.0 204.8,370.0 205.9,370.0 206.9,370.0 207.9,370.0 208.9,370.0 209.9,370.0 210.9,370.0 211.9,370.0 213.0,370.0 214.0,370.0 215.0,370.0 216.0,370.0 217.0,370.0 218.0,370.0 219.0,370.0 220.1,370.0 221.1,370.0 222.1,370.0 223.1,370.0 224.1,370.0 225.1,370.0 226.1,370.0 227.2,370.0 228.2,370.0 229.2,370.0 230.2,370.0 231.2,370.0 232.2,370.0 233.2,370.0 234.2,370.0 235.3,370.0 236.3,370.0 237.3,370.0 238.3,370.0 239.3,370.0 240.3,370.0 241.3,370.0 242.4,370.0 243.4,370.0 244.4,370.0 245.4,370.0 246.4,370.0 247.4,370.0 248.4,370.0 249.5,370.0 250.5,370.0 251.5,370.0 252.5,370.0 253.5,370.0 254.5,370.0 255.5,370.0 256.6,370.0 257.6,370.0 258.6,370.0 259.6,370.0 260.6,370.0 261.6,370.0 262.6,370.0 263.7,370.0 264.7,370.0 265.7,370.0 266.7,370.0 267.7,370.0 268.7,370.0 269.7,370.0 270.8,370.0 271.8,370.0 272.8,370.0 273.8,370.0 274.8,370.0 275.8,370.0 276.8,370.0 277.8,370.0 278.9,370.0 279.9,370.0 280.9,370.0 281.9,370.0 282.9,370.0 283.9,370.0 284.9,370.0 286.0,370.0 287.0,370.0 288.0,370.0 289.0,370.0 290.0,370.0 291.0,370.0 292.0,370.0 293.1,370.0 294.1,370.0 295.1,370.0 296.1,370.0 297.1,370.0 298.1,370.0 299.1,370.0 300.2,370.0 301.2,370.0 302.2,370.0 303.2,370.0 304.2,370.0 305.2,370.0 306.2,370.0 307.2,370.0 308.3,370.0 309.3,370.0 310.3,370.0 311.3,370.0 312.3,370.0 313.3,370.0 314.3,370.0 315.4,370.0 316.4,370.0 317.4,370.0 318.4,370.0 319.4,370.0 320.4,370.0 321.4,370.0 322.5,370.0 323.5,370.0 324.5,370.0 325.5,370.0 326.5,370.0 327.5,370.0 328.5,370.0 329.6,370.0 330.6,370.0 331.6,370.0 332.6,370.0 333.6,370.0 334.6,370.0 335.6,370.0 336.7,370.0 337.7,370.0 338.7,370.0 339.7,370.0 340.7,370.0 341.7,370.0 342.7,370.0 343.8,370.0 344.8,370.0 345.8,370.0 346.8,370.0 347.8,370.0 348.8,370.0 349.8,370.0 350.8,370.0 351.9,370.0 352.9,370.0 353.9,370.0 354.9,370.0 355.9,370.0 356.9,370.0 357.9,370.0 359.0,370.0 360.0,370.0 361.0,370.0 362.0,370.0 363.0,370.0 364.0,370.0 365.0,370.0 366.1,370.0 367.1,370.0 368.1,370.0 369.1,370.0 370.1,370.0 371.1,370.0 372.1,370.0 373.2,370.0 374.2,370.0 375.2,370.0 376.2,370.0 377.2,370.0 378.2,370.0 379.2,370.0 380.2,370.0 381.3,370.0 382.3,370.0 383.3,370.0 384.3,370.0 385.3,370.0 386.3,370.0 387.3,370.0 388.4,370.0 389.4,370.0 390.4,370.0 391.4,370.0 392.4,370.0 393.4,370.0 394.4,370.0 395.5,370.0 396.5,370.0 397.5,370.0 398.5,370.0 399.5,370.0 400.5,370.0 401.5,370.0 402.6,370.0 403.6,370.0 404.6,370.0 405.6,370.0 406.6,370.0 407.6,370.0 408.6,370.0 409.7,370.0 410.7,370.0 411.7,370.0 412.7,370.0 413.7,370.0 414.7,370.0 415.7,370.0 416.8,370.0 417.8,370.0 418.8,370.0 419.8,370.0 420.8,370.0 421.8,370.0 422.8,370.0 423.8,370.0 424.9,370.0 425.9,370.0 426.9,370.0 427.9,370.0 428.9,370.0 429.9,370.0 430.9,370.0 432.0,370.0 433.0,370.0 434.0,370.0 435.0,370.0 436.0,370.0 437.0,370.0 438.0,370.0 439.1,370.0 440.1,370.0 441.1,370.0 442.1,370.0 443.1,370.0 444.1,370.0 445.1,370.0 446.2,370.0 447.2,370.0 448.2,370.0 449.2,370.0 450.2,370.0 451.2,370.0 452.2,370.0 453.2,370.0 454.3,370.0 455.3,370.0 456.3,370.0 457.3,370.0 458.3,370.0 459.3,370.0 460.3,370.0 461.4,370.0 462.4,370.0 463.4,370.0 464.4,370.0 465.4,370.0 466.4,370.0 467.4,370.0 468.5,370.0 469.5,370.0 470.5,370.0 471.5,370.0 472.5,370.0 473.5,370.0 474.5,370.0 475.6,370.0 476.6,370.0 477.6,370.0 478.6,370.0 479.6,370.0 480.6,370.0 481.6,370.0 482.7,370.0 483.7,370.0 484.7,370.0 485.7,370.0 486.7,370.0 487.7,370.0 488.7,370.0 489.7,370.0 490.8,370.0 491.8,370.0 492.8,370.0 493.8,370.0 494.8,370.0 495.8,370.0 496.8,370.0 497.9,370.0 498.9,370.0 499.9,370.0 500.9,370.0 501.9,370.0 502.9,370.0 503.9,370.0 505.0,370.0 506.0,370.0 507.0,370.0 508.0,370.0 509.0,370.0 510.0,370.0 511.0,370.0 512.1,370.0 513.1,370.0 514.1,370.0 515.1,370.0 516.1,370.0 517.1,370.0 518.1,370.0 519.2,370.0 520.2,370.0 521.2,370.0 522.2,370.0 523.2,370.0 524.2,370.0 525.2,370.0 526.2,370.0 527.3,370.0 528.3,370.0 529.3,370.0 530.3,370.0 531.3,370.0 532.3,370.0 533.3,370.0 534.4,370.0 535.4,370.0 536.4,370.0 537.4,370.0 538.4,370.0 539.4,370.0 540.4,370.0 541.5,370.0 542.5,370.0 543.5,370.0 544.5,370.0 545.5,370.0 546.5,370.0 547.5,370.0 548.6,370.0 549.6,370.0 550.6,370.0 551.6,370.0 552.6,370.0 553.6,370.0 554.6,370.0 555.7,370.0 556.7,370.0 557.7,370.0 558.7,370.0 559.7,370.0 560.7,370.0 561.7,370.0 562.8,370.0 563.8,370.0 564.8,370.0 565.8,370.0 566.8,370.0 567.8,370.0 568.8,370.0 569.8,370.0 570.9,370.0 571.9,370.0 572.9,370.0 573.9,370.0 574.9,370.0 575.9,370.0 576.9,370.0 578.0,370.0 579.0,370.0 580.0,370.0 581.0,370.0 582.0,370.0 583.0,370.0 584.0,370.0 585.1,370.0 586.1,370.0 587.1,370.0 588.1,370.0 589.1,370.0 590.1,370.0 591.1,370.0 592.2,370.0 593.2,370.0 594.2,370.0 595.2,370.0 596.2,370.0 597.2,370.0 598.2,370.0 599.2,370.0 600.3,370.0 601.3,370.0 602.3,370.0 603.3,370.0 604.3,370.0 605.3,370.0 606.3,370.0 607.4,370.0 608.4,370.0 609.4,370.0 610.4,370.0 611.4,370.0 612.4,370.0 613.4,370.0 614.5,370.0 615.5,370.0 616.5,370.0 617.5,370.0 618.5,370.0 619.5,370.0 620.5,370.0 621.6,370.0 622.6,370.0 623.6,370.0 624.6,370.0 625.6,370.0 626.6,370.0 627.6,370.0 628.7,370.0 629.7,370.0 630.7,370.0 631.7,370.0 632.7,370.0 633.7,370.0 634.7,370.0 635.8,370.0 636.8,370.0 637.8,370.0 638.8,370.0 639.8,370.0 640.8,370.0 641.8,370.0 642.8,370.0 643.9,370.0 644.9,370.0 645.9,370.0 646.9,370.0 647.9,370.0 648.9,370.0 649.9,370.0 651.0,370.0 652.0,370.0 653.0,370.0 654.0,370.0 655.0,370.0 656.0,370.0 657.0,370.0 658.1,370.0 659.1,370.0 660.1,370.0 661.1,370.0 662.1,370.0 663.1,370.0 664.1,370.0 665.2,370.0 666.2,370.0 667.2,370.0 668.2,370.0 669.2,370.0 670.2,370.0 671.2,370.0 672.2,370.0 673.3,370.0 674.3,370.0 675.3,370.0 676.3,370.0 677.3,370.0 678.3,370.0 679.3,370.0 680.4,370.0 681.4,370.0 682.4,370.0 683.4,370.0 684.4,370.0 685.4,370.0 686.4,370.0 687.5,370.0 688.5,370.0 689.5,370.0 690.5,370.0 691.5,370.0 692.5,370.0 693.5,370.0 694.6,370.0 695.6,370.0 696.6,370.0 697.6,370.0 698.6,370.0 699.6,370.0 700.6,370.0 701.7,370.0 702.7,370.0 703.7,370.0 704.7,370.0 705.7,370.0 706.7,370.0 707.7,370.0 708.8,370.0 709.8,370.0 710.8,370.0 711.8,370.0 712.8,370.0 713.8,370.0 714.8,370.0 715.8,370.0 716.9,370.0 717.9,370.0 718.9,370.0 719.9,370.0 720.9,370.0 721.9,370.0 722.9,370.0 724.0,370.0 725.0,370.0 726.0,370.0 727.0,370.0 728.0,370.0 729.0,370.0 730.0,370.0 731.1,370.0 732.1,370.0 733.1,370.0 734.1,370.0 735.1,370.0 736.1,370.0 737.1,370.0 738.2,370.0 739.2,370.0 740.2,370.0 741.2,370.0 742.2,370.0 743.2,370.0 744.2,370.0 745.2,370.0 746.3,370.0 747.3,370.0 748.3,370.0 749.3,370.0 750.3,370.0 751.3,370.0 752.3,370.0 753.4,370.0 754.4,370.0 755.4,370.0 756.4,370.0 757.4,370.0 758.4,370.0 759.4,370.0 760.5,370.0 761.5,370.0 762.5,370.0 763.5,370.0 764.5,370.0 765.5,370.0 766.5,370.0 767.6,370.0 768.6,370.0 769.6,370.0 770.6,370.0 771.6,370.0 772.6,370.0 773.6,370.0 774.7,370.0 775.7,370.0 776.7,370.0 777.7,370.0 778.7,370.0 779.7,370.0 780.7,370.0 781.8,370.0 782.8,370.0 783.8,370.0 784.8,370.0 785.8,370.0 786.8,370.0 787.8,370.0 788.8,370.0 789.9,370.0 790.9,370.0 791.9,370.0 792.9,370.0 793.9,370.0 794.9,370.0 795.9,370.0 797.0,370.0 798.0,370.0 799.0,370.0 800.0,370.0"/><text x="435" y="408" text-anchor="middle">time (s)</text><text x="80" y="44" fill="#c0392b">classical: csac-sa45s (median, 5-95% band)</text><text x="80" y="60" fill="#2471a3">quantum: optical-sr-lattice (median, 5-95% band)</text></svg>