<svg xmlns="http://www.w3.org/2000/svg" width="820" height="420" font-family="sans-serif" font-size="12"><rect width="820" height="420" fill="white"/><text x="70" y="18" font-size="15" font-weight="bold">Clock holdover: timing error during GNSS outage</text><line x1="70" y1="30" x2="70" y2="370" stroke="#888"/><line x1="70" y1="370" x2="800" y2="370" stroke="#888"/><line x1="70" y1="110.7" x2="800" y2="110.7" stroke="#d33" stroke-dasharray="6 4"/><text x="74" y="106.7" fill="#d33">spec 20 ns</text><polyline fill="none" stroke="#c0392b" stroke-width="2" points="70.0,370.0 71.0,370.0 72.0,370.0 73.0,370.0 74.1,370.0 75.1,370.0 76.1,370.0 77.1,370.0 78.1,370.0 79.1,370.0 80.1,370.0 81.2,370.0 82.2,370.0 83.2,370.0 84.2,370.0 85.2,370.0 86.2,370.0 87.2,370.0 88.2,370.0 89.3,370.0 90.3,370.0 91.3,370.0 92.3,370.0 93.3,370.0 94.3,370.0 95.3,370.0 96.4,370.0 97.4,370.0 98.4,370.0 99.4,370.0 100.4,370.0 101.4,370.0 102.4,370.0 103.5,370.0 104.5,370.0 105.5,370.0 106.5,370.0 107.5,370.0 108.5,370.0 109.5,370.0 110.6,370.0 111.6,370.0 112.6,370.0 113.6,370.0 114.6,370.0 115.6,370.0 116.6,370.0 117.7,370.0 118.7,370.0 119.7,370.0 120.7,370.0 121.7,370.0 122.7,370.0 123.7,370.0 124.8,370.0 125.8,370.0 126.8,370.0 127.8,370.0 128.8,370.0 129.8,370.0 130.8,369.6 131.8,368.9 132.9,365.1 133.9,343.6 134.9,354.4 135.9,338.4 136.9,336.8 137.9,338.0 138.9,341.9 140.0,343.3 141.0,352.6 142.0,369.2 143.0,368.0 144.0,351.4 145.0,336.8 146.0,347.0 147.1,335.8 148.1,320.9 149.1,323.5 150.1,331.9 151.1,326.1 152.1,357.3 153.1,365.8 154.2,365.1 155.2,359.7 156.2,352.4 157.2,346.3 158.2,328.6 159.2,308.5 160.2,315.5 161.2,338.1 162.3,360.6 163.3,364.4 164.3,363.5 165.3,344.2 166.3,345.1 167.3,350.4 168.3,360.6 169.4,368.5 170.4,369.9 171.4,369.1 172.4,358.3 173.4,342.4 174.4,339.5 175.4,330.5 176.5,332.5 177.5,329.6 178.5,344.9 179.5,355.0 180.5,344.1 181.5,343.3 182.5,340.4 183.6,345.4 184.6,345.1 185.6,344.6 186.6,323.2 187.6,338.0 188.6,317.2 189.6,310.1 190.7,310.2 191.7,310.8 192.7,325.0 193.7,339.2 194.7,342.8 195.7,355.6 196.7,364.8 197.8,339.1 198.8,331.1 199.8,345.0 200.8,335.6 201.8,327.7 202.8,334.6 203.8,338.9 204.8,359.1 205.9,367.4 206.9,361.8 207.9,362.0 208.9,361.9 209.9,368.3 210.9,358.0 211.9,360.1 213.0,352.3 214.0,348.2 215.0,334.0 216.0,343.6 217.0,342.9 218.0,345.4 219.0,336.8 220.1,335.6 221.1,348.3 222.1,342.1 223.1,343.0 224.1,357.2 225.1,362.4 226.1,364.6 227.2,348.4 228.2,348.3 229.2,356.3 230.2,360.7 231.2,367.6 232.2,359.8 233.2,335.0 234.2,321.1 235.3,324.8 236.3,332.0 237.3,338.9 238.3,344.0 239.3,340.9 240.3,355.3 241.3,344.3 242.4,327.8 243.4,331.3 244.4,349.6 245.4,334.9 246.4,304.5 247.4,313.7 248.4,312.9 249.5,325.5 250.5,324.0 251.5,324.8 252.5,332.8 253.5,320.9 254.5,293.5 255.5,294.6 256.6,298.3 257.6,283.4 258.6,258.5 259.6,275.4 260.6,273.7 261.6,251.8 262.6,234.2 263.7,238.0 264.7,227.3 265.7,216.2 266.7,199.7 267.7,191.5 268.7,186.1 269.7,177.8 270.8,177.8 271.8,164.5 272.8,183.8 273.8,191.8 274.8,199.7 275.8,175.5 276.8,185.0 277.8,179.3 278.9,168.7 279.9,169.2 280.9,163.0 281.9,152.8 282.9,180.4 283.9,170.3 284.9,185.8 286.0,185.9 287.0,190.2 288.0,199.2 289.0,196.9 290.0,200.1 291.0,205.6 292.0,240.3 293.1,233.7 294.1,240.2 295.1,254.1 296.1,260.9 297.1,260.7 298.1,271.3 299.1,294.0 300.2,299.9 301.2,303.7 302.2,289.0 303.2,296.0 304.2,262.2 305.2,263.6 306.2,254.7 307.2,262.7 308.3,244.9 309.3,230.3 310.3,220.2 311.3,209.8 312.3,195.3 313.3,200.0 314.3,209.4 315.4,217.1 316.4,217.6 317.4,215.4 318.4,226.6 319.4,219.4 320.4,203.0 321.4,220.4 322.5,218.3 323.5,222.7 324.5,235.4 325.5,245.4 326.5,258.4 327.5,251.5 328.5,257.9 329.6,250.7 330.6,234.1 331.6,236.2 332.6,249.1 333.6,227.2 334.6,229.2 335.6,234.8 336.7,233.5 337.7,243.8 338.7,246.3 339.7,229.5 340.7,208.2 341.7,213.6 342.7,207.4 343.8,197.8 344.8,200.2 345.8,210.7 346.8,205.4 347.8,201.5 348.8,189.3 349.8,196.8 350.8,186.9 351.9,193.1 352.9,186.7 353.9,171.6 354.9,164.2 355.9,185.4 356.9,170.2 357.9,181.2 359.0,179.2 360.0,197.4 361.0,201.7 362.0,202.5 363.0,195.4 364.0,175.3 365.0,187.3 366.1,173.9 367.1,162.7 368.1,174.1 369.1,178.3 370.1,175.7 371.1,156.4 372.1,164.4 373.2,146.8 374.2,129.3 375.2,133.3 376.2,140.0 377.2,130.0 378.2,146.6 379.2,142.4 380.2,147.2 381.3,140.0 382.3,146.6 383.3,136.3 384.3,138.5 385.3,119.8 386.3,142.4 387.3,134.6 388.4,147.9 389.4,146.8 390.4,161.2 391.4,159.2 392.4,157.0 393.4,135.6 394.4,113.8 395.5,109.2 396.5,98.2 397.5,100.9 398.5,117.9 399.5,126.2 400.5,134.6 401.5,134.1 402.6,137.7 403.6,145.8 404.6,148.0 405.6,165.5 406.6,156.4 407.6,132.1 408.6,115.0 409.7,135.1 410.7,126.6 411.7,132.3 412.7,101.7 413.7,105.3 414.7,97.8 415.7,90.6 416.8,84.3 417.8,94.7 418.8,99.4 419.8,77.1 420.8,92.8 421.8,68.9 422.8,45.7 423.8,30.0 424.9,42.6 425.9,39.2 426.9,43.1 427.9,49.3 428.9,57.2 429.9,62.3 430.9,65.3 432.0,55.7 433.0,69.8 434.0,77.1 435.0,69.4 436.0,68.8 437.0,88.3 438.0,69.3 439.1,73.7 440.1,97.4 441.1,109.7 442.1,120.1 443.1,135.3 444.1,142.5 445.1,139.6 446.2,158.2 447.2,174.1 448.2,156.0 449.2,169.4 450.2,172.6 451.2,150.4 452.2,160.0 453.2,165.7 454.3,165.1 455.3,173.7 456.3,170.6 457.3,180.5 458.3,209.7 459.3,219.4 460.3,237.8 461.4,229.9 462.4,244.3 463.4,256.6 464.4,244.7 465.4,244.3 466.4,236.5 467.4,237.0 468.5,226.5 469.5,217.1 470.5,228.0 471.5,217.0 472.5,220.3 473.5,235.2 474.5,214.8 475.6,217.2 476.6,204.0 477.6,197.7 478.6,155.1 479.6,137.6 480.6,131.5 481.6,150.0 482.7,148.7 483.7,169.0 484.7,178.1 485.7,188.7 486.7,183.9 487.7,187.2 488.7,192.9 489.7,170.6 490.8,160.1 491.8,188.7 492.8,204.1 493.8,179.7 494.8,188.3 495.8,200.5 496.8,194.5 497.9,214.2 498.9,201.8 499.9,198.3 500.9,214.0 501.9,229.4 502.9,238.9 503.9,238.5 505.0,236.5 506.0,244.2 507.0,246.5 508.0,254.7 509.0,256.3 510.0,255.6 511.0,258.0 512.1,239.2 513.1,235.8 514.1,224.4 515.1,219.2 516.1,215.9 517.1,229.0 518.1,233.2 519.2,226.8 520.2,226.6 521.2,249.5 522.2,253.2 523.2,250.4 524.2,237.9 525.2,234.5 526.2,240.3 527.3,231.7 528.3,235.8 529.3,256.4 530.3,247.6 531.3,243.6 532.3,222.0 533.3,211.8 534.4,226.5 535.4,238.1 536.4,211.3 537.4,221.2 538.4,209.2 539.4,221.0 540.4,226.7 541.5,225.1 542.5,244.9 543.5,234.2 544.5,226.4 545.5,217.9 546.5,217.1 547.5,213.2 548.6,195.5 549.6,222.4 550.6,226.9 551.6,230.7 552.6,230.9 553.6,205.2 554.6,194.1 555.7,187.3 556.7,186.1 557.7,167.5 558.7,168.5 559.7,189.5 560.7,200.3 561.7,191.8 562.8,207.5 563.8,207.2 564.8,230.8 565.8,229.4 566.8,222.7 567.8,231.6 568.8,212.7 569.8,207.9 570.9,230.7 571.9,244.4 572.9,249.5 573.9,253.8 574.9,269.3 575.9,296.8 576.9,305.2 578.0,305.3 579.0,284.6 580.0,304.9 581.0,292.2 582.0,291.8 583.0,282.5 584.0,277.9 585.1,291.1 586.1,310.8 587.1,305.3 588.1,293.4 589.1,281.3 590.1,305.2 591.1,307.3 592.2,318.8 593.2,290.9 594.2,275.7 595.2,264.0 596.2,257.5 597.2,260.2 598.2,243.7 599.2,239.8 600.3,223.1 601.3,213.6 602.3,221.0 603.3,214.5 604.3,221.7 605.3,216.8 606.3,219.4 607.4,231.8 608.4,198.2 609.4,203.1 610.4,217.3 611.4,237.5 612.4,228.9 613.4,220.7 614.5,237.2 615.5,238.7 616.5,224.9 617.5,252.7 618.5,268.9 619.5,274.0 620.5,267.9 621.6,272.4 622.6,251.3 623.6,257.3 624.6,256.1 625.6,248.6 626.6,251.0 627.6,272.4 628.7,279.4 629.7,293.4 630.7,318.0 631.7,331.1 632.7,320.4 633.7,328.3 634.7,325.3 635.8,338.7 636.8,349.4 637.8,343.1 638.8,341.9 639.8,341.1 640.8,342.5 641.8,340.5 642.8,326.4 643.9,339.1 644.9,329.7 645.9,322.8 646.9,314.4 647.9,308.1 648.9,324.6 649.9,319.9 651.0,315.4 652.0,330.2 653.0,340.7 654.0,348.6 655.0,353.8 656.0,335.9 657.0,316.7 658.1,322.7 659.1,332.6 660.1,316.2 661.1,317.1 662.1,320.5 663.1,309.1 664.1,322.1 665.2,305.6 666.2,312.2 667.2,316.9 668.2,304.8 669.2,282.6 670.2,272.6 671.2,257.9 672.2,251.2 673.3,255.0 674.3,237.7 675.3,255.7 676.3,269.2 677.3,287.2 678.3,289.6 679.3,299.6 680.4,320.7 681.4,338.8 682.4,319.5 683.4,313.2 684.4,292.6 685.4,308.1 686.4,295.6 687.5,287.4 688.5,304.7 689.5,311.2 690.5,311.3 691.5,322.1 692.5,340.6 693.5,318.1 694.6,318.9 695.6,332.3 696.6,318.7 697.6,302.4 698.6,292.1 699.6,298.2 700.6,292.0 701.7,293.2 702.7,289.9 703.7,286.3 704.7,292.7 705.7,266.6 706.7,274.8 707.7,269.4 708.8,287.8 709.8,281.5 710.8,271.6 711.8,275.0 712.8,256.4 713.8,234.9 714.8,224.7 715.8,219.4 716.9,222.2 717.9,255.2 718.9,274.0 719.9,267.3 720.9,273.4 721.9,269.1 722.9,256.2 724.0,250.5 725.0,264.4 726.0,270.0 727.0,277.7 728.0,288.9 729.0,300.9 730.0,291.2 731.1,290.3 732.1,276.8 733.1,255.3 734.1,232.2 735.1,236.4 736.1,238.2 737.1,254.9 738.2,266.5 739.2,262.0 740.2,254.5 741.2,252.9 742.2,274.7 743.2,278.0 744.2,252.8 745.2,232.3 746.3,206.8 747.3,214.8 748.3,226.7 749.3,222.0 750.3,225.3 751.3,230.5 752.3,250.6 753.4,237.0 754.4,230.7 755.4,257.0 756.4,253.2 757.4,255.4 758.4,247.0 759.4,225.3 760.5,213.5 761.5,199.2 762.5,201.5 763.5,219.9 764.5,228.1 765.5,218.2 766.5,199.5 767.6,205.5 768.6,198.3 769.6,194.1 770.6,188.4 771.6,192.4 772.6,198.9 773.6,200.3 774.7,193.5 775.7,185.5 776.7,181.0 777.7,184.9 778.7,166.5 779.7,154.8 780.7,174.2 781.8,192.1 782.8,191.0 783.8,188.0 784.8,189.8 785.8,201.8 786.8,208.5 787.8,204.6 788.8,208.4 789.9,208.0 790.9,204.6 791.9,201.0 792.9,194.7 793.9,191.8 794.9,178.8 795.9,163.9 797.0,155.0 798.0,152.8 799.0,162.0 800.0,178.0"/><polyline fill="none" stroke="#2471a3" stroke-width="2" points="70.0,370.0 71.0,370.0 72.0,370.0 73.0,370.0 74.1,370.0 75.1,370.0 76.1,370.0 77.1,370.0 78.1,370.0 79.1,370.0 80.1,370.0 81.2,370.0 82.2,370.0 83.2,370.0 84.2,370.0 85.2,370.0 86.2,370.0 87.2,370.0 88.2,370.0 89.3,370.0 90.3,370.0 91.3,370.0 92.3,370.0 93.3,370.0 94.3,370.0 95.3,370.0 96.4,370.0 97.4,370.0 98.4,370.0 99.4,370.0 100.4,370.0 101.4,370.0 102.4,370.0 103.5,370.0 104.5,370.0 105.5,370.0 106.5,370.0 107.5,370.0 108.5,370.0 109.5,370.0 110.6,370.0 111.6,370.0 112.6,370.0 113.6,370.0 114.6,370.0 115.6,370.0 116.6,370.0 117.7,370.0 118.7,370.0 119.7,370.0 120.7,370.0 121.7,370.0 122.7,370.0 123.7,370.0 124.8,370.0 125.8,370.0 126.8,370.0 127.8,370.0 128.8,370.0 129.8,370.0 130.8,370.0 131.8,370.0 132.9,370.0 133.9,370.0 134.9,370.0 135.9,370.0 136.9,370.0 137.9,370.0 138.9,370.0 140.0,370.0 141.0,370.0 142.0,370.0 143.0,370.0 144.0,370.0 145.0,370.0 146.0,370.0 147.1,370.0 148.1,370.0 149.1,370.0 150.1,370.0 151.1,370.0 152.1,370.0 153.1,370.0 154.2,370.0 155.2,370.0 156.2,370.0 157.2,370.0 158.2,370.0 159.2,370.0 160.2,370.0 161.2,370.0 162.3,370.0 163.3,370.0 164.3,370.0 165.3,370.0 166.3,370.0 167.3,370.0 168.3,370.0 169.4,370.0 170.4,370.0 171.4,370.0 172.4,370.0 173.4,370.0 174.4,370.0 175.4,370.0 176.5,370.0 177.5,370.0 178.5,370.0 179.5,370.0 180.5,370.0 181.5,370.0 182.5,370.0 183.6,370.0 184.6,370.0 185.6,370.0 186.6,370.0 187.6,370.0 188.6,370.0 189.6,370.0 190.7,370.0 191.7,370.0 192.7,370.0 193.7,370.0 194.7,370.0 195.7,370.0 196.7,370.0 197.8,370.0 198.8,370.0 199.8,370.0 200.8,370.0 201.8,370.0 202.8,370.0 203.8,370.0 204.8,370.0 205.9,370.0 206.9,370.0 207.9,370.0 208.9,370.0 209.9,370.0 210.9,370.0 211.9,370.0 213.0,370.0 214.0,370.0 215.0,370.0 216.0,370.0 217.0,370.0 218.0,370.0 219.0,370.0 220.1,370.0 221.1,370.0 222.1,370.0 223.1,370.0 224.1,370.0 225.1,370.0 226.1,370.0 227.2,370.0 228.2,370.0 229.2,370.0 230.2,370.0 231.2,370.0 232.2,370.0 233.2,370.0 234.2,370.0 235.3,370.0 236.3,370.0 237.3,370.0 238.3,370.0 239.3,370.0 240.3,370.0 241.3,370.0 242.4,370.0 243.4,370.0 244.4,370.0 245.4,370.0 246.4,370.0 247.4,370.0 248.4,370.0 249.5,370.0 250.5,370.0 251.5,370.0 252.5,370.0 253.5,370.0 254.5,370.0 255.5,370.0 256.6,370.0 257.6,370.0 258.6,370.0 259.6,370.0 260.6,370.0 261.6,370.0 262.6,370.0 263.7,370.0 264.7,370.0 265.7,370.0 266.7,370.0 267.7,370.0 268.7,370.0 269.7,370.0 270.8,370.0 271.8,370.0 272.8,370.0 273.8,370.0 274.8,370.0 275.8,370.0 276.8,370.0 277.8,370.0 278.9,370.0 279.9,370.0 280.9,370.0 281.9,370.0 282.9,370.0 283.9,370.0 284.9,370.0 286.0,370.0 287.0,370.0 288.0,370.0 289.0,370.0 290.0,370.0 291.0,370.0 292.0,370.0 293.1,370.0 294.1,370.0 295.1,370.0 296.1,370.0 297.1,370.0 298.1,370.0 299.1,370.0 300.2,370.0 301.2,370.0 302.2,370.0 303.2,370.0 304.2,370.0 305.2,370.0 306.2,370.0 307.2,370.0 308.3,370.0 309.3,370.0 310.3,370.0 311.3,370.0 312.3,370.0 313.3,370.0 314.3,370.0 315.4,370.0 316.4,370.0 317.4,370.0 318.4,370.0 319.4,370.0 320.4,370.0 321.4,370.0 322.5,370.0 323.5,370.0 324.5,370.0 325.5,370.0 326.5,370.0 327.5,370.0 328.5,370.0 329.6,370.0 330.6,370.0 331.6,370.0 332.6,370.0 333.6,370.0 334.6,370.0 335.6,370.0 336.7,370.0 337.7,370.0 338.7,370.0 339.7,370.0 340.7,370.0 341.7,370.0 342.7,370.0 343.8,370.0 344.8,370.0 345.8,370.0 346.8,370.0 347.8,370.0 348.8,370.0 349.8,370.0 350.8,370.0 351.9,370.0 352.9,370.0 353.9,370.0 354.9,370.0 355.9,370.0 356.9,370.0 357.9,370.0 359.0,370.0 360.0,370.0 361.0,370.0 362.0,370.0 363.0,370.0 364.0,370.0 365.0,370.0 366.1,370.0 367.1,370.0 368.1,370.0 369.1,370.0 370.1,370.0 371.1,370.0 372.1,370.0 373.2,370.0 374.2,370.0 375.2,370.0 376.2,370.0 377.2,370.0 378.2,370.0 379.2,370.0 380.2,370.0 381.3,370.0 382.3,370.0 383.3,370.0 384.3,370.0 385.3,370.0 386.3,370.0 387.3,370.0 388.4,370.0 389.4,370.0 390.4,370.0 391.4,370.0 392.4,370.0 393.4,370.0 394.4,370.0 395.5,370.0 396.5,370.0 397.5,370.0 398.5,370.0 399.5,370.0 400.5,370.0 401.5,370.0 402.6,370.0 403.6,370.0 404.6,370.0 405.6,370.0 406.6,370.0 407.6,370.0 408.6,370.0 409.7,370.0 410.7,370.0 411.7,370.0 412.7,370.0 413.7,370.0 414.7,370.0 415.7,370.0 416.8,370.0 417.8,370.0 418.8,370.0 419.8,370.0 420.8,370.0 421.8,370.0 422.8,370.0 423.8,370.0 424.9,370.0 425.9,370.0 426.9,370.0 427.9,370.0 428.9,370.0 429.9,370.0 430.9,370.0 432.0,370.0 433.0,370.0 434.0,370.0 435.0,370.0 436.0,370.0 437.0,370.0 438.0,370.0 439.1,370.0 440.1,370.0 441.1,370.0 442.1,370.0 443.1,370.0 444.1,370.0 445.1,370.0 446.2,370.0 447.2,370.0 448.2,370.0 449.2,370.0 450.2,370.0 451.2,370.0 452.2,370.0 453.2,370.0 454.3,370.0 455.3,370.0 456.3,370.0 457.3,370.0 458.3,370.0 459.3,370.0 460.3,370.0 461.4,370.0 462.4,370.0 463.4,370.0 464.4,370.0 465.4,370.0 466.4,370.0 467.4,370.0 468.5,370.0 469.5,370.0 470.5,370.0 471.5,370.0 472.5,370.0 473.5,370.0 474.5,370.0 475.6,370.0 476.6,370.0 477.6,370.0 478.6,370.0 479.6,370.0 480.6,370.0 481.6,370.0 482.7,370.0 483.7,370.0 484.7,370.0 485.7,370.0 486.7,370.0 487.7,370.0 488.7,370.0 489.7,370.0 490.8,370.0 491.8,370.0 492.8,370.0 493.8,370.0 494.8,370.0 495.8,370.0 496.8,370.0 497.9,370.0 498.9,370.0 499.9,370.0 500.9,370.0 501.9,370.0 502.9,370.0 503.9,370.0 505.0,370.0 506.0,370.0 507.0,370.0 508.0,370.0 509.0,370.0 510.0,370.0 511.0,370.0 512.1,370.0 513.1,370.0 514.1,370.0 515.1,370.0 516.1,370.0 517.1,370.0 518.1,370.0 519.2,370.0 520.2,370.0 521.2,370.0 522.2,370.0 523.2,370.0 524.2,370.0 525.2,370.0 526.2,370.0 527.3,370.0 528.3,370.0 529.3,370.0 530.3,370.0 531.3,370.0 532.3,370.0 533.3,370.0 534.4,370.0 535.4,370.0 536.4,370.0 537.4,370.0 538.4,370.0 539.4,370.0 540.4,370.0 541.5,370.0 542.5,370.0 543.5,370.0 544.5,370.0 545.5,370.0 546.5,370.0 547.5,370.0 548.6,370.0 549.6,370.0 550.6,370.0 551.6,370.0 552.6,370.0 553.6,370.0 554.6,370.0 555.7,370.0 556.7,370.0 557.7,370.0 558.7,370.0 559.7,370.0 560.7,370.0 561.7,370.0 562.8,370.0 563.8,370.0 564.8,370.0 565.8,370.0 566.8,370.0 567.8,370.0 568.8,370.0 569.8,370.0 570.9,370.0 571.9,370.0 572.9,370.0 573.9,370.0 574.9,370.0 575.9,370.0 576.9,370.0 578.0,370.0 579.0,370.0 580.0,370.0 581.0,370.0 582.0,370.0 583.0,370.0 584.0,370.0 585.1,370.0 586.1,370.0 587.1,370.0 588.1,370.0 589.1,370.0 590.1,370.0 591.1,370.0 592.2,370.0 593.2,370.0 594.2,370.0 595.2,370.0 596.2,370.0 597.2,370.0 598.2,370.0 599.2,370.0 600.3,370.0 601.3,370.0 602.3,370.0 603.3,370.0 604.3,370.0 605.3,370.0 606.3,370.0 607.4,370.0 608.4,370.0 609.4,370.0 610.4,370.0 611.4,370.0 612.4,370.0 613.4,370.0 614.5,370.0 615.5,370.0 616.5,370.0 617.5,370.0 618.5,370.0 619.5,370.0 620.5,370.0 621.6,370.0 622.6,370.0 623.6,370.0 624.6,370.0 625.6,370.0 626.6,370.0 627.6,370.0 628.7,370.0 629.7,370.0 630.7,370.0 631.7,370.0 632.7,370.0 633.7,370.0 634.7,370.0 635.8,370.0 636.8,370.0 637.8,370.0 638.8,370.0 639.8,370.0 640.8,370.0 641.8,370.0 642.8,370.0 643.9,370.0 644.9,370.0 645.9,370.0 646.9,370.0 647.9,370.0 648.9,370.0 649.9,370.0 651.0,370.0 652.0,370.0 653.0,370.0 654.0,370.0 655.0,370.0 656.0,370.0 657.0,370.0 658.1,370.0 659.1,370.0 660.1,370.0 661.1,370.0 662.1,370.0 663.1,370.0 664.1,370.0 665.2,370.0 666.2,370.0 667.2,370.0 668.2,370.0 669.2,370.0 670.2,370.0 671.2,370.0 672.2,370.0 673.3,370.0 674.3,370.0 675.3,370.0 676.3,370.0 677.3,370.0 678.3,370.0 679.3,370.0 680.4,370.0 681.4,370.0 682.4,370.0 683.4,370.0 684.4,370.0 685.4,370.0 686.4,370.0 687.5,370.0 688.5,370.0 689.5,370.0 690.5,370.0 691.5,370.0 692.5,370.0 693.5,370.0 694.6,370.0 695.6,370.0 696.6,370.0 697.6,370.0 698.6,370.0 699.6,370.0 700.6,370.0 701.7,370.0 702.7,370.0 703.7,370.0 704.7,370.0 705.7,370.0 706.7,370.0 707.7,370.0 708.8,370.0 709.8,370.0 710.8,370.0 711.8,370.0 712.8,370.0 713.8,370.0 714.8,370.0 715.8,370.0 716.9,370.0 717.9,370.0 718.9,370.0 719.9,370.0 720.9,370.0 721.9,370.0 722.9,370.0 724.0,370.0 725.0,370.0 726.0,370.0 727.0,370.0 728.0,370.0 729.0,370.0 730.0,370.0 731.1,370.0 732.1,370.0 733.1,370.0 734.1,370.0 735.1,370.0 736.1,370.0 737.1,370.0 738.2,370.0 739.2,370.0 740.2,370.0 741.2,370.0 742.2,370.0 743.2,370.0 744.2,370.0 745.2,370.0 746.3,370.0 747.3,370.0 748.3,370.0 749.3,370.0 750.3,370.0 751.3,370.0 752.3,370.0 753.4,370.0 754.4,370.0 755.4,370.0 756.4,370.0 757.4,370.0 758.4,370.0 759.4,370.0 760.5,370.0 761.5,370.0 762.5,370.0 763.5,370.0 764.5,370.0 765.5,370.0 766.5,370.0 767.6,370.0 768.6,370.0 769.6,370.0 770.6,370.0 771.6,370.0 772.6,370.0 773.6,370.0 774.7,370.0 775.7,370.0 776.7,370.0 777.7,370.0 778.7,370.0 779.7,370.0 780.7,370.0 781.8,370.0 782.8,370.0 783.8,370.0 784.8,370.0 785.8,370.0 786.8,370.0 787.8,370.0 788.8,370.0 789.9,370.0 790.9,370.0 791.9,370.0 792.9,370.0 793.9,370.0 794.9,370.0 795.9,370.0 797.0,370.0 798.0,370.0 799.0,370.0 800.0,370.0"/><text x="435" y="408" text-anchor="middle">time (s)</text><text x="80" y="44" fill="#c0392b">classical: csac-sa45s</text><text x="80" y="60" fill="#2471a3">quantum: optical-sr-lattice</text></svg>