<svg xmlns="http://www.w3.org/2000/svg" width="820" height="420" font-family="sans-serif" font-size="12"><rect width="820" height="420" fill="white"/><text x="80" y="18" font-size="15" font-weight="bold">Dead-reckoning position error during GNSS outage</text><line x1="80" y1="370.0" x2="800" y2="370.0" stroke="#eee"/><text x="74" y="374.0" text-anchor="end" fill="#666" font-size="11">0</text><line x1="80" y1="285.0" x2="800" y2="285.0" stroke="#eee"/><text x="74" y="289.0" text-anchor="end" fill="#666" font-size="11">8598</text><line x1="80" y1="200.0" x2="800" y2="200.0" stroke="#eee"/><text x="74" y="204.0" text-anchor="end" fill="#666" font-size="11">17196</text><line x1="80" y1="115.0" x2="800" y2="115.0" stroke="#eee"/><text x="74" y="119.0" text-anchor="end" fill="#666" font-size="11">25793</text><line x1="80" y1="30.0" x2="800" y2="30.0" stroke="#eee"/><text x="74" y="34.0" text-anchor="end" fill="#666" font-size="11">34391</text><text x="16" y="200.0" text-anchor="middle" fill="#444" font-size="12" transform="rotate(-90 16 200.0)">position error (m)</text><line x1="80" y1="30" x2="80" y2="370" stroke="#888"/><line x1="80" y1="370" x2="800" y2="370" stroke="#888"/><line x1="80" y1="369.0" x2="800" y2="369.0" stroke="#d33" stroke-dasharray="6 4"/><text x="84" y="365.0" fill="#d33">spec 100 m</text><polyline fill="none" stroke="#c0392b" stroke-width="2" points="80.0,370.0 81.0,370.0 82.0,370.0 83.0,370.0 84.0,370.0 85.0,370.0 86.0,370.0 87.0,370.0 88.0,370.0 89.0,370.0 90.0,370.0 91.0,370.0 92.0,370.0 93.0,370.0 94.0,370.0 95.0,370.0 96.0,370.0 97.0,370.0 98.0,370.0 99.0,370.0 100.0,370.0 101.0,370.0 102.0,370.0 103.0,370.0 104.0,370.0 105.0,370.0 106.0,370.0 107.0,370.0 108.0,370.0 109.0,370.0 110.0,370.0 111.0,370.0 112.0,370.0 113.0,370.0 114.0,370.0 115.0,370.0 116.0,370.0 117.0,370.0 118.0,370.0 119.0,370.0 120.0,370.0 121.0,370.0 122.0,370.0 123.0,370.0 124.0,370.0 125.0,370.0 126.0,370.0 127.0,370.0 128.0,370.0 129.0,370.0 130.0,370.0 131.0,370.0 132.0,370.0 133.0,370.0 134.0,370.0 135.0,370.0 136.0,370.0 137.0,370.0 138.0,370.0 139.0,370.0 140.0,370.0 141.0,370.0 142.0,370.0 143.0,370.0 144.0,370.0 145.0,370.0 146.0,370.0 147.0,369.9 148.0,369.9 149.0,369.9 150.0,369.9 151.0,369.9 152.0,369.9 153.0,369.8 154.0,369.8 155.0,369.8 156.0,369.8 157.0,369.7 158.0,369.7 159.0,369.7 160.0,369.6 161.0,369.6 162.0,369.6 163.0,369.5 164.0,369.5 165.0,369.5 166.0,369.4 167.0,369.4 168.0,369.3 169.0,369.3 170.0,369.2 171.0,369.2 172.0,369.1 173.0,369.1 174.0,369.0 175.0,369.0 176.0,368.9 177.0,368.9 178.0,368.8 179.0,368.7 180.0,368.7 181.0,368.6 182.0,368.5 183.0,368.5 184.0,368.4 185.0,368.3 186.0,368.3 187.0,368.2 188.0,368.1 189.0,368.0 190.0,367.9 191.0,367.9 192.0,367.8 193.0,367.7 194.0,367.6 195.0,367.5 196.0,367.4 197.0,367.3 198.0,367.3 199.0,367.2 200.0,367.1 201.0,367.0 202.0,366.9 203.0,366.8 204.0,366.7 205.0,366.6 206.0,366.5 207.0,366.4 208.0,366.3 209.0,366.1 210.0,366.0 211.0,365.9 212.0,365.8 213.0,365.7 214.0,365.6 215.0,365.5 216.0,365.3 217.0,365.2 218.0,365.1 219.0,365.0 220.0,364.8 221.0,364.7 222.0,364.6 223.0,364.5 224.0,364.3 225.0,364.2 226.0,364.1 227.0,363.9 228.0,363.8 229.0,363.6 230.0,363.5 231.0,363.4 232.0,363.2 233.0,363.1 234.0,362.9 235.0,362.8 236.0,362.6 237.0,362.5 238.0,362.3 239.0,362.2 240.0,362.0 241.0,361.8 242.0,361.7 243.0,361.5 244.0,361.4 245.0,361.2 246.0,361.0 247.0,360.9 248.0,360.7 249.0,360.5 250.0,360.4 251.0,360.2 252.0,360.0 253.0,359.8 254.0,359.6 255.0,359.5 256.0,359.3 257.0,359.1 258.0,358.9 259.0,358.7 260.0,358.5 261.0,358.4 262.0,358.2 263.0,358.0 264.0,357.8 265.0,357.6 266.0,357.4 267.0,357.2 268.0,357.0 269.0,356.8 270.0,356.6 271.0,356.4 272.0,356.2 273.0,356.0 274.0,355.7 275.0,355.5 276.0,355.3 277.0,355.1 278.0,354.9 279.0,354.7 280.0,354.4 281.0,354.2 282.0,354.0 283.0,353.8 284.0,353.6 285.0,353.3 286.0,353.1 287.0,352.9 288.0,352.6 289.0,352.4 290.0,352.2 291.0,351.9 292.0,351.7 293.0,351.4 294.0,351.2 295.0,351.0 296.0,350.7 297.0,350.5 298.0,350.2 299.0,350.0 300.0,349.7 301.0,349.5 302.0,349.2 303.0,349.0 304.0,348.7 305.0,348.4 306.0,348.2 307.0,347.9 308.0,347.7 309.0,347.4 310.0,347.1 311.0,346.9 312.0,346.6 313.0,346.3 314.0,346.1 315.0,345.8 316.0,345.5 317.0,345.2 318.0,345.0 319.0,344.7 320.0,344.4 321.0,344.1 322.0,343.8 323.0,343.5 324.0,343.2 325.0,343.0 326.0,342.7 327.0,342.4 328.0,342.1 329.0,341.8 330.0,341.5 331.0,341.2 332.0,340.9 333.0,340.6 334.0,340.3 335.0,340.0 336.0,339.7 337.0,339.4 338.0,339.1 339.0,338.7 340.0,338.4 341.0,338.1 342.0,337.8 343.0,337.5 344.0,337.2 345.0,336.8 346.0,336.5 347.0,336.2 348.0,335.9 349.0,335.5 350.0,335.2 351.0,334.9 352.0,334.6 353.0,334.2 354.0,333.9 355.0,333.6 356.0,333.2 357.0,332.9 358.0,332.5 359.0,332.2 360.0,331.8 361.0,331.5 362.0,331.2 363.0,330.8 364.0,330.5 365.0,330.1 366.0,329.8 367.0,329.4 368.0,329.0 369.0,328.7 370.0,328.3 371.0,328.0 372.0,327.6 373.0,327.2 374.0,326.9 375.0,326.5 376.0,326.1 377.0,325.8 378.0,325.4 379.0,325.0 380.0,324.6 381.0,324.3 382.0,323.9 383.0,323.5 384.0,323.1 385.0,322.7 386.0,322.4 387.0,322.0 388.0,321.6 389.0,321.2 390.0,320.8 391.0,320.4 392.0,320.0 393.0,319.6 394.0,319.2 395.0,318.8 396.0,318.4 397.0,318.0 398.0,317.6 399.0,317.2 400.0,316.8 401.0,316.4 402.0,316.0 403.0,315.6 404.0,315.2 405.0,314.8 406.0,314.3 407.0,313.9 408.0,313.5 409.0,313.1 410.0,312.7 411.0,312.2 412.0,311.8 413.0,311.4 414.0,311.0 415.0,310.5 416.0,310.1 417.0,309.7 418.0,309.2 419.0,308.8 420.0,308.4 421.0,307.9 422.0,307.5 423.0,307.0 424.0,306.6 425.0,306.1 426.0,305.7 427.0,305.3 428.0,304.8 429.0,304.4 430.0,303.9 431.0,303.4 432.0,303.0 433.0,302.5 434.0,302.1 435.0,301.6 436.0,301.1 437.0,300.7 438.0,300.2 439.0,299.7 440.0,299.3 441.0,298.8 442.0,298.3 443.0,297.9 444.0,297.4 445.0,296.9 446.0,296.4 447.0,296.0 448.0,295.5 449.0,295.0 450.0,294.5 451.0,294.0 452.0,293.5 453.0,293.0 454.0,292.6 455.0,292.1 456.0,291.6 457.0,291.1 458.0,290.6 459.0,290.1 460.0,289.6 461.0,289.1 462.0,288.6 463.0,288.1 464.0,287.6 465.0,287.1 466.0,286.6 467.0,286.1 468.0,285.5 469.0,285.0 470.0,284.5 471.0,284.0 472.0,283.5 473.0,283.0 474.0,282.4 475.0,281.9 476.0,281.4 477.0,280.9 478.0,280.3 479.0,279.8 480.0,279.3 481.0,278.8 482.0,278.2 483.0,277.7 484.0,277.1 485.0,276.6 486.0,276.1 487.0,275.5 488.0,275.0 489.0,274.4 490.0,273.9 491.0,273.3 492.0,272.8 493.0,272.2 494.0,271.7 495.0,271.1 496.0,270.6 497.0,270.0 498.0,269.5 499.0,268.9 500.0,268.4 501.0,267.8 502.0,267.2 503.0,266.7 504.0,266.1 505.0,265.5 506.0,265.0 507.0,264.4 508.0,263.8 509.0,263.2 510.0,262.7 511.0,262.1 512.0,261.5 513.0,260.9 514.0,260.3 515.0,259.7 516.0,259.2 517.0,258.6 518.0,258.0 519.0,257.4 520.0,256.8 521.0,256.2 522.0,255.6 523.0,255.0 524.0,254.4 525.0,253.8 526.0,253.2 527.0,252.6 528.0,252.0 529.0,251.4 530.0,250.8 531.0,250.2 532.0,249.6 533.0,249.0 534.0,248.4 535.0,247.7 536.0,247.1 537.0,246.5 538.0,245.9 539.0,245.3 540.0,244.6 541.0,244.0 542.0,243.4 543.0,242.8 544.0,242.1 545.0,241.5 546.0,240.9 547.0,240.2 548.0,239.6 549.0,239.0 550.0,238.3 551.0,237.7 552.0,237.0 553.0,236.4 554.0,235.8 555.0,235.1 556.0,234.5 557.0,233.8 558.0,233.2 559.0,232.5 560.0,231.8 561.0,231.2 562.0,230.5 563.0,229.9 564.0,229.2 565.0,228.6 566.0,227.9 567.0,227.2 568.0,226.6 569.0,225.9 570.0,225.2 571.0,224.5 572.0,223.9 573.0,223.2 574.0,222.5 575.0,221.8 576.0,221.2 577.0,220.5 578.0,219.8 579.0,219.1 580.0,218.4 581.0,217.8 582.0,217.1 583.0,216.4 584.0,215.7 585.0,215.0 586.0,214.3 587.0,213.6 588.0,212.9 589.0,212.2 590.0,211.5 591.0,210.8 592.0,210.1 593.0,209.4 594.0,208.7 595.0,208.0 596.0,207.3 597.0,206.6 598.0,205.8 599.0,205.1 600.0,204.4 601.0,203.7 602.0,203.0 603.0,202.3 604.0,201.5 605.0,200.8 606.0,200.1 607.0,199.4 608.0,198.6 609.0,197.9 610.0,197.2 611.0,196.4 612.0,195.7 613.0,195.0 614.0,194.2 615.0,193.5 616.0,192.7 617.0,192.0 618.0,191.3 619.0,190.5 620.0,189.8 621.0,189.0 622.0,188.3 623.0,187.5 624.0,186.8 625.0,186.0 626.0,185.2 627.0,184.5 628.0,183.7 629.0,183.0 630.0,182.2 631.0,181.4 632.0,180.7 633.0,179.9 634.0,179.1 635.0,178.4 636.0,177.6 637.0,176.8 638.0,176.1 639.0,175.3 640.0,174.5 641.0,173.7 642.0,172.9 643.0,172.2 644.0,171.4 645.0,170.6 646.0,169.8 647.0,169.0 648.0,168.2 649.0,167.4 650.0,166.6 651.0,165.8 652.0,165.0 653.0,164.2 654.0,163.4 655.0,162.6 656.0,161.8 657.0,161.0 658.0,160.2 659.0,159.4 660.0,158.6 661.0,157.8 662.0,157.0 663.0,156.2 664.0,155.4 665.0,154.5 666.0,153.7 667.0,152.9 668.0,152.1 669.0,151.3 670.0,150.4 671.0,149.6 672.0,148.8 673.0,148.0 674.0,147.1 675.0,146.3 676.0,145.5 677.0,144.6 678.0,143.8 679.0,142.9 680.0,142.1 681.0,141.3 682.0,140.4 683.0,139.6 684.0,138.7 685.0,137.9 686.0,137.0 687.0,136.2 688.0,135.3 689.0,134.5 690.0,133.6 691.0,132.8 692.0,131.9 693.0,131.0 694.0,130.2 695.0,129.3 696.0,128.5 697.0,127.6 698.0,126.7 699.0,125.9 700.0,125.0 701.0,124.1 702.0,123.2 703.0,122.4 704.0,121.5 705.0,120.6 706.0,119.7 707.0,118.8 708.0,118.0 709.0,117.1 710.0,116.2 711.0,115.3 712.0,114.4 713.0,113.5 714.0,112.6 715.0,111.7 716.0,110.8 717.0,109.9 718.0,109.0 719.0,108.1 720.0,107.2 721.0,106.3 722.0,105.4 723.0,104.5 724.0,103.6 725.0,102.7 726.0,101.8 727.0,100.9 728.0,100.0 729.0,99.0 730.0,98.1 731.0,97.2 732.0,96.3 733.0,95.4 734.0,94.4 735.0,93.5 736.0,92.6 737.0,91.7 738.0,90.7 739.0,89.8 740.0,88.9 741.0,87.9 742.0,87.0 743.0,86.0 744.0,85.1 745.0,84.2 746.0,83.2 747.0,82.3 748.0,81.3 749.0,80.4 750.0,79.4 751.0,78.5 752.0,77.5 753.0,76.6 754.0,75.6 755.0,74.7 756.0,73.7 757.0,72.8 758.0,71.8 759.0,70.8 760.0,69.9 761.0,68.9 762.0,67.9 763.0,67.0 764.0,66.0 765.0,65.0 766.0,64.0 767.0,63.1 768.0,62.1 769.0,61.1 770.0,60.1 771.0,59.1 772.0,58.2 773.0,57.2 774.0,56.2 775.0,55.2 776.0,54.2 777.0,53.2 778.0,52.2 779.0,51.2 780.0,50.2 781.0,49.2 782.0,48.2 783.0,47.2 784.0,46.2 785.0,45.2 786.0,44.2 787.0,43.2 788.0,42.2 789.0,41.2 790.0,40.2 791.0,39.2 792.0,38.2 793.0,37.2 794.0,36.1 795.0,35.1 796.0,34.1 797.0,33.1 798.0,32.1 799.0,31.0 800.0,30.0"/><polyline fill="none" stroke="#2471a3" stroke-width="2" points="80.0,370.0 81.0,370.0 82.0,370.0 83.0,370.0 84.0,370.0 85.0,370.0 86.0,370.0 87.0,370.0 88.0,370.0 89.0,370.0 90.0,370.0 91.0,370.0 92.0,370.0 93.0,370.0 94.0,370.0 95.0,370.0 96.0,370.0 97.0,370.0 98.0,370.0 99.0,370.0 100.0,370.0 101.0,370.0 102.0,370.0 103.0,370.0 104.0,370.0 105.0,370.0 106.0,370.0 107.0,370.0 108.0,370.0 109.0,370.0 110.0,370.0 111.0,370.0 112.0,370.0 113.0,370.0 114.0,370.0 115.0,370.0 116.0,370.0 117.0,370.0 118.0,370.0 119.0,370.0 120.0,370.0 121.0,370.0 122.0,370.0 123.0,370.0 124.0,370.0 125.0,370.0 126.0,370.0 127.0,370.0 128.0,370.0 129.0,370.0 130.0,370.0 131.0,370.0 132.0,370.0 133.0,370.0 134.0,370.0 135.0,370.0 136.0,370.0 137.0,370.0 138.0,370.0 139.0,370.0 140.0,370.0 141.0,370.0 142.0,370.0 143.0,370.0 144.0,370.0 145.0,370.0 146.0,370.0 147.0,370.0 148.0,370.0 149.0,370.0 150.0,370.0 151.0,370.0 152.0,370.0 153.0,370.0 154.0,370.0 155.0,370.0 156.0,370.0 157.0,370.0 158.0,370.0 159.0,370.0 160.0,370.0 161.0,370.0 162.0,370.0 163.0,370.0 164.0,370.0 165.0,370.0 166.0,370.0 167.0,370.0 168.0,370.0 169.0,370.0 170.0,370.0 171.0,370.0 172.0,370.0 173.0,370.0 174.0,370.0 175.0,370.0 176.0,370.0 177.0,370.0 178.0,370.0 179.0,370.0 180.0,370.0 181.0,370.0 182.0,370.0 183.0,370.0 184.0,370.0 185.0,370.0 186.0,370.0 187.0,370.0 188.0,370.0 189.0,370.0 190.0,370.0 191.0,370.0 192.0,370.0 193.0,370.0 194.0,370.0 195.0,370.0 196.0,370.0 197.0,370.0 198.0,370.0 199.0,370.0 200.0,370.0 201.0,370.0 202.0,370.0 203.0,370.0 204.0,370.0 205.0,370.0 206.0,370.0 207.0,370.0 208.0,370.0 209.0,370.0 210.0,370.0 211.0,370.0 212.0,370.0 213.0,370.0 214.0,370.0 215.0,370.0 216.0,370.0 217.0,370.0 218.0,370.0 219.0,370.0 220.0,370.0 221.0,370.0 222.0,370.0 223.0,370.0 224.0,370.0 225.0,370.0 226.0,370.0 227.0,370.0 228.0,370.0 229.0,370.0 230.0,370.0 231.0,370.0 232.0,370.0 233.0,370.0 234.0,370.0 235.0,370.0 236.0,370.0 237.0,370.0 238.0,370.0 239.0,370.0 240.0,370.0 241.0,370.0 242.0,370.0 243.0,370.0 244.0,370.0 245.0,370.0 246.0,370.0 247.0,370.0 248.0,370.0 249.0,370.0 250.0,370.0 251.0,370.0 252.0,370.0 253.0,370.0 254.0,370.0 255.0,370.0 256.0,370.0 257.0,370.0 258.0,370.0 259.0,370.0 260.0,370.0 261.0,370.0 262.0,370.0 263.0,370.0 264.0,370.0 265.0,370.0 266.0,370.0 267.0,370.0 268.0,370.0 269.0,370.0 270.0,370.0 271.0,370.0 272.0,370.0 273.0,370.0 274.0,370.0 275.0,370.0 276.0,370.0 277.0,370.0 278.0,370.0 279.0,370.0 280.0,370.0 281.0,370.0 282.0,370.0 283.0,370.0 284.0,370.0 285.0,370.0 286.0,370.0 287.0,370.0 288.0,370.0 289.0,370.0 290.0,370.0 291.0,370.0 292.0,370.0 293.0,370.0 294.0,370.0 295.0,370.0 296.0,370.0 297.0,370.0 298.0,370.0 299.0,370.0 300.0,369.9 301.0,369.9 302.0,369.9 303.0,369.9 304.0,369.9 305.0,369.9 306.0,369.9 307.0,369.9 308.0,369.9 309.0,369.9 310.0,369.9 311.0,369.9 312.0,369.9 313.0,369.9 314.0,369.9 315.0,369.9 316.0,369.9 317.0,369.9 318.0,369.9 319.0,369.9 320.0,369.9 321.0,369.9 322.0,369.9 323.0,369.9 324.0,369.9 325.0,369.9 326.0,369.9 327.0,369.9 328.0,369.9 329.0,369.9 330.0,369.9 331.0,369.9 332.0,369.9 333.0,369.9 334.0,369.9 335.0,369.9 336.0,369.9 337.0,369.9 338.0,369.9 339.0,369.9 340.0,369.9 341.0,369.9 342.0,369.9 343.0,369.9 344.0,369.9 345.0,369.9 346.0,369.9 347.0,369.9 348.0,369.9 349.0,369.9 350.0,369.9 351.0,369.9 352.0,369.9 353.0,369.9 354.0,369.9 355.0,369.9 356.0,369.9 357.0,369.9 358.0,369.9 359.0,369.9 360.0,369.9 361.0,369.9 362.0,369.9 363.0,369.9 364.0,369.9 365.0,369.9 366.0,369.9 367.0,369.9 368.0,369.9 369.0,369.9 370.0,369.9 371.0,369.9 372.0,369.9 373.0,369.9 374.0,369.9 375.0,369.9 376.0,369.9 377.0,369.9 378.0,369.9 379.0,369.9 380.0,369.9 381.0,369.9 382.0,369.9 383.0,369.9 384.0,369.9 385.0,369.9 386.0,369.9 387.0,369.9 388.0,369.9 389.0,369.9 390.0,369.9 391.0,369.9 392.0,369.9 393.0,369.9 394.0,369.9 395.0,369.9 396.0,369.9 397.0,369.9 398.0,369.9 399.0,369.9 400.0,369.9 401.0,369.9 402.0,369.8 403.0,369.8 404.0,369.8 405.0,369.8 406.0,369.8 407.0,369.8 408.0,369.8 409.0,369.8 410.0,369.8 411.0,369.8 412.0,369.8 413.0,369.8 414.0,369.8 415.0,369.8 416.0,369.8 417.0,369.8 418.0,369.8 419.0,369.8 420.0,369.8 421.0,369.8 422.0,369.8 423.0,369.8 424.0,369.8 425.0,369.8 426.0,369.8 427.0,369.8 428.0,369.8 429.0,369.8 430.0,369.8 431.0,369.8 432.0,369.8 433.0,369.8 434.0,369.8 435.0,369.8 436.0,369.8 437.0,369.8 438.0,369.8 439.0,369.8 440.0,369.8 441.0,369.8 442.0,369.8 443.0,369.8 444.0,369.8 445.0,369.8 446.0,369.8 447.0,369.8 448.0,369.8 449.0,369.8 450.0,369.8 451.0,369.8 452.0,369.8 453.0,369.8 454.0,369.8 455.0,369.8 456.0,369.8 457.0,369.8 458.0,369.8 459.0,369.8 460.0,369.8 461.0,369.8 462.0,369.8 463.0,369.8 464.0,369.8 465.0,369.8 466.0,369.8 467.0,369.8 468.0,369.8 469.0,369.8 470.0,369.8 471.0,369.8 472.0,369.8 473.0,369.8 474.0,369.8 475.0,369.8 476.0,369.8 477.0,369.8 478.0,369.8 479.0,369.8 480.0,369.8 481.0,369.8 482.0,369.8 483.0,369.8 484.0,369.8 485.0,369.8 486.0,369.8 487.0,369.8 488.0,369.8 489.0,369.8 490.0,369.8 491.0,369.8 492.0,369.8 493.0,369.8 494.0,369.8 495.0,369.8 496.0,369.8 497.0,369.8 498.0,369.8 499.0,369.8 500.0,369.8 501.0,369.8 502.0,369.8 503.0,369.8 504.0,369.8 505.0,369.8 506.0,369.8 507.0,369.8 508.0,369.8 509.0,369.8 510.0,369.8 511.0,369.8 512.0,369.8 513.0,369.8 514.0,369.8 515.0,369.8 516.0,369.8 517.0,369.8 518.0,369.8 519.0,369.8 520.0,369.8 521.0,369.8 522.0,369.8 523.0,369.8 524.0,369.8 525.0,369.8 526.0,369.8 527.0,369.8 528.0,369.8 529.0,369.8 530.0,369.8 531.0,369.8 532.0,369.8 533.0,369.8 534.0,369.8 535.0,369.8 536.0,369.8 537.0,369.8 538.0,369.8 539.0,369.8 540.0,369.8 541.0,369.8 542.0,369.8 543.0,369.8 544.0,369.8 545.0,369.8 546.0,369.8 547.0,369.8 548.0,369.8 549.0,369.8 550.0,369.8 551.0,369.8 552.0,369.8 553.0,369.8 554.0,369.8 555.0,369.8 556.0,369.8 557.0,369.8 558.0,369.8 559.0,369.8 560.0,369.8 561.0,369.8 562.0,369.8 563.0,369.8 564.0,369.8 565.0,369.8 566.0,369.8 567.0,369.8 568.0,369.8 569.0,369.8 570.0,369.8 571.0,369.8 572.0,369.8 573.0,369.8 574.0,369.8 575.0,369.8 576.0,369.8 577.0,369.8 578.0,369.8 579.0,369.8 580.0,369.8 581.0,369.8 582.0,369.8 583.0,369.8 584.0,369.8 585.0,369.8 586.0,369.8 587.0,369.8 588.0,369.8 589.0,369.8 590.0,369.8 591.0,369.8 592.0,369.8 593.0,369.8 594.0,369.8 595.0,369.8 596.0,369.8 597.0,369.8 598.0,369.8 599.0,369.8 600.0,369.8 601.0,369.8 602.0,369.8 603.0,369.8 604.0,369.8 605.0,369.8 606.0,369.8 607.0,369.8 608.0,369.8 609.0,369.8 610.0,369.8 611.0,369.8 612.0,369.8 613.0,369.8 614.0,369.8 615.0,369.8 616.0,369.8 617.0,369.8 618.0,369.8 619.0,369.8 620.0,369.8 621.0,369.8 622.0,369.8 623.0,369.8 624.0,369.8 625.0,369.8 626.0,369.8 627.0,369.8 628.0,369.8 629.0,369.8 630.0,369.8 631.0,369.8 632.0,369.8 633.0,369.8 634.0,369.8 635.0,369.8 636.0,369.8 637.0,369.8 638.0,369.8 639.0,369.8 640.0,369.8 641.0,369.8 642.0,369.8 643.0,369.8 644.0,369.8 645.0,369.8 646.0,369.8 647.0,369.8 648.0,369.8 649.0,369.8 650.0,369.8 651.0,369.8 652.0,369.8 653.0,369.8 654.0,369.8 655.0,369.8 656.0,369.8 657.0,369.8 658.0,369.8 659.0,369.8 660.0,369.8 661.0,369.8 662.0,369.8 663.0,369.8 664.0,369.8 665.0,369.8 666.0,369.8 667.0,369.7 668.0,369.7 669.0,369.7 670.0,369.7 671.0,369.7 672.0,369.7 673.0,369.7 674.0,369.7 675.0,369.7 676.0,369.7 677.0,369.7 678.0,369.7 679.0,369.7 680.0,369.7 681.0,369.7 682.0,369.7 683.0,369.7 684.0,369.7 685.0,369.7 686.0,369.7 687.0,369.7 688.0,369.7 689.0,369.7 690.0,369.7 691.0,369.7 692.0,369.7 693.0,369.7 694.0,369.7 695.0,369.7 696.0,369.7 697.0,369.7 698.0,369.7 699.0,369.7 700.0,369.7 701.0,369.7 702.0,369.7 703.0,369.7 704.0,369.7 705.0,369.7 706.0,369.7 707.0,369.7 708.0,369.7 709.0,369.7 710.0,369.7 711.0,369.7 712.0,369.7 713.0,369.7 714.0,369.7 715.0,369.7 716.0,369.7 717.0,369.7 718.0,369.7 719.0,369.7 720.0,369.7 721.0,369.7 722.0,369.7 723.0,369.7 724.0,369.7 725.0,369.7 726.0,369.7 727.0,369.7 728.0,369.7 729.0,369.7 730.0,369.7 731.0,369.7 732.0,369.7 733.0,369.7 734.0,369.7 735.0,369.7 736.0,369.7 737.0,369.7 738.0,369.7 739.0,369.7 740.0,369.6 741.0,369.6 742.0,369.6 743.0,369.6 744.0,369.6 745.0,369.6 746.0,369.6 747.0,369.6 748.0,369.6 749.0,369.6 750.0,369.6 751.0,369.6 752.0,369.6 753.0,369.6 754.0,369.6 755.0,369.6 756.0,369.6 757.0,369.6 758.0,369.6 759.0,369.6 760.0,369.6 761.0,369.6 762.0,369.6 763.0,369.6 764.0,369.6 765.0,369.6 766.0,369.6 767.0,369.6 768.0,369.6 769.0,369.6 770.0,369.6 771.0,369.6 772.0,369.6 773.0,369.6 774.0,369.6 775.0,369.6 776.0,369.6 777.0,369.6 778.0,369.6 779.0,369.6 780.0,369.6 781.0,369.6 782.0,369.6 783.0,369.6 784.0,369.5 785.0,369.5 786.0,369.5 787.0,369.5 788.0,369.5 789.0,369.5 790.0,369.5 791.0,369.5 792.0,369.5 793.0,369.5 794.0,369.5 795.0,369.5 796.0,369.5 797.0,369.5 798.0,369.5 799.0,369.5 800.0,369.5"/><text x="440" y="408" text-anchor="middle">time (s)</text><text x="90" y="44" fill="#c0392b">classical: nav-grade-quartz</text><text x="90" y="60" fill="#2471a3">quantum: cold-atom-quat</text></svg>