<svg xmlns="http://www.w3.org/2000/svg" width="820" height="420" font-family="sans-serif" font-size="12" fill="#bcb3a3"><rect width="820" height="420" fill="#0c0b08"/><text x="80" y="18" font-size="15" font-weight="bold">Dead-reckoning position error during GNSS outage</text><line x1="80" y1="370.0" x2="800" y2="370.0" stroke="#262019"/><text x="74" y="374.0" text-anchor="end" fill="#8c8273" font-size="11">0</text><line x1="80" y1="285.0" x2="800" y2="285.0" stroke="#262019"/><text x="74" y="289.0" text-anchor="end" fill="#8c8273" font-size="11">8487</text><line x1="80" y1="200.0" x2="800" y2="200.0" stroke="#262019"/><text x="74" y="204.0" text-anchor="end" fill="#8c8273" font-size="11">16975</text><line x1="80" y1="115.0" x2="800" y2="115.0" stroke="#262019"/><text x="74" y="119.0" text-anchor="end" fill="#8c8273" font-size="11">25462</text><line x1="80" y1="30.0" x2="800" y2="30.0" stroke="#262019"/><text x="74" y="34.0" text-anchor="end" fill="#8c8273" font-size="11">33949</text><text x="16" y="200.0" text-anchor="middle" fill="#8c8273" font-size="12" transform="rotate(-90 16 200.0)">position error (m)</text><line x1="80" y1="30" x2="80" y2="370" stroke="#342c21"/><line x1="80" y1="370" x2="800" y2="370" stroke="#342c21"/><line x1="80" y1="369.0" x2="800" y2="369.0" stroke="#e5645a" stroke-dasharray="6 4"/><text x="84" y="365.0" fill="#e5645a">spec 100 m</text><polyline fill="none" stroke="#d2925e" stroke-width="2" points="80.0,370.0 81.0,370.0 82.0,370.0 83.0,370.0 84.0,370.0 85.0,370.0 86.0,370.0 87.0,370.0 88.0,370.0 89.0,370.0 90.0,370.0 91.0,370.0 92.0,370.0 93.0,370.0 94.0,370.0 95.0,370.0 96.0,370.0 97.0,370.0 98.0,370.0 99.0,370.0 100.0,370.0 101.0,370.0 102.0,370.0 103.0,370.0 104.0,370.0 105.0,370.0 106.0,370.0 107.0,370.0 108.0,370.0 109.0,370.0 110.0,370.0 111.0,370.0 112.0,370.0 113.0,370.0 114.0,370.0 115.0,370.0 116.0,370.0 117.0,370.0 118.0,370.0 119.0,370.0 120.0,370.0 121.0,370.0 122.0,370.0 123.0,370.0 124.0,370.0 125.0,370.0 126.0,370.0 127.0,370.0 128.0,370.0 129.0,370.0 130.0,370.0 131.0,370.0 132.0,370.0 133.0,370.0 134.0,370.0 135.0,370.0 136.0,370.0 137.0,370.0 138.0,370.0 139.0,370.0 140.0,370.0 141.0,370.0 142.0,370.0 143.0,370.0 144.0,370.0 145.0,370.0 146.0,370.0 147.0,369.9 148.0,369.9 149.0,369.9 150.0,369.9 151.0,369.9 152.0,369.9 153.0,369.8 154.0,369.8 155.0,369.8 156.0,369.8 157.0,369.7 158.0,369.7 159.0,369.7 160.0,369.7 161.0,369.6 162.0,369.6 163.0,369.5 164.0,369.5 165.0,369.5 166.0,369.4 167.0,369.4 168.0,369.3 169.0,369.3 170.0,369.2 171.0,369.2 172.0,369.1 173.0,369.1 174.0,369.0 175.0,369.0 176.0,368.9 177.0,368.9 178.0,368.8 179.0,368.7 180.0,368.7 181.0,368.6 182.0,368.6 183.0,368.5 184.0,368.4 185.0,368.3 186.0,368.3 187.0,368.2 188.0,368.1 189.0,368.0 190.0,368.0 191.0,367.9 192.0,367.8 193.0,367.7 194.0,367.6 195.0,367.6 196.0,367.5 197.0,367.4 198.0,367.3 199.0,367.2 200.0,367.1 201.0,367.0 202.0,366.9 203.0,366.8 204.0,366.7 205.0,366.6 206.0,366.5 207.0,366.4 208.0,366.3 209.0,366.2 210.0,366.1 211.0,366.0 212.0,365.8 213.0,365.7 214.0,365.6 215.0,365.5 216.0,365.4 217.0,365.3 218.0,365.1 219.0,365.0 220.0,364.9 221.0,364.8 222.0,364.6 223.0,364.5 224.0,364.4 225.0,364.2 226.0,364.1 227.0,364.0 228.0,363.8 229.0,363.7 230.0,363.6 231.0,363.4 232.0,363.3 233.0,363.1 234.0,363.0 235.0,362.8 236.0,362.7 237.0,362.5 238.0,362.4 239.0,362.2 240.0,362.1 241.0,361.9 242.0,361.8 243.0,361.6 244.0,361.4 245.0,361.3 246.0,361.1 247.0,360.9 248.0,360.8 249.0,360.6 250.0,360.4 251.0,360.3 252.0,360.1 253.0,359.9 254.0,359.7 255.0,359.5 256.0,359.4 257.0,359.2 258.0,359.0 259.0,358.8 260.0,358.6 261.0,358.4 262.0,358.3 263.0,358.1 264.0,357.9 265.0,357.7 266.0,357.5 267.0,357.3 268.0,357.1 269.0,356.9 270.0,356.7 271.0,356.5 272.0,356.3 273.0,356.1 274.0,355.9 275.0,355.6 276.0,355.4 277.0,355.2 278.0,355.0 279.0,354.8 280.0,354.6 281.0,354.4 282.0,354.1 283.0,353.9 284.0,353.7 285.0,353.5 286.0,353.2 287.0,353.0 288.0,352.8 289.0,352.5 290.0,352.3 291.0,352.1 292.0,351.8 293.0,351.6 294.0,351.4 295.0,351.1 296.0,350.9 297.0,350.6 298.0,350.4 299.0,350.1 300.0,349.9 301.0,349.6 302.0,349.4 303.0,349.1 304.0,348.9 305.0,348.6 306.0,348.4 307.0,348.1 308.0,347.9 309.0,347.6 310.0,347.3 311.0,347.1 312.0,346.8 313.0,346.5 314.0,346.3 315.0,346.0 316.0,345.7 317.0,345.4 318.0,345.2 319.0,344.9 320.0,344.6 321.0,344.3 322.0,344.0 323.0,343.8 324.0,343.5 325.0,343.2 326.0,342.9 327.0,342.6 328.0,342.3 329.0,342.0 330.0,341.7 331.0,341.4 332.0,341.1 333.0,340.8 334.0,340.5 335.0,340.2 336.0,339.9 337.0,339.6 338.0,339.3 339.0,339.0 340.0,338.7 341.0,338.4 342.0,338.1 343.0,337.8 344.0,337.4 345.0,337.1 346.0,336.8 347.0,336.5 348.0,336.2 349.0,335.8 350.0,335.5 351.0,335.2 352.0,334.9 353.0,334.5 354.0,334.2 355.0,333.9 356.0,333.5 357.0,333.2 358.0,332.9 359.0,332.5 360.0,332.2 361.0,331.8 362.0,331.5 363.0,331.1 364.0,330.8 365.0,330.4 366.0,330.1 367.0,329.7 368.0,329.4 369.0,329.0 370.0,328.7 371.0,328.3 372.0,327.9 373.0,327.6 374.0,327.2 375.0,326.9 376.0,326.5 377.0,326.1 378.0,325.7 379.0,325.4 380.0,325.0 381.0,324.6 382.0,324.3 383.0,323.9 384.0,323.5 385.0,323.1 386.0,322.7 387.0,322.3 388.0,322.0 389.0,321.6 390.0,321.2 391.0,320.8 392.0,320.4 393.0,320.0 394.0,319.6 395.0,319.2 396.0,318.8 397.0,318.4 398.0,318.0 399.0,317.6 400.0,317.2 401.0,316.8 402.0,316.4 403.0,316.0 404.0,315.6 405.0,315.2 406.0,314.8 407.0,314.3 408.0,313.9 409.0,313.5 410.0,313.1 411.0,312.7 412.0,312.2 413.0,311.8 414.0,311.4 415.0,311.0 416.0,310.5 417.0,310.1 418.0,309.7 419.0,309.2 420.0,308.8 421.0,308.4 422.0,307.9 423.0,307.5 424.0,307.0 425.0,306.6 426.0,306.2 427.0,305.7 428.0,305.3 429.0,304.8 430.0,304.4 431.0,303.9 432.0,303.5 433.0,303.0 434.0,302.5 435.0,302.1 436.0,301.6 437.0,301.2 438.0,300.7 439.0,300.2 440.0,299.8 441.0,299.3 442.0,298.8 443.0,298.4 444.0,297.9 445.0,297.4 446.0,296.9 447.0,296.5 448.0,296.0 449.0,295.5 450.0,295.0 451.0,294.5 452.0,294.0 453.0,293.6 454.0,293.1 455.0,292.6 456.0,292.1 457.0,291.6 458.0,291.1 459.0,290.6 460.0,290.1 461.0,289.6 462.0,289.1 463.0,288.6 464.0,288.1 465.0,287.6 466.0,287.1 467.0,286.6 468.0,286.1 469.0,285.5 470.0,285.0 471.0,284.5 472.0,284.0 473.0,283.5 474.0,283.0 475.0,282.4 476.0,281.9 477.0,281.4 478.0,280.9 479.0,280.3 480.0,279.8 481.0,279.3 482.0,278.7 483.0,278.2 484.0,277.7 485.0,277.1 486.0,276.6 487.0,276.1 488.0,275.5 489.0,275.0 490.0,274.4 491.0,273.9 492.0,273.3 493.0,272.8 494.0,272.2 495.0,271.7 496.0,271.1 497.0,270.6 498.0,270.0 499.0,269.5 500.0,268.9 501.0,268.3 502.0,267.8 503.0,267.2 504.0,266.7 505.0,266.1 506.0,265.5 507.0,264.9 508.0,264.4 509.0,263.8 510.0,263.2 511.0,262.6 512.0,262.1 513.0,261.5 514.0,260.9 515.0,260.3 516.0,259.7 517.0,259.2 518.0,258.6 519.0,258.0 520.0,257.4 521.0,256.8 522.0,256.2 523.0,255.6 524.0,255.0 525.0,254.4 526.0,253.8 527.0,253.2 528.0,252.6 529.0,252.0 530.0,251.4 531.0,250.8 532.0,250.2 533.0,249.6 534.0,249.0 535.0,248.3 536.0,247.7 537.0,247.1 538.0,246.5 539.0,245.9 540.0,245.3 541.0,244.6 542.0,244.0 543.0,243.4 544.0,242.8 545.0,242.1 546.0,241.5 547.0,240.9 548.0,240.2 549.0,239.6 550.0,239.0 551.0,238.3 552.0,237.7 553.0,237.0 554.0,236.4 555.0,235.7 556.0,235.1 557.0,234.5 558.0,233.8 559.0,233.2 560.0,232.5 561.0,231.8 562.0,231.2 563.0,230.5 564.0,229.9 565.0,229.2 566.0,228.5 567.0,227.9 568.0,227.2 569.0,226.6 570.0,225.9 571.0,225.2 572.0,224.5 573.0,223.9 574.0,223.2 575.0,222.5 576.0,221.8 577.0,221.2 578.0,220.5 579.0,219.8 580.0,219.1 581.0,218.4 582.0,217.7 583.0,217.0 584.0,216.4 585.0,215.7 586.0,215.0 587.0,214.3 588.0,213.6 589.0,212.9 590.0,212.2 591.0,211.5 592.0,210.8 593.0,210.1 594.0,209.4 595.0,208.7 596.0,207.9 597.0,207.2 598.0,206.5 599.0,205.8 600.0,205.1 601.0,204.4 602.0,203.7 603.0,202.9 604.0,202.2 605.0,201.5 606.0,200.8 607.0,200.0 608.0,199.3 609.0,198.6 610.0,197.8 611.0,197.1 612.0,196.4 613.0,195.6 614.0,194.9 615.0,194.2 616.0,193.4 617.0,192.7 618.0,191.9 619.0,191.2 620.0,190.4 621.0,189.7 622.0,188.9 623.0,188.2 624.0,187.4 625.0,186.7 626.0,185.9 627.0,185.2 628.0,184.4 629.0,183.6 630.0,182.9 631.0,182.1 632.0,181.3 633.0,180.6 634.0,179.8 635.0,179.0 636.0,178.3 637.0,177.5 638.0,176.7 639.0,175.9 640.0,175.1 641.0,174.4 642.0,173.6 643.0,172.8 644.0,172.0 645.0,171.2 646.0,170.4 647.0,169.6 648.0,168.8 649.0,168.1 650.0,167.3 651.0,166.5 652.0,165.7 653.0,164.9 654.0,164.1 655.0,163.3 656.0,162.4 657.0,161.6 658.0,160.8 659.0,160.0 660.0,159.2 661.0,158.4 662.0,157.6 663.0,156.8 664.0,155.9 665.0,155.1 666.0,154.3 667.0,153.5 668.0,152.7 669.0,151.8 670.0,151.0 671.0,150.2 672.0,149.3 673.0,148.5 674.0,147.7 675.0,146.8 676.0,146.0 677.0,145.2 678.0,144.3 679.0,143.5 680.0,142.6 681.0,141.8 682.0,141.0 683.0,140.1 684.0,139.3 685.0,138.4 686.0,137.5 687.0,136.7 688.0,135.8 689.0,135.0 690.0,134.1 691.0,133.3 692.0,132.4 693.0,131.5 694.0,130.7 695.0,129.8 696.0,128.9 697.0,128.1 698.0,127.2 699.0,126.3 700.0,125.4 701.0,124.6 702.0,123.7 703.0,122.8 704.0,121.9 705.0,121.0 706.0,120.2 707.0,119.3 708.0,118.4 709.0,117.5 710.0,116.6 711.0,115.7 712.0,114.8 713.0,113.9 714.0,113.0 715.0,112.1 716.0,111.2 717.0,110.3 718.0,109.4 719.0,108.5 720.0,107.6 721.0,106.7 722.0,105.8 723.0,104.9 724.0,104.0 725.0,103.1 726.0,102.1 727.0,101.2 728.0,100.3 729.0,99.4 730.0,98.5 731.0,97.5 732.0,96.6 733.0,95.7 734.0,94.8 735.0,93.8 736.0,92.9 737.0,92.0 738.0,91.0 739.0,90.1 740.0,89.2 741.0,88.2 742.0,87.3 743.0,86.3 744.0,85.4 745.0,84.4 746.0,83.5 747.0,82.5 748.0,81.6 749.0,80.6 750.0,79.7 751.0,78.7 752.0,77.8 753.0,76.8 754.0,75.9 755.0,74.9 756.0,73.9 757.0,73.0 758.0,72.0 759.0,71.0 760.0,70.1 761.0,69.1 762.0,68.1 763.0,67.2 764.0,66.2 765.0,65.2 766.0,64.2 767.0,63.2 768.0,62.3 769.0,61.3 770.0,60.3 771.0,59.3 772.0,58.3 773.0,57.3 774.0,56.3 775.0,55.3 776.0,54.4 777.0,53.4 778.0,52.4 779.0,51.4 780.0,50.4 781.0,49.4 782.0,48.3 783.0,47.3 784.0,46.3 785.0,45.3 786.0,44.3 787.0,43.3 788.0,42.3 789.0,41.3 790.0,40.3 791.0,39.2 792.0,38.2 793.0,37.2 794.0,36.2 795.0,35.1 796.0,34.1 797.0,33.1 798.0,32.1 799.0,31.0 800.0,30.0"/><polyline fill="none" stroke="#e0bd84" stroke-width="2" points="80.0,370.0 81.0,370.0 82.0,370.0 83.0,370.0 84.0,370.0 85.0,370.0 86.0,370.0 87.0,370.0 88.0,370.0 89.0,370.0 90.0,370.0 91.0,370.0 92.0,370.0 93.0,370.0 94.0,370.0 95.0,370.0 96.0,370.0 97.0,370.0 98.0,370.0 99.0,370.0 100.0,370.0 101.0,370.0 102.0,370.0 103.0,370.0 104.0,370.0 105.0,370.0 106.0,370.0 107.0,370.0 108.0,370.0 109.0,370.0 110.0,370.0 111.0,370.0 112.0,370.0 113.0,370.0 114.0,370.0 115.0,370.0 116.0,370.0 117.0,370.0 118.0,370.0 119.0,370.0 120.0,370.0 121.0,370.0 122.0,370.0 123.0,370.0 124.0,370.0 125.0,370.0 126.0,370.0 127.0,370.0 128.0,370.0 129.0,370.0 130.0,370.0 131.0,370.0 132.0,370.0 133.0,370.0 134.0,370.0 135.0,370.0 136.0,370.0 137.0,370.0 138.0,370.0 139.0,370.0 140.0,370.0 141.0,370.0 142.0,370.0 143.0,370.0 144.0,370.0 145.0,370.0 146.0,370.0 147.0,370.0 148.0,370.0 149.0,370.0 150.0,370.0 151.0,370.0 152.0,370.0 153.0,370.0 154.0,370.0 155.0,370.0 156.0,370.0 157.0,370.0 158.0,370.0 159.0,370.0 160.0,370.0 161.0,370.0 162.0,370.0 163.0,370.0 164.0,370.0 165.0,370.0 166.0,370.0 167.0,370.0 168.0,370.0 169.0,370.0 170.0,370.0 171.0,370.0 172.0,370.0 173.0,370.0 174.0,370.0 175.0,370.0 176.0,370.0 177.0,370.0 178.0,370.0 179.0,370.0 180.0,370.0 181.0,370.0 182.0,370.0 183.0,370.0 184.0,370.0 185.0,370.0 186.0,370.0 187.0,370.0 188.0,370.0 189.0,370.0 190.0,370.0 191.0,370.0 192.0,370.0 193.0,370.0 194.0,370.0 195.0,370.0 196.0,370.0 197.0,370.0 198.0,370.0 199.0,370.0 200.0,370.0 201.0,370.0 202.0,370.0 203.0,370.0 204.0,370.0 205.0,370.0 206.0,370.0 207.0,370.0 208.0,370.0 209.0,370.0 210.0,370.0 211.0,370.0 212.0,370.0 213.0,370.0 214.0,370.0 215.0,370.0 216.0,370.0 217.0,370.0 218.0,370.0 219.0,370.0 220.0,370.0 221.0,370.0 222.0,370.0 223.0,370.0 224.0,370.0 225.0,370.0 226.0,370.0 227.0,370.0 228.0,370.0 229.0,370.0 230.0,370.0 231.0,370.0 232.0,370.0 233.0,370.0 234.0,370.0 235.0,370.0 236.0,370.0 237.0,370.0 238.0,370.0 239.0,370.0 240.0,370.0 241.0,370.0 242.0,370.0 243.0,370.0 244.0,370.0 245.0,370.0 246.0,370.0 247.0,370.0 248.0,370.0 249.0,370.0 250.0,370.0 251.0,370.0 252.0,370.0 253.0,370.0 254.0,370.0 255.0,370.0 256.0,370.0 257.0,370.0 258.0,370.0 259.0,370.0 260.0,370.0 261.0,370.0 262.0,370.0 263.0,370.0 264.0,370.0 265.0,370.0 266.0,370.0 267.0,370.0 268.0,370.0 269.0,370.0 270.0,370.0 271.0,370.0 272.0,370.0 273.0,370.0 274.0,370.0 275.0,370.0 276.0,370.0 277.0,370.0 278.0,370.0 279.0,370.0 280.0,370.0 281.0,370.0 282.0,370.0 283.0,370.0 284.0,370.0 285.0,370.0 286.0,370.0 287.0,370.0 288.0,370.0 289.0,370.0 290.0,370.0 291.0,370.0 292.0,370.0 293.0,370.0 294.0,370.0 295.0,370.0 296.0,370.0 297.0,369.9 298.0,369.9 299.0,369.9 300.0,369.9 301.0,369.9 302.0,369.9 303.0,369.9 304.0,369.9 305.0,369.9 306.0,369.9 307.0,369.9 308.0,369.9 309.0,369.9 310.0,369.9 311.0,369.9 312.0,369.9 313.0,369.9 314.0,369.9 315.0,369.9 316.0,369.9 317.0,369.9 318.0,369.9 319.0,369.9 320.0,369.9 321.0,369.9 322.0,369.9 323.0,369.9 324.0,369.9 325.0,369.9 326.0,369.9 327.0,369.9 328.0,369.9 329.0,369.9 330.0,369.9 331.0,369.9 332.0,369.9 333.0,369.9 334.0,369.9 335.0,369.9 336.0,369.9 337.0,369.9 338.0,369.9 339.0,369.9 340.0,369.9 341.0,369.9 342.0,369.9 343.0,369.9 344.0,369.9 345.0,369.9 346.0,369.9 347.0,369.9 348.0,369.9 349.0,369.9 350.0,369.9 351.0,369.9 352.0,369.9 353.0,369.9 354.0,369.9 355.0,369.9 356.0,369.9 357.0,369.9 358.0,369.9 359.0,369.9 360.0,369.9 361.0,369.9 362.0,369.9 363.0,369.9 364.0,369.9 365.0,369.9 366.0,369.9 367.0,369.9 368.0,369.9 369.0,369.9 370.0,369.9 371.0,369.9 372.0,369.9 373.0,369.9 374.0,369.9 375.0,369.9 376.0,369.9 377.0,369.9 378.0,369.9 379.0,369.9 380.0,369.9 381.0,369.9 382.0,369.9 383.0,369.9 384.0,369.9 385.0,369.9 386.0,369.9 387.0,369.9 388.0,369.9 389.0,369.9 390.0,369.9 391.0,369.9 392.0,369.9 393.0,369.9 394.0,369.9 395.0,369.9 396.0,369.9 397.0,369.9 398.0,369.9 399.0,369.9 400.0,369.8 401.0,369.8 402.0,369.8 403.0,369.8 404.0,369.8 405.0,369.8 406.0,369.8 407.0,369.8 408.0,369.8 409.0,369.8 410.0,369.8 411.0,369.8 412.0,369.8 413.0,369.8 414.0,369.8 415.0,369.8 416.0,369.8 417.0,369.8 418.0,369.8 419.0,369.8 420.0,369.8 421.0,369.8 422.0,369.8 423.0,369.8 424.0,369.8 425.0,369.8 426.0,369.8 427.0,369.8 428.0,369.8 429.0,369.8 430.0,369.8 431.0,369.8 432.0,369.8 433.0,369.8 434.0,369.8 435.0,369.8 436.0,369.8 437.0,369.8 438.0,369.8 439.0,369.8 440.0,369.8 441.0,369.8 442.0,369.8 443.0,369.8 444.0,369.8 445.0,369.8 446.0,369.8 447.0,369.8 448.0,369.8 449.0,369.8 450.0,369.8 451.0,369.8 452.0,369.8 453.0,369.8 454.0,369.8 455.0,369.8 456.0,369.8 457.0,369.8 458.0,369.8 459.0,369.8 460.0,369.8 461.0,369.8 462.0,369.8 463.0,369.8 464.0,369.8 465.0,369.8 466.0,369.8 467.0,369.8 468.0,369.8 469.0,369.8 470.0,369.8 471.0,369.8 472.0,369.8 473.0,369.8 474.0,369.8 475.0,369.8 476.0,369.8 477.0,369.8 478.0,369.8 479.0,369.8 480.0,369.8 481.0,369.8 482.0,369.8 483.0,369.8 484.0,369.8 485.0,369.8 486.0,369.8 487.0,369.8 488.0,369.8 489.0,369.8 490.0,369.8 491.0,369.8 492.0,369.8 493.0,369.8 494.0,369.8 495.0,369.8 496.0,369.8 497.0,369.8 498.0,369.8 499.0,369.8 500.0,369.8 501.0,369.8 502.0,369.8 503.0,369.8 504.0,369.8 505.0,369.8 506.0,369.8 507.0,369.8 508.0,369.8 509.0,369.8 510.0,369.8 511.0,369.8 512.0,369.8 513.0,369.8 514.0,369.8 515.0,369.8 516.0,369.8 517.0,369.8 518.0,369.8 519.0,369.8 520.0,369.8 521.0,369.8 522.0,369.8 523.0,369.8 524.0,369.8 525.0,369.8 526.0,369.8 527.0,369.8 528.0,369.8 529.0,369.8 530.0,369.8 531.0,369.8 532.0,369.8 533.0,369.8 534.0,369.8 535.0,369.8 536.0,369.8 537.0,369.8 538.0,369.8 539.0,369.8 540.0,369.8 541.0,369.8 542.0,369.8 543.0,369.8 544.0,369.8 545.0,369.8 546.0,369.8 547.0,369.8 548.0,369.8 549.0,369.8 550.0,369.8 551.0,369.8 552.0,369.8 553.0,369.8 554.0,369.8 555.0,369.8 556.0,369.8 557.0,369.8 558.0,369.8 559.0,369.8 560.0,369.8 561.0,369.8 562.0,369.8 563.0,369.8 564.0,369.8 565.0,369.8 566.0,369.8 567.0,369.8 568.0,369.8 569.0,369.8 570.0,369.8 571.0,369.8 572.0,369.8 573.0,369.8 574.0,369.8 575.0,369.8 576.0,369.8 577.0,369.8 578.0,369.8 579.0,369.8 580.0,369.8 581.0,369.8 582.0,369.8 583.0,369.8 584.0,369.8 585.0,369.8 586.0,369.8 587.0,369.8 588.0,369.8 589.0,369.8 590.0,369.8 591.0,369.8 592.0,369.8 593.0,369.8 594.0,369.8 595.0,369.8 596.0,369.8 597.0,369.8 598.0,369.8 599.0,369.8 600.0,369.8 601.0,369.8 602.0,369.8 603.0,369.8 604.0,369.8 605.0,369.8 606.0,369.8 607.0,369.8 608.0,369.8 609.0,369.8 610.0,369.8 611.0,369.8 612.0,369.8 613.0,369.8 614.0,369.8 615.0,369.8 616.0,369.8 617.0,369.8 618.0,369.8 619.0,369.8 620.0,369.8 621.0,369.8 622.0,369.8 623.0,369.8 624.0,369.8 625.0,369.8 626.0,369.8 627.0,369.8 628.0,369.8 629.0,369.8 630.0,369.8 631.0,369.8 632.0,369.8 633.0,369.8 634.0,369.8 635.0,369.8 636.0,369.8 637.0,369.8 638.0,369.8 639.0,369.8 640.0,369.8 641.0,369.8 642.0,369.8 643.0,369.8 644.0,369.8 645.0,369.8 646.0,369.8 647.0,369.8 648.0,369.8 649.0,369.8 650.0,369.8 651.0,369.8 652.0,369.8 653.0,369.8 654.0,369.8 655.0,369.8 656.0,369.8 657.0,369.8 658.0,369.8 659.0,369.8 660.0,369.8 661.0,369.8 662.0,369.8 663.0,369.8 664.0,369.7 665.0,369.7 666.0,369.7 667.0,369.7 668.0,369.7 669.0,369.7 670.0,369.7 671.0,369.7 672.0,369.7 673.0,369.7 674.0,369.7 675.0,369.7 676.0,369.7 677.0,369.7 678.0,369.7 679.0,369.7 680.0,369.7 681.0,369.7 682.0,369.7 683.0,369.7 684.0,369.7 685.0,369.7 686.0,369.7 687.0,369.7 688.0,369.7 689.0,369.7 690.0,369.7 691.0,369.7 692.0,369.7 693.0,369.7 694.0,369.7 695.0,369.7 696.0,369.7 697.0,369.7 698.0,369.7 699.0,369.7 700.0,369.7 701.0,369.7 702.0,369.7 703.0,369.7 704.0,369.7 705.0,369.7 706.0,369.7 707.0,369.7 708.0,369.7 709.0,369.7 710.0,369.7 711.0,369.7 712.0,369.7 713.0,369.7 714.0,369.7 715.0,369.7 716.0,369.7 717.0,369.7 718.0,369.7 719.0,369.7 720.0,369.7 721.0,369.7 722.0,369.7 723.0,369.7 724.0,369.7 725.0,369.7 726.0,369.7 727.0,369.7 728.0,369.7 729.0,369.7 730.0,369.7 731.0,369.7 732.0,369.7 733.0,369.7 734.0,369.7 735.0,369.7 736.0,369.7 737.0,369.7 738.0,369.6 739.0,369.6 740.0,369.6 741.0,369.6 742.0,369.6 743.0,369.6 744.0,369.6 745.0,369.6 746.0,369.6 747.0,369.6 748.0,369.6 749.0,369.6 750.0,369.6 751.0,369.6 752.0,369.6 753.0,369.6 754.0,369.6 755.0,369.6 756.0,369.6 757.0,369.6 758.0,369.6 759.0,369.6 760.0,369.6 761.0,369.6 762.0,369.6 763.0,369.6 764.0,369.6 765.0,369.6 766.0,369.6 767.0,369.6 768.0,369.6 769.0,369.6 770.0,369.6 771.0,369.6 772.0,369.6 773.0,369.6 774.0,369.6 775.0,369.6 776.0,369.6 777.0,369.6 778.0,369.6 779.0,369.6 780.0,369.6 781.0,369.6 782.0,369.5 783.0,369.5 784.0,369.5 785.0,369.5 786.0,369.5 787.0,369.5 788.0,369.5 789.0,369.5 790.0,369.5 791.0,369.5 792.0,369.5 793.0,369.5 794.0,369.5 795.0,369.5 796.0,369.5 797.0,369.5 798.0,369.5 799.0,369.5 800.0,369.5"/><text x="440" y="408" text-anchor="middle">time (s)</text><text x="90" y="44" fill="#d2925e">classical: nav-grade-quartz</text><text x="90" y="60" fill="#e0bd84">quantum: cold-atom-quat</text><text x="812" y="414" text-anchor="end" fill="#62594b" font-size="10" font-family="sans-serif">Kshana v0.22.0 · scenario fc9191cef784 · kshana.dev</text></svg>