<svg xmlns="http://www.w3.org/2000/svg" xmlns:xlink="http://www.w3.org/1999/xlink" width="1240" height="560" viewBox="0 0 1240 560" role="img" aria-label="Kshana — the precise instant. Open, reproducible PNT-resilience simulation with quantum-sensor performance models. Ashforde OU.">
<defs>
<linearGradient id="kg" x1="0" y1="0" x2="1" y2="1">
<stop offset="0" stop-color="#5eead4"/><stop offset="0.5" stop-color="#818cf8"/><stop offset="1" stop-color="#c084fc"/>
</linearGradient>
<radialGradient id="kglow" cx="0.5" cy="0.5" r="0.5">
<stop offset="0" stop-color="#6366f1" stop-opacity="0.45"/><stop offset="1" stop-color="#6366f1" stop-opacity="0"/>
</radialGradient>
<radialGradient id="bgglow" cx="0.5" cy="0.28" r="0.65">
<stop offset="0" stop-color="#6366f1" stop-opacity="0.16"/><stop offset="0.4" stop-color="#2dd4bf" stop-opacity="0.05"/><stop offset="0.75" stop-color="#6366f1" stop-opacity="0"/>
</radialGradient>
<pattern id="grid" width="58" height="58" patternUnits="userSpaceOnUse">
<path d="M58 0H0V58" fill="none" stroke="#96aad2" stroke-width="1" stroke-opacity="0.05"/>
</pattern>
<radialGradient id="gridfade" cx="0.5" cy="0.34" r="0.62">
<stop offset="0.25" stop-color="#fff"/><stop offset="0.8" stop-color="#000"/>
</radialGradient>
<mask id="gridmask"><rect width="1240" height="560" fill="url(#gridfade)"/></mask>

<g>
<g id="r1-glyph-0-0">
<path d="M 628 -551 L 628 0 L 547 0 L 547 -361 L 565 -327 C 544.332031 -317 522 -309.167969 498 -303.5 C 474 -297.832031 444.332031 -295 409 -295 C 378.332031 -295 348 -298.5 318 -305.5 C 288 -312.5 260 -322.667969 234 -336 L 213 -347 C 173 -369.667969 142.5 -393.332031 121.5 -418 C 100.5 -442.667969 90 -472.332031 90 -507 C 90 -542.332031 103.167969 -572 129.5 -596 C 155.832031 -620 194.332031 -632 245 -632 C 290.332031 -632 327 -621.332031 355 -600 C 383 -578.667969 397 -547 397 -505 C 397 -483 392.667969 -463.167969 384 -445.5 C 375.332031 -427.832031 363 -412 347 -398 C 331 -384 312 -370.332031 290 -357 L 272 -343 C 238 -324.332031 210.832031 -308.167969 190.5 -294.5 C 170.167969 -280.832031 155.5 -266.667969 146.5 -252 C 137.5 -237.332031 133 -219 133 -197 C 133 -166.332031 143.667969 -143 165 -127 C 186.332031 -111 215.332031 -103 252 -103 C 267.332031 -103 280.332031 -104.667969 291 -108 C 301.667969 -111.332031 313 -115.332031 325 -120 L 366 -78 C 377.332031 -54.667969 388.5 -33.667969 399.5 -15 C 410.5 3.667969 424 25.332031 440 50 L 367 85 C 353 58.332031 340.332031 32.5 329 7.5 C 317.667969 -17.5 309 -40.667969 303 -62 L 295 -90 C 290.332031 -96.667969 286.832031 -104.832031 284.5 -114.5 C 282.167969 -124.167969 281 -134 281 -144 C 281 -163.332031 287 -178.167969 299 -188.5 C 311 -198.832031 326.332031 -204 345 -204 C 371 -204 391.5 -195.832031 406.5 -179.5 C 421.5 -163.167969 429 -145.332031 429 -126 C 429 -109.332031 422.167969 -94.332031 408.5 -81 C 394.832031 -67.667969 377 -57.332031 355 -50 L 342 -44 C 333.332031 -41.332031 321.332031 -38.832031 306 -36.5 C 290.667969 -34.167969 274.667969 -33 258 -33 C 221.332031 -33 187.332031 -39.167969 156 -51.5 C 124.667969 -63.832031 99.332031 -82.167969 80 -106.5 C 60.667969 -130.832031 51 -160.667969 51 -196 C 51 -222 55.832031 -244.667969 65.5 -264 C 75.167969 -283.332031 90.832031 -301.667969 112.5 -319 C 134.167969 -336.332031 163.332031 -354.667969 200 -374 L 210 -381 C 247.332031 -400.332031 275 -419.832031 293 -439.5 C 311 -459.167969 320 -480.332031 320 -503 C 320 -521.667969 314.332031 -537 303 -549 C 291.667969 -561 271.667969 -567 243 -567 C 220.332031 -567 202 -561.332031 188 -550 C 174 -538.667969 167 -522.667969 167 -502 C 167 -484.667969 171.832031 -469.167969 181.5 -455.5 C 191.167969 -441.832031 204.167969 -429.5 220.5 -418.5 C 236.832031 -407.5 254.667969 -397.332031 274 -388 L 296 -379 C 314.667969 -373.667969 331.832031 -369.832031 347.5 -367.5 C 363.167969 -365.167969 381 -364 401 -364 C 431.667969 -364 461 -368.167969 489 -376.5 C 517 -384.832031 542.332031 -397.332031 565 -414 L 547 -395 L 547 -551 L 465 -551 L 465 -622 L 731 -622 L 731 -551 Z M 628 -551 "/>
</g>
<g id="r1-glyph-0-1">
<path d="M 634 -551 L 634 0 L 553 0 L 553 -551 L 420 -551 L 420 -321 C 420 -302.332031 418.667969 -285.667969 416 -271 C 413.332031 -256.332031 409.5 -243 404.5 -231 C 399.5 -219 393 -208 385 -198 C 371 -181.332031 353 -168.5 331 -159.5 C 309 -150.5 282.332031 -146 251 -146 C 219.667969 -146 192.667969 -151 170 -161 C 147.332031 -171 128.667969 -185.667969 114 -205 C 102.667969 -220.332031 94 -239.667969 88 -263 C 82 -286.332031 79 -316 79 -352 L 79 -551 L 0 -551 L 0 -622 L 737 -622 L 737 -551 Z M 249 -217 C 283.667969 -217 307.667969 -227.667969 321 -249 C 328.332031 -260.332031 333.167969 -273.332031 335.5 -288 C 337.832031 -302.667969 339 -324.332031 339 -353 L 339 -551 L 160 -551 L 160 -353 C 160 -327 161.332031 -306.332031 164 -291 C 166.667969 -275.667969 171.332031 -262.332031 178 -251 C 185.332031 -240.332031 194.5 -232 205.5 -226 C 216.5 -220 231 -217 249 -217 Z M 249 -217 "/>
</g>
</g>

<g>
<g id="r2-glyph-0-0">
<path d="M 105.5625 -198 C 80.371094 -198 59.277344 -206.285156 42.289062 -222.851562 C 25.296875 -239.421875 16.800781 -260.652344 16.800781 -286.542969 C 16.800781 -312.429688 25.296875 -333.597656 42.289062 -350.039062 C 59.277344 -366.480469 80.371094 -374.699219 105.5625 -374.699219 C 130.753906 -374.699219 151.707031 -366.414062 168.425781 -349.847656 C 185.140625 -333.277344 193.5 -312.046875 193.5 -286.160156 C 193.5 -260.269531 185.140625 -239.105469 168.425781 -222.664062 C 151.707031 -206.21875 130.753906 -198 105.5625 -198 Z M 105.5625 -198 "/>
</g>
<g id="r2-glyph-0-1">
</g>
<g id="r2-glyph-0-2">
<path d="M 233.949219 0 L 233.949219 -590.847656 L 24.699219 -590.847656 L 24.699219 -700 L 563.300781 -700 L 563.300781 -590.847656 L 354.050781 -590.847656 L 354.050781 0 Z M 233.949219 0 "/>
</g>
<g id="r2-glyph-0-3">
<path d="M 69.5 0 L 69.5 -700 L 189.601562 -700 L 189.601562 -405.574219 L 466.398438 -405.574219 L 466.398438 -700 L 586.5 -700 L 586.5 0 L 466.398438 0 L 466.398438 -296.425781 L 189.601562 -296.425781 L 189.601562 0 Z M 69.5 0 "/>
</g>
<g id="r2-glyph-0-4">
<path d="M 69.5 0 L 69.5 -700 L 514.773438 -700 L 514.773438 -590.847656 L 189.601562 -590.847656 L 189.601562 -407.226562 L 486.773438 -407.226562 L 486.773438 -298.074219 L 189.601562 -298.074219 L 189.601562 -109.152344 L 520.425781 -109.152344 L 520.425781 0 Z M 69.5 0 "/>
</g>
<g id="r2-glyph-0-5">
<path d="M 69.5 0 L 69.5 -700 L 352.425781 -700 C 395.957031 -700 434.5 -691.339844 468.050781 -674.023438 C 501.601562 -656.707031 527.90625 -632.285156 546.960938 -600.75 C 566.019531 -569.214844 575.550781 -531.625 575.550781 -487.976562 L 575.550781 -474.324219 C 575.550781 -431.226562 565.71875 -393.742188 546.050781 -361.875 C 526.382812 -330.007812 499.773438 -305.445312 466.226562 -288.1875 C 432.675781 -270.929688 394.742188 -262.300781 352.425781 -262.300781 L 189.601562 -262.300781 L 189.601562 0 Z M 189.601562 -371.449219 L 340.476562 -371.449219 C 375.074219 -371.449219 402.886719 -380.757812 423.910156 -399.375 C 444.9375 -417.992188 455.449219 -443.582031 455.449219 -476.148438 L 455.449219 -486.148438 C 455.449219 -518.832031 444.996094 -544.453125 424.085938 -563.011719 C 403.179688 -581.570312 375.308594 -590.847656 340.476562 -590.847656 L 189.601562 -590.847656 Z M 189.601562 -371.449219 "/>
</g>
<g id="r2-glyph-0-6">
<path d="M 69.5 0 L 69.5 -700 L 368.25 -700 C 412.132812 -700 450.4375 -692.390625 483.164062 -677.175781 C 515.886719 -661.957031 541.335938 -640.378906 559.511719 -612.4375 C 577.6875 -584.496094 586.773438 -551.410156 586.773438 -513.175781 L 586.773438 -501.523438 C 586.773438 -458.589844 576.542969 -424.039062 556.074219 -397.863281 C 535.609375 -371.6875 510.59375 -352.890625 481.023438 -341.476562 L 481.023438 -324.523438 C 507.109375 -323.308594 527.601562 -314.460938 542.5 -297.988281 C 557.398438 -281.511719 564.851562 -259.042969 564.851562 -230.574219 L 564.851562 0 L 444.75 0 L 444.75 -213.675781 C 444.75 -230.609375 440.292969 -244.191406 431.375 -254.425781 C 422.457031 -264.65625 407.984375 -269.773438 387.949219 -269.773438 L 189.601562 -269.773438 L 189.601562 0 Z M 189.601562 -378.925781 L 355.648438 -378.925781 C 390.601562 -378.925781 417.839844 -388.066406 437.375 -406.351562 C 456.90625 -424.632812 466.675781 -449.292969 466.675781 -480.324219 L 466.675781 -489.449219 C 466.675781 -520.484375 457.101562 -545.140625 437.960938 -563.425781 C 418.820312 -581.707031 391.382812 -590.847656 355.648438 -590.847656 L 189.601562 -590.847656 Z M 189.601562 -378.925781 "/>
</g>
<g id="r2-glyph-0-7">
<path d="M 332.351562 14 C 246.5 14 178.386719 -10.167969 128.011719 -58.5 C 77.636719 -106.832031 52.449219 -176.292969 52.449219 -266.875 L 52.449219 -433.125 C 52.449219 -523.707031 77.636719 -593.167969 128.011719 -641.5 C 178.386719 -689.832031 246.5 -714 332.351562 -714 C 417.535156 -714 483.273438 -690.617188 529.574219 -643.851562 C 575.875 -597.082031 599.023438 -532.992188 599.023438 -451.574219 L 599.023438 -445.75 L 480.574219 -445.75 L 480.574219 -455.226562 C 480.574219 -499.359375 468.433594 -535.605469 444.148438 -563.960938 C 419.867188 -592.320312 382.601562 -606.5 332.351562 -606.5 C 282.535156 -606.5 243.445312 -591.234375 215.089844 -560.699219 C 186.730469 -530.167969 172.550781 -488.308594 172.550781 -435.125 L 172.550781 -264.875 C 172.550781 -212.242188 186.730469 -170.519531 215.089844 -139.714844 C 243.445312 -108.90625 282.535156 -93.5 332.351562 -93.5 C 382.601562 -93.5 419.867188 -107.816406 444.148438 -136.449219 C 468.433594 -165.082031 480.574219 -201.191406 480.574219 -244.773438 L 480.574219 -262.25 L 599.023438 -262.25 L 599.023438 -248.425781 C 599.023438 -167.007812 575.875 -102.917969 529.574219 -56.148438 C 483.273438 -9.382812 417.535156 14 332.351562 14 Z M 332.351562 14 "/>
</g>
<g id="r2-glyph-0-8">
<path d="M 69.5 0 L 69.5 -700 L 189.601562 -700 L 189.601562 0 Z M 69.5 0 "/>
</g>
<g id="r2-glyph-0-9">
<path d="M 310.050781 14 C 256.75 14 209.609375 4.480469 168.625 -14.5625 C 127.640625 -33.605469 95.542969 -61.152344 72.324219 -97.210938 C 49.109375 -133.269531 37.5 -177.101562 37.5 -228.699219 L 37.5 -255.125 L 155.949219 -255.125 L 155.949219 -228.699219 C 155.949219 -182.734375 169.914062 -148.375 197.835938 -125.625 C 225.761719 -102.875 263.167969 -91.5 310.050781 -91.5 C 357.601562 -91.5 393.328125 -101.289062 417.238281 -120.863281 C 441.144531 -140.4375 453.097656 -165.449219 453.097656 -195.898438 C 453.097656 -216.75 447.367188 -233.613281 435.898438 -246.488281 C 424.433594 -259.363281 407.90625 -269.867188 386.324219 -278 C 364.742188 -286.132812 338.773438 -293.648438 308.425781 -300.550781 L 278.25 -307.472656 C 232 -318.023438 192.085938 -331.347656 158.511719 -347.449219 C 124.9375 -363.550781 99.070312 -384.730469 80.914062 -410.988281 C 62.753906 -437.246094 53.675781 -471.300781 53.675781 -513.148438 C 53.675781 -555 63.78125 -590.886719 84 -620.8125 C 104.214844 -650.738281 132.621094 -673.75 169.210938 -689.851562 C 205.804688 -705.949219 248.75 -714 298.050781 -714 C 347.351562 -714 391.324219 -705.585938 429.976562 -688.761719 C 468.625 -671.9375 499.058594 -646.925781 521.273438 -613.726562 C 543.492188 -580.523438 554.601562 -538.941406 554.601562 -488.976562 L 554.601562 -456 L 436.148438 -456 L 436.148438 -488.976562 C 436.148438 -517.390625 430.488281 -540.320312 419.160156 -557.761719 C 407.835938 -575.203125 391.808594 -588.019531 371.074219 -596.210938 C 350.339844 -604.402344 326 -608.5 298.050781 -608.5 C 256.535156 -608.5 225.167969 -600.359375 203.949219 -584.074219 C 182.734375 -567.792969 172.125 -545.25 172.125 -516.449219 C 172.125 -497.25 176.976562 -481.242188 186.675781 -468.425781 C 196.375 -455.609375 210.722656 -445.023438 229.710938 -436.675781 C 248.703125 -428.324219 272.550781 -420.976562 301.25 -414.625 L 331.425781 -407.699219 C 379.089844 -397.382812 420.871094 -384.097656 456.761719 -367.835938 C 492.652344 -351.578125 520.757812 -329.988281 541.074219 -303.0625 C 561.390625 -276.136719 571.550781 -241.515625 571.550781 -199.199219 C 571.550781 -156.882812 560.832031 -119.761719 539.398438 -87.835938 C 517.96875 -55.914062 487.679688 -30.957031 448.539062 -12.976562 C 409.394531 5.007812 363.234375 14 310.050781 14 Z M 310.050781 14 "/>
</g>
<g id="r2-glyph-0-10">
<path d="M 69.5 0 L 69.5 -700 L 298.800781 -700 L 463.523438 -80.902344 L 480.472656 -80.902344 L 480.472656 -700 L 598.925781 -700 L 598.925781 0 L 369.625 0 L 204.902344 -619.273438 L 187.949219 -619.273438 L 187.949219 0 Z M 69.5 0 "/>
</g>
<g id="r2-glyph-0-11">
<path d="M 19.75 0 L 211.625 -700 L 421.324219 -700 L 613.199219 0 L 489.273438 0 L 447.425781 -159.601562 L 185.527344 -159.601562 L 143.675781 0 Z M 214.25 -270.398438 L 418.699219 -270.398438 L 324.949219 -624.875 L 308 -624.875 Z M 214.25 -270.398438 "/>
</g>
</g>

<g>
<g id="r3-glyph-0-0">
<path d="M 66 0 L 66 -700 L 198 -700 L 198 -422 L 216 -422 L 443 -700 L 612 -700 L 320 -355 L 622 0 L 448 0 L 216 -284 L 198 -284 L 198 0 Z M 66 0 "/>
</g>
<g id="r3-glyph-0-1">
<path d="M 276 14 C 211.332031 14 158.332031 0 117 -28 C 75.667969 -56 50.667969 -96 42 -148 L 158 -178 C 162.667969 -154.667969 170.5 -136.332031 181.5 -123 C 192.5 -109.667969 206.167969 -100.167969 222.5 -94.5 C 238.832031 -88.832031 256.667969 -86 276 -86 C 305.332031 -86 327 -91.167969 341 -101.5 C 355 -111.832031 362 -124.667969 362 -140 C 362 -155.332031 355.332031 -167.167969 342 -175.5 C 328.667969 -183.832031 307.332031 -190.667969 278 -196 L 250 -201 C 215.332031 -207.667969 183.667969 -216.832031 155 -228.5 C 126.332031 -240.167969 103.332031 -256.332031 86 -277 C 68.667969 -297.667969 60 -324.332031 60 -357 C 60 -406.332031 78 -444.167969 114 -470.5 C 150 -496.832031 197.332031 -510 256 -510 C 311.332031 -510 357.332031 -497.667969 394 -473 C 430.667969 -448.332031 454.667969 -416 466 -376 L 349 -340 C 343.667969 -365.332031 332.832031 -383.332031 316.5 -394 C 300.167969 -404.667969 280 -410 256 -410 C 232 -410 213.667969 -405.832031 201 -397.5 C 188.332031 -389.167969 182 -377.667969 182 -363 C 182 -347 188.667969 -335.167969 202 -327.5 C 215.332031 -319.832031 233.332031 -314 256 -310 L 284 -305 C 321.332031 -298.332031 355.167969 -289.5 385.5 -278.5 C 415.832031 -267.5 439.832031 -251.832031 457.5 -231.5 C 475.167969 -211.167969 484 -183.667969 484 -149 C 484 -97 465.167969 -56.832031 427.5 -28.5 C 389.832031 -0.167969 339.332031 14 276 14 Z M 276 14 "/>
</g>
<g id="r3-glyph-0-2">
<path d="M 70 0 L 70 -700 L 196 -700 L 196 -435 L 214 -435 C 219.332031 -445.667969 227.667969 -456.332031 239 -467 C 250.332031 -477.667969 265.5 -486.5 284.5 -493.5 C 303.5 -500.5 327.667969 -504 357 -504 C 395.667969 -504 429.5 -495.167969 458.5 -477.5 C 487.5 -459.832031 510 -435.5 526 -404.5 C 542 -373.5 550 -337.332031 550 -296 L 550 0 L 424 0 L 424 -286 C 424 -323.332031 414.832031 -351.332031 396.5 -370 C 378.167969 -388.667969 352 -398 318 -398 C 279.332031 -398 249.332031 -385.167969 228 -359.5 C 206.667969 -333.832031 196 -298 196 -252 L 196 0 Z M 70 0 "/>
</g>
<g id="r3-glyph-0-3">
<path d="M 224 14 C 188.667969 14 157 7.832031 129 -4.5 C 101 -16.832031 78.832031 -34.832031 62.5 -58.5 C 46.167969 -82.167969 38 -111 38 -145 C 38 -179 46.167969 -207.5 62.5 -230.5 C 78.832031 -253.5 101.5 -270.832031 130.5 -282.5 C 159.5 -294.167969 192.667969 -300 230 -300 L 366 -300 L 366 -328 C 366 -351.332031 358.667969 -370.5 344 -385.5 C 329.332031 -400.5 306 -408 274 -408 C 242.667969 -408 219.332031 -400.832031 204 -386.5 C 188.667969 -372.167969 178.667969 -353.667969 174 -331 L 58 -370 C 66 -395.332031 78.832031 -418.5 96.5 -439.5 C 114.167969 -460.5 137.832031 -477.5 167.5 -490.5 C 197.167969 -503.5 233.332031 -510 276 -510 C 341.332031 -510 393 -493.667969 431 -461 C 469 -428.332031 488 -381 488 -319 L 488 -134 C 488 -114 497.332031 -104 516 -104 L 556 -104 L 556 0 L 472 0 C 447.332031 0 427 -6 411 -18 C 395 -30 387 -46 387 -66 L 387 -67 L 368 -67 C 365.332031 -59 359.332031 -48.5 350 -35.5 C 340.667969 -22.5 326 -11 306 -1 C 286 9 258.667969 14 224 14 Z M 246 -88 C 281.332031 -88 310.167969 -97.832031 332.5 -117.5 C 354.832031 -137.167969 366 -163.332031 366 -196 L 366 -206 L 239 -206 C 215.667969 -206 197.332031 -201 184 -191 C 170.667969 -181 164 -167 164 -149 C 164 -131 171 -116.332031 185 -105 C 199 -93.667969 219.332031 -88 246 -88 Z M 246 -88 "/>
</g>
<g id="r3-glyph-0-4">
<path d="M 70 0 L 70 -496 L 194 -496 L 194 -431 L 212 -431 C 220 -448.332031 235 -464.832031 257 -480.5 C 279 -496.167969 312.332031 -504 357 -504 C 395.667969 -504 429.5 -495.167969 458.5 -477.5 C 487.5 -459.832031 510 -435.5 526 -404.5 C 542 -373.5 550 -337.332031 550 -296 L 550 0 L 424 0 L 424 -286 C 424 -323.332031 414.832031 -351.332031 396.5 -370 C 378.167969 -388.667969 352 -398 318 -398 C 279.332031 -398 249.332031 -385.167969 228 -359.5 C 206.667969 -333.832031 196 -298 196 -252 L 196 0 Z M 70 0 "/>
</g>
</g>

<g>
<g id="r4-glyph-0-0">
<path d="M 336.25 14 C 250.351562 14 181.984375 -10.167969 131.148438 -58.5 C 80.316406 -106.832031 54.898438 -176.582031 54.898438 -267.75 L 54.898438 -432.25 C 54.898438 -523.417969 80.316406 -593.167969 131.148438 -641.5 C 181.984375 -689.832031 250.351562 -714 336.25 -714 C 422.148438 -714 490.515625 -689.832031 541.351562 -641.5 C 592.183594 -593.167969 617.601562 -523.417969 617.601562 -432.25 L 617.601562 -267.75 C 617.601562 -176.582031 592.183594 -106.832031 541.351562 -58.5 C 490.515625 -10.167969 422.148438 14 336.25 14 Z M 336.25 -83 C 391.183594 -83 433.773438 -99.203125 464.023438 -131.601562 C 494.273438 -164 509.398438 -208.285156 509.398438 -264.449219 L 509.398438 -435.550781 C 509.398438 -491.714844 494.273438 -536 464.023438 -568.398438 C 433.773438 -600.796875 391.183594 -617 336.25 -617 C 281.984375 -617 239.558594 -600.796875 208.976562 -568.398438 C 178.394531 -536 163.101562 -491.714844 163.101562 -435.550781 L 163.101562 -264.449219 C 163.101562 -208.285156 178.394531 -164 208.976562 -131.601562 C 239.558594 -99.203125 281.984375 -83 336.25 -83 Z M 336.25 -83 "/>
</g>
<g id="r4-glyph-0-1">
<path d="M 76.300781 200 L 76.300781 -492.5 L 177.203125 -492.5 L 177.203125 -422.351562 L 193.101562 -422.351562 C 205.367188 -444.25 224.492188 -463.75 250.476562 -480.851562 C 276.460938 -497.949219 313.300781 -506.5 361 -506.5 C 402.167969 -506.5 439.984375 -496.550781 474.449219 -476.648438 C 508.917969 -456.75 536.542969 -427.917969 557.324219 -390.148438 C 578.109375 -352.382812 588.5 -306.851562 588.5 -253.550781 L 588.5 -238.949219 C 588.5 -185.882812 578.167969 -140.410156 557.5 -102.523438 C 536.832031 -64.640625 509.265625 -35.75 474.800781 -15.851562 C 440.332031 4.050781 402.398438 14 361 14 C 329.132812 14 302.21875 10.035156 280.25 2.101562 C 258.285156 -5.832031 240.550781 -16.058594 227.050781 -28.574219 C 213.550781 -41.089844 202.902344 -53.832031 195.101562 -66.800781 L 179.203125 -66.800781 L 179.203125 200 Z M 331.398438 -76.402344 C 376.332031 -76.402344 413.148438 -90.710938 441.847656 -119.324219 C 470.546875 -147.941406 484.898438 -188.699219 484.898438 -241.601562 L 484.898438 -250.898438 C 484.898438 -303.800781 470.441406 -344.558594 441.523438 -373.175781 C 412.609375 -401.789062 375.898438 -416.097656 331.398438 -416.097656 C 287.132812 -416.097656 250.484375 -401.789062 221.449219 -373.175781 C 192.417969 -344.558594 177.902344 -303.800781 177.902344 -250.898438 L 177.902344 -241.601562 C 177.902344 -188.699219 192.417969 -147.941406 221.449219 -119.324219 C 250.484375 -90.710938 287.132812 -76.402344 331.398438 -76.402344 Z M 331.398438 -76.402344 "/>
</g>
<g id="r4-glyph-0-2">
<path d="M 301.601562 14 C 252.03125 14 208.53125 3.5 171.101562 -17.5 C 133.667969 -38.5 104.507812 -68.109375 83.625 -106.324219 C 62.742188 -144.542969 52.300781 -189.183594 52.300781 -240.25 L 52.300781 -252.25 C 52.300781 -303.550781 62.632812 -348.25 83.300781 -386.351562 C 103.964844 -424.449219 132.792969 -454 169.773438 -475 C 206.757812 -496 249.449219 -506.5 297.851562 -506.5 C 345.351562 -506.5 386.925781 -496.132812 422.574219 -475.398438 C 458.226562 -454.667969 486.050781 -425.601562 506.050781 -388.199219 C 526.050781 -350.800781 536.050781 -307 536.050781 -256.800781 L 536.050781 -217.648438 L 156.5 -217.648438 C 158.066406 -174.316406 172.777344 -139.941406 200.625 -114.527344 C 228.476562 -89.109375 263 -76.402344 304.199219 -76.402344 C 343.03125 -76.402344 372.242188 -85 391.824219 -102.203125 C 411.40625 -119.402344 426.347656 -139.316406 436.648438 -161.949219 L 522.5 -118.449219 C 512.933594 -99.484375 499.316406 -79.714844 481.648438 -59.148438 C 463.984375 -38.582031 440.714844 -21.25 411.851562 -7.148438 C 382.984375 6.949219 346.234375 14 301.601562 14 Z M 157.5 -296.949219 L 431.5 -296.949219 C 428.832031 -334.015625 415.40625 -363.140625 391.222656 -384.324219 C 367.039062 -405.507812 335.699219 -416.097656 297.199219 -416.097656 C 258.066406 -416.097656 226.398438 -405.507812 202.199219 -384.324219 C 178 -363.140625 163.101562 -334.015625 157.5 -296.949219 Z M 157.5 -296.949219 "/>
</g>
<g id="r4-glyph-0-3">
<path d="M 76.300781 0 L 76.300781 -492.5 L 177.203125 -492.5 L 177.203125 -418.75 L 193.101562 -418.75 C 202.5 -439.117188 219.132812 -457.949219 243 -475.25 C 266.867188 -492.550781 302.417969 -501.199219 349.652344 -501.199219 C 387.152344 -501.199219 420.457031 -492.890625 449.574219 -476.273438 C 478.691406 -459.660156 501.542969 -436.082031 518.125 -405.550781 C 534.707031 -375.015625 543 -338.5 543 -296 L 543 0 L 440.097656 0 L 440.097656 -288.101562 C 440.097656 -331.03125 429.472656 -362.648438 408.222656 -382.949219 C 386.972656 -403.25 357.484375 -413.398438 319.75 -413.398438 C 277.117188 -413.398438 243.035156 -399.28125 217.5 -371.050781 C 191.96875 -342.816406 179.203125 -302.082031 179.203125 -248.851562 L 179.203125 0 Z M 76.300781 0 "/>
</g>
<g id="r4-glyph-0-4">
<path d="M 77.25 136.152344 L 77.25 77.25 L 111 77.25 C 138.402344 77.25 152.101562 63.550781 152.101562 36.148438 L 152.101562 4.148438 L 136.5 4.148438 C 113.566406 4.148438 94.433594 -2.859375 79.101562 -16.875 C 63.765625 -30.890625 56.101562 -48.71875 56.101562 -70.351562 C 56.101562 -93.285156 63.765625 -111.976562 79.101562 -126.425781 C 94.433594 -140.875 113.566406 -148.101562 136.5 -148.101562 C 159.867188 -148.101562 179.109375 -140.652344 194.226562 -125.75 C 209.34375 -110.851562 216.902344 -91.285156 216.902344 -67.050781 L 216.902344 36.75 C 216.902344 103.015625 183.882812 136.152344 117.851562 136.152344 Z M 77.25 136.152344 "/>
</g>
<g id="r4-glyph-0-5">
</g>
<g id="r4-glyph-0-6">
<path d="M 76.300781 0 L 76.300781 -492.5 L 177.203125 -492.5 L 177.203125 -434.75 L 193.101562 -434.75 C 201.132812 -455.449219 213.882812 -470.582031 231.351562 -480.148438 C 248.816406 -489.71875 270.632812 -494.5 296.800781 -494.5 L 355.75 -494.5 L 355.75 -402.097656 L 293.050781 -402.097656 C 259.417969 -402.097656 232.035156 -392.957031 210.902344 -374.675781 C 189.769531 -356.390625 179.203125 -328.066406 179.203125 -289.699219 L 179.203125 0 Z M 76.300781 0 "/>
</g>
<g id="r4-glyph-0-7">
<path d="M 307.398438 14 C 258.066406 14 214.140625 3.824219 175.625 -16.523438 C 137.109375 -36.875 106.925781 -65.992188 85.074219 -103.875 C 63.222656 -141.757812 52.300781 -186.785156 52.300781 -238.949219 L 52.300781 -253.550781 C 52.300781 -305.71875 63.222656 -350.742188 85.074219 -388.625 C 106.925781 -426.507812 137.109375 -455.625 175.625 -475.976562 C 214.140625 -496.324219 258.066406 -506.5 307.398438 -506.5 C 356.734375 -506.5 400.660156 -496.324219 439.175781 -475.976562 C 477.691406 -455.625 507.875 -426.507812 529.726562 -388.625 C 551.574219 -350.742188 562.5 -305.71875 562.5 -253.550781 L 562.5 -238.949219 C 562.5 -186.785156 551.574219 -141.757812 529.726562 -103.875 C 507.875 -65.992188 477.691406 -36.875 439.175781 -16.523438 C 400.660156 3.824219 356.734375 14 307.398438 14 Z M 307.398438 -77.703125 C 352.597656 -77.703125 389.265625 -92.183594 417.398438 -121.152344 C 445.53125 -150.117188 459.597656 -190.265625 459.597656 -241.601562 L 459.597656 -250.898438 C 459.597656 -302.234375 445.640625 -342.382812 417.722656 -371.347656 C 389.808594 -400.316406 353.03125 -414.796875 307.398438 -414.796875 C 262.433594 -414.796875 225.824219 -400.316406 197.574219 -371.347656 C 169.324219 -342.382812 155.203125 -302.234375 155.203125 -250.898438 L 155.203125 -241.601562 C 155.203125 -190.265625 169.324219 -150.117188 197.574219 -121.152344 C 225.824219 -92.183594 262.433594 -77.703125 307.398438 -77.703125 Z M 307.398438 -77.703125 "/>
</g>
<g id="r4-glyph-0-8">
<path d="M 279.800781 14 C 239.066406 14 201.359375 4.050781 166.675781 -15.851562 C 131.992188 -35.75 104.257812 -64.640625 83.472656 -102.523438 C 62.691406 -140.410156 52.300781 -185.882812 52.300781 -238.949219 L 52.300781 -253.550781 C 52.300781 -306.617188 62.632812 -352.09375 83.300781 -389.976562 C 103.964844 -427.859375 131.589844 -456.75 166.175781 -476.648438 C 200.757812 -496.550781 238.632812 -506.5 279.800781 -506.5 C 311.898438 -506.5 338.875 -502.535156 360.722656 -494.601562 C 382.574219 -486.667969 400.355469 -476.609375 414.074219 -464.425781 C 427.789062 -452.242188 438.332031 -439.335938 445.699219 -425.699219 L 461.597656 -425.699219 L 461.597656 -700 L 564.5 -700 L 564.5 0 L 463.597656 0 L 463.597656 -70.148438 L 447.699219 -70.148438 C 435.433594 -48.683594 416.414062 -29.292969 390.648438 -11.976562 C 364.882812 5.339844 327.933594 14 279.800781 14 Z M 309.398438 -76.402344 C 353.898438 -76.402344 390.609375 -90.710938 419.523438 -119.324219 C 448.441406 -147.941406 462.898438 -188.699219 462.898438 -241.601562 L 462.898438 -250.898438 C 462.898438 -303.800781 448.546875 -344.558594 419.847656 -373.175781 C 391.148438 -401.789062 354.332031 -416.097656 309.398438 -416.097656 C 265.132812 -416.097656 228.484375 -401.789062 199.449219 -373.175781 C 170.417969 -344.558594 155.902344 -303.800781 155.902344 -250.898438 L 155.902344 -241.601562 C 155.902344 -188.699219 170.417969 -147.941406 199.449219 -119.324219 C 228.484375 -90.710938 265.132812 -76.402344 309.398438 -76.402344 Z M 309.398438 -76.402344 "/>
</g>
<g id="r4-glyph-0-9">
<path d="M 264.601562 8.699219 C 227.332031 8.699219 194.082031 0.390625 164.847656 -16.226562 C 135.617188 -32.84375 112.707031 -56.523438 96.125 -87.273438 C 79.542969 -118.023438 71.25 -154.433594 71.25 -196.5 L 71.25 -492.5 L 174.152344 -492.5 L 174.152344 -204.398438 C 174.152344 -161.699219 184.777344 -130.144531 206.027344 -109.726562 C 227.277344 -89.308594 256.765625 -79.101562 294.5 -79.101562 C 337.132812 -79.101562 371.214844 -93.21875 396.75 -121.449219 C 422.28125 -149.683594 435.050781 -190.417969 435.050781 -243.648438 L 435.050781 -492.5 L 537.949219 -492.5 L 537.949219 0 L 437.050781 0 L 437.050781 -73.75 L 421.148438 -73.75 C 411.75 -53.816406 395.117188 -35.089844 371.25 -17.574219 C 347.382812 -0.0585938 311.832031 8.699219 264.601562 8.699219 Z M 264.601562 8.699219 "/>
</g>
<g id="r4-glyph-0-10">
<path d="M 305.449219 14 C 257.683594 14 214.648438 3.941406 176.351562 -16.175781 C 138.050781 -36.292969 107.800781 -65.351562 85.601562 -103.351562 C 63.398438 -141.351562 52.300781 -186.882812 52.300781 -239.949219 L 52.300781 -252.550781 C 52.300781 -305.851562 63.398438 -351.441406 85.601562 -389.324219 C 107.800781 -427.207031 138.050781 -456.207031 176.351562 -476.324219 C 214.648438 -496.441406 257.683594 -506.5 305.449219 -506.5 C 352.550781 -506.5 392.808594 -497.992188 426.226562 -480.976562 C 459.640625 -463.957031 486.382812 -441.066406 506.449219 -412.300781 C 526.515625 -383.535156 539.535156 -351.75 545.5 -316.949219 L 445.546875 -295.851562 C 442.648438 -317.949219 435.832031 -337.992188 425.097656 -355.972656 C 414.367188 -373.957031 399.273438 -388.257812 379.824219 -398.875 C 360.375 -409.492188 336.234375 -414.796875 307.398438 -414.796875 C 278.566406 -414.796875 252.640625 -408.367188 229.625 -395.5 C 206.609375 -382.632812 188.449219 -363.964844 175.152344 -339.5 C 161.851562 -315.03125 155.203125 -285.5 155.203125 -250.898438 L 155.203125 -241.601562 C 155.203125 -207 161.851562 -177.46875 175.152344 -153 C 188.449219 -128.535156 206.609375 -109.867188 229.625 -97 C 252.640625 -84.132812 278.566406 -77.703125 307.398438 -77.703125 C 350.765625 -77.703125 383.742188 -88.933594 406.324219 -111.402344 C 428.90625 -133.867188 443.097656 -162.5 448.898438 -197.300781 L 548.851562 -174.25 C 541.117188 -140.316406 527.101562 -108.964844 506.800781 -80.199219 C 486.5 -51.433594 459.640625 -28.542969 426.226562 -11.523438 C 392.808594 5.492188 352.550781 14 305.449219 14 Z M 305.449219 14 "/>
</g>
<g id="r4-glyph-0-11">
<path d="M 76.300781 0 L 76.300781 -492.5 L 179.203125 -492.5 L 179.203125 0 Z M 127.75 -559.601562 C 107.882812 -559.601562 91.109375 -566.117188 77.425781 -579.148438 C 63.742188 -592.183594 56.898438 -609.066406 56.898438 -629.800781 C 56.898438 -650.765625 63.742188 -667.710938 77.425781 -680.625 C 91.109375 -693.542969 107.882812 -700 127.75 -700 C 148.285156 -700 165.226562 -693.542969 178.574219 -680.625 C 191.925781 -667.710938 198.601562 -650.765625 198.601562 -629.800781 C 198.601562 -609.066406 191.925781 -592.183594 178.574219 -579.148438 C 165.226562 -566.117188 148.285156 -559.601562 127.75 -559.601562 Z M 127.75 -559.601562 "/>
</g>
<g id="r4-glyph-0-12">
<path d="M 361 14 C 313.300781 14 276.460938 5.339844 250.476562 -11.976562 C 224.492188 -29.292969 205.367188 -48.683594 193.101562 -70.148438 L 177.203125 -70.148438 L 177.203125 0 L 76.300781 0 L 76.300781 -700 L 179.203125 -700 L 179.203125 -425.699219 L 195.101562 -425.699219 C 202.902344 -439.335938 213.550781 -452.242188 227.050781 -464.425781 C 240.550781 -476.609375 258.285156 -486.667969 280.25 -494.601562 C 302.21875 -502.535156 329.132812 -506.5 361 -506.5 C 402.398438 -506.5 440.332031 -496.550781 474.800781 -476.648438 C 509.265625 -456.75 536.832031 -427.859375 557.5 -389.976562 C 578.167969 -352.09375 588.5 -306.617188 588.5 -253.550781 L 588.5 -238.949219 C 588.5 -185.882812 578.109375 -140.410156 557.324219 -102.523438 C 536.542969 -64.640625 508.917969 -35.75 474.449219 -15.851562 C 439.984375 4.050781 402.167969 14 361 14 Z M 331.398438 -76.402344 C 375.898438 -76.402344 412.609375 -90.710938 441.523438 -119.324219 C 470.441406 -147.941406 484.898438 -188.699219 484.898438 -241.601562 L 484.898438 -250.898438 C 484.898438 -303.800781 470.546875 -344.558594 441.847656 -373.175781 C 413.148438 -401.789062 376.332031 -416.097656 331.398438 -416.097656 C 287.132812 -416.097656 250.484375 -401.789062 221.449219 -373.175781 C 192.417969 -344.558594 177.902344 -303.800781 177.902344 -250.898438 L 177.902344 -241.601562 C 177.902344 -188.699219 192.417969 -147.941406 221.449219 -119.324219 C 250.484375 -90.710938 287.132812 -76.402344 331.398438 -76.402344 Z M 331.398438 -76.402344 "/>
</g>
<g id="r4-glyph-0-13">
<path d="M 76.300781 0 L 76.300781 -700 L 179.203125 -700 L 179.203125 0 Z M 76.300781 0 "/>
</g>
<g id="r4-glyph-0-14">
<path d="M 76.300781 0 L 76.300781 -700 L 179.203125 -700 L 179.203125 -423.101562 L 195.101562 -423.101562 C 201.367188 -435.632812 210.691406 -447.875 223.074219 -459.824219 C 235.460938 -471.777344 251.851562 -481.601562 272.25 -489.300781 C 292.652344 -497 318.449219 -500.851562 349.652344 -500.851562 C 387.152344 -500.851562 420.457031 -492.542969 449.574219 -475.925781 C 478.691406 -459.308594 501.542969 -435.792969 518.125 -405.375 C 534.707031 -374.957031 543 -338.5 543 -296 L 543 0 L 440.097656 0 L 440.097656 -288.101562 C 440.097656 -331.03125 429.472656 -362.589844 408.222656 -382.773438 C 386.972656 -402.957031 357.484375 -413.050781 319.75 -413.050781 C 277.117188 -413.050781 243.035156 -398.992188 217.5 -370.875 C 191.96875 -342.757812 179.203125 -302.082031 179.203125 -248.851562 L 179.203125 0 Z M 76.300781 0 "/>
</g>
<g id="r4-glyph-0-15">
<path d="M 132.75 200 L 132.75 109.597656 L 407.648438 109.597656 C 426.78125 109.597656 436.347656 99.597656 436.347656 79.597656 L 436.347656 -71.648438 L 420.449219 -71.648438 C 414.183594 -58.683594 404.855469 -46.007812 392.472656 -33.625 C 380.089844 -21.242188 363.589844 -11.089844 342.972656 -3.175781 C 322.359375 4.742188 296.234375 8.699219 264.601562 8.699219 C 227.332031 8.699219 194.082031 0.390625 164.847656 -16.226562 C 135.617188 -32.84375 112.707031 -56.46875 96.125 -87.101562 C 79.542969 -117.734375 71.25 -154.082031 71.25 -196.148438 L 71.25 -492.5 L 174.152344 -492.5 L 174.152344 -204.050781 C 174.152344 -161.351562 184.777344 -129.851562 206.027344 -109.550781 C 227.277344 -89.25 256.765625 -79.101562 294.5 -79.101562 C 337.132812 -79.101562 371.214844 -93.160156 396.75 -121.277344 C 422.28125 -149.390625 435.050781 -190.066406 435.050781 -243.300781 L 435.050781 -492.5 L 537.949219 -492.5 L 537.949219 100.597656 C 537.949219 131.097656 529.175781 155.292969 511.625 173.175781 C 494.074219 191.058594 469.917969 200 439.148438 200 Z M 132.75 200 "/>
</g>
<g id="r4-glyph-0-16">
<path d="M 461.597656 200 L 461.597656 -66.800781 L 445.699219 -66.800781 C 438.332031 -53.832031 427.789062 -41.089844 414.074219 -28.574219 C 400.355469 -16.058594 382.574219 -5.832031 360.722656 2.101562 C 338.875 10.035156 311.898438 14 279.800781 14 C 238.632812 14 200.757812 4.050781 166.175781 -15.851562 C 131.589844 -35.75 103.964844 -64.640625 83.300781 -102.523438 C 62.632812 -140.410156 52.300781 -185.882812 52.300781 -238.949219 L 52.300781 -253.550781 C 52.300781 -306.851562 62.691406 -352.382812 83.472656 -390.148438 C 104.257812 -427.917969 131.992188 -456.75 166.675781 -476.648438 C 201.359375 -496.550781 239.066406 -506.5 279.800781 -506.5 C 327.933594 -506.5 364.882812 -497.949219 390.648438 -480.851562 C 416.414062 -463.75 435.433594 -444.25 447.699219 -422.351562 L 463.597656 -422.351562 L 463.597656 -492.5 L 564.5 -492.5 L 564.5 200 Z M 309.398438 -76.402344 C 354.332031 -76.402344 391.148438 -90.710938 419.847656 -119.324219 C 448.546875 -147.941406 462.898438 -188.699219 462.898438 -241.601562 L 462.898438 -250.898438 C 462.898438 -303.800781 448.441406 -344.558594 419.523438 -373.175781 C 390.609375 -401.789062 353.898438 -416.097656 309.398438 -416.097656 C 265.132812 -416.097656 228.484375 -401.789062 199.449219 -373.175781 C 170.417969 -344.558594 155.902344 -303.800781 155.902344 -250.898438 L 155.902344 -241.601562 C 155.902344 -188.699219 170.417969 -147.941406 199.449219 -119.324219 C 228.484375 -90.710938 265.132812 -76.402344 309.398438 -76.402344 Z M 309.398438 -76.402344 "/>
</g>
<g id="r4-glyph-0-17">
<path d="M 228.550781 14 C 193.683594 14 162.308594 7.949219 134.425781 -4.148438 C 106.542969 -16.25 84.492188 -33.957031 68.273438 -57.273438 C 52.058594 -80.589844 43.949219 -108.898438 43.949219 -142.199219 C 43.949219 -175.734375 52.058594 -203.707031 68.273438 -226.125 C 84.492188 -248.542969 106.808594 -265.410156 135.226562 -276.726562 C 163.640625 -288.042969 195.816406 -293.699219 231.75 -293.699219 L 382.449219 -293.699219 L 382.449219 -325.550781 C 382.449219 -354.484375 373.714844 -377.675781 356.25 -395.125 C 338.78125 -412.574219 312.066406 -421.300781 276.101562 -421.300781 C 240.800781 -421.300781 213.792969 -412.964844 195.074219 -396.300781 C 176.359375 -379.632812 163.96875 -357.75 157.902344 -330.648438 L 62.199219 -361.949219 C 70.199219 -388.449219 82.976562 -412.550781 100.523438 -434.25 C 118.074219 -455.949219 141.507812 -473.417969 170.824219 -486.648438 C 200.140625 -499.882812 235.667969 -506.5 277.398438 -506.5 C 341.332031 -506.5 391.542969 -490.285156 428.023438 -457.851562 C 464.507812 -425.417969 482.75 -379.015625 482.75 -318.648438 L 482.75 -115.800781 C 482.75 -95.800781 492.082031 -85.800781 510.75 -85.800781 L 553.199219 -85.800781 L 553.199219 0 L 476.199219 0 C 452.933594 0 434 -6.058594 419.398438 -18.175781 C 404.800781 -30.292969 397.5 -46.582031 397.5 -67.050781 L 397.5 -70.148438 L 381.648438 -70.148438 C 376.882812 -59.816406 369.074219 -47.976562 358.222656 -34.625 C 347.375 -21.273438 331.601562 -9.832031 310.898438 -0.300781 C 290.199219 9.234375 262.75 14 228.550781 14 Z M 244.25 -71.203125 C 285.183594 -71.203125 318.449219 -83.019531 344.050781 -106.652344 C 369.648438 -130.285156 382.449219 -162.632812 382.449219 -203.699219 L 382.449219 -214.398438 L 237.949219 -214.398438 C 210.648438 -214.398438 188.640625 -208.523438 171.925781 -196.773438 C 155.210938 -185.023438 146.851562 -167.816406 146.851562 -145.148438 C 146.851562 -122.484375 155.542969 -104.492188 172.925781 -91.175781 C 190.308594 -77.859375 214.082031 -71.203125 244.25 -71.203125 Z M 244.25 -71.203125 "/>
</g>
<g id="r4-glyph-0-18">
<path d="M 261.398438 0 C 231.066406 0 207.015625 -8.941406 189.25 -26.824219 C 171.484375 -44.707031 162.597656 -68.902344 162.597656 -99.402344 L 162.597656 -406 L 27.398438 -406 L 27.398438 -492.5 L 162.597656 -492.5 L 162.597656 -656.300781 L 265.5 -656.300781 L 265.5 -492.5 L 413.398438 -492.5 L 413.398438 -406 L 265.5 -406 L 265.5 -116.5 C 265.5 -96.5 275.066406 -86.5 294.199219 -86.5 L 396.5 -86.5 L 396.5 0 Z M 261.398438 0 "/>
</g>
<g id="r4-glyph-0-19">
<path d="M 76.300781 0 L 76.300781 -492.5 L 177.203125 -492.5 L 177.203125 -435 L 193.101562 -435 C 202.234375 -452.132812 217.152344 -467.449219 237.851562 -480.949219 C 258.550781 -494.449219 286.632812 -501.199219 322.101562 -501.199219 C 358.835938 -501.199219 388.390625 -493.609375 410.777344 -478.425781 C 433.160156 -463.242188 449.902344 -444.066406 461 -420.902344 L 476.902344 -420.902344 C 488.234375 -443.632812 504.816406 -462.699219 526.652344 -478.101562 C 548.484375 -493.5 579.332031 -501.199219 619.199219 -501.199219 C 650.800781 -501.199219 679.042969 -494.582031 703.925781 -481.351562 C 728.808594 -468.117188 748.574219 -448.683594 763.226562 -423.050781 C 777.875 -397.417969 785.199219 -365.882812 785.199219 -328.449219 L 785.199219 0 L 682.296875 0 L 682.296875 -320.5 C 682.296875 -350.398438 674.074219 -373.464844 657.625 -389.699219 C 641.175781 -405.933594 618.066406 -414.050781 588.300781 -414.050781 C 556.132812 -414.050781 530.410156 -403.714844 511.125 -383.050781 C 491.84375 -362.382812 482.199219 -332.601562 482.199219 -293.699219 L 482.199219 0 L 379.300781 0 L 379.300781 -320.5 C 379.300781 -350.398438 371.074219 -373.464844 354.625 -389.699219 C 338.175781 -405.933594 315.066406 -414.050781 285.300781 -414.050781 C 253.132812 -414.050781 227.410156 -403.714844 208.125 -383.050781 C 188.84375 -362.382812 179.203125 -332.601562 179.203125 -293.699219 L 179.203125 0 Z M 76.300781 0 "/>
</g>
<g id="r4-glyph-0-20">
<path d="M -8.300781 200 L 285.699219 -700 L 388.949219 -700 L 94.949219 200 Z M -8.300781 200 "/>
</g>
<g id="r4-glyph-0-21">
<path d="M 277.75 14 C 215.183594 14 163.175781 0 121.726562 -28 C 80.273438 -56 55.101562 -98.214844 46.199219 -154.648438 L 142.25 -178 C 147.152344 -150.46875 156.035156 -128.808594 168.902344 -113.027344 C 181.765625 -97.242188 197.652344 -85.992188 216.550781 -79.277344 C 235.449219 -72.558594 255.851562 -69.203125 277.75 -69.203125 C 310.816406 -69.203125 336.15625 -75.417969 353.773438 -87.851562 C 371.390625 -100.285156 380.199219 -116.5 380.199219 -136.5 C 380.199219 -156.734375 371.839844 -171.542969 355.125 -180.925781 C 338.40625 -190.308594 313.867188 -197.898438 281.5 -203.699219 L 247.199219 -209.75 C 213.933594 -215.949219 183.667969 -224.765625 156.398438 -236.199219 C 129.132812 -247.632812 107.359375 -263.332031 91.074219 -283.300781 C 74.792969 -303.265625 66.648438 -328.765625 66.648438 -359.800781 C 66.648438 -406.566406 84.125 -442.707031 119.074219 -468.226562 C 154.023438 -493.742188 200.132812 -506.5 257.398438 -506.5 C 312.734375 -506.5 358.207031 -494.109375 393.824219 -469.324219 C 429.441406 -444.542969 452.449219 -410.867188 462.851562 -368.300781 L 367.199219 -340.699219 C 361.398438 -370.699219 348.816406 -391.964844 329.449219 -404.5 C 310.082031 -417.03125 286.066406 -423.300781 257.398438 -423.300781 C 228.96875 -423.300781 206.785156 -418.140625 190.851562 -407.824219 C 174.917969 -397.507812 166.949219 -382.800781 166.949219 -363.699219 C 166.949219 -343.96875 174.785156 -329.449219 190.449219 -320.152344 C 206.117188 -310.851562 227.382812 -303.851562 254.25 -299.152344 L 288.550781 -293.101562 C 324.484375 -286.902344 356.976562 -278.417969 386.023438 -267.652344 C 415.074219 -256.882812 438.082031 -241.625 455.050781 -221.875 C 472.015625 -202.125 480.5 -175.617188 480.5 -142.351562 C 480.5 -92.449219 462.191406 -53.917969 425.574219 -26.75 C 388.957031 0.417969 339.683594 14 277.75 14 Z M 277.75 14 "/>
</g>
<g id="r4-glyph-0-22">
<path d="M 73 0 L 73 -700 L 350.851562 -700 C 393.917969 -700 432.167969 -691.515625 465.601562 -674.550781 C 499.035156 -657.582031 525.308594 -633.566406 544.425781 -602.5 C 563.542969 -571.433594 573.101562 -534.25 573.101562 -490.949219 L 573.101562 -477.648438 C 573.101562 -434.78125 563.265625 -397.648438 543.601562 -366.25 C 523.933594 -334.847656 497.382812 -310.722656 463.949219 -293.875 C 430.515625 -277.023438 392.816406 -268.597656 350.851562 -268.597656 L 181.203125 -268.597656 L 181.203125 0 Z M 181.203125 -366.902344 L 339.949219 -366.902344 C 377.816406 -366.902344 408.109375 -376.851562 430.824219 -396.75 C 453.539062 -416.648438 464.898438 -444.167969 464.898438 -479.300781 L 464.898438 -489.300781 C 464.898438 -524.664062 453.65625 -552.242188 431.175781 -572.023438 C 408.691406 -591.808594 378.28125 -601.699219 339.949219 -601.699219 L 181.203125 -601.699219 Z M 181.203125 -366.902344 "/>
</g>
<g id="r4-glyph-0-23">
<path d="M 73 0 L 73 -700 L 280.601562 -700 L 471.050781 -71.800781 L 486.949219 -71.800781 L 486.949219 -700 L 593.851562 -700 L 593.851562 0 L 386.246094 0 L 195.800781 -628.546875 L 179.902344 -628.546875 L 179.902344 0 Z M 73 0 "/>
</g>
<g id="r4-glyph-0-24">
<path d="M 239.898438 0 L 239.898438 -601.699219 L 25.398438 -601.699219 L 25.398438 -700 L 562.601562 -700 L 562.601562 -601.699219 L 348.101562 -601.699219 L 348.101562 0 Z M 239.898438 0 "/>
</g>
<g id="r4-glyph-0-25">
<path d="M 165.300781 0 L 165.300781 -406 L 27.398438 -406 L 27.398438 -492.5 L 165.300781 -492.5 L 165.300781 -600.597656 C 165.300781 -631.097656 174.183594 -655.292969 191.949219 -673.175781 C 209.714844 -691.058594 233.765625 -700 264.101562 -700 L 390.601562 -700 L 390.601562 -613.5 L 296.902344 -613.5 C 277.765625 -613.5 268.199219 -603.5 268.199219 -583.5 L 268.199219 -492.5 L 410.101562 -492.5 L 410.101562 -406 L 268.199219 -406 L 268.199219 0 Z M 165.300781 0 "/>
</g>
</g>

<g>
<g id="r5-glyph-0-0">
<path d="M 19.75 0 L 211.625 -700 L 421.324219 -700 L 613.199219 0 L 489.273438 0 L 447.425781 -159.601562 L 185.527344 -159.601562 L 143.675781 0 Z M 214.25 -270.398438 L 418.699219 -270.398438 L 324.949219 -624.875 L 308 -624.875 Z M 214.25 -270.398438 "/>
</g>
<g id="r5-glyph-0-1">
<path d="M 310.050781 14 C 256.75 14 209.609375 4.480469 168.625 -14.5625 C 127.640625 -33.605469 95.542969 -61.152344 72.324219 -97.210938 C 49.109375 -133.269531 37.5 -177.101562 37.5 -228.699219 L 37.5 -255.125 L 155.949219 -255.125 L 155.949219 -228.699219 C 155.949219 -182.734375 169.914062 -148.375 197.835938 -125.625 C 225.761719 -102.875 263.167969 -91.5 310.050781 -91.5 C 357.601562 -91.5 393.328125 -101.289062 417.238281 -120.863281 C 441.144531 -140.4375 453.097656 -165.449219 453.097656 -195.898438 C 453.097656 -216.75 447.367188 -233.613281 435.898438 -246.488281 C 424.433594 -259.363281 407.90625 -269.867188 386.324219 -278 C 364.742188 -286.132812 338.773438 -293.648438 308.425781 -300.550781 L 278.25 -307.472656 C 232 -318.023438 192.085938 -331.347656 158.511719 -347.449219 C 124.9375 -363.550781 99.070312 -384.730469 80.914062 -410.988281 C 62.753906 -437.246094 53.675781 -471.300781 53.675781 -513.148438 C 53.675781 -555 63.78125 -590.886719 84 -620.8125 C 104.214844 -650.738281 132.621094 -673.75 169.210938 -689.851562 C 205.804688 -705.949219 248.75 -714 298.050781 -714 C 347.351562 -714 391.324219 -705.585938 429.976562 -688.761719 C 468.625 -671.9375 499.058594 -646.925781 521.273438 -613.726562 C 543.492188 -580.523438 554.601562 -538.941406 554.601562 -488.976562 L 554.601562 -456 L 436.148438 -456 L 436.148438 -488.976562 C 436.148438 -517.390625 430.488281 -540.320312 419.160156 -557.761719 C 407.835938 -575.203125 391.808594 -588.019531 371.074219 -596.210938 C 350.339844 -604.402344 326 -608.5 298.050781 -608.5 C 256.535156 -608.5 225.167969 -600.359375 203.949219 -584.074219 C 182.734375 -567.792969 172.125 -545.25 172.125 -516.449219 C 172.125 -497.25 176.976562 -481.242188 186.675781 -468.425781 C 196.375 -455.609375 210.722656 -445.023438 229.710938 -436.675781 C 248.703125 -428.324219 272.550781 -420.976562 301.25 -414.625 L 331.425781 -407.699219 C 379.089844 -397.382812 420.871094 -384.097656 456.761719 -367.835938 C 492.652344 -351.578125 520.757812 -329.988281 541.074219 -303.0625 C 561.390625 -276.136719 571.550781 -241.515625 571.550781 -199.199219 C 571.550781 -156.882812 560.832031 -119.761719 539.398438 -87.835938 C 517.96875 -55.914062 487.679688 -30.957031 448.539062 -12.976562 C 409.394531 5.007812 363.234375 14 310.050781 14 Z M 310.050781 14 "/>
</g>
<g id="r5-glyph-0-2">
<path d="M 69.5 0 L 69.5 -700 L 189.601562 -700 L 189.601562 -405.574219 L 466.398438 -405.574219 L 466.398438 -700 L 586.5 -700 L 586.5 0 L 466.398438 0 L 466.398438 -296.425781 L 189.601562 -296.425781 L 189.601562 0 Z M 69.5 0 "/>
</g>
<g id="r5-glyph-0-3">
<path d="M 69.5 0 L 69.5 -700 L 505.300781 -700 L 505.300781 -590.847656 L 189.601562 -590.847656 L 189.601562 -405.574219 L 480.425781 -405.574219 L 480.425781 -296.425781 L 189.601562 -296.425781 L 189.601562 0 Z M 69.5 0 "/>
</g>
<g id="r5-glyph-0-4">
<path d="M 337.125 14 C 250.175781 14 180.992188 -10.167969 129.574219 -58.5 C 78.15625 -106.832031 52.449219 -176.292969 52.449219 -266.875 L 52.449219 -433.125 C 52.449219 -523.707031 78.15625 -593.167969 129.574219 -641.5 C 180.992188 -689.832031 250.175781 -714 337.125 -714 C 424.074219 -714 493.257812 -689.832031 544.675781 -641.5 C 596.09375 -593.167969 621.800781 -523.707031 621.800781 -433.125 L 621.800781 -266.875 C 621.800781 -176.292969 596.09375 -106.832031 544.675781 -58.5 C 493.257812 -10.167969 424.074219 14 337.125 14 Z M 337.125 -93.5 C 389.257812 -93.5 429.71875 -108.765625 458.511719 -139.300781 C 487.304688 -169.832031 501.699219 -211.140625 501.699219 -263.226562 L 501.699219 -436.773438 C 501.699219 -488.859375 487.304688 -530.167969 458.511719 -560.699219 C 429.71875 -591.234375 389.257812 -606.5 337.125 -606.5 C 285.660156 -606.5 245.363281 -591.234375 216.238281 -560.699219 C 187.113281 -530.167969 172.550781 -488.859375 172.550781 -436.773438 L 172.550781 -263.226562 C 172.550781 -211.140625 187.113281 -169.832031 216.238281 -139.300781 C 245.363281 -108.765625 285.660156 -93.5 337.125 -93.5 Z M 337.125 -93.5 "/>
</g>
<g id="r5-glyph-0-5">
<path d="M 69.5 0 L 69.5 -700 L 368.25 -700 C 412.132812 -700 450.4375 -692.390625 483.164062 -677.175781 C 515.886719 -661.957031 541.335938 -640.378906 559.511719 -612.4375 C 577.6875 -584.496094 586.773438 -551.410156 586.773438 -513.175781 L 586.773438 -501.523438 C 586.773438 -458.589844 576.542969 -424.039062 556.074219 -397.863281 C 535.609375 -371.6875 510.59375 -352.890625 481.023438 -341.476562 L 481.023438 -324.523438 C 507.109375 -323.308594 527.601562 -314.460938 542.5 -297.988281 C 557.398438 -281.511719 564.851562 -259.042969 564.851562 -230.574219 L 564.851562 0 L 444.75 0 L 444.75 -213.675781 C 444.75 -230.609375 440.292969 -244.191406 431.375 -254.425781 C 422.457031 -264.65625 407.984375 -269.773438 387.949219 -269.773438 L 189.601562 -269.773438 L 189.601562 0 Z M 189.601562 -378.925781 L 355.648438 -378.925781 C 390.601562 -378.925781 417.839844 -388.066406 437.375 -406.351562 C 456.90625 -424.632812 466.675781 -449.292969 466.675781 -480.324219 L 466.675781 -489.449219 C 466.675781 -520.484375 457.101562 -545.140625 437.960938 -563.425781 C 418.820312 -581.707031 391.382812 -590.847656 355.648438 -590.847656 L 189.601562 -590.847656 Z M 189.601562 -378.925781 "/>
</g>
<g id="r5-glyph-0-6">
<path d="M 46.351562 0 L 46.351562 -105.851562 L 139.75 -105.851562 L 139.75 -594.148438 L 46.351562 -594.148438 L 46.351562 -700 L 330.5 -700 C 424.035156 -700 495.476562 -676.285156 544.824219 -628.851562 C 594.175781 -581.417969 618.851562 -510.351562 618.851562 -415.648438 L 618.851562 -284.175781 C 618.851562 -189.476562 594.175781 -118.4375 544.824219 -71.0625 C 495.476562 -23.6875 424.035156 0 330.5 0 Z M 259.851562 -109.152344 L 332.148438 -109.152344 C 388.984375 -109.152344 430.957031 -123.792969 458.074219 -153.074219 C 485.191406 -182.359375 498.75 -224.785156 498.75 -280.351562 L 498.75 -419.476562 C 498.75 -475.707031 485.191406 -518.300781 458.074219 -547.25 C 430.957031 -576.199219 388.984375 -590.675781 332.148438 -590.675781 L 259.851562 -590.675781 Z M 259.851562 -109.152344 "/>
</g>
<g id="r5-glyph-0-7">
<path d="M 69.5 0 L 69.5 -700 L 514.773438 -700 L 514.773438 -590.847656 L 189.601562 -590.847656 L 189.601562 -407.226562 L 486.773438 -407.226562 L 486.773438 -298.074219 L 189.601562 -298.074219 L 189.601562 -109.152344 L 520.425781 -109.152344 L 520.425781 0 Z M 69.5 0 "/>
</g>
<g id="r5-glyph-0-8">
</g>
<g id="r5-glyph-0-9">
<path d="M 335.300781 14 C 279.25 14 231.015625 3.792969 190.601562 -16.625 C 150.183594 -37.042969 119.171875 -66.488281 97.5625 -104.960938 C 75.953125 -143.4375 65.148438 -189.457031 65.148438 -243.023438 L 65.148438 -700 L 185.25 -700 L 185.25 -239.726562 C 185.25 -193.558594 198.175781 -157.644531 224.027344 -131.988281 C 249.875 -106.328125 286.96875 -93.5 335.300781 -93.5 C 383.632812 -93.5 420.726562 -106.328125 446.574219 -131.988281 C 472.425781 -157.644531 485.347656 -193.558594 485.347656 -239.726562 L 485.347656 -700 L 605.449219 -700 L 605.449219 -243.023438 C 605.449219 -189.457031 594.675781 -143.4375 573.125 -104.960938 C 551.574219 -66.488281 520.5625 -37.042969 480.085938 -16.625 C 439.613281 3.792969 391.351562 14 335.300781 14 Z M 443.324219 -755.398438 C 422.058594 -755.398438 404.117188 -762.160156 389.5 -775.675781 C 374.882812 -789.191406 367.574219 -807.410156 367.574219 -830.324219 C 367.574219 -853.359375 374.882812 -871.605469 389.5 -885.0625 C 404.117188 -898.519531 422.058594 -905.25 443.324219 -905.25 C 465.257812 -905.25 483.367188 -898.519531 497.652344 -885.0625 C 511.933594 -871.605469 519.074219 -853.359375 519.074219 -830.324219 C 519.074219 -807.410156 511.933594 -789.191406 497.652344 -775.675781 C 483.367188 -762.160156 465.257812 -755.398438 443.324219 -755.398438 Z M 227.273438 -755.398438 C 206.007812 -755.398438 188.066406 -762.160156 173.449219 -775.675781 C 158.832031 -789.191406 151.523438 -807.410156 151.523438 -830.324219 C 151.523438 -853.359375 158.832031 -871.605469 173.449219 -885.0625 C 188.066406 -898.519531 206.007812 -905.25 227.273438 -905.25 C 249.207031 -905.25 267.316406 -898.519531 281.601562 -885.0625 C 295.882812 -871.605469 303.023438 -853.359375 303.023438 -830.324219 C 303.023438 -807.410156 295.882812 -789.191406 281.601562 -775.675781 C 267.316406 -762.160156 249.207031 -755.398438 227.273438 -755.398438 Z M 227.273438 -755.398438 "/>
</g>
<g id="r5-glyph-0-10">
<path d="M 105.5625 -198 C 80.371094 -198 59.277344 -206.285156 42.289062 -222.851562 C 25.296875 -239.421875 16.800781 -260.652344 16.800781 -286.542969 C 16.800781 -312.429688 25.296875 -333.597656 42.289062 -350.039062 C 59.277344 -366.480469 80.371094 -374.699219 105.5625 -374.699219 C 130.753906 -374.699219 151.707031 -366.414062 168.425781 -349.847656 C 185.140625 -333.277344 193.5 -312.046875 193.5 -286.160156 C 193.5 -260.269531 185.140625 -239.105469 168.425781 -222.664062 C 151.707031 -206.21875 130.753906 -198 105.5625 -198 Z M 105.5625 -198 "/>
</g>
<g id="r5-glyph-0-11">
<path d="M 69.5 0 L 69.5 -700 L 352.425781 -700 C 395.957031 -700 434.5 -691.339844 468.050781 -674.023438 C 501.601562 -656.707031 527.90625 -632.285156 546.960938 -600.75 C 566.019531 -569.214844 575.550781 -531.625 575.550781 -487.976562 L 575.550781 -474.324219 C 575.550781 -431.226562 565.71875 -393.742188 546.050781 -361.875 C 526.382812 -330.007812 499.773438 -305.445312 466.226562 -288.1875 C 432.675781 -270.929688 394.742188 -262.300781 352.425781 -262.300781 L 189.601562 -262.300781 L 189.601562 0 Z M 189.601562 -371.449219 L 340.476562 -371.449219 C 375.074219 -371.449219 402.886719 -380.757812 423.910156 -399.375 C 444.9375 -417.992188 455.449219 -443.582031 455.449219 -476.148438 L 455.449219 -486.148438 C 455.449219 -518.832031 444.996094 -544.453125 424.085938 -563.011719 C 403.179688 -581.570312 375.308594 -590.847656 340.476562 -590.847656 L 189.601562 -590.847656 Z M 189.601562 -371.449219 "/>
</g>
<g id="r5-glyph-0-12">
<path d="M 69.5 0 L 69.5 -700 L 298.800781 -700 L 463.523438 -80.902344 L 480.472656 -80.902344 L 480.472656 -700 L 598.925781 -700 L 598.925781 0 L 369.625 0 L 204.902344 -619.273438 L 187.949219 -619.273438 L 187.949219 0 Z M 69.5 0 "/>
</g>
<g id="r5-glyph-0-13">
<path d="M 69.5 0 L 69.5 -700 L 189.601562 -700 L 189.601562 0 Z M 69.5 0 "/>
</g>
<g id="r5-glyph-0-14">
<path d="M 233.949219 0 L 233.949219 -590.847656 L 24.699219 -590.847656 L 24.699219 -700 L 563.300781 -700 L 563.300781 -590.847656 L 354.050781 -590.847656 L 354.050781 0 Z M 233.949219 0 "/>
</g>
<g id="r5-glyph-0-15">
<path d="M 311.851562 14 C 262.917969 14 218.863281 3.167969 179.6875 -18.5 C 140.511719 -40.167969 109.511719 -71.890625 86.6875 -113.675781 C 63.863281 -155.457031 52.449219 -206.523438 52.449219 -266.875 L 52.449219 -433.125 C 52.449219 -523.707031 77.636719 -593.167969 128.011719 -641.5 C 178.386719 -689.832031 246.5 -714 332.351562 -714 C 417.535156 -714 483.160156 -691.195312 529.226562 -645.585938 C 575.292969 -599.980469 598.324219 -538.410156 598.324219 -460.875 L 598.324219 -456.699219 L 479.875 -456.699219 L 479.875 -464.523438 C 479.875 -491.292969 474.503906 -515.402344 463.761719 -536.863281 C 453.019531 -558.320312 436.761719 -575.292969 414.988281 -587.773438 C 393.210938 -600.257812 365.667969 -606.5 332.351562 -606.5 C 282.535156 -606.5 243.445312 -591.234375 215.089844 -560.699219 C 186.730469 -530.167969 172.550781 -488.308594 172.550781 -435.125 L 172.550781 -264.875 C 172.550781 -212.242188 186.730469 -170.246094 215.089844 -138.886719 C 243.445312 -107.53125 283.082031 -91.851562 334 -91.851562 C 384.683594 -91.851562 421.726562 -105.507812 445.125 -132.824219 C 468.523438 -160.140625 480.222656 -195.175781 480.222656 -237.925781 L 480.222656 -249.675781 L 302.851562 -249.675781 L 302.851562 -351.875 L 598.324219 -351.875 L 598.324219 0 L 487.523438 0 L 487.523438 -69.101562 L 470.574219 -69.101562 C 465.324219 -56.949219 457.152344 -44.394531 446.0625 -31.4375 C 434.96875 -18.480469 418.828125 -7.667969 397.636719 1 C 376.445312 9.667969 347.851562 14 311.851562 14 Z M 311.851562 14 "/>
</g>
<g id="r5-glyph-0-16">
<path d="M 78.125 141.574219 L 78.125 78.125 L 114.5 78.125 C 143.535156 78.125 158.050781 63.609375 158.050781 34.574219 L 158.050781 2.574219 L 141.75 2.574219 C 116.949219 2.574219 96.300781 -4.929688 79.800781 -19.9375 C 63.300781 -34.945312 55.050781 -54.023438 55.050781 -77.175781 C 55.050781 -101.976562 63.300781 -122.15625 79.800781 -137.714844 C 96.300781 -153.273438 116.949219 -161.050781 141.75 -161.050781 C 167.101562 -161.050781 187.886719 -153.074219 204.113281 -137.125 C 220.339844 -121.175781 228.449219 -99.976562 228.449219 -73.527344 L 228.449219 35.875 C 228.449219 106.34375 193.277344 141.574219 122.925781 141.574219 Z M 78.125 141.574219 "/>
</g>
<g id="r5-glyph-0-17">
<path d="M 205.972656 0 L 19.75 -700 L 143.675781 -700 L 302.351562 -76.601562 L 316 -76.601562 L 474.675781 -700 L 598.601562 -700 L 412.375 0 Z M 205.972656 0 "/>
</g>
<g id="r5-glyph-0-18">
<path d="M 238.675781 0 C 198.042969 0 162.195312 -7.441406 131.136719 -22.324219 C 100.078125 -37.207031 75.765625 -58.730469 58.199219 -86.886719 C 40.632812 -115.046875 31.851562 -148.792969 31.851562 -188.125 C 31.851562 -216.910156 37.164062 -242.023438 47.789062 -263.476562 C 58.414062 -284.925781 72.753906 -302.707031 90.8125 -316.824219 C 108.871094 -330.941406 128.726562 -341.390625 150.375 -348.175781 L 150.375 -361.476562 C 117.742188 -371.359375 90.613281 -388.664062 68.988281 -413.386719 C 47.363281 -438.113281 36.550781 -471.160156 36.550781 -512.523438 C 36.550781 -553.074219 45.609375 -587.320312 63.726562 -615.261719 C 81.839844 -643.203125 106.371094 -664.3125 137.3125 -678.585938 C 168.253906 -692.863281 203.375 -700 242.675781 -700 L 355.875 -700 L 355.875 -604.75 L 262.523438 -604.75 C 230.773438 -604.75 204.308594 -596.253906 183.125 -579.261719 C 161.941406 -562.269531 151.351562 -536.824219 151.351562 -502.925781 C 151.351562 -479.410156 156.503906 -460.183594 166.8125 -445.25 C 177.121094 -430.316406 190.664062 -419.285156 207.4375 -412.148438 C 224.210938 -405.015625 242.574219 -401.449219 262.523438 -401.449219 L 369.675781 -401.449219 L 369.675781 -495.824219 L 484.125 -495.824219 L 484.125 -401.449219 L 577.523438 -401.449219 L 577.523438 -306.199219 L 484.125 -306.199219 L 484.125 0 Z M 258.523438 -95.25 L 369.675781 -95.25 L 369.675781 -306.199219 L 258.523438 -306.199219 C 227.089844 -306.199219 200.585938 -297.398438 179.011719 -279.800781 C 157.4375 -262.199219 146.652344 -235.839844 146.652344 -200.726562 C 146.652344 -165.058594 157.878906 -138.5625 180.335938 -121.238281 C 202.796875 -103.914062 228.859375 -95.25 258.523438 -95.25 Z M 258.523438 -95.25 "/>
</g>
<g id="r5-glyph-0-19">
<path d="M 69.5 0 L 69.5 -700 L 293.5 -700 L 430.425781 -80.902344 L 447.375 -80.902344 L 584.300781 -700 L 808.300781 -700 L 808.300781 0 L 691.851562 0 L 691.851562 -613.324219 L 674.898438 -613.324219 L 538.800781 0 L 339 0 L 202.902344 -613.324219 L 185.949219 -613.324219 L 185.949219 0 Z M 69.5 0 "/>
</g>
<g id="r5-glyph-0-20">
<path d="M 335.300781 14 C 279.25 14 231.015625 3.792969 190.601562 -16.625 C 150.183594 -37.042969 119.171875 -66.488281 97.5625 -104.960938 C 75.953125 -143.4375 65.148438 -189.457031 65.148438 -243.023438 L 65.148438 -700 L 185.25 -700 L 185.25 -239.726562 C 185.25 -193.558594 198.175781 -157.644531 224.027344 -131.988281 C 249.875 -106.328125 286.96875 -93.5 335.300781 -93.5 C 383.632812 -93.5 420.726562 -106.328125 446.574219 -131.988281 C 472.425781 -157.644531 485.347656 -193.558594 485.347656 -239.726562 L 485.347656 -700 L 605.449219 -700 L 605.449219 -243.023438 C 605.449219 -189.457031 594.675781 -143.4375 573.125 -104.960938 C 551.574219 -66.488281 520.5625 -37.042969 480.085938 -16.625 C 439.613281 3.792969 391.351562 14 335.300781 14 Z M 335.300781 14 "/>
</g>
<g id="r5-glyph-0-21">
<path d="M 332.351562 14 C 246.5 14 178.386719 -10.167969 128.011719 -58.5 C 77.636719 -106.832031 52.449219 -176.292969 52.449219 -266.875 L 52.449219 -433.125 C 52.449219 -523.707031 77.636719 -593.167969 128.011719 -641.5 C 178.386719 -689.832031 246.5 -714 332.351562 -714 C 417.535156 -714 483.273438 -690.617188 529.574219 -643.851562 C 575.875 -597.082031 599.023438 -532.992188 599.023438 -451.574219 L 599.023438 -445.75 L 480.574219 -445.75 L 480.574219 -455.226562 C 480.574219 -499.359375 468.433594 -535.605469 444.148438 -563.960938 C 419.867188 -592.320312 382.601562 -606.5 332.351562 -606.5 C 282.535156 -606.5 243.445312 -591.234375 215.089844 -560.699219 C 186.730469 -530.167969 172.550781 -488.308594 172.550781 -435.125 L 172.550781 -264.875 C 172.550781 -212.242188 186.730469 -170.519531 215.089844 -139.714844 C 243.445312 -108.90625 282.535156 -93.5 332.351562 -93.5 C 382.601562 -93.5 419.867188 -107.816406 444.148438 -136.449219 C 468.433594 -165.082031 480.574219 -201.191406 480.574219 -244.773438 L 480.574219 -262.25 L 599.023438 -262.25 L 599.023438 -248.425781 C 599.023438 -167.007812 575.875 -102.917969 529.574219 -56.148438 C 483.273438 -9.382812 417.535156 14 332.351562 14 Z M 332.351562 14 "/>
</g>
</g>

</defs>
<rect x="1" y="1" width="1238" height="558" rx="26" fill="#0a0e15"/>
<rect x="1" y="1" width="1238" height="558" rx="26" fill="url(#bgglow)"/>
<rect x="1" y="1" width="1238" height="558" rx="26" fill="url(#grid)" mask="url(#gridmask)"/>
<rect x="1" y="1" width="1238" height="558" rx="26" fill="none" stroke="#1b2230" stroke-width="1.5"/>

  <g transform="translate(575,40)">
    <circle cx="45" cy="45" r="42" fill="url(#kglow)"/>
    <circle cx="45" cy="45" r="39" fill="none" stroke="#3a4660" stroke-width="3.6" stroke-dasharray="0.55 4.55"/>
    <circle cx="45" cy="45" r="42" fill="none" stroke="#2b3344" stroke-width="0.9"/>
    <g stroke="#566179" stroke-width="0.9">
      <line x1="45" y1="8" x2="45" y2="30"/><line x1="45" y1="60" x2="45" y2="82"/>
      <line x1="8" y1="45" x2="30" y2="45"/><line x1="60" y1="45" x2="82" y2="45"/>
    </g>
    <circle cx="45" cy="45" r="20.5" fill="none" stroke="url(#kg)" stroke-width="2.2"/>
    <line x1="45" y1="45" x2="45" y2="24" stroke="url(#kg)" stroke-width="3.1" stroke-linecap="round"/>
    <circle cx="45" cy="45" r="4.1" fill="url(#kg)"/>
  </g>
<line x1="490.0" y1="402" x2="750.0" y2="402" stroke="url(#kg)" stroke-width="2.4"/>
<line x1="490.0" y1="396" x2="490.0" y2="408" stroke="url(#kg)" stroke-width="2.4"/>
<line x1="750.0" y1="396" x2="750.0" y2="408" stroke="url(#kg)" stroke-width="2.4"/>
<g fill="#b7c1d6" transform="translate(352.71,160.16) scale(0.04000)">
<use xlink:href="#r1-glyph-0-0" x="0.00" y="896.00"/>
<use xlink:href="#r1-glyph-0-1" x="717.00" y="896.00"/>
</g><g fill="#8b97ad" transform="translate(436.87,170.42) scale(0.02600)">
<use xlink:href="#r2-glyph-0-0" x="0.00" y="984.00"/>
<use xlink:href="#r2-glyph-0-1" x="550.00" y="984.00"/>
<use xlink:href="#r2-glyph-0-2" x="1116.05" y="984.00"/>
<use xlink:href="#r2-glyph-0-3" x="2044.05" y="984.00"/>
<use xlink:href="#r2-glyph-0-4" x="3040.05" y="984.00"/>
<use xlink:href="#r2-glyph-0-1" x="3936.05" y="984.00"/>
<use xlink:href="#r2-glyph-0-5" x="4531.05" y="984.00"/>
<use xlink:href="#r2-glyph-0-6" x="5474.05" y="984.00"/>
<use xlink:href="#r2-glyph-0-4" x="6446.05" y="984.00"/>
<use xlink:href="#r2-glyph-0-7" x="7342.05" y="984.00"/>
<use xlink:href="#r2-glyph-0-8" x="8325.05" y="984.00"/>
<use xlink:href="#r2-glyph-0-9" x="8924.05" y="984.00"/>
<use xlink:href="#r2-glyph-0-4" x="9872.05" y="984.00"/>
<use xlink:href="#r2-glyph-0-1" x="10768.05" y="984.00"/>
<use xlink:href="#r2-glyph-0-8" x="11363.05" y="984.00"/>
<use xlink:href="#r2-glyph-0-10" x="11962.05" y="984.00"/>
<use xlink:href="#r2-glyph-0-9" x="12970.05" y="984.00"/>
<use xlink:href="#r2-glyph-0-2" x="13894.12" y="984.00"/>
<use xlink:href="#r2-glyph-0-11" x="14755.33" y="984.00"/>
<use xlink:href="#r2-glyph-0-10" x="15728.33" y="984.00"/>
<use xlink:href="#r2-glyph-0-2" x="16736.33" y="984.00"/>
</g><g fill="url(#kg)" transform="translate(355.25,224.40) scale(0.15000)">
<use xlink:href="#r3-glyph-0-0" x="0.00" y="984.00"/>
<use xlink:href="#r3-glyph-0-1" x="618.00" y="984.00"/>
<use xlink:href="#r3-glyph-0-2" x="1142.00" y="984.00"/>
<use xlink:href="#r3-glyph-0-3" x="1758.00" y="984.00"/>
<use xlink:href="#r3-glyph-0-4" x="2336.00" y="984.00"/>
<use xlink:href="#r3-glyph-0-3" x="2952.00" y="984.00"/>
</g><g fill="#c4ccda" transform="translate(157.56,440.48) scale(0.03000)">
<use xlink:href="#r4-glyph-0-0" x="0.00" y="984.00"/>
<use xlink:href="#r4-glyph-0-1" x="673.00" y="984.00"/>
<use xlink:href="#r4-glyph-0-2" x="1314.00" y="984.00"/>
<use xlink:href="#r4-glyph-0-3" x="1898.00" y="984.00"/>
<use xlink:href="#r4-glyph-0-4" x="2513.00" y="984.00"/>
<use xlink:href="#r4-glyph-0-5" x="2754.59" y="984.00"/>
<use xlink:href="#r4-glyph-0-6" x="3009.59" y="984.00"/>
<use xlink:href="#r4-glyph-0-2" x="3378.59" y="984.00"/>
<use xlink:href="#r4-glyph-0-1" x="3962.59" y="984.00"/>
<use xlink:href="#r4-glyph-0-6" x="4603.59" y="984.00"/>
<use xlink:href="#r4-glyph-0-7" x="4972.59" y="984.00"/>
<use xlink:href="#r4-glyph-0-8" x="5587.59" y="984.00"/>
<use xlink:href="#r4-glyph-0-9" x="6228.59" y="984.00"/>
<use xlink:href="#r4-glyph-0-10" x="6842.59" y="984.00"/>
<use xlink:href="#r4-glyph-0-11" x="7434.59" y="984.00"/>
<use xlink:href="#r4-glyph-0-12" x="7690.59" y="984.00"/>
<use xlink:href="#r4-glyph-0-13" x="8331.59" y="984.00"/>
<use xlink:href="#r4-glyph-0-2" x="8587.59" y="984.00"/>
<use xlink:href="#r4-glyph-0-5" x="9171.59" y="984.00"/>
<use xlink:href="#r4-glyph-0-14" x="9426.59" y="984.00"/>
<use xlink:href="#r4-glyph-0-15" x="10033.59" y="984.00"/>
<use xlink:href="#r4-glyph-0-12" x="10647.59" y="984.00"/>
<use xlink:href="#r4-glyph-0-6" x="11288.59" y="984.00"/>
<use xlink:href="#r4-glyph-0-11" x="11675.59" y="984.00"/>
<use xlink:href="#r4-glyph-0-8" x="11931.59" y="984.00"/>
<use xlink:href="#r4-glyph-0-5" x="12572.59" y="984.00"/>
<use xlink:href="#r4-glyph-0-16" x="12827.59" y="984.00"/>
<use xlink:href="#r4-glyph-0-9" x="13468.59" y="984.00"/>
<use xlink:href="#r4-glyph-0-17" x="14082.59" y="984.00"/>
<use xlink:href="#r4-glyph-0-3" x="14659.59" y="984.00"/>
<use xlink:href="#r4-glyph-0-18" x="15260.59" y="984.00"/>
<use xlink:href="#r4-glyph-0-9" x="15718.59" y="984.00"/>
<use xlink:href="#r4-glyph-0-19" x="16332.59" y="984.00"/>
<use xlink:href="#r4-glyph-0-5" x="17189.59" y="984.00"/>
<use xlink:href="#r4-glyph-0-20" x="17444.59" y="984.00"/>
<use xlink:href="#r4-glyph-0-5" x="17823.59" y="984.00"/>
<use xlink:href="#r4-glyph-0-10" x="18078.59" y="984.00"/>
<use xlink:href="#r4-glyph-0-13" x="18670.59" y="984.00"/>
<use xlink:href="#r4-glyph-0-17" x="18926.59" y="984.00"/>
<use xlink:href="#r4-glyph-0-21" x="19499.59" y="984.00"/>
<use xlink:href="#r4-glyph-0-21" x="20024.59" y="984.00"/>
<use xlink:href="#r4-glyph-0-11" x="20549.59" y="984.00"/>
<use xlink:href="#r4-glyph-0-10" x="20805.59" y="984.00"/>
<use xlink:href="#r4-glyph-0-17" x="21397.59" y="984.00"/>
<use xlink:href="#r4-glyph-0-13" x="21974.59" y="984.00"/>
<use xlink:href="#r4-glyph-0-5" x="22230.59" y="984.00"/>
<use xlink:href="#r4-glyph-0-22" x="22485.59" y="984.00"/>
<use xlink:href="#r4-glyph-0-23" x="23088.59" y="984.00"/>
<use xlink:href="#r4-glyph-0-24" x="23755.59" y="984.00"/>
<use xlink:href="#r4-glyph-0-5" x="24315.69" y="984.00"/>
<use xlink:href="#r4-glyph-0-1" x="24570.69" y="984.00"/>
<use xlink:href="#r4-glyph-0-2" x="25211.69" y="984.00"/>
<use xlink:href="#r4-glyph-0-6" x="25795.69" y="984.00"/>
<use xlink:href="#r4-glyph-0-25" x="26182.69" y="984.00"/>
<use xlink:href="#r4-glyph-0-7" x="26601.84" y="984.00"/>
<use xlink:href="#r4-glyph-0-6" x="27216.84" y="984.00"/>
<use xlink:href="#r4-glyph-0-19" x="27603.84" y="984.00"/>
<use xlink:href="#r4-glyph-0-17" x="28460.84" y="984.00"/>
<use xlink:href="#r4-glyph-0-3" x="29037.84" y="984.00"/>
<use xlink:href="#r4-glyph-0-10" x="29652.84" y="984.00"/>
<use xlink:href="#r4-glyph-0-2" x="30244.84" y="984.00"/>
</g><g fill="#6c7789" transform="translate(338.57,505.24) scale(0.01500)">
<use xlink:href="#r5-glyph-0-0" x="0.00" y="984.00"/>
<use xlink:href="#r5-glyph-0-1" x="672.30" y="984.00"/>
<use xlink:href="#r5-glyph-0-2" x="1320.30" y="984.00"/>
<use xlink:href="#r5-glyph-0-3" x="2016.30" y="984.00"/>
<use xlink:href="#r5-glyph-0-4" x="2584.95" y="984.00"/>
<use xlink:href="#r5-glyph-0-5" x="3298.95" y="984.00"/>
<use xlink:href="#r5-glyph-0-6" x="3970.95" y="984.00"/>
<use xlink:href="#r5-glyph-0-7" x="4675.95" y="984.00"/>
<use xlink:href="#r5-glyph-0-8" x="5271.95" y="984.00"/>
<use xlink:href="#r5-glyph-0-4" x="5566.95" y="984.00"/>
<use xlink:href="#r5-glyph-0-9" x="6280.95" y="984.00"/>
<use xlink:href="#r5-glyph-0-8" x="6991.95" y="984.00"/>
<use xlink:href="#r5-glyph-0-10" x="7286.95" y="984.00"/>
<use xlink:href="#r5-glyph-0-8" x="7536.95" y="984.00"/>
<use xlink:href="#r5-glyph-0-4" x="7831.95" y="984.00"/>
<use xlink:href="#r5-glyph-0-11" x="8545.95" y="984.00"/>
<use xlink:href="#r5-glyph-0-7" x="9188.95" y="984.00"/>
<use xlink:href="#r5-glyph-0-12" x="9784.95" y="984.00"/>
<use xlink:href="#r5-glyph-0-8" x="10492.95" y="984.00"/>
<use xlink:href="#r5-glyph-0-11" x="10787.95" y="984.00"/>
<use xlink:href="#r5-glyph-0-4" x="11430.95" y="984.00"/>
<use xlink:href="#r5-glyph-0-1" x="12144.95" y="984.00"/>
<use xlink:href="#r5-glyph-0-13" x="12792.95" y="984.00"/>
<use xlink:href="#r5-glyph-0-14" x="13091.95" y="984.00"/>
<use xlink:href="#r5-glyph-0-13" x="13719.95" y="984.00"/>
<use xlink:href="#r5-glyph-0-4" x="14018.95" y="984.00"/>
<use xlink:href="#r5-glyph-0-12" x="14732.95" y="984.00"/>
<use xlink:href="#r5-glyph-0-13" x="15440.95" y="984.00"/>
<use xlink:href="#r5-glyph-0-12" x="15739.95" y="984.00"/>
<use xlink:href="#r5-glyph-0-15" x="16447.95" y="984.00"/>
<use xlink:href="#r5-glyph-0-16" x="17148.95" y="984.00"/>
<use xlink:href="#r5-glyph-0-8" x="17442.25" y="984.00"/>
<use xlink:href="#r5-glyph-0-12" x="17737.25" y="984.00"/>
<use xlink:href="#r5-glyph-0-0" x="18445.25" y="984.00"/>
<use xlink:href="#r5-glyph-0-17" x="19070.67" y="984.00"/>
<use xlink:href="#r5-glyph-0-13" x="19728.67" y="984.00"/>
<use xlink:href="#r5-glyph-0-15" x="20027.67" y="984.00"/>
<use xlink:href="#r5-glyph-0-0" x="20728.67" y="984.00"/>
<use xlink:href="#r5-glyph-0-14" x="21334.88" y="984.00"/>
<use xlink:href="#r5-glyph-0-13" x="21962.88" y="984.00"/>
<use xlink:href="#r5-glyph-0-4" x="22261.88" y="984.00"/>
<use xlink:href="#r5-glyph-0-12" x="22975.88" y="984.00"/>
<use xlink:href="#r5-glyph-0-8" x="23683.88" y="984.00"/>
<use xlink:href="#r5-glyph-0-18" x="23978.88" y="984.00"/>
<use xlink:href="#r5-glyph-0-8" x="24612.88" y="984.00"/>
<use xlink:href="#r5-glyph-0-14" x="24878.92" y="984.00"/>
<use xlink:href="#r5-glyph-0-13" x="25506.92" y="984.00"/>
<use xlink:href="#r5-glyph-0-19" x="25805.92" y="984.00"/>
<use xlink:href="#r5-glyph-0-13" x="26723.92" y="984.00"/>
<use xlink:href="#r5-glyph-0-12" x="27022.92" y="984.00"/>
<use xlink:href="#r5-glyph-0-15" x="27730.92" y="984.00"/>
<use xlink:href="#r5-glyph-0-8" x="28431.92" y="984.00"/>
<use xlink:href="#r5-glyph-0-13" x="28726.92" y="984.00"/>
<use xlink:href="#r5-glyph-0-12" x="29025.92" y="984.00"/>
<use xlink:href="#r5-glyph-0-3" x="29733.92" y="984.00"/>
<use xlink:href="#r5-glyph-0-5" x="30308.92" y="984.00"/>
<use xlink:href="#r5-glyph-0-0" x="30980.92" y="984.00"/>
<use xlink:href="#r5-glyph-0-1" x="31653.22" y="984.00"/>
<use xlink:href="#r5-glyph-0-14" x="32277.30" y="984.00"/>
<use xlink:href="#r5-glyph-0-5" x="32905.30" y="984.00"/>
<use xlink:href="#r5-glyph-0-20" x="33577.30" y="984.00"/>
<use xlink:href="#r5-glyph-0-21" x="34288.30" y="984.00"/>
<use xlink:href="#r5-glyph-0-14" x="34956.59" y="984.00"/>
<use xlink:href="#r5-glyph-0-20" x="35584.59" y="984.00"/>
<use xlink:href="#r5-glyph-0-5" x="36295.59" y="984.00"/>
<use xlink:href="#r5-glyph-0-7" x="36967.59" y="984.00"/>
</g>
</svg>
