<svg xmlns="http://www.w3.org/2000/svg" width="820" height="420" font-family="sans-serif" font-size="12"><rect width="820" height="420" fill="white"/><text x="70" y="18" font-size="15" font-weight="bold">Clock holdover: timing error during GNSS outage</text><line x1="70" y1="30" x2="70" y2="370" stroke="#888"/><line x1="70" y1="370" x2="800" y2="370" stroke="#888"/><line x1="70" y1="281.7" x2="800" y2="281.7" stroke="#d33" stroke-dasharray="6 4"/><text x="74" y="277.7" fill="#d33">spec 5 ns</text><polyline fill="none" stroke="#c0392b" stroke-width="2" points="70.0,370.0 70.5,370.0 71.0,370.0 71.5,370.0 72.0,370.0 72.5,370.0 73.0,370.0 73.5,370.0 74.1,370.0 74.6,370.0 75.1,367.6 75.6,361.2 76.1,344.5 76.6,330.1 77.1,367.3 77.6,315.9 78.1,299.4 78.6,288.6 79.1,289.0 79.6,236.1 80.1,261.5 80.6,282.0 81.2,207.2 81.7,140.2 82.2,174.2 82.7,96.8 83.2,111.3 83.7,149.0 84.2,370.0 84.7,370.0 85.2,370.0 85.7,370.0 86.2,370.0 86.7,370.0 87.2,370.0 87.7,370.0 88.2,370.0 88.8,370.0 89.3,370.0 89.8,370.0 90.3,294.6 90.8,269.7 91.3,332.8 91.8,281.4 92.3,267.0 92.8,207.4 93.3,370.0 93.8,354.3 94.3,334.3 94.8,322.7 95.3,332.2 95.9,336.9 96.4,268.9 96.9,290.0 97.4,346.6 97.9,351.4 98.4,368.5 98.9,274.8 99.4,263.7 99.9,272.8 100.4,257.0 100.9,226.4 101.4,202.4 101.9,220.7 102.4,188.1 103.0,133.4 103.5,86.6 104.0,30.0 104.5,370.0 105.0,370.0 105.5,370.0 106.0,370.0 106.5,370.0 107.0,370.0 107.5,370.0 108.0,370.0 108.5,370.0 109.0,370.0 109.5,370.0 110.0,370.0 110.6,370.0 111.1,370.0 111.6,370.0 112.1,370.0 112.6,370.0 113.1,370.0 113.6,370.0 114.1,370.0 114.6,370.0 115.1,370.0 115.6,370.0 116.1,370.0 116.6,370.0 117.1,370.0 117.7,370.0 118.2,342.6 118.7,346.7 119.2,336.2 119.7,366.4 120.2,317.0 120.7,332.3 121.2,336.4 121.7,323.2 122.2,352.1 122.7,356.7 123.2,329.7 123.7,271.0 124.2,266.5 124.8,218.2 125.3,186.9 125.8,229.0 126.3,370.0 126.8,370.0 127.3,370.0 127.8,370.0 128.3,370.0 128.8,370.0 129.3,370.0 129.8,370.0 130.3,370.0 130.8,370.0 131.3,370.0 131.8,370.0 132.4,370.0 132.9,370.0 133.4,370.0 133.9,370.0 134.4,370.0 134.9,370.0 135.4,370.0 135.9,370.0 136.4,370.0 136.9,370.0 137.4,370.0 137.9,370.0 138.4,370.0 138.9,370.0 139.5,317.3 140.0,286.7 140.5,319.9 141.0,370.0 141.5,370.0 142.0,370.0 142.5,370.0 143.0,370.0 143.5,370.0 144.0,332.3 144.5,285.8 145.0,303.9 145.5,305.2 146.0,304.8 146.5,312.0 147.1,305.8 147.6,331.2 148.1,370.0 148.6,370.0 149.1,370.0 149.6,370.0 150.1,370.0 150.6,370.0 151.1,370.0 151.6,370.0 152.1,370.0 152.6,370.0 153.1,370.0 153.6,370.0 154.2,370.0 154.7,370.0 155.2,370.0 155.7,370.0 156.2,370.0 156.7,370.0 157.2,370.0 157.7,370.0 158.2,370.0 158.7,370.0 159.2,370.0 159.7,370.0 160.2,370.0 160.7,370.0 161.2,370.0 161.8,370.0 162.3,331.6 162.8,356.0 163.3,275.5 163.8,273.1 164.3,262.1 164.8,246.5 165.3,370.0 165.8,370.0 166.3,370.0 166.8,370.0 167.3,370.0 167.8,370.0 168.3,370.0 168.9,366.9 169.4,369.1 169.9,331.6 170.4,370.0 170.9,370.0 171.4,370.0 171.9,370.0 172.4,370.0 172.9,370.0 173.4,370.0 173.9,370.0 174.4,370.0 174.9,370.0 175.4,370.0 176.0,370.0 176.5,370.0 177.0,370.0 177.5,370.0 178.0,370.0 178.5,370.0 179.0,370.0 179.5,370.0 180.0,370.0 180.5,370.0 181.0,370.0 181.5,370.0 182.0,370.0 182.5,370.0 183.0,370.0 183.6,370.0 184.1,345.0 184.6,350.3 185.1,340.5 185.6,306.3 186.1,263.1 186.6,273.8 187.1,256.5 187.6,272.9 188.1,292.3 188.6,327.0 189.1,296.3 189.6,290.0 190.1,370.0 190.7,370.0 191.2,370.0 191.7,370.0 192.2,370.0 192.7,360.5 193.2,370.0 193.7,370.0 194.2,370.0 194.7,370.0 195.2,370.0 195.7,370.0 196.2,370.0 196.7,370.0 197.2,370.0 197.8,370.0 198.3,370.0 198.8,370.0 199.3,370.0 199.8,370.0 200.3,370.0 200.8,370.0 201.3,370.0 201.8,370.0 202.3,370.0 202.8,370.0 203.3,370.0 203.8,370.0 204.3,370.0 204.8,370.0 205.4,370.0 205.9,341.1 206.4,340.6 206.9,366.4 207.4,331.4 207.9,312.8 208.4,239.4 208.9,271.7 209.4,249.8 209.9,257.4 210.4,252.7 210.9,177.5 211.4,106.5 211.9,108.3 212.5,75.1 213.0,38.0 213.5,93.5 214.0,140.4 214.5,77.2 215.0,124.8 215.5,75.6 216.0,370.0 216.5,325.0 217.0,269.1 217.5,370.0 218.0,370.0 218.5,370.0 219.0,370.0 219.5,370.0 220.1,370.0 220.6,370.0 221.1,370.0 221.6,370.0 222.1,370.0 222.6,370.0 223.1,370.0 223.6,370.0 224.1,370.0 224.6,370.0 225.1,370.0 225.6,370.0 226.1,370.0 226.6,370.0 227.2,358.9 227.7,328.1 228.2,340.6 228.7,300.5 229.2,267.3 229.7,315.8 230.2,304.9 230.7,336.1 231.2,250.7 231.7,296.7 232.2,214.2 232.7,211.9 233.2,249.9 233.7,284.9 234.2,191.7 234.8,138.3 235.3,168.7 235.8,180.1 236.3,192.0 236.8,184.5 237.3,128.6 237.8,140.4 238.3,370.0 238.8,370.0 239.3,370.0 239.8,370.0 240.3,370.0 240.8,370.0 241.3,370.0 241.9,370.0 242.4,370.0 242.9,370.0 243.4,370.0 243.9,370.0 244.4,370.0 244.9,370.0 245.4,370.0 245.9,370.0 246.4,342.6 246.9,310.3 247.4,292.8 247.9,249.3 248.4,294.6 249.0,259.1 249.5,249.1 250.0,215.6 250.5,221.4 251.0,370.0 251.5,370.0 252.0,370.0 252.5,370.0 253.0,370.0 253.5,370.0 254.0,370.0 254.5,370.0 255.0,370.0 255.5,370.0 256.0,370.0 256.6,370.0 257.1,370.0 257.6,370.0 258.1,370.0 258.6,370.0 259.1,370.0 259.6,370.0 260.1,365.3 260.6,347.3 261.1,317.1 261.6,335.6 262.1,346.6 262.6,370.0 263.1,333.9 263.7,270.1 264.2,312.5 264.7,260.0 265.2,236.9 265.7,213.7 266.2,210.8 266.7,206.8 267.2,239.4 267.7,288.7 268.2,309.1 268.7,208.3 269.2,177.9 269.7,150.6 270.2,199.1 270.8,216.6 271.3,198.1 271.8,125.9 272.3,99.3 272.8,147.0 273.3,120.7 273.8,168.9 274.3,181.0 274.8,370.0 275.3,370.0 275.8,370.0 276.3,370.0 276.8,370.0 277.3,370.0 277.8,370.0 278.4,370.0 278.9,370.0 279.4,370.0 279.9,370.0 280.4,370.0 280.9,370.0 281.4,370.0 281.9,370.0 282.4,370.0 282.9,370.0 283.4,370.0 283.9,370.0 284.4,370.0 284.9,370.0 285.5,370.0 286.0,370.0 286.5,308.5 287.0,329.1 287.5,346.9 288.0,297.0 288.5,298.3 289.0,331.8 289.5,255.1 290.0,212.1 290.5,203.9 291.0,205.1 291.5,189.7 292.0,212.3 292.5,258.3 293.1,344.1 293.6,340.6 294.1,342.9 294.6,352.2 295.1,306.2 295.6,364.2 296.1,370.0 296.6,370.0 297.1,370.0 297.6,370.0 298.1,370.0 298.6,370.0 299.1,370.0 299.6,370.0 300.2,370.0 300.7,370.0 301.2,370.0 301.7,370.0 302.2,370.0 302.7,370.0 303.2,370.0 303.7,370.0 304.2,370.0 304.7,370.0 305.2,370.0 305.7,370.0 306.2,370.0 306.7,370.0 307.2,370.0 307.8,370.0 308.3,370.0 308.8,370.0 309.3,358.3 309.8,370.0 310.3,370.0 310.8,370.0 311.3,370.0 311.8,370.0 312.3,370.0 312.8,364.8 313.3,299.0 313.8,322.6 314.3,296.7 314.9,364.4 315.4,329.3 315.9,319.5 316.4,305.5 316.9,353.4 317.4,352.1 317.9,370.0 318.4,370.0 318.9,370.0 319.4,370.0 319.9,370.0 320.4,370.0 320.9,370.0 321.4,370.0 322.0,370.0 322.5,370.0 323.0,370.0 323.5,370.0 324.0,370.0 324.5,370.0 325.0,370.0 325.5,370.0 326.0,370.0 326.5,370.0 327.0,370.0 327.5,370.0 328.0,370.0 328.5,370.0 329.0,370.0 329.6,370.0 330.1,370.0 330.6,370.0 331.1,370.0 331.6,291.7 332.1,367.1 332.6,339.3 333.1,294.6 333.6,327.4 334.1,370.0 334.6,370.0 335.1,370.0 335.6,370.0 336.1,370.0 336.7,370.0 337.2,370.0 337.7,342.1 338.2,334.0 338.7,337.4 339.2,339.0 339.7,359.1 340.2,370.0 340.7,370.0 341.2,370.0 341.7,370.0 342.2,370.0 342.7,370.0 343.2,370.0 343.8,370.0 344.3,370.0 344.8,370.0 345.3,370.0 345.8,370.0 346.3,370.0 346.8,370.0 347.3,370.0 347.8,370.0 348.3,370.0 348.8,370.0 349.3,370.0 349.8,370.0 350.3,370.0 350.8,370.0 351.4,370.0 351.9,370.0 352.4,370.0 352.9,370.0 353.4,370.0 353.9,328.3 354.4,322.4 354.9,285.5 355.4,300.5 355.9,298.8 356.4,218.2 356.9,210.6 357.4,223.1 357.9,199.8 358.5,287.2 359.0,370.0 359.5,370.0 360.0,370.0 360.5,370.0 361.0,370.0 361.5,370.0 362.0,336.0 362.5,370.0 363.0,370.0 363.5,370.0 364.0,370.0 364.5,370.0 365.0,370.0 365.5,370.0 366.1,370.0 366.6,370.0 367.1,370.0 367.6,370.0 368.1,370.0 368.6,370.0 369.1,370.0 369.6,370.0 370.1,370.0 370.6,370.0 371.1,370.0 371.6,370.0 372.1,370.0 372.6,370.0 373.2,370.0 373.7,370.0 374.2,370.0 374.7,370.0 375.2,370.0 375.7,370.0 376.2,337.7 376.7,310.2 377.2,335.8 377.7,306.6 378.2,275.8 378.7,251.2 379.2,261.5 379.7,281.0 380.2,257.4 380.8,243.6 381.3,220.8 381.8,221.4 382.3,210.9 382.8,251.8 383.3,248.0 383.8,260.8 384.3,273.3 384.8,370.0 385.3,370.0 385.8,370.0 386.3,370.0 386.8,370.0 387.3,370.0 387.9,370.0 388.4,370.0 388.9,370.0 389.4,370.0 389.9,370.0 390.4,370.0 390.9,370.0 391.4,370.0 391.9,370.0 392.4,370.0 392.9,370.0 393.4,370.0 393.9,370.0 394.4,370.0 395.0,370.0 395.5,370.0 396.0,370.0 396.5,370.0 397.0,279.5 397.5,326.3 398.0,359.2 398.5,297.6 399.0,340.8 399.5,369.1 400.0,347.3 400.5,302.7 401.0,316.1 401.5,320.8 402.0,312.2 402.6,235.6 403.1,302.9 403.6,322.2 404.1,338.4 404.6,304.8 405.1,309.2 405.6,322.1 406.1,365.7 406.6,332.3 407.1,307.5 407.6,338.4 408.1,265.8 408.6,370.0 409.1,363.6 409.7,338.6 410.2,356.4 410.7,351.0 411.2,276.6 411.7,279.8 412.2,347.2 412.7,331.4 413.2,313.4 413.7,298.2 414.2,278.2 414.7,370.0 415.2,370.0 415.7,370.0 416.2,370.0 416.8,370.0 417.3,327.9 417.8,321.2 418.3,291.4 418.8,363.7 419.3,322.8 419.8,229.1 420.3,191.6 420.8,133.0 421.3,164.2 421.8,164.0 422.3,219.5 422.8,230.2 423.3,320.4 423.8,290.2 424.4,256.2 424.9,243.5 425.4,240.1 425.9,370.0 426.4,370.0 426.9,370.0 427.4,370.0 427.9,370.0 428.4,370.0 428.9,370.0 429.4,370.0 429.9,370.0 430.4,370.0 430.9,370.0 431.5,370.0 432.0,370.0 432.5,370.0 433.0,370.0 433.5,370.0 434.0,370.0 434.5,356.9 435.0,306.5 435.5,310.9 436.0,332.6 436.5,316.6 437.0,275.5 437.5,237.4 438.0,219.8 438.5,255.3 439.1,243.5 439.6,205.3 440.1,214.3 440.6,169.0 441.1,150.2 441.6,124.6 442.1,117.9 442.6,138.3 443.1,72.1 443.6,91.2 444.1,87.9 444.6,109.3 445.1,370.0 445.6,370.0 446.2,370.0 446.7,370.0 447.2,370.0 447.7,370.0 448.2,370.0 448.7,370.0 449.2,370.0 449.7,370.0 450.2,370.0 450.7,370.0 451.2,370.0 451.7,370.0 452.2,370.0 452.7,370.0 453.2,370.0 453.8,315.5 454.3,289.3 454.8,301.0 455.3,370.0 455.8,330.7 456.3,276.8 456.8,298.8 457.3,279.0 457.8,287.1 458.3,275.5 458.8,323.8 459.3,320.1 459.8,314.3 460.3,324.9 460.9,350.8 461.4,341.3 461.9,345.5 462.4,313.3 462.9,365.3 463.4,365.8 463.9,357.8 464.4,347.7 464.9,288.4 465.4,203.3 465.9,370.0 466.4,370.0 466.9,370.0 467.4,370.0 468.0,370.0 468.5,370.0 469.0,370.0 469.5,370.0 470.0,370.0 470.5,370.0 471.0,370.0 471.5,370.0 472.0,370.0 472.5,370.0 473.0,370.0 473.5,370.0 474.0,370.0 474.5,370.0 475.0,370.0 475.6,370.0 476.1,370.0 476.6,370.0 477.1,370.0 477.6,370.0 478.1,370.0 478.6,366.6 479.1,370.0 479.6,370.0 480.1,370.0 480.6,370.0 481.1,342.0 481.6,350.7 482.1,311.0 482.7,367.9 483.2,361.6 483.7,343.1 484.2,364.8 484.7,320.2 485.2,362.8 485.7,353.7 486.2,361.2 486.7,325.3 487.2,325.2 487.7,370.0 488.2,370.0 488.7,370.0 489.2,370.0 489.7,370.0 490.3,370.0 490.8,370.0 491.3,370.0 491.8,370.0 492.3,370.0 492.8,370.0 493.3,370.0 493.8,370.0 494.3,370.0 494.8,370.0 495.3,370.0 495.8,370.0 496.3,370.0 496.8,370.0 497.4,370.0 497.9,370.0 498.4,370.0 498.9,370.0 499.4,370.0 499.9,370.0 500.4,370.0 500.9,370.0 501.4,333.5 501.9,342.1 502.4,342.1 502.9,370.0 503.4,370.0 503.9,370.0 504.5,370.0 505.0,370.0 505.5,370.0 506.0,370.0 506.5,345.9 507.0,365.7 507.5,343.1 508.0,368.1 508.5,346.0 509.0,341.4 509.5,370.0 510.0,370.0 510.5,370.0 511.0,370.0 511.5,370.0 512.1,370.0 512.6,370.0 513.1,370.0 513.6,370.0 514.1,370.0 514.6,370.0 515.1,370.0 515.6,370.0 516.1,370.0 516.6,370.0 517.1,370.0 517.6,370.0 518.1,370.0 518.6,370.0 519.2,370.0 519.7,370.0 520.2,370.0 520.7,370.0 521.2,370.0 521.7,370.0 522.2,370.0 522.7,370.0 523.2,370.0 523.7,365.8 524.2,342.2 524.7,293.0 525.2,262.4 525.7,217.9 526.2,204.1 526.8,224.3 527.3,370.0 527.8,370.0 528.3,370.0 528.8,370.0 529.3,370.0 529.8,370.0 530.3,370.0 530.8,308.0 531.3,339.8 531.8,366.9 532.3,370.0 532.8,370.0 533.3,370.0 533.9,370.0 534.4,370.0 534.9,370.0 535.4,370.0 535.9,370.0 536.4,370.0 536.9,370.0 537.4,370.0 537.9,370.0 538.4,370.0 538.9,370.0 539.4,370.0 539.9,370.0 540.4,370.0 541.0,370.0 541.5,370.0 542.0,370.0 542.5,370.0 543.0,370.0 543.5,370.0 544.0,370.0 544.5,370.0 545.0,370.0 545.5,370.0 546.0,348.7 546.5,330.8 547.0,303.4 547.5,326.9 548.0,227.6 548.6,229.2 549.1,288.7 549.6,206.3 550.1,216.9 550.6,331.2 551.1,288.5 551.6,367.6 552.1,353.1 552.6,352.7 553.1,370.0 553.6,370.0 554.1,370.0 554.6,362.5 555.1,370.0 555.7,370.0 556.2,370.0 556.7,370.0 557.2,370.0 557.7,370.0 558.2,370.0 558.7,370.0 559.2,370.0 559.7,370.0 560.2,370.0 560.7,370.0 561.2,370.0 561.7,370.0 562.2,370.0 562.8,370.0 563.3,370.0 563.8,370.0 564.3,370.0 564.8,370.0 565.3,370.0 565.8,370.0 566.3,370.0 566.8,370.0 567.3,332.7 567.8,293.6 568.3,259.1 568.8,254.8 569.3,203.9 569.8,189.0 570.4,160.1 570.9,240.7 571.4,277.3 571.9,322.7 572.4,292.1 572.9,318.9 573.4,305.6 573.9,355.8 574.4,335.1 574.9,311.0 575.4,292.0 575.9,292.6 576.4,199.5 576.9,221.7 577.5,164.9 578.0,370.0 578.5,339.4 579.0,317.4 579.5,255.9 580.0,227.4 580.5,215.6 581.0,370.0 581.5,370.0 582.0,370.0 582.5,370.0 583.0,370.0 583.5,370.0 584.0,370.0 584.5,370.0 585.1,370.0 585.6,370.0 586.1,370.0 586.6,370.0 587.1,370.0 587.6,370.0 588.1,360.2 588.6,357.1 589.1,306.9 589.6,345.2 590.1,279.1 590.6,225.6 591.1,224.1 591.6,218.0 592.2,189.0 592.7,183.7 593.2,143.6 593.7,173.9 594.2,153.2 594.7,129.2 595.2,147.2 595.7,222.5 596.2,190.6 596.7,255.4 597.2,295.9 597.7,370.0 598.2,370.0 598.7,370.0 599.2,370.0 599.8,370.0 600.3,370.0 600.8,370.0 601.3,370.0 601.8,370.0 602.3,370.0 602.8,370.0 603.3,370.0 603.8,370.0 604.3,370.0 604.8,370.0 605.3,370.0 605.8,370.0 606.3,370.0 606.9,352.9 607.4,348.2 607.9,288.9 608.4,270.3 608.9,243.2 609.4,283.8 609.9,277.5 610.4,255.2 610.9,192.2 611.4,220.8 611.9,252.1 612.4,130.1 612.9,96.1 613.4,109.1 614.0,80.8 614.5,91.8 615.0,112.3 615.5,370.0 616.0,370.0 616.5,370.0 617.0,370.0 617.5,370.0 618.0,370.0 618.5,370.0 619.0,370.0 619.5,370.0 620.0,370.0 620.5,369.0 621.0,308.3 621.6,296.4 622.1,309.3 622.6,358.5 623.1,369.4 623.6,289.7 624.1,232.8 624.6,370.0 625.1,299.8 625.6,323.2 626.1,333.4 626.6,365.9 627.1,337.0 627.6,344.7 628.1,342.3 628.7,265.2 629.2,330.7 629.7,323.2 630.2,362.7 630.7,359.4 631.2,346.7 631.7,357.2 632.2,348.1 632.7,359.8 633.2,353.1 633.7,358.3 634.2,352.2 634.7,354.0 635.2,363.3 635.8,357.2 636.3,370.0 636.8,370.0 637.3,370.0 637.8,370.0 638.3,370.0 638.8,370.0 639.3,370.0 639.8,370.0 640.3,370.0 640.8,370.0 641.3,370.0 641.8,370.0 642.3,370.0 642.8,370.0 643.4,370.0 643.9,370.0 644.4,370.0 644.9,370.0 645.4,370.0 645.9,370.0 646.4,370.0 646.9,370.0 647.4,370.0 647.9,370.0 648.4,370.0 648.9,370.0 649.4,345.2 649.9,298.3 650.5,320.1 651.0,340.2 651.5,365.2 652.0,310.9 652.5,306.3 653.0,307.3 653.5,335.8 654.0,363.2 654.5,361.4 655.0,357.4 655.5,351.7 656.0,320.3 656.5,241.8 657.0,236.3 657.5,370.0 658.1,370.0 658.6,370.0 659.1,370.0 659.6,370.0 660.1,370.0 660.6,370.0 661.1,370.0 661.6,370.0 662.1,370.0 662.6,370.0 663.1,370.0 663.6,370.0 664.1,370.0 664.6,370.0 665.2,370.0 665.7,370.0 666.2,370.0 666.7,370.0 667.2,370.0 667.7,370.0 668.2,370.0 668.7,370.0 669.2,370.0 669.7,370.0 670.2,370.0 670.7,274.2 671.2,271.1 671.7,370.0 672.2,370.0 672.8,370.0 673.3,370.0 673.8,370.0 674.3,370.0 674.8,370.0 675.3,333.2 675.8,340.8 676.3,369.7 676.8,345.7 677.3,368.6 677.8,345.4 678.3,280.3 678.8,302.5 679.3,370.0 679.9,370.0 680.4,370.0 680.9,370.0 681.4,370.0 681.9,370.0 682.4,370.0 682.9,370.0 683.4,370.0 683.9,370.0 684.4,370.0 684.9,370.0 685.4,370.0 685.9,370.0 686.4,370.0 687.0,370.0 687.5,370.0 688.0,370.0 688.5,370.0 689.0,370.0 689.5,370.0 690.0,370.0 690.5,370.0 691.0,370.0 691.5,370.0 692.0,370.0 692.5,370.0 693.0,370.0 693.5,365.9 694.0,349.5 694.6,369.5 695.1,352.4 695.6,334.6 696.1,370.0 696.6,370.0 697.1,370.0 697.6,370.0 698.1,370.0 698.6,370.0 699.1,370.0 699.6,293.6 700.1,244.5 700.6,247.3 701.1,224.2 701.7,370.0 702.2,370.0 702.7,370.0 703.2,370.0 703.7,370.0 704.2,370.0 704.7,370.0 705.2,370.0 705.7,370.0 706.2,370.0 706.7,370.0 707.2,370.0 707.7,370.0 708.2,370.0 708.8,370.0 709.3,370.0 709.8,370.0 710.3,370.0 710.8,370.0 711.3,370.0 711.8,370.0 712.3,370.0 712.8,370.0 713.3,370.0 713.8,370.0 714.3,370.0 714.8,370.0 715.3,370.0 715.8,305.4 716.4,243.2 716.9,225.3 717.4,216.2 717.9,214.0 718.4,175.1 718.9,215.1 719.4,272.1 719.9,304.5 720.4,328.1 720.9,286.1 721.4,370.0 721.9,370.0 722.4,370.0 722.9,370.0 723.5,370.0 724.0,353.2 724.5,370.0 725.0,370.0 725.5,370.0 726.0,370.0 726.5,370.0 727.0,370.0 727.5,370.0 728.0,370.0 728.5,370.0 729.0,370.0 729.5,370.0 730.0,370.0 730.5,370.0 731.1,370.0 731.6,370.0 732.1,370.0 732.6,370.0 733.1,370.0 733.6,370.0 734.1,370.0 734.6,370.0 735.1,370.0 735.6,370.0 736.1,370.0 736.6,370.0 737.1,370.0 737.6,334.6 738.2,278.5 738.7,295.5 739.2,300.2 739.7,339.7 740.2,314.4 740.7,367.9 741.2,322.7 741.7,302.3 742.2,292.5 742.7,234.9 743.2,261.2 743.7,238.6 744.2,244.6 744.7,261.8 745.2,208.8 745.8,245.6 746.3,261.5 746.8,223.5 747.3,370.0 747.8,364.8 748.3,370.0 748.8,370.0 749.3,370.0 749.8,370.0 750.3,370.0 750.8,370.0 751.3,370.0 751.8,370.0 752.3,370.0 752.9,370.0 753.4,370.0 753.9,370.0 754.4,370.0 754.9,370.0 755.4,370.0 755.9,370.0 756.4,370.0 756.9,370.0 757.4,370.0 757.9,370.0 758.4,330.4 758.9,359.6 759.4,370.0 760.0,322.4 760.5,298.8 761.0,227.3 761.5,150.6 762.0,179.1 762.5,174.5 763.0,185.6 763.5,171.0 764.0,97.9 764.5,148.8 765.0,160.2 765.5,200.6 766.0,142.7 766.5,80.7 767.0,82.4 767.6,92.3 768.1,135.9 768.6,171.0 769.1,185.1 769.6,212.7 770.1,196.8 770.6,370.0 771.1,370.0 771.6,370.0 772.1,370.0 772.6,370.0 773.1,370.0 773.6,370.0 774.1,370.0 774.7,370.0 775.2,370.0 775.7,370.0 776.2,370.0 776.7,370.0 777.2,370.0 777.7,370.0 778.2,313.2 778.7,367.4 779.2,326.8 779.7,368.3 780.2,370.0 780.7,370.0 781.2,370.0 781.8,370.0 782.3,370.0 782.8,370.0 783.3,370.0 783.8,370.0 784.3,370.0 784.8,370.0 785.3,370.0 785.8,324.3 786.3,370.0 786.8,370.0 787.3,370.0 787.8,370.0 788.3,370.0 788.8,370.0 789.4,370.0 789.9,370.0 790.4,370.0 790.9,370.0 791.4,370.0 791.9,370.0 792.4,370.0 792.9,370.0 793.4,302.8 793.9,370.0 794.4,363.3 794.9,348.6 795.4,352.2 795.9,356.4 796.5,280.5 797.0,273.3 797.5,303.7 798.0,283.7 798.5,245.0 799.0,151.6 799.5,108.6 800.0,153.5"/><polyline fill="none" stroke="#2471a3" stroke-width="2" points="70.0,370.0 70.5,370.0 71.0,370.0 71.5,370.0 72.0,370.0 72.5,370.0 73.0,370.0 73.5,370.0 74.1,370.0 74.6,370.0 75.1,370.0 75.6,370.0 76.1,370.0 76.6,370.0 77.1,370.0 77.6,370.0 78.1,370.0 78.6,370.0 79.1,370.0 79.6,370.0 80.1,370.0 80.6,370.0 81.2,370.0 81.7,370.0 82.2,370.0 82.7,370.0 83.2,370.0 83.7,370.0 84.2,370.0 84.7,370.0 85.2,370.0 85.7,370.0 86.2,370.0 86.7,370.0 87.2,370.0 87.7,370.0 88.2,370.0 88.8,370.0 89.3,370.0 89.8,370.0 90.3,370.0 90.8,370.0 91.3,370.0 91.8,370.0 92.3,370.0 92.8,370.0 93.3,370.0 93.8,370.0 94.3,370.0 94.8,370.0 95.3,370.0 95.9,370.0 96.4,370.0 96.9,370.0 97.4,370.0 97.9,370.0 98.4,370.0 98.9,370.0 99.4,370.0 99.9,370.0 100.4,370.0 100.9,370.0 101.4,370.0 101.9,370.0 102.4,370.0 103.0,370.0 103.5,370.0 104.0,370.0 104.5,370.0 105.0,370.0 105.5,370.0 106.0,370.0 106.5,370.0 107.0,370.0 107.5,370.0 108.0,370.0 108.5,370.0 109.0,370.0 109.5,370.0 110.0,370.0 110.6,370.0 111.1,370.0 111.6,370.0 112.1,370.0 112.6,370.0 113.1,370.0 113.6,370.0 114.1,370.0 114.6,370.0 115.1,370.0 115.6,370.0 116.1,370.0 116.6,370.0 117.1,370.0 117.7,370.0 118.2,370.0 118.7,370.0 119.2,370.0 119.7,370.0 120.2,370.0 120.7,370.0 121.2,370.0 121.7,370.0 122.2,370.0 122.7,370.0 123.2,370.0 123.7,370.0 124.2,370.0 124.8,370.0 125.3,370.0 125.8,370.0 126.3,370.0 126.8,370.0 127.3,370.0 127.8,370.0 128.3,370.0 128.8,370.0 129.3,370.0 129.8,370.0 130.3,370.0 130.8,370.0 131.3,370.0 131.8,370.0 132.4,370.0 132.9,370.0 133.4,370.0 133.9,370.0 134.4,370.0 134.9,370.0 135.4,370.0 135.9,370.0 136.4,370.0 136.9,370.0 137.4,370.0 137.9,370.0 138.4,370.0 138.9,370.0 139.5,370.0 140.0,370.0 140.5,370.0 141.0,370.0 141.5,370.0 142.0,370.0 142.5,370.0 143.0,370.0 143.5,370.0 144.0,370.0 144.5,370.0 145.0,370.0 145.5,370.0 146.0,370.0 146.5,370.0 147.1,370.0 147.6,370.0 148.1,370.0 148.6,370.0 149.1,370.0 149.6,370.0 150.1,370.0 150.6,370.0 151.1,370.0 151.6,370.0 152.1,370.0 152.6,370.0 153.1,370.0 153.6,370.0 154.2,370.0 154.7,370.0 155.2,370.0 155.7,370.0 156.2,370.0 156.7,370.0 157.2,370.0 157.7,370.0 158.2,370.0 158.7,370.0 159.2,370.0 159.7,370.0 160.2,370.0 160.7,370.0 161.2,370.0 161.8,370.0 162.3,370.0 162.8,370.0 163.3,370.0 163.8,370.0 164.3,370.0 164.8,370.0 165.3,370.0 165.8,370.0 166.3,370.0 166.8,370.0 167.3,370.0 167.8,370.0 168.3,370.0 168.9,370.0 169.4,370.0 169.9,370.0 170.4,370.0 170.9,370.0 171.4,370.0 171.9,370.0 172.4,370.0 172.9,370.0 173.4,370.0 173.9,370.0 174.4,370.0 174.9,370.0 175.4,370.0 176.0,370.0 176.5,370.0 177.0,370.0 177.5,370.0 178.0,370.0 178.5,370.0 179.0,370.0 179.5,370.0 180.0,370.0 180.5,370.0 181.0,370.0 181.5,370.0 182.0,370.0 182.5,370.0 183.0,370.0 183.6,370.0 184.1,370.0 184.6,370.0 185.1,370.0 185.6,370.0 186.1,370.0 186.6,370.0 187.1,370.0 187.6,370.0 188.1,370.0 188.6,370.0 189.1,370.0 189.6,370.0 190.1,370.0 190.7,370.0 191.2,370.0 191.7,370.0 192.2,370.0 192.7,370.0 193.2,370.0 193.7,370.0 194.2,370.0 194.7,370.0 195.2,370.0 195.7,370.0 196.2,370.0 196.7,370.0 197.2,370.0 197.8,370.0 198.3,370.0 198.8,370.0 199.3,370.0 199.8,370.0 200.3,370.0 200.8,370.0 201.3,370.0 201.8,370.0 202.3,370.0 202.8,370.0 203.3,370.0 203.8,370.0 204.3,370.0 204.8,370.0 205.4,370.0 205.9,370.0 206.4,370.0 206.9,370.0 207.4,370.0 207.9,370.0 208.4,370.0 208.9,370.0 209.4,370.0 209.9,370.0 210.4,370.0 210.9,370.0 211.4,370.0 211.9,370.0 212.5,370.0 213.0,370.0 213.5,370.0 214.0,370.0 214.5,370.0 215.0,370.0 215.5,370.0 216.0,370.0 216.5,370.0 217.0,370.0 217.5,370.0 218.0,370.0 218.5,370.0 219.0,370.0 219.5,370.0 220.1,370.0 220.6,370.0 221.1,370.0 221.6,370.0 222.1,370.0 222.6,370.0 223.1,370.0 223.6,370.0 224.1,370.0 224.6,370.0 225.1,370.0 225.6,370.0 226.1,370.0 226.6,370.0 227.2,370.0 227.7,370.0 228.2,370.0 228.7,370.0 229.2,370.0 229.7,370.0 230.2,370.0 230.7,370.0 231.2,370.0 231.7,370.0 232.2,370.0 232.7,370.0 233.2,370.0 233.7,370.0 234.2,370.0 234.8,370.0 235.3,370.0 235.8,370.0 236.3,370.0 236.8,370.0 237.3,370.0 237.8,370.0 238.3,370.0 238.8,370.0 239.3,370.0 239.8,370.0 240.3,370.0 240.8,370.0 241.3,370.0 241.9,370.0 242.4,370.0 242.9,370.0 243.4,370.0 243.9,370.0 244.4,370.0 244.9,370.0 245.4,370.0 245.9,370.0 246.4,370.0 246.9,370.0 247.4,370.0 247.9,370.0 248.4,370.0 249.0,370.0 249.5,370.0 250.0,370.0 250.5,370.0 251.0,370.0 251.5,370.0 252.0,370.0 252.5,370.0 253.0,370.0 253.5,370.0 254.0,370.0 254.5,370.0 255.0,370.0 255.5,370.0 256.0,370.0 256.6,370.0 257.1,370.0 257.6,370.0 258.1,370.0 258.6,370.0 259.1,370.0 259.6,370.0 260.1,370.0 260.6,370.0 261.1,370.0 261.6,370.0 262.1,370.0 262.6,370.0 263.1,370.0 263.7,370.0 264.2,370.0 264.7,370.0 265.2,370.0 265.7,370.0 266.2,370.0 266.7,370.0 267.2,370.0 267.7,370.0 268.2,370.0 268.7,370.0 269.2,370.0 269.7,370.0 270.2,370.0 270.8,370.0 271.3,370.0 271.8,370.0 272.3,370.0 272.8,370.0 273.3,370.0 273.8,370.0 274.3,370.0 274.8,370.0 275.3,370.0 275.8,370.0 276.3,370.0 276.8,370.0 277.3,370.0 277.8,370.0 278.4,370.0 278.9,370.0 279.4,370.0 279.9,370.0 280.4,370.0 280.9,370.0 281.4,370.0 281.9,370.0 282.4,370.0 282.9,370.0 283.4,370.0 283.9,370.0 284.4,370.0 284.9,370.0 285.5,370.0 286.0,370.0 286.5,370.0 287.0,370.0 287.5,370.0 288.0,370.0 288.5,370.0 289.0,370.0 289.5,370.0 290.0,370.0 290.5,370.0 291.0,370.0 291.5,370.0 292.0,370.0 292.5,370.0 293.1,370.0 293.6,370.0 294.1,370.0 294.6,370.0 295.1,370.0 295.6,370.0 296.1,370.0 296.6,370.0 297.1,370.0 297.6,370.0 298.1,370.0 298.6,370.0 299.1,370.0 299.6,370.0 300.2,370.0 300.7,370.0 301.2,370.0 301.7,370.0 302.2,370.0 302.7,370.0 303.2,370.0 303.7,370.0 304.2,370.0 304.7,370.0 305.2,370.0 305.7,370.0 306.2,370.0 306.7,370.0 307.2,370.0 307.8,370.0 308.3,370.0 308.8,370.0 309.3,370.0 309.8,370.0 310.3,370.0 310.8,370.0 311.3,370.0 311.8,370.0 312.3,370.0 312.8,370.0 313.3,370.0 313.8,370.0 314.3,370.0 314.9,370.0 315.4,370.0 315.9,370.0 316.4,370.0 316.9,370.0 317.4,370.0 317.9,370.0 318.4,370.0 318.9,370.0 319.4,370.0 319.9,370.0 320.4,370.0 320.9,370.0 321.4,370.0 322.0,370.0 322.5,370.0 323.0,370.0 323.5,370.0 324.0,370.0 324.5,370.0 325.0,370.0 325.5,370.0 326.0,370.0 326.5,370.0 327.0,370.0 327.5,370.0 328.0,370.0 328.5,370.0 329.0,370.0 329.6,370.0 330.1,370.0 330.6,370.0 331.1,370.0 331.6,370.0 332.1,370.0 332.6,370.0 333.1,370.0 333.6,370.0 334.1,370.0 334.6,370.0 335.1,370.0 335.6,370.0 336.1,370.0 336.7,370.0 337.2,370.0 337.7,370.0 338.2,370.0 338.7,370.0 339.2,370.0 339.7,370.0 340.2,370.0 340.7,370.0 341.2,370.0 341.7,370.0 342.2,370.0 342.7,370.0 343.2,370.0 343.8,370.0 344.3,370.0 344.8,370.0 345.3,370.0 345.8,370.0 346.3,370.0 346.8,370.0 347.3,370.0 347.8,370.0 348.3,370.0 348.8,370.0 349.3,370.0 349.8,370.0 350.3,370.0 350.8,370.0 351.4,370.0 351.9,370.0 352.4,370.0 352.9,370.0 353.4,370.0 353.9,370.0 354.4,370.0 354.9,370.0 355.4,370.0 355.9,370.0 356.4,370.0 356.9,370.0 357.4,370.0 357.9,370.0 358.5,370.0 359.0,370.0 359.5,370.0 360.0,370.0 360.5,370.0 361.0,370.0 361.5,370.0 362.0,370.0 362.5,370.0 363.0,370.0 363.5,370.0 364.0,370.0 364.5,370.0 365.0,370.0 365.5,370.0 366.1,370.0 366.6,370.0 367.1,370.0 367.6,370.0 368.1,370.0 368.6,370.0 369.1,370.0 369.6,370.0 370.1,370.0 370.6,370.0 371.1,370.0 371.6,370.0 372.1,370.0 372.6,370.0 373.2,370.0 373.7,370.0 374.2,370.0 374.7,370.0 375.2,370.0 375.7,370.0 376.2,370.0 376.7,370.0 377.2,370.0 377.7,370.0 378.2,370.0 378.7,370.0 379.2,370.0 379.7,370.0 380.2,370.0 380.8,370.0 381.3,370.0 381.8,370.0 382.3,370.0 382.8,370.0 383.3,370.0 383.8,370.0 384.3,370.0 384.8,370.0 385.3,370.0 385.8,370.0 386.3,370.0 386.8,370.0 387.3,370.0 387.9,370.0 388.4,370.0 388.9,370.0 389.4,370.0 389.9,370.0 390.4,370.0 390.9,370.0 391.4,370.0 391.9,370.0 392.4,370.0 392.9,370.0 393.4,370.0 393.9,370.0 394.4,370.0 395.0,370.0 395.5,370.0 396.0,370.0 396.5,370.0 397.0,370.0 397.5,370.0 398.0,370.0 398.5,370.0 399.0,370.0 399.5,370.0 400.0,370.0 400.5,370.0 401.0,370.0 401.5,370.0 402.0,370.0 402.6,370.0 403.1,370.0 403.6,370.0 404.1,370.0 404.6,370.0 405.1,370.0 405.6,370.0 406.1,370.0 406.6,370.0 407.1,370.0 407.6,370.0 408.1,370.0 408.6,370.0 409.1,370.0 409.7,370.0 410.2,370.0 410.7,370.0 411.2,370.0 411.7,370.0 412.2,370.0 412.7,370.0 413.2,370.0 413.7,370.0 414.2,370.0 414.7,370.0 415.2,370.0 415.7,370.0 416.2,370.0 416.8,370.0 417.3,370.0 417.8,370.0 418.3,370.0 418.8,370.0 419.3,370.0 419.8,370.0 420.3,370.0 420.8,370.0 421.3,370.0 421.8,370.0 422.3,370.0 422.8,370.0 423.3,370.0 423.8,370.0 424.4,370.0 424.9,370.0 425.4,370.0 425.9,370.0 426.4,370.0 426.9,370.0 427.4,370.0 427.9,370.0 428.4,370.0 428.9,370.0 429.4,370.0 429.9,370.0 430.4,370.0 430.9,370.0 431.5,370.0 432.0,370.0 432.5,370.0 433.0,370.0 433.5,370.0 434.0,370.0 434.5,370.0 435.0,370.0 435.5,370.0 436.0,370.0 436.5,370.0 437.0,370.0 437.5,370.0 438.0,370.0 438.5,370.0 439.1,370.0 439.6,370.0 440.1,370.0 440.6,370.0 441.1,370.0 441.6,370.0 442.1,370.0 442.6,370.0 443.1,370.0 443.6,370.0 444.1,370.0 444.6,370.0 445.1,370.0 445.6,370.0 446.2,370.0 446.7,370.0 447.2,370.0 447.7,370.0 448.2,370.0 448.7,370.0 449.2,370.0 449.7,370.0 450.2,370.0 450.7,370.0 451.2,370.0 451.7,370.0 452.2,370.0 452.7,370.0 453.2,370.0 453.8,370.0 454.3,370.0 454.8,370.0 455.3,370.0 455.8,370.0 456.3,370.0 456.8,370.0 457.3,370.0 457.8,370.0 458.3,370.0 458.8,370.0 459.3,370.0 459.8,370.0 460.3,370.0 460.9,370.0 461.4,370.0 461.9,370.0 462.4,370.0 462.9,370.0 463.4,370.0 463.9,370.0 464.4,370.0 464.9,370.0 465.4,370.0 465.9,370.0 466.4,370.0 466.9,370.0 467.4,370.0 468.0,370.0 468.5,370.0 469.0,370.0 469.5,370.0 470.0,370.0 470.5,370.0 471.0,370.0 471.5,370.0 472.0,370.0 472.5,370.0 473.0,370.0 473.5,370.0 474.0,370.0 474.5,370.0 475.0,370.0 475.6,370.0 476.1,370.0 476.6,370.0 477.1,370.0 477.6,370.0 478.1,370.0 478.6,370.0 479.1,370.0 479.6,370.0 480.1,370.0 480.6,370.0 481.1,370.0 481.6,370.0 482.1,370.0 482.7,370.0 483.2,370.0 483.7,370.0 484.2,370.0 484.7,370.0 485.2,370.0 485.7,370.0 486.2,370.0 486.7,370.0 487.2,370.0 487.7,370.0 488.2,370.0 488.7,370.0 489.2,370.0 489.7,370.0 490.3,370.0 490.8,370.0 491.3,370.0 491.8,370.0 492.3,370.0 492.8,370.0 493.3,370.0 493.8,370.0 494.3,370.0 494.8,370.0 495.3,370.0 495.8,370.0 496.3,370.0 496.8,370.0 497.4,370.0 497.9,370.0 498.4,370.0 498.9,370.0 499.4,370.0 499.9,370.0 500.4,370.0 500.9,370.0 501.4,370.0 501.9,370.0 502.4,370.0 502.9,370.0 503.4,370.0 503.9,370.0 504.5,370.0 505.0,370.0 505.5,370.0 506.0,370.0 506.5,370.0 507.0,370.0 507.5,370.0 508.0,370.0 508.5,370.0 509.0,370.0 509.5,370.0 510.0,370.0 510.5,370.0 511.0,370.0 511.5,370.0 512.1,370.0 512.6,370.0 513.1,370.0 513.6,370.0 514.1,370.0 514.6,370.0 515.1,370.0 515.6,370.0 516.1,370.0 516.6,370.0 517.1,370.0 517.6,370.0 518.1,370.0 518.6,370.0 519.2,370.0 519.7,370.0 520.2,370.0 520.7,370.0 521.2,370.0 521.7,370.0 522.2,370.0 522.7,370.0 523.2,370.0 523.7,370.0 524.2,370.0 524.7,370.0 525.2,370.0 525.7,370.0 526.2,370.0 526.8,370.0 527.3,370.0 527.8,370.0 528.3,370.0 528.8,370.0 529.3,370.0 529.8,370.0 530.3,370.0 530.8,370.0 531.3,370.0 531.8,370.0 532.3,370.0 532.8,370.0 533.3,370.0 533.9,370.0 534.4,370.0 534.9,370.0 535.4,370.0 535.9,370.0 536.4,370.0 536.9,370.0 537.4,370.0 537.9,370.0 538.4,370.0 538.9,370.0 539.4,370.0 539.9,370.0 540.4,370.0 541.0,370.0 541.5,370.0 542.0,370.0 542.5,370.0 543.0,370.0 543.5,370.0 544.0,370.0 544.5,370.0 545.0,370.0 545.5,370.0 546.0,370.0 546.5,370.0 547.0,370.0 547.5,370.0 548.0,370.0 548.6,370.0 549.1,370.0 549.6,370.0 550.1,370.0 550.6,370.0 551.1,370.0 551.6,370.0 552.1,370.0 552.6,370.0 553.1,370.0 553.6,370.0 554.1,370.0 554.6,370.0 555.1,370.0 555.7,370.0 556.2,370.0 556.7,370.0 557.2,370.0 557.7,370.0 558.2,370.0 558.7,370.0 559.2,370.0 559.7,370.0 560.2,370.0 560.7,370.0 561.2,370.0 561.7,370.0 562.2,370.0 562.8,370.0 563.3,370.0 563.8,370.0 564.3,370.0 564.8,370.0 565.3,370.0 565.8,370.0 566.3,370.0 566.8,370.0 567.3,370.0 567.8,370.0 568.3,370.0 568.8,370.0 569.3,370.0 569.8,370.0 570.4,370.0 570.9,370.0 571.4,370.0 571.9,370.0 572.4,370.0 572.9,370.0 573.4,370.0 573.9,370.0 574.4,370.0 574.9,370.0 575.4,370.0 575.9,370.0 576.4,370.0 576.9,370.0 577.5,370.0 578.0,370.0 578.5,370.0 579.0,370.0 579.5,370.0 580.0,370.0 580.5,370.0 581.0,370.0 581.5,370.0 582.0,370.0 582.5,370.0 583.0,370.0 583.5,370.0 584.0,370.0 584.5,370.0 585.1,370.0 585.6,370.0 586.1,370.0 586.6,370.0 587.1,370.0 587.6,370.0 588.1,370.0 588.6,370.0 589.1,370.0 589.6,370.0 590.1,370.0 590.6,370.0 591.1,370.0 591.6,370.0 592.2,370.0 592.7,370.0 593.2,370.0 593.7,370.0 594.2,370.0 594.7,370.0 595.2,370.0 595.7,370.0 596.2,370.0 596.7,370.0 597.2,370.0 597.7,370.0 598.2,370.0 598.7,370.0 599.2,370.0 599.8,370.0 600.3,370.0 600.8,370.0 601.3,370.0 601.8,370.0 602.3,370.0 602.8,370.0 603.3,370.0 603.8,370.0 604.3,370.0 604.8,370.0 605.3,370.0 605.8,370.0 606.3,370.0 606.9,370.0 607.4,370.0 607.9,370.0 608.4,370.0 608.9,370.0 609.4,370.0 609.9,370.0 610.4,370.0 610.9,370.0 611.4,370.0 611.9,370.0 612.4,370.0 612.9,370.0 613.4,370.0 614.0,370.0 614.5,370.0 615.0,370.0 615.5,370.0 616.0,370.0 616.5,370.0 617.0,370.0 617.5,370.0 618.0,370.0 618.5,370.0 619.0,370.0 619.5,370.0 620.0,370.0 620.5,370.0 621.0,370.0 621.6,370.0 622.1,370.0 622.6,370.0 623.1,370.0 623.6,370.0 624.1,370.0 624.6,370.0 625.1,370.0 625.6,370.0 626.1,370.0 626.6,370.0 627.1,370.0 627.6,370.0 628.1,370.0 628.7,370.0 629.2,370.0 629.7,370.0 630.2,370.0 630.7,370.0 631.2,370.0 631.7,370.0 632.2,370.0 632.7,370.0 633.2,370.0 633.7,370.0 634.2,370.0 634.7,370.0 635.2,370.0 635.8,370.0 636.3,370.0 636.8,370.0 637.3,370.0 637.8,370.0 638.3,370.0 638.8,370.0 639.3,370.0 639.8,370.0 640.3,370.0 640.8,370.0 641.3,370.0 641.8,370.0 642.3,370.0 642.8,370.0 643.4,370.0 643.9,370.0 644.4,370.0 644.9,370.0 645.4,370.0 645.9,370.0 646.4,370.0 646.9,370.0 647.4,370.0 647.9,370.0 648.4,370.0 648.9,370.0 649.4,370.0 649.9,370.0 650.5,370.0 651.0,370.0 651.5,370.0 652.0,370.0 652.5,370.0 653.0,370.0 653.5,370.0 654.0,370.0 654.5,370.0 655.0,370.0 655.5,370.0 656.0,370.0 656.5,370.0 657.0,370.0 657.5,370.0 658.1,370.0 658.6,370.0 659.1,370.0 659.6,370.0 660.1,370.0 660.6,370.0 661.1,370.0 661.6,370.0 662.1,370.0 662.6,370.0 663.1,370.0 663.6,370.0 664.1,370.0 664.6,370.0 665.2,370.0 665.7,370.0 666.2,370.0 666.7,370.0 667.2,370.0 667.7,370.0 668.2,370.0 668.7,370.0 669.2,370.0 669.7,370.0 670.2,370.0 670.7,370.0 671.2,370.0 671.7,370.0 672.2,370.0 672.8,370.0 673.3,370.0 673.8,370.0 674.3,370.0 674.8,370.0 675.3,370.0 675.8,370.0 676.3,370.0 676.8,370.0 677.3,370.0 677.8,370.0 678.3,370.0 678.8,370.0 679.3,370.0 679.9,370.0 680.4,370.0 680.9,370.0 681.4,370.0 681.9,370.0 682.4,370.0 682.9,370.0 683.4,370.0 683.9,370.0 684.4,370.0 684.9,370.0 685.4,370.0 685.9,370.0 686.4,370.0 687.0,370.0 687.5,370.0 688.0,370.0 688.5,370.0 689.0,370.0 689.5,370.0 690.0,370.0 690.5,370.0 691.0,370.0 691.5,370.0 692.0,370.0 692.5,370.0 693.0,370.0 693.5,370.0 694.0,370.0 694.6,370.0 695.1,370.0 695.6,370.0 696.1,370.0 696.6,370.0 697.1,370.0 697.6,370.0 698.1,370.0 698.6,370.0 699.1,370.0 699.6,370.0 700.1,370.0 700.6,370.0 701.1,370.0 701.7,370.0 702.2,370.0 702.7,370.0 703.2,370.0 703.7,370.0 704.2,370.0 704.7,370.0 705.2,370.0 705.7,370.0 706.2,370.0 706.7,370.0 707.2,370.0 707.7,370.0 708.2,370.0 708.8,370.0 709.3,370.0 709.8,370.0 710.3,370.0 710.8,370.0 711.3,370.0 711.8,370.0 712.3,370.0 712.8,370.0 713.3,370.0 713.8,370.0 714.3,370.0 714.8,370.0 715.3,370.0 715.8,370.0 716.4,370.0 716.9,370.0 717.4,370.0 717.9,370.0 718.4,370.0 718.9,370.0 719.4,370.0 719.9,370.0 720.4,370.0 720.9,370.0 721.4,370.0 721.9,370.0 722.4,370.0 722.9,370.0 723.5,370.0 724.0,370.0 724.5,370.0 725.0,370.0 725.5,370.0 726.0,370.0 726.5,370.0 727.0,370.0 727.5,370.0 728.0,370.0 728.5,370.0 729.0,370.0 729.5,370.0 730.0,370.0 730.5,370.0 731.1,370.0 731.6,370.0 732.1,370.0 732.6,370.0 733.1,370.0 733.6,370.0 734.1,370.0 734.6,370.0 735.1,370.0 735.6,370.0 736.1,370.0 736.6,370.0 737.1,370.0 737.6,370.0 738.2,370.0 738.7,370.0 739.2,370.0 739.7,370.0 740.2,370.0 740.7,370.0 741.2,370.0 741.7,370.0 742.2,370.0 742.7,370.0 743.2,370.0 743.7,370.0 744.2,370.0 744.7,370.0 745.2,370.0 745.8,370.0 746.3,370.0 746.8,370.0 747.3,370.0 747.8,370.0 748.3,370.0 748.8,370.0 749.3,370.0 749.8,370.0 750.3,370.0 750.8,370.0 751.3,370.0 751.8,370.0 752.3,370.0 752.9,370.0 753.4,370.0 753.9,370.0 754.4,370.0 754.9,370.0 755.4,370.0 755.9,370.0 756.4,370.0 756.9,370.0 757.4,370.0 757.9,370.0 758.4,370.0 758.9,370.0 759.4,370.0 760.0,370.0 760.5,370.0 761.0,370.0 761.5,370.0 762.0,370.0 762.5,370.0 763.0,370.0 763.5,370.0 764.0,370.0 764.5,370.0 765.0,370.0 765.5,370.0 766.0,370.0 766.5,370.0 767.0,370.0 767.6,370.0 768.1,370.0 768.6,370.0 769.1,370.0 769.6,370.0 770.1,370.0 770.6,370.0 771.1,370.0 771.6,370.0 772.1,370.0 772.6,370.0 773.1,370.0 773.6,370.0 774.1,370.0 774.7,370.0 775.2,370.0 775.7,370.0 776.2,370.0 776.7,370.0 777.2,370.0 777.7,370.0 778.2,370.0 778.7,370.0 779.2,370.0 779.7,370.0 780.2,370.0 780.7,370.0 781.2,370.0 781.8,370.0 782.3,370.0 782.8,370.0 783.3,370.0 783.8,370.0 784.3,370.0 784.8,370.0 785.3,370.0 785.8,370.0 786.3,370.0 786.8,370.0 787.3,370.0 787.8,370.0 788.3,370.0 788.8,370.0 789.4,370.0 789.9,370.0 790.4,370.0 790.9,370.0 791.4,370.0 791.9,370.0 792.4,370.0 792.9,370.0 793.4,370.0 793.9,370.0 794.4,370.0 794.9,370.0 795.4,370.0 795.9,370.0 796.5,370.0 797.0,370.0 797.5,370.0 798.0,370.0 798.5,370.0 799.0,370.0 799.5,370.0 800.0,370.0"/><text x="435" y="408" text-anchor="middle">time (s)</text><text x="80" y="44" fill="#c0392b">classical: csac-sa45s</text><text x="80" y="60" fill="#2471a3">quantum: optical-sr-lattice</text></svg>