<svg xmlns="http://www.w3.org/2000/svg" width="820" height="420" font-family="sans-serif" font-size="12" fill="#bcb3a3"><rect width="820" height="420" fill="#0c0b08"/><text x="70" y="18" font-size="15" font-weight="bold">Clock holdover: timing error during GNSS outage</text><line x1="70" y1="370.0" x2="800" y2="370.0" stroke="#262019"/><text x="64" y="374.0" text-anchor="end" fill="#8c8273" font-size="11">0</text><line x1="70" y1="285.0" x2="800" y2="285.0" stroke="#262019"/><text x="64" y="289.0" text-anchor="end" fill="#8c8273" font-size="11">17</text><line x1="70" y1="200.0" x2="800" y2="200.0" stroke="#262019"/><text x="64" y="204.0" text-anchor="end" fill="#8c8273" font-size="11">34</text><line x1="70" y1="115.0" x2="800" y2="115.0" stroke="#262019"/><text x="64" y="119.0" text-anchor="end" fill="#8c8273" font-size="11">51</text><line x1="70" y1="30.0" x2="800" y2="30.0" stroke="#262019"/><text x="64" y="34.0" text-anchor="end" fill="#8c8273" font-size="11">68</text><text x="16" y="200.0" text-anchor="middle" fill="#8c8273" font-size="12" transform="rotate(-90 16 200.0)">timing error (ns)</text><line x1="70" y1="30" x2="70" y2="370" stroke="#342c21"/><line x1="70" y1="370" x2="800" y2="370" stroke="#342c21"/><line x1="70" y1="345.0" x2="800" y2="345.0" stroke="#e5645a" stroke-dasharray="6 4"/><text x="74" y="341.0" fill="#e5645a">spec 5 ns</text><polyline fill="none" stroke="#d2925e" stroke-width="2" points="70.0,370.0 70.5,370.0 71.0,370.0 71.5,370.0 72.0,370.0 72.5,370.0 73.0,370.0 73.5,370.0 74.1,370.0 74.6,370.0 75.1,361.9 75.6,356.2 76.1,350.4 76.6,350.3 77.1,364.4 77.6,342.7 78.1,340.1 78.6,314.4 79.1,293.6 79.6,270.5 80.1,255.3 80.6,240.1 81.2,239.0 81.7,258.5 82.2,280.9 82.7,318.2 83.2,317.6 83.7,340.8 84.2,370.0 84.7,370.0 85.2,370.0 85.7,370.0 86.2,370.0 86.7,370.0 87.2,370.0 87.7,370.0 88.2,370.0 88.8,370.0 89.3,370.0 89.8,370.0 90.3,345.8 90.8,326.4 91.3,342.7 91.8,352.5 92.3,350.7 92.8,342.8 93.3,370.0 93.8,369.2 94.3,357.7 94.8,343.7 95.3,296.5 95.9,291.5 96.4,268.1 96.9,245.3 97.4,215.1 97.9,201.5 98.4,193.1 98.9,171.4 99.4,185.5 99.9,186.9 100.4,207.7 100.9,186.3 101.4,174.5 101.9,167.5 102.4,147.3 103.0,125.4 103.5,128.8 104.0,132.0 104.5,370.0 105.0,370.0 105.5,370.0 106.0,370.0 106.5,370.0 107.0,370.0 107.5,370.0 108.0,370.0 108.5,370.0 109.0,370.0 109.5,370.0 110.0,370.0 110.6,370.0 111.1,370.0 111.6,370.0 112.1,370.0 112.6,370.0 113.1,370.0 113.6,370.0 114.1,370.0 114.6,370.0 115.1,370.0 115.6,370.0 116.1,370.0 116.6,370.0 117.1,370.0 117.7,370.0 118.2,356.2 118.7,337.6 119.2,316.4 119.7,289.4 120.2,281.8 120.7,267.3 121.2,289.0 121.7,269.9 122.2,251.1 122.7,253.9 123.2,247.5 123.7,237.6 124.2,227.5 124.8,218.2 125.3,206.8 125.8,201.5 126.3,370.0 126.8,370.0 127.3,370.0 127.8,370.0 128.3,370.0 128.8,370.0 129.3,370.0 129.8,370.0 130.3,370.0 130.8,370.0 131.3,370.0 131.8,370.0 132.4,370.0 132.9,370.0 133.4,370.0 133.9,370.0 134.4,370.0 134.9,370.0 135.4,370.0 135.9,370.0 136.4,370.0 136.9,370.0 137.4,370.0 137.9,370.0 138.4,370.0 138.9,370.0 139.5,340.4 140.0,352.3 140.5,354.5 141.0,370.0 141.5,370.0 142.0,370.0 142.5,370.0 143.0,370.0 143.5,370.0 144.0,364.8 144.5,346.8 145.0,337.0 145.5,358.3 146.0,341.1 146.5,341.2 147.1,363.1 147.6,364.8 148.1,370.0 148.6,370.0 149.1,370.0 149.6,370.0 150.1,370.0 150.6,370.0 151.1,370.0 151.6,370.0 152.1,370.0 152.6,370.0 153.1,370.0 153.6,370.0 154.2,370.0 154.7,370.0 155.2,370.0 155.7,370.0 156.2,370.0 156.7,370.0 157.2,370.0 157.7,370.0 158.2,370.0 158.7,370.0 159.2,370.0 159.7,370.0 160.2,370.0 160.7,370.0 161.2,370.0 161.8,370.0 162.3,369.1 162.8,362.9 163.3,359.6 163.8,348.5 164.3,337.6 164.8,353.7 165.3,370.0 165.8,370.0 166.3,370.0 166.8,370.0 167.3,370.0 167.8,370.0 168.3,370.0 168.9,356.7 169.4,351.9 169.9,363.9 170.4,370.0 170.9,370.0 171.4,370.0 171.9,370.0 172.4,370.0 172.9,370.0 173.4,370.0 173.9,370.0 174.4,370.0 174.9,370.0 175.4,370.0 176.0,370.0 176.5,370.0 177.0,370.0 177.5,370.0 178.0,370.0 178.5,370.0 179.0,370.0 179.5,370.0 180.0,370.0 180.5,370.0 181.0,370.0 181.5,370.0 182.0,370.0 182.5,370.0 183.0,370.0 183.6,370.0 184.1,366.3 184.6,352.1 185.1,352.8 185.6,357.4 186.1,323.0 186.6,322.2 187.1,344.1 187.6,353.8 188.1,347.5 188.6,366.3 189.1,337.7 189.6,345.0 190.1,370.0 190.7,370.0 191.2,370.0 191.7,370.0 192.2,370.0 192.7,329.9 193.2,370.0 193.7,370.0 194.2,370.0 194.7,370.0 195.2,370.0 195.7,370.0 196.2,370.0 196.7,370.0 197.2,370.0 197.8,370.0 198.3,370.0 198.8,370.0 199.3,370.0 199.8,370.0 200.3,370.0 200.8,370.0 201.3,370.0 201.8,370.0 202.3,370.0 202.8,370.0 203.3,370.0 203.8,370.0 204.3,370.0 204.8,370.0 205.4,370.0 205.9,345.9 206.4,342.6 206.9,324.4 207.4,350.8 207.9,334.9 208.4,347.3 208.9,367.5 209.4,341.6 209.9,316.3 210.4,327.5 210.9,352.7 211.4,356.5 211.9,364.5 212.5,356.4 213.0,369.8 213.5,342.1 214.0,337.2 214.5,343.3 215.0,362.5 215.5,361.7 216.0,370.0 216.5,360.2 217.0,348.5 217.5,370.0 218.0,370.0 218.5,370.0 219.0,370.0 219.5,370.0 220.1,370.0 220.6,370.0 221.1,370.0 221.6,370.0 222.1,370.0 222.6,370.0 223.1,370.0 223.6,370.0 224.1,370.0 224.6,370.0 225.1,370.0 225.6,370.0 226.1,370.0 226.6,370.0 227.2,341.7 227.7,336.0 228.2,340.4 228.7,366.6 229.2,332.7 229.7,306.1 230.2,297.5 230.7,325.9 231.2,333.4 231.7,325.4 232.2,368.5 232.7,340.1 233.2,302.2 233.7,326.9 234.2,285.8 234.8,264.5 235.3,219.8 235.8,218.0 236.3,208.3 236.8,203.8 237.3,202.9 237.8,180.4 238.3,370.0 238.8,370.0 239.3,370.0 239.8,370.0 240.3,370.0 240.8,370.0 241.3,370.0 241.9,370.0 242.4,370.0 242.9,370.0 243.4,370.0 243.9,370.0 244.4,370.0 244.9,370.0 245.4,370.0 245.9,370.0 246.4,350.1 246.9,332.4 247.4,367.6 247.9,351.7 248.4,343.0 249.0,308.4 249.5,273.9 250.0,288.3 250.5,291.3 251.0,370.0 251.5,370.0 252.0,370.0 252.5,370.0 253.0,370.0 253.5,370.0 254.0,370.0 254.5,370.0 255.0,370.0 255.5,370.0 256.0,370.0 256.6,370.0 257.1,370.0 257.6,370.0 258.1,370.0 258.6,370.0 259.1,370.0 259.6,370.0 260.1,358.8 260.6,340.7 261.1,338.4 261.6,317.4 262.1,332.0 262.6,370.0 263.1,369.0 263.7,361.6 264.2,361.7 264.7,356.4 265.2,346.7 265.7,319.6 266.2,284.9 266.7,254.0 267.2,230.5 267.7,149.8 268.2,116.5 268.7,68.4 269.2,54.7 269.7,50.2 270.2,57.5 270.8,70.3 271.3,57.9 271.8,55.2 272.3,34.8 272.8,73.0 273.3,61.3 273.8,36.5 274.3,30.0 274.8,370.0 275.3,370.0 275.8,370.0 276.3,370.0 276.8,370.0 277.3,370.0 277.8,370.0 278.4,370.0 278.9,370.0 279.4,370.0 279.9,370.0 280.4,370.0 280.9,370.0 281.4,370.0 281.9,370.0 282.4,370.0 282.9,370.0 283.4,370.0 283.9,370.0 284.4,370.0 284.9,370.0 285.5,370.0 286.0,370.0 286.5,350.5 287.0,357.6 287.5,368.4 288.0,365.7 288.5,362.1 289.0,365.2 289.5,349.0 290.0,347.3 290.5,325.4 291.0,336.8 291.5,331.0 292.0,289.8 292.5,269.4 293.1,266.9 293.6,258.5 294.1,230.7 294.6,217.3 295.1,200.5 295.6,188.8 296.1,370.0 296.6,370.0 297.1,370.0 297.6,370.0 298.1,370.0 298.6,370.0 299.1,370.0 299.6,370.0 300.2,370.0 300.7,370.0 301.2,370.0 301.7,370.0 302.2,370.0 302.7,370.0 303.2,370.0 303.7,370.0 304.2,370.0 304.7,370.0 305.2,370.0 305.7,370.0 306.2,370.0 306.7,370.0 307.2,370.0 307.8,370.0 308.3,370.0 308.8,370.0 309.3,357.9 309.8,370.0 310.3,370.0 310.8,370.0 311.3,370.0 311.8,370.0 312.3,370.0 312.8,331.2 313.3,283.5 313.8,289.7 314.3,272.3 314.9,259.8 315.4,240.0 315.9,264.4 316.4,253.1 316.9,245.5 317.4,251.2 317.9,370.0 318.4,370.0 318.9,370.0 319.4,370.0 319.9,370.0 320.4,370.0 320.9,370.0 321.4,370.0 322.0,370.0 322.5,370.0 323.0,370.0 323.5,370.0 324.0,370.0 324.5,370.0 325.0,370.0 325.5,370.0 326.0,370.0 326.5,370.0 327.0,370.0 327.5,370.0 328.0,370.0 328.5,370.0 329.0,370.0 329.6,370.0 330.1,370.0 330.6,370.0 331.1,370.0 331.6,365.9 332.1,340.7 332.6,343.1 333.1,332.6 333.6,336.5 334.1,370.0 334.6,370.0 335.1,370.0 335.6,370.0 336.1,370.0 336.7,370.0 337.2,370.0 337.7,353.9 338.2,361.8 338.7,357.4 339.2,345.0 339.7,309.4 340.2,370.0 340.7,370.0 341.2,370.0 341.7,370.0 342.2,370.0 342.7,370.0 343.2,370.0 343.8,370.0 344.3,370.0 344.8,370.0 345.3,370.0 345.8,370.0 346.3,370.0 346.8,370.0 347.3,370.0 347.8,370.0 348.3,370.0 348.8,370.0 349.3,370.0 349.8,370.0 350.3,370.0 350.8,370.0 351.4,370.0 351.9,370.0 352.4,370.0 352.9,370.0 353.4,370.0 353.9,349.3 354.4,329.7 354.9,313.3 355.4,333.2 355.9,340.7 356.4,358.9 356.9,352.9 357.4,356.0 357.9,366.0 358.5,368.6 359.0,370.0 359.5,370.0 360.0,370.0 360.5,370.0 361.0,370.0 361.5,370.0 362.0,344.3 362.5,370.0 363.0,370.0 363.5,370.0 364.0,370.0 364.5,370.0 365.0,370.0 365.5,370.0 366.1,370.0 366.6,370.0 367.1,370.0 367.6,370.0 368.1,370.0 368.6,370.0 369.1,370.0 369.6,370.0 370.1,370.0 370.6,370.0 371.1,370.0 371.6,370.0 372.1,370.0 372.6,370.0 373.2,370.0 373.7,370.0 374.2,370.0 374.7,370.0 375.2,370.0 375.7,370.0 376.2,356.5 376.7,346.1 377.2,354.4 377.7,348.1 378.2,332.9 378.7,345.3 379.2,328.7 379.7,315.2 380.2,279.7 380.8,287.2 381.3,260.8 381.8,227.0 382.3,209.3 382.8,165.3 383.3,129.3 383.8,110.7 384.3,78.2 384.8,370.0 385.3,370.0 385.8,370.0 386.3,370.0 386.8,370.0 387.3,370.0 387.9,370.0 388.4,370.0 388.9,370.0 389.4,370.0 389.9,370.0 390.4,370.0 390.9,370.0 391.4,370.0 391.9,370.0 392.4,370.0 392.9,370.0 393.4,370.0 393.9,370.0 394.4,370.0 395.0,370.0 395.5,370.0 396.0,370.0 396.5,370.0 397.0,345.7 397.5,360.6 398.0,350.5 398.5,357.0 399.0,336.4 399.5,346.0 400.0,350.9 400.5,335.5 401.0,319.7 401.5,295.6 402.0,304.4 402.6,306.3 403.1,297.4 403.6,282.4 404.1,287.6 404.6,272.9 405.1,292.5 405.6,290.7 406.1,273.2 406.6,286.1 407.1,292.4 407.6,272.0 408.1,269.4 408.6,370.0 409.1,344.4 409.7,327.0 410.2,338.7 410.7,355.6 411.2,325.4 411.7,303.3 412.2,287.6 412.7,275.4 413.2,293.3 413.7,273.2 414.2,230.3 414.7,370.0 415.2,370.0 415.7,370.0 416.2,370.0 416.8,370.0 417.3,357.4 417.8,357.9 418.3,348.9 418.8,344.6 419.3,307.9 419.8,294.1 420.3,298.0 420.8,309.0 421.3,316.8 421.8,328.5 422.3,319.6 422.8,328.8 423.3,307.8 423.8,319.9 424.4,337.8 424.9,322.7 425.4,287.1 425.9,370.0 426.4,370.0 426.9,370.0 427.4,370.0 427.9,370.0 428.4,370.0 428.9,370.0 429.4,370.0 429.9,370.0 430.4,370.0 430.9,370.0 431.5,370.0 432.0,370.0 432.5,370.0 433.0,370.0 433.5,370.0 434.0,370.0 434.5,347.9 435.0,367.7 435.5,362.6 436.0,354.4 436.5,347.4 437.0,352.0 437.5,349.0 438.0,364.8 438.5,367.7 439.1,350.2 439.6,330.5 440.1,299.9 440.6,298.9 441.1,294.9 441.6,272.3 442.1,248.0 442.6,235.0 443.1,192.2 443.6,138.0 444.1,125.8 444.6,116.7 445.1,370.0 445.6,370.0 446.2,370.0 446.7,370.0 447.2,370.0 447.7,370.0 448.2,370.0 448.7,370.0 449.2,370.0 449.7,370.0 450.2,370.0 450.7,370.0 451.2,370.0 451.7,370.0 452.2,370.0 452.7,370.0 453.2,370.0 453.8,335.8 454.3,323.1 454.8,299.1 455.3,370.0 455.8,359.5 456.3,350.9 456.8,369.4 457.3,353.2 457.8,354.5 458.3,338.8 458.8,336.4 459.3,313.9 459.8,312.6 460.3,323.8 460.9,339.9 461.4,348.4 461.9,346.8 462.4,338.6 462.9,317.3 463.4,302.9 463.9,287.9 464.4,227.6 464.9,187.9 465.4,132.9 465.9,370.0 466.4,370.0 466.9,370.0 467.4,370.0 468.0,370.0 468.5,370.0 469.0,370.0 469.5,370.0 470.0,370.0 470.5,370.0 471.0,370.0 471.5,370.0 472.0,370.0 472.5,370.0 473.0,370.0 473.5,370.0 474.0,370.0 474.5,370.0 475.0,370.0 475.6,370.0 476.1,370.0 476.6,370.0 477.1,370.0 477.6,370.0 478.1,370.0 478.6,333.6 479.1,370.0 479.6,370.0 480.1,370.0 480.6,370.0 481.1,362.3 481.6,324.1 482.1,311.8 482.7,261.2 483.2,216.7 483.7,212.4 484.2,202.8 484.7,192.5 485.2,159.2 485.7,157.4 486.2,114.9 486.7,117.0 487.2,98.8 487.7,370.0 488.2,370.0 488.7,370.0 489.2,370.0 489.7,370.0 490.3,370.0 490.8,370.0 491.3,370.0 491.8,370.0 492.3,370.0 492.8,370.0 493.3,370.0 493.8,370.0 494.3,370.0 494.8,370.0 495.3,370.0 495.8,370.0 496.3,370.0 496.8,370.0 497.4,370.0 497.9,370.0 498.4,370.0 498.9,370.0 499.4,370.0 499.9,370.0 500.4,370.0 500.9,370.0 501.4,366.7 501.9,368.2 502.4,369.1 502.9,370.0 503.4,370.0 503.9,370.0 504.5,370.0 505.0,370.0 505.5,370.0 506.0,370.0 506.5,352.0 507.0,369.6 507.5,363.3 508.0,369.4 508.5,360.0 509.0,352.4 509.5,370.0 510.0,370.0 510.5,370.0 511.0,370.0 511.5,370.0 512.1,370.0 512.6,370.0 513.1,370.0 513.6,370.0 514.1,370.0 514.6,370.0 515.1,370.0 515.6,370.0 516.1,370.0 516.6,370.0 517.1,370.0 517.6,370.0 518.1,370.0 518.6,370.0 519.2,370.0 519.7,370.0 520.2,370.0 520.7,370.0 521.2,370.0 521.7,370.0 522.2,370.0 522.7,370.0 523.2,370.0 523.7,354.5 524.2,362.3 524.7,365.5 525.2,367.1 525.7,357.9 526.2,354.6 526.8,315.2 527.3,370.0 527.8,370.0 528.3,370.0 528.8,370.0 529.3,370.0 529.8,370.0 530.3,370.0 530.8,368.2 531.3,368.0 531.8,325.4 532.3,370.0 532.8,370.0 533.3,370.0 533.9,370.0 534.4,370.0 534.9,370.0 535.4,370.0 535.9,370.0 536.4,370.0 536.9,370.0 537.4,370.0 537.9,370.0 538.4,370.0 538.9,370.0 539.4,370.0 539.9,370.0 540.4,370.0 541.0,370.0 541.5,370.0 542.0,370.0 542.5,370.0 543.0,370.0 543.5,370.0 544.0,370.0 544.5,370.0 545.0,370.0 545.5,370.0 546.0,366.9 546.5,359.5 547.0,343.6 547.5,358.3 548.0,359.5 548.6,358.2 549.1,365.4 549.6,357.9 550.1,331.6 550.6,309.0 551.1,307.3 551.6,286.6 552.1,256.5 552.6,271.9 553.1,370.0 553.6,370.0 554.1,370.0 554.6,347.1 555.1,370.0 555.7,370.0 556.2,370.0 556.7,370.0 557.2,370.0 557.7,370.0 558.2,370.0 558.7,370.0 559.2,370.0 559.7,370.0 560.2,370.0 560.7,370.0 561.2,370.0 561.7,370.0 562.2,370.0 562.8,370.0 563.3,370.0 563.8,370.0 564.3,370.0 564.8,370.0 565.3,370.0 565.8,370.0 566.3,370.0 566.8,370.0 567.3,358.5 567.8,357.0 568.3,355.1 568.8,359.2 569.3,311.4 569.8,288.8 570.4,296.4 570.9,294.5 571.4,318.9 571.9,302.8 572.4,314.5 572.9,321.4 573.4,329.1 573.9,343.6 574.4,323.9 574.9,314.6 575.4,302.1 575.9,309.7 576.4,325.9 576.9,322.3 577.5,337.6 578.0,370.0 578.5,349.4 579.0,364.7 579.5,363.8 580.0,365.9 580.5,360.0 581.0,370.0 581.5,370.0 582.0,370.0 582.5,370.0 583.0,370.0 583.5,370.0 584.0,370.0 584.5,370.0 585.1,370.0 585.6,370.0 586.1,370.0 586.6,370.0 587.1,370.0 587.6,370.0 588.1,332.0 588.6,335.7 589.1,326.8 589.6,311.5 590.1,306.7 590.6,297.6 591.1,324.9 591.6,300.5 592.2,287.9 592.7,281.4 593.2,309.1 593.7,297.5 594.2,315.4 594.7,335.3 595.2,308.8 595.7,327.6 596.2,338.3 596.7,348.7 597.2,315.5 597.7,370.0 598.2,370.0 598.7,370.0 599.2,370.0 599.8,370.0 600.3,370.0 600.8,370.0 601.3,370.0 601.8,370.0 602.3,370.0 602.8,370.0 603.3,370.0 603.8,370.0 604.3,370.0 604.8,370.0 605.3,370.0 605.8,370.0 606.3,370.0 606.9,363.6 607.4,356.0 607.9,338.1 608.4,317.2 608.9,309.5 609.4,304.4 609.9,322.7 610.4,327.6 610.9,340.9 611.4,345.2 611.9,363.2 612.4,359.3 612.9,368.0 613.4,342.5 614.0,344.4 614.5,338.9 615.0,350.0 615.5,370.0 616.0,370.0 616.5,370.0 617.0,370.0 617.5,370.0 618.0,370.0 618.5,370.0 619.0,370.0 619.5,370.0 620.0,370.0 620.5,351.2 621.0,324.7 621.6,321.3 622.1,292.1 622.6,276.6 623.1,258.7 623.6,235.3 624.1,247.2 624.6,370.0 625.1,363.1 625.6,354.2 626.1,357.7 626.6,359.9 627.1,365.3 627.6,325.9 628.1,307.9 628.7,308.9 629.2,277.8 629.7,270.2 630.2,259.1 630.7,277.2 631.2,250.2 631.7,229.9 632.2,216.3 632.7,212.6 633.2,189.9 633.7,167.7 634.2,151.8 634.7,122.4 635.2,101.0 635.8,92.8 636.3,370.0 636.8,370.0 637.3,370.0 637.8,370.0 638.3,370.0 638.8,370.0 639.3,370.0 639.8,370.0 640.3,370.0 640.8,370.0 641.3,370.0 641.8,370.0 642.3,370.0 642.8,370.0 643.4,370.0 643.9,370.0 644.4,370.0 644.9,370.0 645.4,370.0 645.9,370.0 646.4,370.0 646.9,370.0 647.4,370.0 647.9,370.0 648.4,370.0 648.9,370.0 649.4,360.2 649.9,360.5 650.5,369.3 651.0,365.7 651.5,349.7 652.0,314.7 652.5,294.9 653.0,305.4 653.5,290.8 654.0,261.8 654.5,252.1 655.0,253.5 655.5,259.8 656.0,243.0 656.5,196.0 657.0,214.4 657.5,370.0 658.1,370.0 658.6,370.0 659.1,370.0 659.6,370.0 660.1,370.0 660.6,370.0 661.1,370.0 661.6,370.0 662.1,370.0 662.6,370.0 663.1,370.0 663.6,370.0 664.1,370.0 664.6,370.0 665.2,370.0 665.7,370.0 666.2,370.0 666.7,370.0 667.2,370.0 667.7,370.0 668.2,370.0 668.7,370.0 669.2,370.0 669.7,370.0 670.2,370.0 670.7,355.2 671.2,329.6 671.7,370.0 672.2,370.0 672.8,370.0 673.3,370.0 673.8,370.0 674.3,370.0 674.8,370.0 675.3,330.6 675.8,321.3 676.3,294.3 676.8,304.5 677.3,308.3 677.8,311.7 678.3,275.1 678.8,277.2 679.3,370.0 679.9,370.0 680.4,370.0 680.9,370.0 681.4,370.0 681.9,370.0 682.4,370.0 682.9,370.0 683.4,370.0 683.9,370.0 684.4,370.0 684.9,370.0 685.4,370.0 685.9,370.0 686.4,370.0 687.0,370.0 687.5,370.0 688.0,370.0 688.5,370.0 689.0,370.0 689.5,370.0 690.0,370.0 690.5,370.0 691.0,370.0 691.5,370.0 692.0,370.0 692.5,370.0 693.0,370.0 693.5,353.1 694.0,363.9 694.6,350.2 695.1,347.3 695.6,362.9 696.1,370.0 696.6,370.0 697.1,370.0 697.6,370.0 698.1,370.0 698.6,370.0 699.1,370.0 699.6,353.0 700.1,365.7 700.6,345.0 701.1,338.1 701.7,370.0 702.2,370.0 702.7,370.0 703.2,370.0 703.7,370.0 704.2,370.0 704.7,370.0 705.2,370.0 705.7,370.0 706.2,370.0 706.7,370.0 707.2,370.0 707.7,370.0 708.2,370.0 708.8,370.0 709.3,370.0 709.8,370.0 710.3,370.0 710.8,370.0 711.3,370.0 711.8,370.0 712.3,370.0 712.8,370.0 713.3,370.0 713.8,370.0 714.3,370.0 714.8,370.0 715.3,370.0 715.8,360.8 716.4,365.1 716.9,350.6 717.4,357.0 717.9,360.3 718.4,350.6 718.9,357.6 719.4,367.1 719.9,338.4 720.4,334.3 720.9,352.8 721.4,370.0 721.9,370.0 722.4,370.0 722.9,370.0 723.5,370.0 724.0,353.8 724.5,370.0 725.0,370.0 725.5,370.0 726.0,370.0 726.5,370.0 727.0,370.0 727.5,370.0 728.0,370.0 728.5,370.0 729.0,370.0 729.5,370.0 730.0,370.0 730.5,370.0 731.1,370.0 731.6,370.0 732.1,370.0 732.6,370.0 733.1,370.0 733.6,370.0 734.1,370.0 734.6,370.0 735.1,370.0 735.6,370.0 736.1,370.0 736.6,370.0 737.1,370.0 737.6,360.0 738.2,362.0 738.7,356.9 739.2,356.0 739.7,368.1 740.2,356.6 740.7,359.4 741.2,362.2 741.7,361.1 742.2,332.6 742.7,319.2 743.2,303.3 743.7,307.5 744.2,327.8 744.7,325.8 745.2,321.7 745.8,299.7 746.3,317.7 746.8,296.8 747.3,370.0 747.8,349.6 748.3,370.0 748.8,370.0 749.3,370.0 749.8,370.0 750.3,370.0 750.8,370.0 751.3,370.0 751.8,370.0 752.3,370.0 752.9,370.0 753.4,370.0 753.9,370.0 754.4,370.0 754.9,370.0 755.4,370.0 755.9,370.0 756.4,370.0 756.9,370.0 757.4,370.0 757.9,370.0 758.4,331.1 758.9,298.7 759.4,283.0 760.0,278.6 760.5,290.1 761.0,265.7 761.5,304.6 762.0,302.3 762.5,269.8 763.0,243.3 763.5,240.4 764.0,242.2 764.5,268.4 765.0,273.0 765.5,281.7 766.0,285.3 766.5,323.8 767.0,329.5 767.6,317.0 768.1,290.4 768.6,284.5 769.1,285.4 769.6,296.9 770.1,326.1 770.6,370.0 771.1,370.0 771.6,370.0 772.1,370.0 772.6,370.0 773.1,370.0 773.6,370.0 774.1,370.0 774.7,370.0 775.2,370.0 775.7,370.0 776.2,370.0 776.7,370.0 777.2,370.0 777.7,370.0 778.2,348.8 778.7,343.7 779.2,353.7 779.7,322.6 780.2,370.0 780.7,370.0 781.2,370.0 781.8,370.0 782.3,370.0 782.8,370.0 783.3,370.0 783.8,370.0 784.3,370.0 784.8,370.0 785.3,370.0 785.8,363.4 786.3,370.0 786.8,370.0 787.3,370.0 787.8,370.0 788.3,370.0 788.8,370.0 789.4,370.0 789.9,370.0 790.4,370.0 790.9,370.0 791.4,370.0 791.9,370.0 792.4,370.0 792.9,370.0 793.4,358.6 793.9,370.0 794.4,351.7 794.9,334.5 795.4,336.4 795.9,288.2 796.5,247.7 797.0,193.1 797.5,189.3 798.0,171.1 798.5,141.6 799.0,124.9 799.5,123.9 800.0,121.0"/><polyline fill="none" stroke="#e0bd84" stroke-width="2" points="70.0,370.0 70.5,370.0 71.0,370.0 71.5,370.0 72.0,370.0 72.5,370.0 73.0,370.0 73.5,370.0 74.1,370.0 74.6,370.0 75.1,370.0 75.6,370.0 76.1,370.0 76.6,370.0 77.1,370.0 77.6,370.0 78.1,370.0 78.6,370.0 79.1,370.0 79.6,370.0 80.1,370.0 80.6,370.0 81.2,370.0 81.7,370.0 82.2,370.0 82.7,370.0 83.2,370.0 83.7,370.0 84.2,370.0 84.7,370.0 85.2,370.0 85.7,370.0 86.2,370.0 86.7,370.0 87.2,370.0 87.7,370.0 88.2,370.0 88.8,370.0 89.3,370.0 89.8,370.0 90.3,370.0 90.8,370.0 91.3,370.0 91.8,370.0 92.3,370.0 92.8,370.0 93.3,370.0 93.8,370.0 94.3,370.0 94.8,370.0 95.3,370.0 95.9,370.0 96.4,370.0 96.9,370.0 97.4,370.0 97.9,370.0 98.4,370.0 98.9,370.0 99.4,370.0 99.9,370.0 100.4,370.0 100.9,370.0 101.4,370.0 101.9,370.0 102.4,370.0 103.0,370.0 103.5,370.0 104.0,370.0 104.5,370.0 105.0,370.0 105.5,370.0 106.0,370.0 106.5,370.0 107.0,370.0 107.5,370.0 108.0,370.0 108.5,370.0 109.0,370.0 109.5,370.0 110.0,370.0 110.6,370.0 111.1,370.0 111.6,370.0 112.1,370.0 112.6,370.0 113.1,370.0 113.6,370.0 114.1,370.0 114.6,370.0 115.1,370.0 115.6,370.0 116.1,370.0 116.6,370.0 117.1,370.0 117.7,370.0 118.2,370.0 118.7,370.0 119.2,370.0 119.7,370.0 120.2,370.0 120.7,370.0 121.2,370.0 121.7,370.0 122.2,370.0 122.7,370.0 123.2,370.0 123.7,370.0 124.2,370.0 124.8,370.0 125.3,370.0 125.8,370.0 126.3,370.0 126.8,370.0 127.3,370.0 127.8,370.0 128.3,370.0 128.8,370.0 129.3,370.0 129.8,370.0 130.3,370.0 130.8,370.0 131.3,370.0 131.8,370.0 132.4,370.0 132.9,370.0 133.4,370.0 133.9,370.0 134.4,370.0 134.9,370.0 135.4,370.0 135.9,370.0 136.4,370.0 136.9,370.0 137.4,370.0 137.9,370.0 138.4,370.0 138.9,370.0 139.5,370.0 140.0,370.0 140.5,370.0 141.0,370.0 141.5,370.0 142.0,370.0 142.5,370.0 143.0,370.0 143.5,370.0 144.0,370.0 144.5,370.0 145.0,370.0 145.5,370.0 146.0,370.0 146.5,370.0 147.1,370.0 147.6,370.0 148.1,370.0 148.6,370.0 149.1,370.0 149.6,370.0 150.1,370.0 150.6,370.0 151.1,370.0 151.6,370.0 152.1,370.0 152.6,370.0 153.1,370.0 153.6,370.0 154.2,370.0 154.7,370.0 155.2,370.0 155.7,370.0 156.2,370.0 156.7,370.0 157.2,370.0 157.7,370.0 158.2,370.0 158.7,370.0 159.2,370.0 159.7,370.0 160.2,370.0 160.7,370.0 161.2,370.0 161.8,370.0 162.3,370.0 162.8,370.0 163.3,370.0 163.8,370.0 164.3,370.0 164.8,370.0 165.3,370.0 165.8,370.0 166.3,370.0 166.8,370.0 167.3,370.0 167.8,370.0 168.3,370.0 168.9,370.0 169.4,370.0 169.9,370.0 170.4,370.0 170.9,370.0 171.4,370.0 171.9,370.0 172.4,370.0 172.9,370.0 173.4,370.0 173.9,370.0 174.4,370.0 174.9,370.0 175.4,370.0 176.0,370.0 176.5,370.0 177.0,370.0 177.5,370.0 178.0,370.0 178.5,370.0 179.0,370.0 179.5,370.0 180.0,370.0 180.5,370.0 181.0,370.0 181.5,370.0 182.0,370.0 182.5,370.0 183.0,370.0 183.6,370.0 184.1,370.0 184.6,370.0 185.1,370.0 185.6,370.0 186.1,370.0 186.6,370.0 187.1,370.0 187.6,370.0 188.1,370.0 188.6,370.0 189.1,370.0 189.6,370.0 190.1,370.0 190.7,370.0 191.2,370.0 191.7,370.0 192.2,370.0 192.7,370.0 193.2,370.0 193.7,370.0 194.2,370.0 194.7,370.0 195.2,370.0 195.7,370.0 196.2,370.0 196.7,370.0 197.2,370.0 197.8,370.0 198.3,370.0 198.8,370.0 199.3,370.0 199.8,370.0 200.3,370.0 200.8,370.0 201.3,370.0 201.8,370.0 202.3,370.0 202.8,370.0 203.3,370.0 203.8,370.0 204.3,370.0 204.8,370.0 205.4,370.0 205.9,370.0 206.4,370.0 206.9,370.0 207.4,370.0 207.9,370.0 208.4,370.0 208.9,370.0 209.4,370.0 209.9,370.0 210.4,370.0 210.9,370.0 211.4,370.0 211.9,370.0 212.5,370.0 213.0,370.0 213.5,370.0 214.0,370.0 214.5,370.0 215.0,370.0 215.5,370.0 216.0,370.0 216.5,370.0 217.0,370.0 217.5,370.0 218.0,370.0 218.5,370.0 219.0,370.0 219.5,370.0 220.1,370.0 220.6,370.0 221.1,370.0 221.6,370.0 222.1,370.0 222.6,370.0 223.1,370.0 223.6,370.0 224.1,370.0 224.6,370.0 225.1,370.0 225.6,370.0 226.1,370.0 226.6,370.0 227.2,370.0 227.7,370.0 228.2,370.0 228.7,370.0 229.2,370.0 229.7,370.0 230.2,370.0 230.7,370.0 231.2,370.0 231.7,370.0 232.2,370.0 232.7,370.0 233.2,370.0 233.7,370.0 234.2,370.0 234.8,370.0 235.3,370.0 235.8,370.0 236.3,370.0 236.8,370.0 237.3,370.0 237.8,370.0 238.3,370.0 238.8,370.0 239.3,370.0 239.8,370.0 240.3,370.0 240.8,370.0 241.3,370.0 241.9,370.0 242.4,370.0 242.9,370.0 243.4,370.0 243.9,370.0 244.4,370.0 244.9,370.0 245.4,370.0 245.9,370.0 246.4,370.0 246.9,370.0 247.4,370.0 247.9,370.0 248.4,370.0 249.0,370.0 249.5,370.0 250.0,370.0 250.5,370.0 251.0,370.0 251.5,370.0 252.0,370.0 252.5,370.0 253.0,370.0 253.5,370.0 254.0,370.0 254.5,370.0 255.0,370.0 255.5,370.0 256.0,370.0 256.6,370.0 257.1,370.0 257.6,370.0 258.1,370.0 258.6,370.0 259.1,370.0 259.6,370.0 260.1,370.0 260.6,370.0 261.1,370.0 261.6,370.0 262.1,370.0 262.6,370.0 263.1,370.0 263.7,370.0 264.2,370.0 264.7,370.0 265.2,370.0 265.7,370.0 266.2,370.0 266.7,370.0 267.2,370.0 267.7,370.0 268.2,370.0 268.7,370.0 269.2,370.0 269.7,370.0 270.2,370.0 270.8,370.0 271.3,370.0 271.8,370.0 272.3,370.0 272.8,370.0 273.3,370.0 273.8,370.0 274.3,370.0 274.8,370.0 275.3,370.0 275.8,370.0 276.3,370.0 276.8,370.0 277.3,370.0 277.8,370.0 278.4,370.0 278.9,370.0 279.4,370.0 279.9,370.0 280.4,370.0 280.9,370.0 281.4,370.0 281.9,370.0 282.4,370.0 282.9,370.0 283.4,370.0 283.9,370.0 284.4,370.0 284.9,370.0 285.5,370.0 286.0,370.0 286.5,370.0 287.0,370.0 287.5,370.0 288.0,370.0 288.5,370.0 289.0,370.0 289.5,370.0 290.0,370.0 290.5,370.0 291.0,370.0 291.5,370.0 292.0,370.0 292.5,370.0 293.1,370.0 293.6,370.0 294.1,370.0 294.6,370.0 295.1,370.0 295.6,370.0 296.1,370.0 296.6,370.0 297.1,370.0 297.6,370.0 298.1,370.0 298.6,370.0 299.1,370.0 299.6,370.0 300.2,370.0 300.7,370.0 301.2,370.0 301.7,370.0 302.2,370.0 302.7,370.0 303.2,370.0 303.7,370.0 304.2,370.0 304.7,370.0 305.2,370.0 305.7,370.0 306.2,370.0 306.7,370.0 307.2,370.0 307.8,370.0 308.3,370.0 308.8,370.0 309.3,370.0 309.8,370.0 310.3,370.0 310.8,370.0 311.3,370.0 311.8,370.0 312.3,370.0 312.8,370.0 313.3,370.0 313.8,370.0 314.3,370.0 314.9,370.0 315.4,370.0 315.9,370.0 316.4,370.0 316.9,370.0 317.4,370.0 317.9,370.0 318.4,370.0 318.9,370.0 319.4,370.0 319.9,370.0 320.4,370.0 320.9,370.0 321.4,370.0 322.0,370.0 322.5,370.0 323.0,370.0 323.5,370.0 324.0,370.0 324.5,370.0 325.0,370.0 325.5,370.0 326.0,370.0 326.5,370.0 327.0,370.0 327.5,370.0 328.0,370.0 328.5,370.0 329.0,370.0 329.6,370.0 330.1,370.0 330.6,370.0 331.1,370.0 331.6,370.0 332.1,370.0 332.6,370.0 333.1,370.0 333.6,370.0 334.1,370.0 334.6,370.0 335.1,370.0 335.6,370.0 336.1,370.0 336.7,370.0 337.2,370.0 337.7,370.0 338.2,370.0 338.7,370.0 339.2,370.0 339.7,370.0 340.2,370.0 340.7,370.0 341.2,370.0 341.7,370.0 342.2,370.0 342.7,370.0 343.2,370.0 343.8,370.0 344.3,370.0 344.8,370.0 345.3,370.0 345.8,370.0 346.3,370.0 346.8,370.0 347.3,370.0 347.8,370.0 348.3,370.0 348.8,370.0 349.3,370.0 349.8,370.0 350.3,370.0 350.8,370.0 351.4,370.0 351.9,370.0 352.4,370.0 352.9,370.0 353.4,370.0 353.9,370.0 354.4,370.0 354.9,370.0 355.4,370.0 355.9,370.0 356.4,370.0 356.9,370.0 357.4,370.0 357.9,370.0 358.5,370.0 359.0,370.0 359.5,370.0 360.0,370.0 360.5,370.0 361.0,370.0 361.5,370.0 362.0,370.0 362.5,370.0 363.0,370.0 363.5,370.0 364.0,370.0 364.5,370.0 365.0,370.0 365.5,370.0 366.1,370.0 366.6,370.0 367.1,370.0 367.6,370.0 368.1,370.0 368.6,370.0 369.1,370.0 369.6,370.0 370.1,370.0 370.6,370.0 371.1,370.0 371.6,370.0 372.1,370.0 372.6,370.0 373.2,370.0 373.7,370.0 374.2,370.0 374.7,370.0 375.2,370.0 375.7,370.0 376.2,370.0 376.7,370.0 377.2,370.0 377.7,370.0 378.2,370.0 378.7,370.0 379.2,370.0 379.7,370.0 380.2,370.0 380.8,370.0 381.3,370.0 381.8,370.0 382.3,370.0 382.8,370.0 383.3,370.0 383.8,370.0 384.3,370.0 384.8,370.0 385.3,370.0 385.8,370.0 386.3,370.0 386.8,370.0 387.3,370.0 387.9,370.0 388.4,370.0 388.9,370.0 389.4,370.0 389.9,370.0 390.4,370.0 390.9,370.0 391.4,370.0 391.9,370.0 392.4,370.0 392.9,370.0 393.4,370.0 393.9,370.0 394.4,370.0 395.0,370.0 395.5,370.0 396.0,370.0 396.5,370.0 397.0,370.0 397.5,370.0 398.0,370.0 398.5,370.0 399.0,370.0 399.5,370.0 400.0,370.0 400.5,370.0 401.0,370.0 401.5,370.0 402.0,370.0 402.6,370.0 403.1,370.0 403.6,370.0 404.1,370.0 404.6,370.0 405.1,370.0 405.6,370.0 406.1,370.0 406.6,370.0 407.1,370.0 407.6,370.0 408.1,370.0 408.6,370.0 409.1,370.0 409.7,370.0 410.2,370.0 410.7,370.0 411.2,370.0 411.7,370.0 412.2,370.0 412.7,370.0 413.2,370.0 413.7,370.0 414.2,370.0 414.7,370.0 415.2,370.0 415.7,370.0 416.2,370.0 416.8,370.0 417.3,370.0 417.8,370.0 418.3,370.0 418.8,370.0 419.3,370.0 419.8,370.0 420.3,370.0 420.8,370.0 421.3,370.0 421.8,370.0 422.3,370.0 422.8,370.0 423.3,370.0 423.8,370.0 424.4,370.0 424.9,370.0 425.4,370.0 425.9,370.0 426.4,370.0 426.9,370.0 427.4,370.0 427.9,370.0 428.4,370.0 428.9,370.0 429.4,370.0 429.9,370.0 430.4,370.0 430.9,370.0 431.5,370.0 432.0,370.0 432.5,370.0 433.0,370.0 433.5,370.0 434.0,370.0 434.5,370.0 435.0,370.0 435.5,370.0 436.0,370.0 436.5,370.0 437.0,370.0 437.5,370.0 438.0,370.0 438.5,370.0 439.1,370.0 439.6,370.0 440.1,370.0 440.6,370.0 441.1,370.0 441.6,370.0 442.1,370.0 442.6,370.0 443.1,370.0 443.6,370.0 444.1,370.0 444.6,370.0 445.1,370.0 445.6,370.0 446.2,370.0 446.7,370.0 447.2,370.0 447.7,370.0 448.2,370.0 448.7,370.0 449.2,370.0 449.7,370.0 450.2,370.0 450.7,370.0 451.2,370.0 451.7,370.0 452.2,370.0 452.7,370.0 453.2,370.0 453.8,370.0 454.3,370.0 454.8,370.0 455.3,370.0 455.8,370.0 456.3,370.0 456.8,370.0 457.3,370.0 457.8,370.0 458.3,370.0 458.8,370.0 459.3,370.0 459.8,370.0 460.3,370.0 460.9,370.0 461.4,370.0 461.9,370.0 462.4,370.0 462.9,370.0 463.4,370.0 463.9,370.0 464.4,370.0 464.9,370.0 465.4,370.0 465.9,370.0 466.4,370.0 466.9,370.0 467.4,370.0 468.0,370.0 468.5,370.0 469.0,370.0 469.5,370.0 470.0,370.0 470.5,370.0 471.0,370.0 471.5,370.0 472.0,370.0 472.5,370.0 473.0,370.0 473.5,370.0 474.0,370.0 474.5,370.0 475.0,370.0 475.6,370.0 476.1,370.0 476.6,370.0 477.1,370.0 477.6,370.0 478.1,370.0 478.6,370.0 479.1,370.0 479.6,370.0 480.1,370.0 480.6,370.0 481.1,370.0 481.6,370.0 482.1,370.0 482.7,370.0 483.2,370.0 483.7,370.0 484.2,370.0 484.7,370.0 485.2,370.0 485.7,370.0 486.2,370.0 486.7,370.0 487.2,370.0 487.7,370.0 488.2,370.0 488.7,370.0 489.2,370.0 489.7,370.0 490.3,370.0 490.8,370.0 491.3,370.0 491.8,370.0 492.3,370.0 492.8,370.0 493.3,370.0 493.8,370.0 494.3,370.0 494.8,370.0 495.3,370.0 495.8,370.0 496.3,370.0 496.8,370.0 497.4,370.0 497.9,370.0 498.4,370.0 498.9,370.0 499.4,370.0 499.9,370.0 500.4,370.0 500.9,370.0 501.4,370.0 501.9,370.0 502.4,370.0 502.9,370.0 503.4,370.0 503.9,370.0 504.5,370.0 505.0,370.0 505.5,370.0 506.0,370.0 506.5,370.0 507.0,370.0 507.5,370.0 508.0,370.0 508.5,370.0 509.0,370.0 509.5,370.0 510.0,370.0 510.5,370.0 511.0,370.0 511.5,370.0 512.1,370.0 512.6,370.0 513.1,370.0 513.6,370.0 514.1,370.0 514.6,370.0 515.1,370.0 515.6,370.0 516.1,370.0 516.6,370.0 517.1,370.0 517.6,370.0 518.1,370.0 518.6,370.0 519.2,370.0 519.7,370.0 520.2,370.0 520.7,370.0 521.2,370.0 521.7,370.0 522.2,370.0 522.7,370.0 523.2,370.0 523.7,370.0 524.2,370.0 524.7,370.0 525.2,370.0 525.7,370.0 526.2,370.0 526.8,370.0 527.3,370.0 527.8,370.0 528.3,370.0 528.8,370.0 529.3,370.0 529.8,370.0 530.3,370.0 530.8,370.0 531.3,370.0 531.8,370.0 532.3,370.0 532.8,370.0 533.3,370.0 533.9,370.0 534.4,370.0 534.9,370.0 535.4,370.0 535.9,370.0 536.4,370.0 536.9,370.0 537.4,370.0 537.9,370.0 538.4,370.0 538.9,370.0 539.4,370.0 539.9,370.0 540.4,370.0 541.0,370.0 541.5,370.0 542.0,370.0 542.5,370.0 543.0,370.0 543.5,370.0 544.0,370.0 544.5,370.0 545.0,370.0 545.5,370.0 546.0,370.0 546.5,370.0 547.0,370.0 547.5,370.0 548.0,370.0 548.6,370.0 549.1,370.0 549.6,370.0 550.1,370.0 550.6,370.0 551.1,370.0 551.6,370.0 552.1,370.0 552.6,370.0 553.1,370.0 553.6,370.0 554.1,370.0 554.6,370.0 555.1,370.0 555.7,370.0 556.2,370.0 556.7,370.0 557.2,370.0 557.7,370.0 558.2,370.0 558.7,370.0 559.2,370.0 559.7,370.0 560.2,370.0 560.7,370.0 561.2,370.0 561.7,370.0 562.2,370.0 562.8,370.0 563.3,370.0 563.8,370.0 564.3,370.0 564.8,370.0 565.3,370.0 565.8,370.0 566.3,370.0 566.8,370.0 567.3,370.0 567.8,370.0 568.3,370.0 568.8,370.0 569.3,370.0 569.8,370.0 570.4,370.0 570.9,370.0 571.4,370.0 571.9,370.0 572.4,370.0 572.9,370.0 573.4,370.0 573.9,370.0 574.4,370.0 574.9,370.0 575.4,370.0 575.9,370.0 576.4,370.0 576.9,370.0 577.5,370.0 578.0,370.0 578.5,370.0 579.0,370.0 579.5,370.0 580.0,370.0 580.5,370.0 581.0,370.0 581.5,370.0 582.0,370.0 582.5,370.0 583.0,370.0 583.5,370.0 584.0,370.0 584.5,370.0 585.1,370.0 585.6,370.0 586.1,370.0 586.6,370.0 587.1,370.0 587.6,370.0 588.1,370.0 588.6,370.0 589.1,370.0 589.6,370.0 590.1,370.0 590.6,370.0 591.1,370.0 591.6,370.0 592.2,370.0 592.7,370.0 593.2,370.0 593.7,370.0 594.2,370.0 594.7,370.0 595.2,370.0 595.7,370.0 596.2,370.0 596.7,370.0 597.2,370.0 597.7,370.0 598.2,370.0 598.7,370.0 599.2,370.0 599.8,370.0 600.3,370.0 600.8,370.0 601.3,370.0 601.8,370.0 602.3,370.0 602.8,370.0 603.3,370.0 603.8,370.0 604.3,370.0 604.8,370.0 605.3,370.0 605.8,370.0 606.3,370.0 606.9,370.0 607.4,370.0 607.9,370.0 608.4,370.0 608.9,370.0 609.4,370.0 609.9,370.0 610.4,370.0 610.9,370.0 611.4,370.0 611.9,370.0 612.4,370.0 612.9,370.0 613.4,370.0 614.0,370.0 614.5,370.0 615.0,370.0 615.5,370.0 616.0,370.0 616.5,370.0 617.0,370.0 617.5,370.0 618.0,370.0 618.5,370.0 619.0,370.0 619.5,370.0 620.0,370.0 620.5,370.0 621.0,370.0 621.6,370.0 622.1,370.0 622.6,370.0 623.1,370.0 623.6,370.0 624.1,370.0 624.6,370.0 625.1,370.0 625.6,370.0 626.1,370.0 626.6,370.0 627.1,370.0 627.6,370.0 628.1,370.0 628.7,370.0 629.2,370.0 629.7,370.0 630.2,370.0 630.7,370.0 631.2,370.0 631.7,370.0 632.2,370.0 632.7,370.0 633.2,370.0 633.7,370.0 634.2,370.0 634.7,370.0 635.2,370.0 635.8,370.0 636.3,370.0 636.8,370.0 637.3,370.0 637.8,370.0 638.3,370.0 638.8,370.0 639.3,370.0 639.8,370.0 640.3,370.0 640.8,370.0 641.3,370.0 641.8,370.0 642.3,370.0 642.8,370.0 643.4,370.0 643.9,370.0 644.4,370.0 644.9,370.0 645.4,370.0 645.9,370.0 646.4,370.0 646.9,370.0 647.4,370.0 647.9,370.0 648.4,370.0 648.9,370.0 649.4,370.0 649.9,370.0 650.5,370.0 651.0,370.0 651.5,370.0 652.0,370.0 652.5,370.0 653.0,370.0 653.5,370.0 654.0,370.0 654.5,370.0 655.0,370.0 655.5,370.0 656.0,370.0 656.5,370.0 657.0,370.0 657.5,370.0 658.1,370.0 658.6,370.0 659.1,370.0 659.6,370.0 660.1,370.0 660.6,370.0 661.1,370.0 661.6,370.0 662.1,370.0 662.6,370.0 663.1,370.0 663.6,370.0 664.1,370.0 664.6,370.0 665.2,370.0 665.7,370.0 666.2,370.0 666.7,370.0 667.2,370.0 667.7,370.0 668.2,370.0 668.7,370.0 669.2,370.0 669.7,370.0 670.2,370.0 670.7,370.0 671.2,370.0 671.7,370.0 672.2,370.0 672.8,370.0 673.3,370.0 673.8,370.0 674.3,370.0 674.8,370.0 675.3,370.0 675.8,370.0 676.3,370.0 676.8,370.0 677.3,370.0 677.8,370.0 678.3,370.0 678.8,370.0 679.3,370.0 679.9,370.0 680.4,370.0 680.9,370.0 681.4,370.0 681.9,370.0 682.4,370.0 682.9,370.0 683.4,370.0 683.9,370.0 684.4,370.0 684.9,370.0 685.4,370.0 685.9,370.0 686.4,370.0 687.0,370.0 687.5,370.0 688.0,370.0 688.5,370.0 689.0,370.0 689.5,370.0 690.0,370.0 690.5,370.0 691.0,370.0 691.5,370.0 692.0,370.0 692.5,370.0 693.0,370.0 693.5,370.0 694.0,370.0 694.6,370.0 695.1,370.0 695.6,370.0 696.1,370.0 696.6,370.0 697.1,370.0 697.6,370.0 698.1,370.0 698.6,370.0 699.1,370.0 699.6,370.0 700.1,370.0 700.6,370.0 701.1,370.0 701.7,370.0 702.2,370.0 702.7,370.0 703.2,370.0 703.7,370.0 704.2,370.0 704.7,370.0 705.2,370.0 705.7,370.0 706.2,370.0 706.7,370.0 707.2,370.0 707.7,370.0 708.2,370.0 708.8,370.0 709.3,370.0 709.8,370.0 710.3,370.0 710.8,370.0 711.3,370.0 711.8,370.0 712.3,370.0 712.8,370.0 713.3,370.0 713.8,370.0 714.3,370.0 714.8,370.0 715.3,370.0 715.8,370.0 716.4,370.0 716.9,370.0 717.4,370.0 717.9,370.0 718.4,370.0 718.9,370.0 719.4,370.0 719.9,370.0 720.4,370.0 720.9,370.0 721.4,370.0 721.9,370.0 722.4,370.0 722.9,370.0 723.5,370.0 724.0,370.0 724.5,370.0 725.0,370.0 725.5,370.0 726.0,370.0 726.5,370.0 727.0,370.0 727.5,370.0 728.0,370.0 728.5,370.0 729.0,370.0 729.5,370.0 730.0,370.0 730.5,370.0 731.1,370.0 731.6,370.0 732.1,370.0 732.6,370.0 733.1,370.0 733.6,370.0 734.1,370.0 734.6,370.0 735.1,370.0 735.6,370.0 736.1,370.0 736.6,370.0 737.1,370.0 737.6,370.0 738.2,370.0 738.7,370.0 739.2,370.0 739.7,370.0 740.2,370.0 740.7,370.0 741.2,370.0 741.7,370.0 742.2,370.0 742.7,370.0 743.2,370.0 743.7,370.0 744.2,370.0 744.7,370.0 745.2,370.0 745.8,370.0 746.3,370.0 746.8,370.0 747.3,370.0 747.8,370.0 748.3,370.0 748.8,370.0 749.3,370.0 749.8,370.0 750.3,370.0 750.8,370.0 751.3,370.0 751.8,370.0 752.3,370.0 752.9,370.0 753.4,370.0 753.9,370.0 754.4,370.0 754.9,370.0 755.4,370.0 755.9,370.0 756.4,370.0 756.9,370.0 757.4,370.0 757.9,370.0 758.4,370.0 758.9,370.0 759.4,370.0 760.0,370.0 760.5,370.0 761.0,370.0 761.5,370.0 762.0,370.0 762.5,370.0 763.0,370.0 763.5,370.0 764.0,370.0 764.5,370.0 765.0,370.0 765.5,370.0 766.0,370.0 766.5,370.0 767.0,370.0 767.6,370.0 768.1,370.0 768.6,370.0 769.1,370.0 769.6,370.0 770.1,370.0 770.6,370.0 771.1,370.0 771.6,370.0 772.1,370.0 772.6,370.0 773.1,370.0 773.6,370.0 774.1,370.0 774.7,370.0 775.2,370.0 775.7,370.0 776.2,370.0 776.7,370.0 777.2,370.0 777.7,370.0 778.2,370.0 778.7,370.0 779.2,370.0 779.7,370.0 780.2,370.0 780.7,370.0 781.2,370.0 781.8,370.0 782.3,370.0 782.8,370.0 783.3,370.0 783.8,370.0 784.3,370.0 784.8,370.0 785.3,370.0 785.8,370.0 786.3,370.0 786.8,370.0 787.3,370.0 787.8,370.0 788.3,370.0 788.8,370.0 789.4,370.0 789.9,370.0 790.4,370.0 790.9,370.0 791.4,370.0 791.9,370.0 792.4,370.0 792.9,370.0 793.4,370.0 793.9,370.0 794.4,370.0 794.9,370.0 795.4,370.0 795.9,370.0 796.5,370.0 797.0,370.0 797.5,370.0 798.0,370.0 798.5,370.0 799.0,370.0 799.5,370.0 800.0,370.0"/><text x="435" y="408" text-anchor="middle">time (s)</text><text x="80" y="44" fill="#d2925e">classical: csac-sa45s</text><text x="80" y="60" fill="#e0bd84">quantum: optical-sr-lattice</text><text x="812" y="414" text-anchor="end" fill="#62594b" font-size="10" font-family="sans-serif">Kshana v0.22.0 · scenario 0929f346eae2 · kshana.dev</text></svg>