<svg xmlns="http://www.w3.org/2000/svg" width="820" height="420" font-family="Geist, ui-sans-serif, system-ui, sans-serif" font-size="12" fill="#A7B4D2"><rect width="820" height="420" fill="#060A14"/><text x="70" y="18" font-size="15" font-weight="bold">holdover_s vs classical_q_wf (log scale)</text><line x1="70" y1="365.0" x2="800" y2="365.0" stroke="#161C2B"/><text x="64" y="369.0" text-anchor="end" fill="#8190B0" font-size="11">0</text><line x1="70" y1="281.2" x2="800" y2="281.2" stroke="#161C2B"/><text x="64" y="285.2" text-anchor="end" fill="#8190B0" font-size="11">1650</text><line x1="70" y1="197.5" x2="800" y2="197.5" stroke="#161C2B"/><text x="64" y="201.5" text-anchor="end" fill="#8190B0" font-size="11">3300</text><line x1="70" y1="113.8" x2="800" y2="113.8" stroke="#161C2B"/><text x="64" y="117.8" text-anchor="end" fill="#8190B0" font-size="11">4950</text><line x1="70" y1="30.0" x2="800" y2="30.0" stroke="#161C2B"/><text x="64" y="34.0" text-anchor="end" fill="#8190B0" font-size="11">6600</text><text x="16" y="197.5" text-anchor="middle" fill="#8190B0" font-size="12" transform="rotate(-90 16 197.5)">holdover_s</text><line x1="70" y1="30" x2="70" y2="365" stroke="#343F57"/><line x1="70" y1="365" x2="800" y2="365" stroke="#343F57"/><polyline fill="none" stroke="#FFB547" stroke-width="2" points="70.0,232.5 100.4,232.5 130.8,232.5 161.2,232.5 191.7,232.5 222.1,232.5 252.5,232.5 282.9,232.5 313.3,232.5 343.8,233.0 374.2,233.5 404.6,233.5 435.0,234.6 465.4,238.6 495.8,239.6 526.2,240.6 556.7,247.8 587.1,252.3 617.5,260.4 647.9,269.6 678.3,309.2 708.8,323.4 739.2,329.0 769.6,343.2 800.0,352.3"/><polyline fill="none" stroke="#3DDCF7" stroke-width="2" points="70.0,30.0 100.4,30.0 130.8,30.0 161.2,30.0 191.7,30.0 222.1,30.0 252.5,30.0 282.9,30.0 313.3,30.0 343.8,30.0 374.2,30.0 404.6,30.0 435.0,30.0 465.4,30.0 495.8,30.0 526.2,30.0 556.7,30.0 587.1,30.0 617.5,30.0 647.9,30.0 678.3,30.0 708.8,30.0 739.2,30.0 769.6,30.0 800.0,30.0"/><text x="70" y="383" text-anchor="start">1.00e-24</text><text x="800" y="383" text-anchor="end">1.00e-18</text><text x="435" y="410" text-anchor="middle">classical_q_wf</text><text x="80" y="44" fill="#FFB547">classical</text><text x="80" y="60" fill="#3DDCF7">quantum</text><text x="812" y="414" text-anchor="end" fill="#8190B0" font-size="10" font-family="Geist, ui-sans-serif, system-ui, sans-serif">Kshana v0.32.0 · scenario 4b4f4e12fe27 · kshana.dev</text></svg>